<svg xmlns='http://www.w3.org/2000/svg' width='7680' height='4320' viewBox='0 0 7680 4320'>
<path d="M 4.03 1738.41 L 8.06 1739.22 L 12.09 1740.04 L 16.12 1740.85 L 20.15 1741.66 L 24.18 1742.47 L 28.21 1743.28 L 32.24 1744.10 L 36.27 1744.91 L 40.30 1745.72 L 44.33 1746.53 L 48.36 1747.34 L 52.39 1748.16 L 56.42 1748.97 L 60.45 1749.78 L 64.48 1750.59 L 68.51 1751.40 L 72.54 1752.22 L 76.57 1753.03 L 80.59 1753.84 L 84.62 1754.65 L 88.65 1755.46 L 92.68 1756.28 L 96.71 1757.09 L 100.74 1757.90 L 104.77 1758.71 L 108.80 1759.52 L 112.83 1760.33 L 116.86 1761.15 L 120.89 1761.96 L 124.92 1762.77 L 128.95 1763.58 L 132.98 1764.39 L 137.01 1765.21 L 141.04 1766.02 L 145.07 1766.83 L 149.10 1767.64 L 153.13 1768.45 L 157.16 1769.27 L 161.19 1770.08 L 165.22 1770.89 L 169.25 1771.70 L 173.28 1772.51 L 177.31 1773.33 L 181.34 1774.14 L 185.37 1774.95 L 189.40 1775.76 L 193.43 1776.57 L 197.46 1777.39 L 201.49 1778.20 L 205.52 1779.01 L 209.55 1779.82 L 213.58 1780.63 L 217.61 1781.45 L 221.64 1782.26 L 225.67 1783.07 L 229.70 1783.88 L 233.72 1784.69 L 237.75 1785.51 L 241.78 1786.32 L 245.81 1787.13 L 249.84 1787.94 L 253.87 1788.75 L 257.90 1789.57 L 261.93 1790.38 L 265.96 1791.19 L 269.99 1792.00 L 274.02 1792.81 L 278.05 1793.63 L 282.08 1794.44 L 286.11 1795.25 L 290.14 1796.06 L 294.17 1796.87 L 298.20 1797.69 L 302.23 1798.50 L 306.26 1799.31 L 310.29 1800.12 L 314.32 1800.93 L 318.35 1801.75 L 322.38 1802.56 L 326.41 1803.37 L 330.44 1804.18 L 334.47 1804.99 L 338.50 1805.80 L 342.53 1806.62 L 346.56 1807.43 L 350.59 1808.24 L 354.62 1809.05 L 358.65 1809.86 L 362.68 1810.68 L 366.71 1811.49 L 370.74 1812.30 L 374.77 1813.11 L 378.80 1813.92 L 382.83 1814.74 L 386.85 1815.55 L 390.88 1816.36 L 394.91 1817.17 L 398.94 1817.98 L 402.97 1818.80 L 407.00 1819.61 L 411.03 1820.42 L 415.06 1821.23 L 419.09 1822.04 L 423.12 1822.86 L 427.15 1823.67 L 431.18 1824.48 L 435.21 1825.29 L 439.24 1826.10 L 443.27 1826.92 L 447.30 1827.73 L 451.33 1828.54 L 455.36 1829.35 L 459.39 1830.16 L 463.42 1830.98 L 467.45 1831.79 L 471.48 1832.60 L 475.51 1833.41 L 479.54 1834.22 L 483.57 1835.04 L 487.60 1835.85 L 491.63 1836.66 L 495.66 1837.47 L 499.69 1838.28 L 503.72 1839.10 L 507.75 1839.91 L 511.78 1840.72 L 515.81 1841.53 L 519.84 1842.34 L 523.87 1843.16 L 527.90 1843.97 L 531.93 1844.78 L 535.96 1845.59 L 539.99 1846.40 L 544.01 1847.21 L 548.04 1848.03 L 552.07 1848.84 L 556.10 1849.65 L 560.13 1850.46 L 564.16 1851.27 L 568.19 1852.09 L 572.22 1852.90 L 576.25 1853.71 L 580.28 1854.52 L 584.31 1855.33 L 588.34 1856.15 L 592.37 1856.96 L 596.40 1857.77 L 600.43 1858.58 L 604.46 1859.39 L 608.49 1860.21 L 612.52 1861.02 L 616.55 1861.83 L 620.58 1862.64 L 624.61 1863.45 L 628.64 1864.27 L 632.67 1865.08 L 636.70 1865.89 L 640.73 1866.69 L 644.77 1867.45 L 648.81 1868.19 L 652.86 1868.90 L 656.91 1869.61 L 660.96 1870.32 L 665.01 1871.03 L 669.06 1871.74 L 673.11 1872.45 L 677.16 1873.16 L 681.21 1873.87 L 685.25 1874.58 L 689.30 1875.29 L 693.35 1876.00 L 697.40 1876.71 L 701.45 1877.42 L 705.50 1878.13 L 709.55 1878.84 L 713.60 1879.55 L 717.65 1880.26 L 721.69 1880.97 L 725.74 1881.68 L 729.79 1882.39 L 733.84 1883.10 L 737.89 1883.81 L 741.94 1884.52 L 745.99 1885.23 L 750.04 1885.94 L 754.09 1886.65 L 758.13 1887.36 L 762.18 1888.07 L 766.23 1888.78 L 770.28 1889.49 L 774.33 1890.21 L 778.38 1890.92 L 782.43 1891.63 L 786.48 1892.34 L 790.53 1893.05 L 794.57 1893.76 L 798.62 1894.47 L 802.67 1895.18 L 806.72 1895.89 L 810.77 1896.60 L 814.82 1897.31 L 818.87 1898.02 L 822.92 1898.73 L 826.97 1899.44 L 831.01 1900.15 L 835.06 1900.86 L 839.11 1901.57 L 843.16 1902.28 L 847.21 1902.99 L 851.26 1903.70 L 855.31 1904.41 L 859.36 1905.12 L 863.41 1905.83 L 867.45 1906.54 L 871.50 1907.25 L 875.55 1907.96 L 879.60 1908.67 L 883.65 1909.38 L 887.70 1910.09 L 891.75 1910.80 L 895.80 1911.52 L 899.85 1912.23 L 903.89 1912.94 L 907.94 1913.65 L 911.99 1914.36 L 916.04 1915.07 L 920.09 1915.78 L 924.14 1916.49 L 928.19 1917.20 L 932.24 1917.91 L 936.29 1918.62 L 940.33 1919.33 L 944.38 1920.04 L 948.43 1920.75 L 952.48 1921.46 L 956.53 1922.17 L 960.58 1922.88 L 964.63 1923.59 L 968.68 1924.30 L 972.73 1925.01 L 976.77 1925.72 L 980.82 1926.43 L 984.87 1927.14 L 988.92 1927.85 L 992.97 1928.56 L 997.02 1929.27 L 1001.07 1929.98 L 1005.12 1930.69 L 1009.17 1931.40 L 1013.21 1932.11 L 1017.26 1932.83 L 1021.31 1933.54 L 1025.36 1934.25 L 1029.41 1934.96 L 1033.46 1935.67 L 1037.51 1936.38 L 1041.56 1937.09 L 1045.61 1937.80 L 1049.65 1938.51 L 1053.70 1939.22 L 1057.75 1939.93 L 1061.80 1940.64 L 1065.85 1941.35 L 1069.90 1942.06 L 1073.95 1942.77 L 1078.00 1943.48 L 1082.05 1944.19 L 1086.09 1944.90 L 1090.14 1945.61 L 1094.19 1946.32 L 1098.24 1947.03 L 1102.29 1947.74 L 1106.34 1948.45 L 1110.39 1949.16 L 1114.44 1949.87 L 1118.49 1950.58 L 1122.53 1951.29 L 1126.58 1952.00 L 1130.63 1952.71 L 1134.68 1953.42 L 1138.73 1954.14 L 1142.78 1954.85 L 1146.83 1955.56 L 1150.88 1956.27 L 1154.93 1956.98 L 1158.97 1957.69 L 1163.02 1958.40 L 1167.07 1959.11 L 1171.12 1959.82 L 1175.17 1960.53 L 1179.22 1961.24 L 1183.27 1961.95 L 1187.32 1962.65 L 1191.38 1963.31 L 1195.44 1963.93 L 1199.51 1964.52 L 1203.57 1965.11 L 1207.64 1965.70 L 1211.71 1966.29 L 1215.78 1966.88 L 1219.85 1967.47 L 1223.92 1968.07 L 1227.98 1968.66 L 1232.05 1969.25 L 1236.12 1969.84 L 1240.19 1970.43 L 1244.26 1971.02 L 1248.32 1971.61 L 1252.39 1972.20 L 1256.46 1972.79 L 1260.53 1973.38 L 1264.60 1973.97 L 1268.66 1974.56 L 1272.73 1975.15 L 1276.80 1975.74 L 1280.87 1976.33 L 1284.94 1976.92 L 1289.00 1977.51 L 1293.07 1978.10 L 1297.14 1978.69 L 1301.21 1979.29 L 1305.28 1979.88 L 1309.34 1980.47 L 1313.41 1981.06 L 1317.48 1981.65 L 1321.55 1982.24 L 1325.62 1982.83 L 1329.69 1983.42 L 1333.75 1984.01 L 1337.82 1984.60 L 1341.89 1985.19 L 1345.96 1985.78 L 1350.03 1986.37 L 1354.09 1986.96 L 1358.16 1987.55 L 1362.23 1988.14 L 1366.30 1988.73 L 1370.37 1989.32 L 1374.43 1989.91 L 1378.50 1990.51 L 1382.57 1991.10 L 1386.64 1991.69 L 1390.71 1992.28 L 1394.77 1992.87 L 1398.84 1993.46 L 1402.91 1994.05 L 1406.98 1994.64 L 1411.05 1995.23 L 1415.12 1995.82 L 1419.18 1996.41 L 1423.25 1997.00 L 1427.32 1997.59 L 1431.39 1998.18 L 1435.46 1998.77 L 1439.52 1999.36 L 1443.59 1999.95 L 1447.66 2000.54 L 1451.73 2001.13 L 1455.80 2001.73 L 1459.86 2002.32 L 1463.93 2002.91 L 1468.00 2003.50 L 1472.07 2004.09 L 1476.14 2004.68 L 1480.20 2005.27 L 1484.27 2005.86 L 1488.34 2006.45 L 1492.41 2007.04 L 1496.48 2007.63 L 1500.55 2008.22 L 1504.61 2008.81 L 1508.68 2009.40 L 1512.75 2009.99 L 1516.82 2010.58 L 1520.89 2011.17 L 1524.95 2011.76 L 1529.02 2012.35 L 1533.09 2012.95 L 1537.16 2013.54 L 1541.23 2014.13 L 1545.29 2014.72 L 1549.36 2015.31 L 1553.43 2015.90 L 1557.50 2016.49 L 1561.57 2017.08 L 1565.63 2017.67 L 1569.70 2018.26 L 1573.77 2018.85 L 1577.84 2019.44 L 1581.91 2020.03 L 1585.98 2020.62 L 1590.04 2021.21 L 1594.11 2021.80 L 1598.18 2022.39 L 1602.25 2022.98 L 1606.32 2023.57 L 1610.38 2024.17 L 1614.45 2024.76 L 1618.52 2025.35 L 1622.59 2025.94 L 1626.66 2026.53 L 1630.72 2027.12 L 1634.79 2027.71 L 1638.86 2028.30 L 1642.93 2028.89 L 1647.00 2029.48 L 1651.06 2030.07 L 1655.13 2030.66 L 1659.20 2031.25 L 1663.27 2031.84 L 1667.34 2032.43 L 1671.40 2033.02 L 1675.47 2033.61 L 1679.54 2034.20 L 1683.61 2034.79 L 1687.68 2035.39 L 1691.75 2035.98 L 1695.81 2036.57 L 1699.88 2037.16 L 1703.95 2037.75 L 1708.02 2038.34 L 1712.09 2038.93 L 1716.15 2039.52 L 1720.22 2040.11 L 1724.29 2040.70 L 1728.36 2041.29 L 1732.43 2041.88 L 1736.49 2042.47 L 1740.56 2043.06 L 1744.63 2043.65 L 1748.70 2044.24 L 1752.77 2044.83 L 1756.83 2045.42 L 1760.90 2046.01 L 1764.97 2046.61 L 1769.04 2047.20 L 1773.11 2047.79 L 1777.18 2048.38 L 1781.24 2048.97 L 1785.32 2049.38 L 1789.42 2049.59 L 1793.53 2049.60 L 1797.64 2049.60 L 1801.75 2049.60 L 1805.86 2049.60 L 1809.97 2049.60 L 1814.08 2049.60 L 1818.19 2049.60 L 1822.30 2049.60 L 1826.41 2049.69 L 1830.49 2050.01 L 1834.56 2050.56 L 1838.61 2051.24 L 1842.67 2051.91 L 1846.72 2052.59 L 1850.78 2053.26 L 1854.83 2053.94 L 1858.89 2054.61 L 1862.94 2055.29 L 1867.00 2055.97 L 1871.05 2056.64 L 1875.11 2057.32 L 1879.16 2057.99 L 1883.22 2058.67 L 1887.27 2059.35 L 1891.32 2060.02 L 1895.38 2060.70 L 1899.43 2061.37 L 1903.49 2062.05 L 1907.54 2062.72 L 1911.60 2063.40 L 1915.65 2064.08 L 1919.71 2064.75 L 1923.76 2065.43 L 1927.82 2066.10 L 1931.87 2066.78 L 1935.93 2067.45 L 1939.98 2068.12 L 1943.91 2067.95 L 1947.71 2066.94 L 1951.44 2065.44 L 1955.29 2064.76 L 1959.28 2064.91 L 1963.33 2065.56 L 1967.39 2066.21 L 1971.45 2066.86 L 1975.51 2067.51 L 1979.57 2068.16 L 1983.63 2068.80 L 1987.69 2069.45 L 1991.75 2070.10 L 1995.81 2070.75 L 1999.87 2071.40 L 2003.93 2072.05 L 2007.98 2072.70 L 2012.04 2073.35 L 2016.10 2074.00 L 2020.16 2074.65 L 2024.22 2075.30 L 2028.28 2075.95 L 2032.34 2076.60 L 2036.40 2077.25 L 2040.46 2077.90 L 2044.52 2078.55 L 2048.58 2079.20 L 2052.63 2079.85 L 2056.69 2080.49 L 2060.75 2081.14 L 2064.81 2081.79 L 2068.87 2082.44 L 2072.61 2082.10 L 2076.03 2080.82 L 2079.43 2079.65 L 2083.12 2079.58 L 2087.11 2080.58 L 2091.10 2081.57 L 2095.08 2082.57 L 2099.07 2083.57 L 2103.06 2084.57 L 2107.05 2085.56 L 2111.04 2086.56 L 2114.97 2087.03 L 2118.79 2086.56 L 2122.52 2085.14 L 2126.30 2084.16 L 2130.19 2084.09 L 2134.20 2084.93 L 2138.21 2085.83 L 2142.23 2086.72 L 2146.24 2087.61 L 2150.25 2088.50 L 2154.26 2089.39 L 2158.28 2090.28 L 2162.29 2091.18 L 2166.31 2092.01 L 2170.36 2092.56 L 2174.44 2092.80 L 2178.55 2092.80 L 2182.66 2092.80 L 2186.78 2092.80 L 2190.89 2092.80 L 2195.00 2092.80 L 2199.11 2092.80 L 2203.22 2092.80 L 2207.33 2092.80 L 2211.44 2092.80 L 2215.55 2092.80 L 2219.66 2092.80 L 2223.77 2092.80 L 2227.88 2092.80 L 2231.94 2093.18 L 2235.95 2093.93 L 2239.90 2095.06 L 2243.85 2096.19 L 2247.80 2097.32 L 2251.76 2098.44 L 2255.71 2099.57 L 2259.66 2100.70 L 2263.62 2101.48 L 2267.59 2101.55 L 2271.57 2100.91 L 2275.56 2099.91 L 2279.55 2098.91 L 2283.54 2098.37 L 2287.52 2098.49 L 2291.51 2099.28 L 2295.50 2100.28 L 2299.49 2101.27 L 2303.48 2102.27 L 2307.46 2103.27 L 2311.45 2104.26 L 2315.44 2105.26 L 2319.43 2106.22 L 2323.38 2106.41 L 2327.31 2105.83 L 2331.21 2104.53 L 2335.13 2103.43 L 2339.12 2102.88 L 2343.18 2102.88 L 2347.27 2103.24 L 2351.37 2103.60 L 2355.46 2103.95 L 2359.56 2104.31 L 2363.65 2104.67 L 2367.75 2105.02 L 2371.84 2105.38 L 2375.94 2105.73 L 2380.03 2106.09 L 2384.13 2106.45 L 2388.22 2106.80 L 2392.32 2107.16 L 2396.42 2107.51 L 2400.51 2107.87 L 2404.61 2108.23 L 2408.70 2108.58 L 2412.80 2108.94 L 2416.89 2109.29 L 2420.99 2109.65 L 2425.08 2110.01 L 2429.18 2110.36 L 2433.27 2110.72 L 2437.37 2111.08 L 2441.46 2111.43 L 2445.56 2111.79 L 2449.65 2112.14 L 2453.75 2112.50 L 2457.84 2112.86 L 2461.94 2113.21 L 2466.04 2113.57 L 2470.13 2113.92 L 2474.23 2114.28 L 2478.32 2114.64 L 2482.42 2114.99 L 2486.51 2115.35 L 2490.61 2115.70 L 2494.70 2116.06 L 2498.80 2116.42 L 2502.89 2116.77 L 2506.99 2117.13 L 2511.08 2117.49 L 2515.18 2117.84 L 2519.27 2118.20 L 2523.37 2118.55 L 2527.46 2118.91 L 2531.56 2119.27 L 2535.65 2119.62 L 2539.75 2119.98 L 2543.85 2120.33 L 2547.94 2120.69 L 2552.04 2121.05 L 2556.13 2121.40 L 2560.23 2121.76 L 2564.32 2122.11 L 2568.42 2122.47 L 2572.51 2122.83 L 2576.61 2123.18 L 2580.70 2123.54 L 2584.80 2123.90 L 2588.89 2124.25 L 2592.99 2124.61 L 2597.08 2124.96 L 2601.18 2125.32 L 2605.27 2125.68 L 2609.37 2126.03 L 2613.46 2126.39 L 2617.56 2126.74 L 2621.66 2127.10 L 2625.75 2127.46 L 2629.85 2127.81 L 2633.94 2128.17 L 2638.04 2128.52 L 2642.13 2128.88 L 2646.23 2129.24 L 2650.32 2129.59 L 2654.42 2129.95 L 2658.51 2130.31 L 2662.61 2130.66 L 2666.70 2130.88 L 2670.79 2130.80 L 2674.87 2130.44 L 2678.95 2129.93 L 2683.03 2129.42 L 2687.11 2128.91 L 2691.19 2128.40 L 2695.26 2127.89 L 2699.34 2127.38 L 2703.42 2126.90 L 2707.50 2126.77 L 2711.58 2126.98 L 2715.65 2127.53 L 2719.73 2128.07 L 2723.80 2128.61 L 2727.87 2129.16 L 2731.95 2129.70 L 2736.02 2130.24 L 2740.10 2130.79 L 2744.17 2131.33 L 2748.25 2131.87 L 2752.32 2132.42 L 2756.40 2132.96 L 2760.47 2133.50 L 2764.55 2134.05 L 2768.62 2134.59 L 2772.70 2135.13 L 2776.77 2135.56 L 2780.86 2135.69 L 2784.95 2135.52 L 2789.05 2135.18 L 2793.14 2134.84 L 2797.24 2134.50 L 2801.34 2134.16 L 2805.43 2133.81 L 2809.53 2133.47 L 2813.63 2133.13 L 2817.72 2132.79 L 2821.82 2132.45 L 2825.92 2132.11 L 2830.01 2131.77 L 2834.11 2131.50 L 2838.21 2131.45 L 2842.30 2131.62 L 2846.40 2131.94 L 2850.50 2132.25 L 2854.60 2132.57 L 2858.70 2132.88 L 2862.80 2133.20 L 2866.90 2133.52 L 2871.00 2133.83 L 2875.09 2134.15 L 2879.19 2134.46 L 2883.29 2134.78 L 2887.39 2135.09 L 2891.49 2135.41 L 2895.59 2135.72 L 2899.69 2136.04 L 2903.78 2136.35 L 2907.88 2136.67 L 2911.98 2136.98 L 2916.08 2137.30 L 2920.18 2137.61 L 2924.28 2137.93 L 2928.38 2138.24 L 2932.47 2138.56 L 2936.57 2138.87 L 2940.67 2139.19 L 2944.77 2139.51 L 2948.87 2139.82 L 2952.97 2140.14 L 2957.07 2140.45 L 2961.17 2140.67 L 2965.27 2140.79 L 2969.39 2140.80 L 2973.50 2140.80 L 2977.61 2140.80 L 2981.72 2140.80 L 2985.83 2140.80 L 2989.94 2140.80 L 2994.05 2140.80 L 2998.16 2140.80 L 3002.27 2140.80 L 3006.38 2140.80 L 3010.49 2140.80 L 3014.60 2140.80 L 3018.71 2140.80 L 3022.82 2140.80 L 3026.94 2140.80 L 3031.05 2140.80 L 3035.16 2140.80 L 3039.27 2140.80 L 3043.38 2140.80 L 3047.49 2140.80 L 3051.60 2140.80 L 3055.71 2140.80 L 3059.82 2140.80 L 3063.93 2140.80 L 3068.04 2140.80 L 3072.15 2140.80 L 3076.26 2140.80 L 3080.37 2140.80 L 3084.49 2140.80 L 3088.60 2140.80 L 3092.71 2140.80 L 3096.82 2140.80 L 3100.93 2140.80 L 3105.04 2140.80 L 3109.15 2140.80 L 3113.26 2140.80 L 3117.37 2140.80 L 3121.48 2140.78 L 3125.59 2140.66 L 3129.69 2140.44 L 3133.79 2140.13 L 3137.89 2139.83 L 3141.99 2139.53 L 3146.09 2139.22 L 3150.19 2138.92 L 3154.29 2138.62 L 3158.39 2138.31 L 3162.49 2138.01 L 3166.59 2137.70 L 3170.68 2137.40 L 3174.78 2137.10 L 3178.88 2136.79 L 3182.98 2136.49 L 3187.08 2136.19 L 3191.18 2135.88 L 3195.28 2135.58 L 3199.38 2135.28 L 3203.48 2134.97 L 3207.58 2134.67 L 3211.68 2134.36 L 3215.78 2134.06 L 3219.88 2133.76 L 3223.98 2133.45 L 3228.08 2133.15 L 3232.18 2132.85 L 3236.28 2132.54 L 3240.38 2132.24 L 3244.48 2131.94 L 3248.58 2131.63 L 3252.67 2131.47 L 3256.77 2131.54 L 3260.86 2131.85 L 3264.95 2132.25 L 3269.04 2132.66 L 3273.13 2133.07 L 3277.22 2133.48 L 3281.31 2133.89 L 3285.40 2134.30 L 3289.49 2134.71 L 3293.58 2135.12 L 3297.67 2135.53 L 3301.76 2135.71 L 3305.85 2135.61 L 3309.94 2135.25 L 3314.03 2134.84 L 3318.12 2134.43 L 3322.21 2134.02 L 3326.30 2133.61 L 3330.39 2133.20 L 3334.49 2132.79 L 3338.58 2132.38 L 3342.67 2131.97 L 3346.76 2131.56 L 3350.85 2131.16 L 3354.94 2130.75 L 3359.03 2130.34 L 3363.12 2129.93 L 3367.21 2129.52 L 3371.30 2129.11 L 3375.39 2128.70 L 3379.48 2128.29 L 3383.57 2127.88 L 3387.66 2127.47 L 3391.75 2127.07 L 3395.84 2126.66 L 3399.93 2126.25 L 3404.02 2125.84 L 3408.11 2125.43 L 3412.20 2125.02 L 3416.29 2124.61 L 3420.38 2124.20 L 3424.47 2123.79 L 3428.56 2123.38 L 3432.65 2122.97 L 3436.74 2122.57 L 3440.83 2122.16 L 3444.92 2121.75 L 3449.01 2121.34 L 3453.10 2120.93 L 3457.20 2120.52 L 3461.29 2120.11 L 3465.38 2119.70 L 3469.47 2119.29 L 3473.56 2118.88 L 3477.65 2118.48 L 3481.74 2118.07 L 3485.83 2117.66 L 3489.92 2117.25 L 3493.88 2117.52 L 3497.71 2118.53 L 3501.44 2120.04 L 3505.27 2120.74 L 3509.21 2120.56 L 3513.24 2119.75 L 3517.27 2118.95 L 3521.31 2118.14 L 3525.34 2117.33 L 3529.37 2116.53 L 3533.40 2115.72 L 3537.43 2114.91 L 3541.46 2114.11 L 3545.49 2113.30 L 3549.38 2112.97 L 3552.89 2113.88 L 3556.29 2115.05 L 3559.80 2115.65 L 3563.68 2114.92 L 3567.64 2113.84 L 3571.61 2112.76 L 3575.57 2111.68 L 3579.54 2110.60 L 3583.51 2109.52 L 3587.47 2108.44 L 3591.44 2107.35 L 3595.40 2106.27 L 3599.37 2105.19 L 3603.33 2104.11 L 3607.22 2102.86 L 3610.93 2101.21 L 3614.46 2099.16 L 3617.88 2096.88 L 3621.30 2094.60 L 3624.72 2092.32 L 3628.14 2090.04 L 3631.56 2087.76 L 3634.98 2085.48 L 3638.40 2083.20 L 3710.40 2116.80 M 6002.57 1586.90 L 6000.35 1589.79 L 5998.12 1592.69 L 5995.89 1595.58 L 5993.66 1598.48 L 5991.44 1601.37 L 5989.21 1604.27 L 5986.98 1607.17 L 5984.75 1610.06 L 5982.53 1612.96 L 5980.30 1615.85 L 5978.07 1618.75 L 5975.84 1621.64 L 5973.62 1624.54 L 5971.39 1627.44 L 5969.16 1630.33 L 5966.93 1633.23 L 5964.71 1636.12 L 5962.48 1639.02 L 5960.25 1641.91 L 5958.14 1644.88 L 5956.30 1648.00 L 5954.71 1651.27 L 5953.27 1654.63 L 5951.83 1657.99 L 5950.39 1661.35 L 5948.96 1664.70 L 5947.52 1668.06 L 5946.08 1671.42 L 5944.64 1674.78 L 5943.33 1678.17 L 5942.31 1681.65 L 5941.59 1685.22 L 5941.03 1688.83 L 5940.47 1692.44 L 5939.90 1696.05 L 5939.34 1699.66 L 5938.78 1703.27 L 5938.22 1706.88 L 5937.66 1710.49 L 5937.10 1714.10 L 5936.53 1717.71 L 5935.97 1721.32 L 5935.41 1724.92 L 5934.85 1728.53 L 5934.29 1732.14 L 5933.73 1735.75 L 5933.17 1739.36 L 5932.60 1742.97 L 5932.04 1746.58 L 5931.48 1750.19 L 5930.92 1753.80 L 5930.36 1757.41 L 5929.80 1761.02 L 5929.23 1764.63 L 5928.67 1768.24 L 5928.11 1771.85 L 5927.55 1775.46 L 5926.99 1779.07 L 5926.43 1782.68 L 5925.87 1786.29 L 5925.30 1789.90 L 5924.74 1793.51 L 5924.18 1797.12 L 5923.62 1800.73 L 5923.06 1804.34 L 5922.50 1807.95 L 5921.93 1811.56 L 5921.37 1815.17 L 5920.81 1818.78 L 5920.25 1822.39 L 5919.69 1826.00 L 5919.13 1829.61 L 5918.57 1833.22 L 5918.00 1836.83 L 5917.44 1840.44 L 5916.88 1844.05 L 5916.32 1847.66 L 5915.76 1851.27 L 5915.20 1854.88 L 5914.63 1858.49 L 5914.07 1862.10 L 5913.51 1865.71 L 5912.95 1869.32 L 5912.39 1872.93 L 5911.83 1876.54 L 5911.27 1880.15 L 5910.70 1883.76 L 5910.14 1887.37 L 5909.58 1890.98 L 5908.94 1894.57 L 5908.16 1898.14 L 5907.24 1901.67 L 5906.28 1905.19 L 5905.31 1908.72 L 5904.34 1912.24 L 5903.37 1915.76 L 5902.41 1919.29 L 5901.44 1922.81 L 5900.47 1926.33 L 5899.51 1929.86 L 5898.54 1933.38 L 5897.57 1936.90 L 5896.61 1940.42 L 5895.64 1943.95 L 5894.67 1947.47 L 5893.70 1950.99 L 5892.74 1954.52 L 5891.77 1958.04 L 5890.80 1961.56 L 5889.84 1965.09 L 5888.87 1968.61 L 5887.90 1972.13 L 5886.93 1975.65 L 5885.97 1979.18 L 5885.00 1982.70 L 5884.03 1986.22 L 5883.07 1989.75 L 5882.10 1993.27 L 5881.13 1996.79 L 5880.16 2000.32 L 5879.20 2003.84 L 5878.23 2007.36 L 5877.26 2010.88 L 5876.30 2014.41 L 5875.33 2017.93 L 5874.36 2021.45 L 5873.39 2024.98 L 5872.43 2028.50 L 5871.46 2032.02 L 5870.49 2035.55 L 5869.53 2039.07 L 5868.56 2042.59 L 5867.59 2046.11 L 5866.62 2049.64 L 5865.66 2053.16 L 5864.69 2056.68 L 5863.72 2060.21 L 5862.76 2063.73 L 5861.79 2067.25 L 5860.82 2070.78 L 5859.86 2074.30 L 5858.89 2077.82 L 5857.92 2081.34 L 5856.95 2084.87 L 5855.99 2088.39 L 5855.02 2091.91 L 5854.05 2095.44 L 5853.09 2098.96 L 5852.12 2102.48 L 5851.15 2106.01 L 5850.18 2109.53 L 5849.22 2113.05 L 5848.25 2116.57 L 5847.28 2120.10 L 5846.32 2123.62 L 5845.35 2127.14 L 5844.38 2130.67 L 5843.41 2134.19 L 5842.43 2137.71 L 5841.30 2141.18 L 5840.04 2144.60 L 5838.65 2147.97 L 5837.25 2151.35 L 5835.86 2154.73 L 5834.47 2158.11 L 5833.08 2161.49 L 5831.69 2164.86 L 5830.30 2168.24 L 5828.91 2171.62 L 5827.52 2175.00 L 5826.13 2178.38 L 5824.74 2181.76 L 5823.34 2185.13 L 5821.95 2188.51 L 5820.56 2191.89 L 5819.17 2195.27 L 5817.78 2198.65 L 5816.39 2202.02 L 5815.00 2205.40 L 5813.61 2208.78 L 5812.22 2212.16 L 5810.83 2215.54 L 5809.43 2218.92 L 5808.04 2222.29 L 5806.65 2225.67 L 5805.26 2229.05 L 5803.87 2232.43 L 5802.48 2235.81 L 5801.09 2239.18 L 5799.70 2242.56 L 5798.31 2245.94 L 5796.92 2249.32 L 5795.52 2252.70 L 5794.13 2256.08 L 5792.74 2259.45 L 5791.35 2262.83 L 5789.96 2266.21 L 5788.57 2269.59 L 5787.18 2272.97 L 5785.79 2276.34 L 5784.40 2279.72 L 5783.01 2283.10 L 5781.61 2286.48 L 5780.22 2289.86 L 5778.83 2293.24 L 5777.44 2296.61 L 5776.05 2299.99 L 5774.55 2303.32 L 5772.91 2306.57 L 5771.14 2309.77 L 5769.34 2312.95 L 5767.54 2316.13 L 5765.75 2319.31 L 5763.95 2322.49 L 5762.15 2325.67 L 5760.35 2328.85 L 5758.56 2332.03 L 5756.76 2335.21 L 5754.96 2338.39 L 5753.16 2341.57 L 5751.37 2344.75 L 5749.57 2347.93 L 5747.77 2351.11 L 5745.97 2354.29 L 5744.18 2357.47 L 5742.38 2360.65 L 5740.58 2363.84 L 5738.78 2367.02 L 5736.98 2370.20 L 5735.19 2373.38 L 5733.39 2376.56 L 5731.59 2379.74 L 5729.79 2382.92 L 5728.00 2386.10 L 5726.20 2389.28 L 5724.40 2392.46 L 5722.60 2395.64 L 5720.81 2398.82 L 5719.01 2402.00 L 5717.21 2405.18 L 5715.41 2408.36 L 5713.60 2411.53 L 5711.67 2414.62 L 5709.60 2417.63 L 5707.43 2420.57 L 5705.26 2423.50 L 5703.08 2426.44 L 5700.91 2429.38 L 5698.73 2432.31 L 5696.56 2435.25 L 5694.38 2438.18 L 5692.21 2441.12 L 5690.03 2444.05 L 5687.86 2446.99 L 5685.68 2449.93 L 5683.51 2452.86 L 5681.34 2455.80 L 5679.16 2458.73 L 5676.99 2461.67 L 5674.81 2464.60 L 5672.64 2467.54 L 5670.46 2470.48 L 5668.29 2473.41 L 5666.11 2476.35 L 5663.94 2479.28 L 5661.76 2482.22 L 5659.59 2485.15 L 5657.42 2488.09 L 5655.24 2491.02 L 5653.07 2493.96 L 5650.89 2496.90 L 5648.72 2499.83 L 5646.54 2502.77 L 5644.37 2505.70 L 5642.19 2508.64 L 5640.02 2511.57 L 5637.84 2514.51 L 5635.67 2517.45 L 5633.50 2520.38 L 5631.32 2523.32 L 5629.15 2526.25 L 5626.97 2529.19 L 5624.80 2532.12 L 5622.62 2535.06 L 5620.45 2538.00 L 5618.27 2540.93 L 5615.95 2543.74 L 5613.47 2546.40 L 5610.84 2548.94 L 5608.20 2551.46 L 5605.56 2553.99 L 5602.92 2556.51 L 5600.28 2559.04 L 5597.64 2561.56 L 5595.00 2564.09 L 5592.36 2566.61 L 5589.72 2569.14 L 5587.08 2571.66 L 5584.44 2574.19 L 5581.80 2576.71 L 5579.16 2579.24 L 5576.52 2581.76 L 5573.88 2584.29 L 5571.24 2586.82 L 5568.60 2589.34 L 5565.96 2591.87 L 5563.32 2594.39 L 5560.68 2596.92 L 5558.04 2599.44 L 5555.40 2601.97 L 5552.76 2604.49 L 5550.12 2607.02 L 5547.48 2609.54 L 5544.84 2612.07 L 5542.20 2614.59 L 5539.56 2617.12 L 5536.92 2619.64 L 5534.28 2622.17 L 5531.64 2624.69 L 5529.00 2627.22 L 5526.36 2629.74 L 5523.72 2632.27 L 5521.08 2634.80 L 5518.44 2637.32 L 5515.80 2639.85 L 5513.16 2642.37 L 5510.52 2644.90 L 5507.86 2647.40 L 5505.08 2649.75 L 5502.18 2651.95 L 5499.17 2654.02 L 5496.16 2656.09 L 5493.14 2658.16 L 5490.13 2660.23 L 5487.12 2662.30 L 5484.11 2664.37 L 5481.10 2666.44 L 5478.09 2668.51 L 5475.08 2670.58 L 5472.07 2672.65 L 5469.06 2674.72 L 5466.05 2676.79 L 5463.04 2678.86 L 5460.03 2680.93 L 5457.02 2683.00 L 5454.01 2685.07 L 5451.00 2687.14 L 5447.99 2689.21 L 5444.98 2691.28 L 5441.97 2693.35 L 5438.96 2695.42 L 5435.95 2697.49 L 5432.93 2699.56 L 5429.88 2701.55 L 5426.75 2703.43 L 5423.55 2705.18 L 5420.32 2706.89 L 5417.09 2708.60 L 5413.86 2710.31 L 5410.63 2712.02 L 5407.40 2713.73 L 5404.18 2715.44 L 5400.95 2717.15 L 5397.72 2718.86 L 5394.49 2720.56 L 5391.26 2722.27 L 5388.03 2723.98 L 5384.80 2725.69 L 5381.57 2727.40 L 5378.35 2729.11 L 5375.12 2730.82 L 5371.89 2732.53 L 5368.66 2734.24 L 5365.43 2735.95 L 5362.20 2737.66 L 5358.97 2739.37 L 5355.74 2741.08 L 5352.51 2742.79 L 5349.26 2744.43 L 5345.93 2745.91 L 5342.53 2747.22 L 5339.07 2748.41 L 5335.62 2749.61 L 5332.17 2750.80 L 5328.72 2752.00 L 5325.26 2753.19 L 5321.81 2754.39 L 5318.36 2755.58 L 5314.91 2756.78 L 5311.45 2757.97 L 5308.00 2759.17 L 5304.55 2760.36 L 5301.10 2761.56 L 5297.65 2762.75 L 5294.19 2763.95 L 5290.74 2765.14 L 5287.29 2766.34 L 5283.84 2767.53 L 5280.38 2768.73 L 5276.93 2769.92 L 5273.48 2771.12 L 5270.03 2772.31 L 5266.57 2773.51 L 5263.12 2774.70 L 5259.67 2775.90 L 5256.22 2777.09 L 5252.76 2778.29 L 5249.31 2779.48 L 5245.86 2780.68 L 5242.41 2781.87 L 5238.96 2783.07 L 5235.50 2784.26 L 5232.05 2785.46 L 5228.60 2786.65 L 5225.13 2787.80 L 5221.62 2788.74 L 5218.05 2789.45 L 5214.43 2789.99 L 5210.82 2790.54 L 5207.21 2791.08 L 5203.60 2791.62 L 5199.98 2792.16 L 5196.37 2792.70 L 5192.76 2793.25 L 5189.14 2793.79 L 5185.53 2794.33 L 5181.92 2794.87 L 5178.31 2795.41 L 5174.69 2795.96 L 5171.08 2796.50 L 5167.47 2797.04 L 5163.85 2797.58 L 5160.24 2798.12 L 5156.63 2798.67 L 5153.02 2799.21 L 5149.40 2799.75 L 5145.79 2800.29 L 5142.18 2800.83 L 5138.56 2801.38 L 5134.95 2801.92 L 5131.34 2802.46 L 5127.72 2803.00 L 5124.11 2803.54 L 5120.50 2804.09 L 5116.89 2804.63 L 5113.27 2805.17 L 5109.66 2805.71 L 5106.05 2806.25 L 5102.43 2806.79 L 5098.82 2807.34 L 5095.21 2807.88 L 5091.60 2808.42 L 5087.98 2808.96 L 5084.37 2809.50 L 5080.76 2810.05 L 5077.14 2810.59 L 5073.53 2811.13 L 5069.92 2811.67 L 5066.31 2812.21 L 5062.69 2812.76 L 5059.08 2813.30 L 5055.47 2813.84 L 5051.85 2814.38 L 5048.24 2814.92 L 5044.63 2815.47 L 5041.01 2816.01 L 5037.40 2816.55 L 5033.79 2817.08 L 5030.16 2817.36 L 5026.52 2817.41 L 5022.88 2817.23 L 5019.23 2817.05 L 5015.58 2816.88 L 5011.93 2816.70 L 5008.28 2816.52 L 5004.63 2816.34 L 5000.98 2816.16 L 4997.33 2815.99 L 4993.68 2815.81 L 4990.03 2815.63 L 4986.39 2815.45 L 4982.74 2815.27 L 4979.09 2815.10 L 4975.44 2814.92 L 4971.79 2814.74 L 4968.14 2814.56 L 4964.49 2814.38 L 4960.84 2814.21 L 4957.19 2814.03 L 4953.54 2813.85 L 4949.90 2813.67 L 4946.25 2813.49 L 4942.60 2813.32 L 4938.95 2813.14 L 4935.30 2812.96 L 4931.65 2812.78 L 4928.00 2812.60 L 4924.35 2812.43 L 4920.70 2812.25 L 4917.05 2812.07 L 4913.41 2811.89 L 4909.76 2811.71 L 4906.11 2811.54 L 4902.46 2811.36 L 4898.81 2811.18 L 4895.16 2811.00 L 4891.51 2810.82 L 4887.86 2810.65 L 4884.21 2810.47 L 4880.56 2810.29 L 4876.92 2810.11 L 4873.27 2809.93 L 4869.62 2809.76 L 4865.97 2809.58 L 4862.32 2809.40 L 4858.67 2809.22 L 4855.02 2809.04 L 4851.37 2808.87 L 4847.72 2808.69 L 4844.07 2808.51 L 4840.43 2808.33 L 4836.78 2808.13 L 4833.16 2807.75 L 4829.56 2807.17 L 4825.98 2806.44 L 4822.40 2805.71 L 4818.82 2804.98 L 4815.24 2804.25 L 4811.66 2803.52 L 4808.08 2802.79 L 4804.50 2802.06 L 4800.92 2801.33 L 4797.34 2800.60 L 4793.76 2799.87 L 4790.18 2799.14 L 4786.60 2798.41 L 4783.02 2797.68 L 4779.44 2796.95 L 4775.86 2796.22 L 4772.28 2795.49 L 4768.70 2794.76 L 4765.13 2794.03 L 4761.55 2793.30 L 4757.97 2792.56 L 4754.39 2791.83 L 4750.81 2791.10 L 4747.23 2790.37 L 4743.65 2789.64 L 4740.07 2788.91 L 4736.49 2788.18 L 4732.91 2787.45 L 4729.33 2786.72 L 4725.75 2785.99 L 4722.17 2785.26 L 4718.59 2784.53 L 4715.01 2783.80 L 4711.43 2783.07 L 4707.85 2782.34 L 4704.27 2781.61 L 4700.69 2780.88 L 4697.11 2780.15 L 4693.53 2779.42 L 4689.95 2778.68 L 4686.38 2777.95 L 4682.80 2777.22 L 4679.22 2776.49 L 4675.64 2775.76 L 4672.06 2775.03 L 4668.48 2774.30 L 4664.90 2773.57 L 4661.32 2772.84 L 4657.74 2772.11 L 4654.16 2771.38 L 4650.58 2770.65 L 4647.00 2769.92 L 4643.42 2769.19 L 4639.84 2768.46 L 4636.26 2767.73 L 4632.68 2767.00 L 4629.10 2766.27 L 4625.52 2765.54 L 4621.94 2764.80 L 4618.36 2764.07 L 4614.78 2763.34 L 4611.20 2762.61 L 4607.63 2761.88 L 4604.05 2761.15 L 4600.48 2760.36 L 4596.96 2759.43 L 4593.47 2758.36 L 4590.00 2757.20 L 4586.54 2756.05 L 4583.07 2754.89 L 4579.61 2753.74 L 4576.14 2752.58 L 4572.67 2751.42 L 4569.21 2750.27 L 4565.74 2749.11 L 4562.28 2747.96 L 4558.81 2746.80 L 4555.34 2745.65 L 4551.88 2744.49 L 4548.41 2743.34 L 4544.95 2742.18 L 4541.48 2741.03 L 4538.01 2739.87 L 4534.55 2738.72 L 4531.08 2737.56 L 4527.62 2736.41 L 4524.15 2735.25 L 4520.69 2734.10 L 4517.22 2732.94 L 4513.75 2731.78 L 4510.29 2730.63 L 4506.82 2729.47 L 4503.36 2728.32 L 4499.89 2727.16 L 4496.42 2726.01 L 4492.96 2724.85 L 4489.49 2723.70 L 4486.03 2722.54 L 4482.56 2721.39 L 4479.10 2720.23 L 4475.63 2719.08 L 4472.16 2717.92 L 4468.70 2716.77 L 4465.23 2715.61 L 4461.77 2714.46 L 4458.30 2713.30 L 4454.83 2712.14 L 4451.37 2710.99 L 4447.90 2709.83 L 4444.44 2708.68 L 4440.97 2707.52 L 4437.50 2706.37 L 4434.04 2705.21 L 4430.57 2704.06 L 4427.14 2702.81 L 4423.78 2701.41 L 4420.49 2699.84 L 4417.22 2698.21 L 4413.95 2696.58 L 4410.68 2694.94 L 4407.42 2693.31 L 4404.15 2691.67 L 4400.88 2690.04 L 4397.61 2688.41 L 4394.34 2686.77 L 4391.08 2685.14 L 4387.81 2683.50 L 4384.54 2681.87 L 4381.27 2680.24 L 4378.01 2678.60 L 4374.74 2676.97 L 4371.47 2675.34 L 4368.20 2673.70 L 4364.94 2672.07 L 4361.67 2670.43 L 4358.27 2669.34 L 4354.75 2668.80 L 4351.09 2668.80 L 4347.45 2668.77 L 4343.95 2668.16 L 4340.60 2666.97 L 4337.38 2665.24 L 4334.16 2663.50 L 4330.95 2661.77 L 4327.73 2660.04 L 4324.51 2658.31 L 4321.30 2656.57 L 4318.08 2654.84 L 4314.86 2653.11 L 4311.65 2651.38 L 4308.43 2649.65 L 4305.21 2647.91 L 4302.00 2646.18 L 4298.78 2644.45 L 4295.56 2642.72 L 4292.35 2640.99 L 4289.13 2639.25 L 4285.91 2637.52 L 4282.70 2635.79 L 4279.48 2634.06 L 4276.26 2632.33 L 4273.05 2630.59 L 4269.83 2628.86 L 4266.61 2627.13 L 4263.40 2625.40 L 4260.18 2623.67 L 4256.96 2621.93 L 4253.75 2620.20 L 4250.53 2618.47 L 4247.31 2616.74 L 4244.10 2615.01 L 4240.88 2613.27 L 4237.66 2611.54 L 4234.45 2609.81 L 4231.23 2608.08 L 4228.01 2606.35 L 4224.80 2604.61 L 4221.58 2602.88 L 4218.36 2601.15 L 4215.15 2599.42 L 4211.93 2597.69 L 4208.71 2595.95 L 4205.50 2594.22 L 4202.28 2592.49 L 4199.06 2590.76 L 4195.85 2589.03 L 4192.63 2587.29 L 4189.41 2585.56 L 4186.20 2583.83 L 4182.98 2582.10 L 4179.76 2580.36 L 4176.55 2578.63 L 4173.33 2576.90 L 4170.11 2575.17 L 4166.90 2573.44 L 4163.68 2571.70 L 4160.46 2569.97 L 4157.30 2568.16 L 4154.19 2566.24 L 4151.14 2564.23 L 4148.10 2562.20 L 4145.06 2560.18 L 4142.02 2558.15 L 4138.98 2556.12 L 4135.94 2554.10 L 4132.90 2552.07 L 4129.86 2550.04 L 4126.82 2548.02 L 4123.78 2545.99 L 4120.75 2543.96 L 4117.71 2541.94 L 4114.67 2539.91 L 4111.63 2537.88 L 4108.59 2535.86 L 4105.55 2533.83 L 4102.51 2531.80 L 4099.47 2529.78 L 4096.43 2527.75 L 4093.39 2525.72 L 4090.35 2523.70 L 4087.31 2521.67 L 4084.27 2519.65 L 4081.23 2517.62 L 4078.19 2515.59 L 4075.15 2513.57 L 4072.13 2511.50 L 4069.18 2509.36 L 4066.28 2507.14 L 4063.42 2504.87 L 4060.55 2502.60 L 4057.69 2500.34 L 4054.82 2498.07 L 4051.96 2495.80 L 4049.10 2493.53 L 4046.23 2491.27 L 4043.37 2489.00 L 4040.50 2486.73 L 4037.64 2484.46 L 4034.77 2482.20 L 4031.91 2479.93 L 4029.04 2477.66 L 4026.18 2475.39 L 4023.32 2473.12 L 4020.45 2470.86 L 4017.59 2468.59 L 4014.72 2466.32 L 4011.86 2464.05 L 4008.99 2461.79 L 4006.13 2459.52 L 4003.27 2457.25 L 4000.40 2454.98 L 3997.54 2452.72 L 3994.67 2450.45 L 3991.81 2448.18 L 3988.94 2445.91 L 3986.08 2443.65 L 3983.21 2441.38 L 3980.35 2439.11 L 3977.49 2436.84 L 3974.62 2434.58 L 3971.76 2432.31 L 3968.89 2430.04 L 3966.03 2427.77 L 3963.16 2425.50 L 3960.30 2423.24 L 3957.45 2420.95 L 3954.68 2418.57 L 3951.99 2416.11 L 3949.36 2413.57 L 3946.73 2411.04 L 3944.10 2408.50 L 3941.47 2405.96 L 3938.84 2403.43 L 3936.21 2400.89 L 3933.58 2398.36 L 3930.95 2395.82 L 3928.32 2393.28 L 3925.69 2390.75 L 3923.06 2388.21 L 3920.43 2385.68 L 3917.80 2383.14 L 3915.17 2380.60 L 3912.54 2378.07 L 3909.91 2375.53 L 3907.29 2373.00 L 3904.66 2370.46 L 3902.03 2367.92 L 3899.40 2365.39 L 3896.77 2362.85 L 3894.14 2360.32 L 3891.51 2357.78 L 3888.88 2355.24 L 3886.25 2352.71 L 3883.62 2350.17 L 3880.99 2347.64 L 3878.36 2345.10 L 3875.73 2342.57 L 3873.10 2340.03 L 3870.47 2337.49 L 3867.84 2334.96 L 3865.21 2332.42 L 3862.58 2329.89 L 3859.95 2327.35 L 3857.32 2324.81 L 3854.69 2322.28 L 3852.06 2319.74 L 3849.43 2317.21 L 3846.80 2314.67 L 3844.17 2312.13 L 3841.54 2309.60 L 3838.91 2307.06 L 3836.28 2304.53 L 3833.65 2301.99 L 3831.02 2299.45 L 3828.39 2296.92 L 3825.76 2294.38 L 3823.14 2291.84 L 3820.60 2289.21 L 3818.15 2286.51 L 3815.77 2283.74 L 3813.40 2280.96 L 3811.02 2278.19 L 3808.64 2275.42 L 3806.26 2272.64 L 3803.89 2269.87 L 3801.51 2267.09 L 3799.13 2264.32 L 3796.75 2261.55 L 3794.38 2258.77 L 3792.00 2256.00 L 3789.62 2253.22 L 3787.24 2250.45 L 3784.87 2247.68 L 3782.49 2244.90 L 3780.11 2242.13 L 3777.73 2239.36 L 3775.36 2236.58 L 3772.98 2233.81 L 3770.60 2231.03 L 3768.22 2228.26 L 3765.85 2225.49 L 3763.47 2222.71 L 3761.09 2219.94 L 3758.71 2217.16 L 3756.34 2214.39 L 3753.96 2211.62 L 3751.58 2208.84 L 3749.20 2206.07 L 3746.82 2203.30 L 3744.45 2200.52 L 3742.07 2197.75 L 3739.69 2194.97 L 3737.31 2192.20 L 3735.25 2189.25 L 3733.60 2186.07 L 3732.35 2182.65 L 3731.20 2179.19 L 3730.04 2175.72 L 3728.88 2172.25 L 3727.73 2168.79 L 3726.57 2165.32 L 3725.42 2161.86 L 3724.26 2158.39 L 3723.11 2154.92 L 3721.95 2151.46 L 3720.80 2147.99 L 3719.64 2144.53 L 3718.49 2141.06 L 3717.33 2137.60 L 3716.18 2134.13 L 3715.02 2130.66 L 3713.87 2127.20 L 3712.71 2123.73 L 3711.56 2120.27 M 7675.02 1568.14 L 7674.85 1571.47 L 7674.67 1574.81 L 7674.50 1578.15 L 7674.32 1581.48 L 7674.15 1584.82 L 7673.97 1588.16 L 7673.79 1591.50 L 7673.62 1594.83 L 7673.44 1598.17 L 7673.27 1601.51 L 7673.09 1604.84 L 7672.92 1608.18 L 7672.74 1611.52 L 7672.57 1614.85 L 7672.39 1618.19 L 7672.21 1621.53 L 7672.04 1624.87 L 7671.86 1628.20 L 7671.69 1631.54 L 7671.51 1634.88 L 7671.34 1638.21 L 7671.16 1641.55 L 7670.98 1644.89 L 7670.81 1648.22 L 7670.63 1651.56 L 7669.83 1654.49 L 7668.09 1656.80 L 7665.41 1658.50 L 7662.42 1659.99 L 7659.43 1661.48 L 7656.44 1662.98 L 7653.45 1664.47 L 7650.46 1665.97 L 7647.48 1667.46 L 7644.49 1668.96 L 7641.50 1670.45 L 7638.51 1671.95 L 7635.52 1673.44 L 7632.53 1674.93 L 7629.54 1676.43 L 7626.55 1677.92 L 7623.64 1679.53 L 7620.83 1681.32 L 7618.14 1683.29 L 7615.50 1685.33 L 7612.85 1687.38 L 7610.21 1689.42 L 7607.57 1691.46 L 7604.92 1693.51 L 7602.28 1695.55 L 7599.63 1697.59 L 7596.99 1699.64 L 7594.35 1701.68 L 7591.70 1703.72 L 7589.06 1705.77 L 7586.41 1707.81 L 7583.77 1709.85 L 7581.12 1711.89 L 7578.48 1713.94 L 7575.84 1715.98 L 7573.19 1718.02 L 7570.55 1720.07 L 7567.90 1722.11 L 7565.26 1724.15 L 7562.62 1726.20 L 7559.97 1728.24 L 7557.33 1730.28 L 7554.68 1732.33 L 7552.04 1734.37 L 7549.39 1736.41 L 7546.75 1738.46 L 7544.11 1740.50 L 7541.46 1742.54 L 7538.82 1744.59 L 7536.17 1746.63 L 7533.53 1748.67 L 7530.89 1750.72 L 7528.24 1752.76 L 7525.60 1754.80 L 7522.95 1756.85 L 7520.31 1758.89 L 7517.64 1760.89 L 7514.92 1762.84 L 7512.17 1764.73 L 7509.40 1766.60 L 7506.63 1768.48 L 7503.87 1770.35 L 7501.10 1772.22 L 7498.33 1774.09 L 7495.56 1775.97 L 7492.79 1777.84 L 7490.03 1779.71 L 7487.26 1781.58 L 7484.49 1783.46 L 7481.72 1785.33 L 7478.96 1787.20 L 7476.19 1789.07 L 7473.42 1790.95 L 7470.65 1792.82 L 7467.88 1794.69 L 7465.12 1796.56 L 7462.35 1798.43 L 7459.58 1800.31 L 7456.81 1802.18 L 7454.05 1804.05 L 7451.28 1805.92 L 7448.51 1807.80 L 7445.74 1809.67 L 7442.97 1811.54 L 7440.21 1813.41 L 7437.44 1815.29 L 7434.67 1817.16 L 7431.90 1819.03 L 7429.14 1820.90 L 7426.37 1822.77 L 7423.60 1824.65 L 7420.83 1826.52 L 7418.06 1828.39 L 7415.30 1830.26 L 7412.53 1832.14 L 7409.76 1834.01 L 7406.99 1835.88 L 7404.23 1837.75 L 7401.46 1839.63 L 7398.69 1841.50 L 7395.92 1843.37 L 7393.15 1845.24 L 7390.39 1847.12 L 7387.62 1848.99 L 7384.85 1850.86 L 7382.08 1852.73 L 7379.31 1854.60 L 7376.55 1856.48 L 7373.78 1858.35 L 7371.01 1860.22 L 7368.24 1862.09 L 7365.48 1863.97 L 7362.71 1865.84 L 7359.94 1867.71 L 7357.17 1869.58 L 7354.38 1871.42 L 7351.56 1873.21 L 7348.72 1874.96 L 7345.86 1876.69 L 7343.00 1878.42 L 7340.14 1880.16 L 7337.28 1881.89 L 7334.43 1883.62 L 7331.57 1885.35 L 7328.71 1887.08 L 7325.85 1888.82 L 7323.00 1890.55 L 7320.14 1892.28 L 7317.28 1894.01 L 7314.42 1895.74 L 7311.56 1897.48 L 7308.71 1899.21 L 7305.85 1900.94 L 7302.99 1902.67 L 7300.13 1904.40 L 7297.28 1906.14 L 7294.42 1907.87 L 7291.56 1909.60 L 7288.70 1911.33 L 7285.85 1913.06 L 7282.99 1914.80 L 7280.13 1916.53 L 7277.27 1918.26 L 7274.41 1919.99 L 7271.56 1921.72 L 7268.70 1923.46 L 7265.84 1925.19 L 7262.98 1926.92 L 7260.13 1928.65 L 7257.27 1930.38 L 7254.41 1932.12 L 7251.55 1933.85 L 7248.69 1935.58 L 7245.84 1937.31 L 7242.98 1939.04 L 7240.12 1940.77 L 7237.26 1942.51 L 7234.41 1944.24 L 7231.55 1945.97 L 7228.69 1947.70 L 7225.83 1949.43 L 7222.98 1951.17 L 7220.12 1952.90 L 7217.26 1954.63 L 7214.40 1956.36 L 7211.54 1958.09 L 7208.69 1959.83 L 7205.83 1961.56 L 7202.97 1963.29 L 7200.11 1965.02 L 7197.24 1966.73 L 7194.34 1968.38 L 7191.39 1969.95 L 7188.42 1971.48 L 7185.44 1973.00 L 7182.47 1974.53 L 7179.50 1976.05 L 7176.52 1977.58 L 7173.55 1979.10 L 7170.58 1980.63 L 7167.60 1982.15 L 7164.63 1983.68 L 7161.66 1985.20 L 7158.68 1986.73 L 7155.71 1988.25 L 7152.74 1989.78 L 7149.76 1991.30 L 7146.79 1992.83 L 7143.82 1994.35 L 7140.84 1995.88 L 7137.87 1997.40 L 7134.90 1998.92 L 7131.92 2000.45 L 7128.95 2001.97 L 7125.98 2003.50 L 7123.00 2005.02 L 7120.03 2006.55 L 7117.06 2008.07 L 7114.08 2009.60 L 7111.11 2011.12 L 7108.14 2012.65 L 7105.16 2014.17 L 7102.19 2015.70 L 7099.22 2017.22 L 7096.24 2018.75 L 7093.27 2020.27 L 7090.30 2021.80 L 7087.32 2023.32 L 7084.35 2024.85 L 7081.38 2026.37 L 7078.40 2027.90 L 7075.43 2029.42 L 7072.46 2030.95 L 7069.48 2032.47 L 7066.51 2034.00 L 7063.53 2035.52 L 7060.56 2037.05 L 7057.59 2038.57 L 7054.61 2040.10 L 7051.64 2041.62 L 7048.67 2043.14 L 7045.69 2044.67 L 7042.72 2046.19 L 7039.75 2047.72 L 7036.77 2049.24 L 7033.80 2050.77 L 7030.83 2052.29 L 7027.85 2053.82 L 7024.88 2055.34 L 7021.91 2056.87 L 7018.93 2058.39 L 7015.96 2059.92 L 7012.99 2061.44 L 7010.00 2062.94 L 7006.97 2064.34 L 7003.90 2065.64 L 7000.79 2066.88 L 6997.69 2068.12 L 6994.59 2069.36 L 6991.49 2070.61 L 6988.38 2071.85 L 6985.28 2073.09 L 6982.18 2074.33 L 6979.07 2075.57 L 6975.97 2076.81 L 6972.87 2078.05 L 6969.77 2079.29 L 6966.66 2080.53 L 6963.56 2081.78 L 6960.46 2083.02 L 6957.36 2084.26 L 6954.25 2085.50 L 6951.15 2086.74 L 6948.05 2087.98 L 6944.95 2089.22 L 6941.84 2090.46 L 6938.74 2091.70 L 6935.64 2092.94 L 6932.54 2094.19 L 6929.43 2095.43 L 6926.33 2096.67 L 6923.23 2097.91 L 6920.13 2099.15 L 6917.02 2100.39 L 6913.92 2101.63 L 6910.82 2102.87 L 6907.71 2104.11 L 6904.61 2105.36 L 6901.51 2106.60 L 6898.41 2107.84 L 6895.30 2109.08 L 6892.20 2110.32 L 6889.08 2111.50 L 6885.92 2112.58 L 6882.73 2113.56 L 6879.52 2114.51 L 6876.32 2115.46 L 6873.12 2116.41 L 6869.91 2117.36 L 6866.71 2118.31 L 6863.50 2119.26 L 6860.30 2120.21 L 6857.10 2121.16 L 6853.89 2122.11 L 6850.69 2123.06 L 6847.48 2124.00 L 6844.28 2124.95 L 6841.08 2125.90 L 6837.87 2126.85 L 6834.67 2127.80 L 6831.46 2128.75 L 6828.26 2129.70 L 6825.06 2130.65 L 6821.85 2131.60 L 6818.65 2132.55 L 6815.44 2133.50 L 6812.24 2134.45 L 6809.04 2135.40 L 6805.83 2136.35 L 6802.63 2137.30 L 6799.43 2138.24 L 6796.22 2139.19 L 6793.02 2140.14 L 6789.81 2141.09 L 6786.61 2142.04 L 6783.41 2142.99 L 6780.20 2143.94 L 6777.00 2144.89 L 6773.79 2145.84 L 6770.59 2146.79 L 6767.39 2147.74 L 6764.18 2148.69 L 6760.97 2149.61 L 6757.73 2150.38 L 6754.45 2151.00 L 6751.15 2151.50 L 6747.84 2152.00 L 6744.54 2152.50 L 6741.24 2153.00 L 6737.93 2153.50 L 6734.63 2154.00 L 6731.32 2154.50 L 6728.02 2155.00 L 6724.72 2155.50 L 6721.41 2156.00 L 6718.11 2156.50 L 6714.80 2157.01 L 6711.50 2157.51 L 6708.20 2158.01 L 6704.89 2158.51 L 6701.59 2159.01 L 6698.28 2159.51 L 6694.98 2160.01 L 6691.68 2160.51 L 6688.37 2161.01 L 6685.07 2161.51 L 6681.76 2162.01 L 6678.46 2162.51 L 6675.16 2163.01 L 6671.85 2163.51 L 6668.55 2164.01 L 6665.25 2164.51 L 6661.94 2165.01 L 6658.64 2165.52 L 6655.33 2166.02 L 6652.03 2166.52 L 6648.73 2167.02 L 6645.42 2167.52 L 6642.12 2168.02 L 6638.81 2168.52 L 6635.51 2169.02 L 6632.21 2169.52 L 6628.90 2170.02 L 6625.60 2170.52 L 6622.29 2171.02 L 6618.99 2171.52 L 6615.69 2172.02 L 6612.38 2172.52 L 6609.08 2173.02 L 6605.78 2173.52 L 6602.47 2173.96 L 6599.15 2174.14 L 6595.83 2174.07 L 6592.50 2173.80 L 6589.17 2173.53 L 6585.84 2173.27 L 6582.51 2173.00 L 6579.17 2172.73 L 6575.84 2172.47 L 6572.51 2172.20 L 6569.18 2171.93 L 6565.85 2171.67 L 6562.52 2171.40 L 6559.19 2171.14 L 6555.86 2170.87 L 6552.53 2170.60 L 6549.20 2170.34 L 6545.87 2170.07 L 6542.53 2169.80 L 6539.20 2169.54 L 6535.87 2169.27 L 6532.54 2169.00 L 6529.21 2168.74 L 6525.88 2168.47 L 6522.55 2168.20 L 6519.22 2167.94 L 6515.89 2167.67 L 6512.56 2167.40 L 6509.22 2167.14 L 6505.89 2166.87 L 6502.56 2166.61 L 6499.23 2166.34 L 6495.90 2166.07 L 6492.57 2165.81 L 6489.24 2165.54 L 6485.91 2165.27 L 6482.58 2164.96 L 6479.30 2164.45 L 6476.04 2163.74 L 6472.81 2162.88 L 6469.58 2162.02 L 6466.35 2161.16 L 6463.13 2160.30 L 6459.90 2159.44 L 6456.67 2158.58 L 6453.44 2157.72 L 6450.21 2156.86 L 6446.98 2155.99 L 6443.75 2155.13 L 6440.52 2154.27 L 6437.29 2153.41 L 6434.07 2152.55 L 6430.84 2151.69 L 6427.61 2150.83 L 6424.38 2149.97 L 6421.15 2149.11 L 6417.92 2148.25 L 6414.69 2147.38 L 6411.46 2146.52 L 6408.30 2145.50 L 6405.19 2144.29 L 6402.15 2142.90 L 6399.12 2141.50 L 6396.09 2140.10 L 6393.05 2138.70 L 6390.02 2137.30 L 6386.98 2135.90 L 6383.95 2134.50 L 6380.92 2133.10 L 6377.88 2131.70 L 6374.85 2130.30 L 6371.81 2128.90 L 6368.78 2127.50 L 6365.75 2126.10 L 6362.71 2124.70 L 6359.68 2123.30 L 6356.64 2121.90 L 6353.61 2120.50 L 6350.57 2119.10 L 6347.58 2117.63 L 6344.69 2115.98 L 6341.90 2114.16 L 6339.18 2112.22 L 6336.46 2110.27 L 6333.74 2108.33 L 6331.02 2106.39 L 6328.31 2104.45 L 6325.59 2102.50 L 6322.87 2100.56 L 6320.15 2098.62 L 6317.43 2096.68 L 6314.71 2094.74 L 6311.99 2092.79 L 6309.27 2090.85 L 6306.55 2088.91 L 6303.83 2086.97 L 6301.11 2085.02 L 6298.39 2083.08 L 6295.68 2081.14 L 6292.96 2079.20 L 6290.24 2077.25 L 6287.52 2075.31 L 6284.80 2073.37 L 6282.08 2071.43 L 6279.45 2069.38 L 6276.97 2067.16 L 6274.64 2064.78 L 6272.35 2062.35 L 6270.07 2059.91 L 6267.78 2057.47 L 6265.49 2055.03 L 6263.21 2052.60 L 6260.92 2050.16 L 6258.64 2047.72 L 6256.35 2045.28 L 6254.07 2042.84 L 6251.78 2040.41 L 6249.50 2037.97 L 6247.21 2035.53 L 6244.92 2033.09 L 6242.64 2030.66 L 6240.35 2028.22 L 6238.07 2025.78 L 6235.78 2023.34 L 6233.50 2020.90 L 6231.21 2018.47 L 6228.93 2016.03 L 6226.64 2013.59 L 6224.36 2011.15 L 6222.07 2008.71 L 6219.78 2006.28 L 6217.50 2003.84 L 6215.21 2001.40 L 6212.93 1998.96 L 6210.64 1996.53 L 6208.38 1994.07 L 6206.29 1991.48 L 6204.37 1988.76 L 6202.60 1985.93 L 6200.83 1983.09 L 6199.06 1980.26 L 6197.29 1977.43 L 6195.52 1974.59 L 6193.75 1971.76 L 6191.98 1968.92 L 6190.21 1966.09 L 6188.44 1963.26 L 6186.66 1960.42 L 6184.89 1957.59 L 6183.12 1954.76 L 6181.35 1951.92 L 6179.58 1949.09 L 6177.81 1946.25 L 6176.04 1943.42 L 6174.27 1940.59 L 6172.50 1937.75 L 6170.72 1934.92 L 6168.95 1932.09 L 6167.18 1929.25 L 6165.41 1926.42 L 6163.64 1923.59 L 6161.87 1920.75 L 6160.10 1917.91 L 6158.49 1915.00 L 6157.01 1912.01 L 6155.68 1908.95 L 6154.35 1905.88 L 6153.02 1902.82 L 6151.68 1899.75 L 6150.35 1896.69 L 6149.02 1893.62 L 6147.69 1890.56 L 6146.35 1887.49 L 6145.02 1884.43 L 6143.69 1881.37 L 6142.36 1878.30 L 6141.02 1875.24 L 6139.69 1872.17 L 6138.36 1869.11 L 6137.03 1866.04 L 6135.69 1862.98 L 6134.36 1859.91 L 6133.03 1856.85 L 6131.70 1853.78 L 6130.37 1850.72 L 6129.03 1847.66 L 6127.70 1844.59 L 6126.37 1841.53 L 6125.04 1838.46 L 6123.70 1835.40 L 6122.37 1832.33 L 6121.04 1829.27 L 6119.71 1826.20 L 6118.37 1823.14 L 6117.04 1820.08 L 6115.71 1817.01 L 6114.38 1813.95 L 6113.04 1810.88 L 6111.71 1807.82 L 6110.53 1804.70 L 6109.50 1801.53 L 6108.61 1798.31 L 6107.72 1795.09 L 6106.83 1791.87 L 6105.94 1788.64 L 6105.05 1785.42 L 6104.17 1782.20 L 6103.28 1778.98 L 6102.39 1775.76 L 6101.50 1772.54 L 6100.61 1769.32 L 6099.72 1766.10 L 6098.83 1762.87 L 6097.95 1759.65 L 6097.06 1756.43 L 6096.17 1753.21 L 6095.28 1749.99 L 6094.39 1746.77 L 6093.50 1743.55 L 6092.61 1740.33 L 6091.73 1737.10 L 6090.84 1733.88 L 6089.95 1730.66 L 6089.06 1727.44 L 6088.17 1724.22 L 6087.28 1721.00 L 6086.39 1717.78 L 6085.50 1714.55 L 6084.62 1711.33 L 6083.73 1708.11 L 6082.84 1704.89 L 6081.95 1701.67 L 6081.06 1698.45 L 6080.17 1695.23 L 6079.28 1692.01 L 6078.40 1688.78 L 6077.51 1685.56 L 6076.62 1682.34 L 6075.73 1679.12 L 6074.84 1675.90 L 6073.95 1672.68 L 6073.06 1669.46 L 6071.94 1666.34 L 6070.52 1663.35 L 6068.81 1660.49 L 6067.04 1657.66 L 6065.27 1654.82 L 6063.49 1651.99 L 6061.72 1649.16 L 6059.95 1646.32 L 6058.18 1643.49 L 6056.41 1640.66 L 6054.64 1637.82 L 6052.87 1634.99 L 6051.10 1632.15 L 6049.28 1629.36 L 6047.26 1626.72 L 6045.04 1624.24 L 6042.68 1621.88 L 6040.32 1619.52 L 6037.95 1617.15 L 6035.59 1614.79 L 6033.23 1612.43 L 6030.87 1610.07 L 6028.50 1607.70 L 6026.14 1605.34 L 6023.78 1602.98 L 6021.41 1600.61 L 6019.05 1598.25 L 6016.69 1595.89 L 6014.33 1593.53 L 6011.96 1591.16 L 6004.80 1584.00 L 6004.80 1588.80 M 3699.34 868.80 L 3702.69 868.80 L 3706.03 868.80 L 3709.37 868.80 L 3712.72 868.80 L 3716.06 868.80 L 3719.40 868.80 L 3722.75 868.80 L 3726.09 868.80 L 3729.43 868.80 L 3732.77 868.80 L 3736.12 868.80 L 3739.46 868.80 L 3742.80 868.80 L 3746.15 868.80 L 3749.49 868.80 L 3752.83 868.80 L 3756.18 868.80 L 3759.52 868.80 L 3762.85 868.95 L 3766.17 869.27 L 3769.48 869.77 L 3772.78 870.27 L 3776.08 870.78 L 3779.39 871.29 L 3782.69 871.80 L 3786.00 872.31 L 3789.30 872.82 L 3792.61 873.32 L 3795.91 873.83 L 3799.21 874.34 L 3802.52 874.85 L 3805.82 875.36 L 3809.13 875.87 L 3812.43 876.37 L 3815.74 876.88 L 3819.04 877.39 L 3822.34 877.90 L 3825.60 878.61 L 3828.81 879.51 L 3831.97 880.60 L 3835.12 881.70 L 3838.28 882.79 L 3841.44 883.88 L 3844.60 884.98 L 3847.76 886.07 L 3850.92 887.16 L 3854.08 888.26 L 3857.24 889.35 L 3860.40 890.45 L 3863.56 891.54 L 3866.72 892.63 L 3869.88 893.73 L 3873.04 894.82 L 3876.19 895.91 L 3879.35 897.01 L 3882.51 898.10 L 3885.67 899.19 L 3888.83 900.29 L 3891.99 901.38 L 3895.15 902.48 L 3898.31 903.57 L 3901.47 904.66 L 3904.63 905.76 L 3907.79 906.85 L 3910.95 907.94 L 3914.11 909.04 L 3917.27 910.13 L 3920.42 911.22 L 3923.58 912.32 L 3926.74 913.41 L 3929.90 914.50 L 3933.06 915.60 L 3936.22 916.69 L 3939.38 917.79 L 3942.54 918.88 L 3945.70 919.97 L 3948.82 921.15 L 3951.87 922.50 L 3954.84 924.01 L 3957.78 925.60 L 3960.72 927.19 L 3963.66 928.78 L 3966.60 930.38 L 3969.54 931.97 L 3972.48 933.56 L 3975.42 935.15 L 3978.36 936.75 L 3981.30 938.34 L 3984.24 939.93 L 3987.18 941.52 L 3990.12 943.11 L 3993.06 944.71 L 3996.00 946.30 L 3998.94 947.89 L 4001.88 949.48 L 4004.82 951.08 L 4007.76 952.67 L 4010.70 954.26 L 4013.64 955.85 L 4016.58 957.45 L 4019.52 959.04 L 4022.46 960.63 L 4025.40 962.22 L 4028.33 963.81 L 4031.27 965.41 L 4034.21 967.00 L 4037.15 968.59 L 4040.09 970.18 L 4043.03 971.78 L 4045.97 973.37 L 4048.91 974.96 L 4051.85 976.55 L 4054.79 978.15 L 4057.73 979.74 L 4060.67 981.33 L 4063.59 982.96 L 4066.43 984.71 L 4069.19 986.58 L 4071.91 988.53 L 4074.62 990.48 L 4077.34 992.44 L 4080.05 994.39 L 4082.77 996.34 L 4085.48 998.29 L 4088.19 1000.24 L 4090.91 1002.19 L 4093.62 1004.14 L 4096.34 1006.09 L 4099.05 1008.04 L 4101.77 1010.00 L 4104.48 1011.95 L 4107.20 1013.90 L 4109.91 1015.85 L 4112.63 1017.80 L 4115.34 1019.75 L 4118.06 1021.70 L 4120.77 1023.65 L 4123.49 1025.61 L 4126.20 1027.56 L 4128.92 1029.51 L 4131.63 1031.46 L 4134.34 1033.41 L 4137.06 1035.36 L 4139.77 1037.31 L 4142.49 1039.26 L 4145.20 1041.22 L 4147.92 1043.17 L 4150.63 1045.12 L 4153.35 1047.07 L 4156.06 1049.02 L 4158.78 1050.97 L 4161.49 1052.92 L 4164.21 1054.87 L 4166.92 1056.82 L 4169.64 1058.78 L 4172.35 1060.73 L 4175.07 1062.68 L 4177.78 1064.63 L 4180.49 1066.58 L 4183.21 1068.53 L 4185.92 1070.48 L 4188.64 1072.43 L 4191.35 1074.39 L 4194.07 1076.34 L 4196.78 1078.29 L 4199.50 1080.24 L 4202.21 1082.19 L 4204.93 1084.14 L 4207.64 1086.09 L 4210.36 1088.04 L 4213.07 1090.00 L 4215.79 1091.95 L 4218.43 1093.99 L 4220.97 1096.15 L 4223.41 1098.43 L 4225.82 1100.74 L 4228.23 1103.06 L 4230.65 1105.37 L 4233.06 1107.68 L 4235.47 1110.00 L 4237.89 1112.31 L 4240.30 1114.62 L 4242.72 1116.94 L 4245.13 1119.25 L 4247.54 1121.56 L 4249.96 1123.88 L 4252.37 1126.19 L 4254.78 1128.50 L 4257.20 1130.81 L 4259.61 1133.13 L 4262.03 1135.44 L 4264.44 1137.75 L 4266.85 1140.07 L 4269.27 1142.38 L 4271.68 1144.69 L 4274.09 1147.01 L 4276.51 1149.32 L 4278.92 1151.63 L 4281.34 1153.95 L 4283.75 1156.26 L 4286.16 1158.57 L 4288.58 1160.89 L 4290.99 1163.20 L 4293.40 1165.51 L 4295.82 1167.83 L 4298.23 1170.14 L 4300.65 1172.45 L 4303.06 1174.76 L 4305.47 1177.08 L 4307.89 1179.39 L 4310.30 1181.70 L 4312.71 1184.02 L 4315.13 1186.33 L 4317.54 1188.64 L 4319.96 1190.96 L 4322.37 1193.27 L 4324.78 1195.58 L 4327.20 1197.90 L 4329.61 1200.21 L 4332.02 1202.52 L 4334.31 1204.95 L 4336.48 1207.49 L 4338.52 1210.13 L 4340.56 1212.78 L 4342.61 1215.42 L 4344.65 1218.07 L 4346.70 1220.71 L 4348.74 1223.36 L 4350.79 1226.00 L 4352.83 1228.65 L 4354.87 1231.30 L 4356.92 1233.94 L 4358.96 1236.59 L 4361.01 1239.23 L 4363.05 1241.88 L 4365.09 1244.52 L 4367.14 1247.17 L 4369.18 1249.81 L 4371.23 1252.46 L 4373.27 1255.10 L 4375.32 1257.75 L 4377.36 1260.39 L 4379.40 1263.04 L 4381.45 1265.69 L 4383.49 1268.33 L 4385.54 1270.98 L 4387.58 1273.62 L 4389.62 1276.27 L 4391.67 1278.91 L 4393.71 1281.56 L 4395.76 1284.20 L 4397.80 1286.85 L 4399.85 1289.49 L 4401.89 1292.14 L 4403.93 1294.78 L 4405.98 1297.43 L 4408.02 1300.08 L 4410.07 1302.72 L 4412.11 1305.37 L 4414.14 1308.02 L 4416.00 1310.78 L 4417.70 1313.65 L 4419.24 1316.62 L 4420.79 1319.58 L 4422.34 1322.54 L 4423.88 1325.51 L 4425.43 1328.47 L 4426.98 1331.44 L 4428.52 1334.40 L 4430.07 1337.36 L 4431.61 1340.33 L 4433.16 1343.29 L 4434.71 1346.26 L 4436.25 1349.22 L 4437.80 1352.18 L 4439.35 1355.15 L 4440.89 1358.11 L 4442.44 1361.08 L 4443.99 1364.04 L 4445.53 1367.00 L 4447.08 1369.97 L 4448.63 1372.93 L 4450.17 1375.90 L 4451.72 1378.86 L 4453.26 1381.82 L 4454.81 1384.79 L 4456.36 1387.75 L 4457.90 1390.72 L 4459.45 1393.68 L 4461.00 1396.64 L 4462.54 1399.61 L 4464.09 1402.57 L 4465.64 1405.54 L 4467.18 1408.50 L 4468.73 1411.46 L 4470.28 1414.43 L 4471.82 1417.39 L 4473.14 1420.44 L 4474.20 1423.58 L 4474.99 1426.83 L 4475.74 1430.09 L 4476.49 1433.34 L 4477.25 1436.60 L 4478.00 1439.86 L 4478.75 1443.12 L 4479.50 1446.37 L 4480.25 1449.63 L 4481.00 1452.89 L 4481.76 1456.15 L 4482.51 1459.40 L 4483.26 1462.66 L 4484.01 1465.92 L 4484.76 1469.18 L 4485.52 1472.43 L 4486.27 1475.69 L 4487.02 1478.95 L 4487.77 1482.21 L 4488.52 1485.46 L 4489.27 1488.72 L 4490.03 1491.98 L 4490.78 1495.24 L 4491.53 1498.49 L 4492.28 1501.75 L 4493.03 1505.01 L 4493.78 1508.27 L 4494.54 1511.52 L 4495.29 1514.78 L 4496.04 1518.04 L 4496.79 1521.30 L 4497.54 1524.55 L 4498.30 1527.81 L 4499.05 1531.07 L 4499.80 1534.33 L 4500.55 1537.58 L 4501.30 1540.84 L 4501.88 1544.11 L 4502.15 1547.41 L 4502.10 1550.74 L 4501.90 1554.08 L 4501.71 1557.41 L 4501.51 1560.75 L 4501.31 1564.09 L 4501.12 1567.42 L 4500.92 1570.76 L 4500.72 1574.10 L 4500.53 1577.44 L 4500.33 1580.77 L 4500.13 1584.11 L 4499.94 1587.45 L 4499.74 1590.79 L 4499.55 1594.12 L 4499.35 1597.46 L 4499.15 1600.80 L 4498.96 1604.14 L 4498.76 1607.47 L 4498.56 1610.81 L 4498.37 1614.15 L 4498.17 1617.49 L 4497.98 1620.82 L 4497.75 1624.16 L 4497.26 1627.44 L 4496.50 1630.67 L 4495.50 1633.86 L 4494.49 1637.05 L 4493.48 1640.24 L 4492.48 1643.42 L 4491.47 1646.61 L 4490.46 1649.80 L 4489.46 1652.99 L 4488.45 1656.18 L 4487.44 1659.36 L 4486.44 1662.55 L 4485.43 1665.74 L 4484.42 1668.93 L 4483.42 1672.12 L 4482.41 1675.30 L 4481.40 1678.49 L 4480.40 1681.68 L 4479.39 1684.87 L 4478.38 1688.06 L 4477.38 1691.24 L 4476.37 1694.43 L 4475.36 1697.62 L 4474.36 1700.81 L 4473.35 1704.00 L 4472.34 1707.18 L 4471.34 1710.37 L 4470.33 1713.56 L 4469.19 1716.68 L 4467.76 1719.67 L 4466.05 1722.52 L 4464.20 1725.30 L 4462.34 1728.09 L 4460.49 1730.87 L 4458.63 1733.65 L 4456.78 1736.43 L 4454.93 1739.21 L 4453.07 1741.99 L 4451.22 1744.78 L 4449.36 1747.56 L 4447.51 1750.34 L 4445.65 1753.12 L 4443.80 1755.90 L 4441.94 1758.68 L 4440.09 1761.47 L 4438.24 1764.25 L 4436.38 1767.03 L 4434.53 1769.81 L 4432.67 1772.59 L 4430.82 1775.37 L 4428.96 1778.16 L 4427.11 1780.94 L 4425.25 1783.72 L 4423.40 1786.50 L 4421.54 1789.28 L 4419.69 1792.06 L 4417.84 1794.85 L 4415.98 1797.63 L 4414.13 1800.41 L 4412.18 1803.11 L 4410.01 1805.61 L 4407.61 1807.92 L 4405.09 1810.11 L 4402.57 1812.31 L 4400.05 1814.50 L 4397.52 1816.69 L 4395.00 1818.89 L 4392.48 1821.08 L 4389.95 1823.27 L 4387.43 1825.47 L 4384.91 1827.66 L 4382.39 1829.86 L 4379.86 1832.05 L 4377.34 1834.24 L 4374.82 1836.44 L 4372.29 1838.63 L 4369.77 1840.82 L 4367.25 1843.02 L 4364.73 1845.21 L 4362.20 1847.41 L 4359.68 1849.60 L 4357.16 1851.79 L 4354.64 1853.99 L 4352.11 1856.18 L 4349.59 1858.37 L 4347.07 1860.57 L 4344.54 1862.76 L 4342.02 1864.96 L 4339.50 1867.15 L 4336.98 1869.34 L 4334.45 1871.54 L 4331.93 1873.73 L 4329.41 1875.92 L 4326.88 1878.12 L 4324.36 1880.31 L 4321.84 1882.51 L 4319.32 1884.70 L 4316.79 1886.89 L 4314.27 1889.09 L 4311.75 1891.28 L 4309.23 1893.47 L 4306.70 1895.67 L 4304.18 1897.86 L 4301.57 1899.93 L 4298.83 1901.82 L 4295.97 1903.53 L 4293.06 1905.18 L 4290.15 1906.82 L 4287.24 1908.47 L 4284.33 1910.11 L 4281.42 1911.76 L 4278.51 1913.40 L 4275.59 1915.05 L 4272.68 1916.69 L 4269.77 1918.34 L 4266.86 1919.98 L 4263.95 1921.63 L 4261.04 1923.27 L 4258.13 1924.92 L 4255.22 1926.56 L 4252.31 1928.21 L 4249.40 1929.85 L 4246.49 1931.50 L 4243.58 1933.14 L 4240.67 1934.79 L 4237.76 1936.43 L 4234.85 1938.08 L 4231.94 1939.72 L 4229.03 1941.37 L 4226.12 1943.01 L 4223.21 1944.66 L 4220.30 1946.30 L 4217.39 1947.95 L 4214.48 1949.59 L 4211.56 1951.24 L 4208.65 1952.88 L 4205.74 1954.53 L 4202.83 1956.17 L 4199.92 1957.82 L 4197.01 1959.46 L 4194.10 1961.11 L 4191.15 1962.67 L 4188.15 1964.13 L 4185.09 1965.48 L 4182.02 1966.79 L 4178.94 1968.11 L 4175.87 1969.43 L 4172.80 1970.74 L 4169.73 1972.06 L 4166.65 1973.38 L 4163.58 1974.69 L 4160.51 1976.01 L 4157.43 1977.33 L 4154.36 1978.64 L 4151.29 1979.96 L 4148.22 1981.28 L 4145.14 1982.60 L 4142.07 1983.91 L 4139.00 1985.23 L 4135.92 1986.55 L 4132.85 1987.86 L 4129.78 1989.18 L 4126.71 1990.50 L 4123.60 1991.73 L 4120.46 1992.87 L 4117.29 1993.92 L 4114.11 1994.95 L 4110.93 1995.98 L 4107.75 1997.01 L 4104.57 1998.04 L 4101.39 1999.07 L 4098.21 2000.11 L 4095.03 2001.14 L 4091.85 2002.17 L 4088.67 2003.20 L 4085.49 2004.23 L 4082.31 2005.26 L 4079.13 2006.29 L 4075.95 2007.33 L 4072.77 2008.36 L 4069.59 2009.39 L 4066.41 2010.42 L 4063.23 2011.45 L 4060.05 2012.48 L 4056.87 2013.51 L 4053.69 2014.55 L 4050.51 2015.58 L 4047.33 2016.61 L 4044.15 2017.64 L 4040.97 2018.67 L 4037.79 2019.70 L 4034.61 2020.73 L 4031.43 2021.76 L 4028.25 2022.80 L 4025.07 2023.83 L 4021.88 2024.86 L 4018.70 2025.89 L 4015.52 2026.92 L 4012.34 2027.95 L 4009.16 2028.98 L 4005.98 2030.02 L 4002.80 2031.05 L 3999.62 2032.08 L 3996.44 2033.11 L 3993.26 2034.14 L 3990.08 2035.17 L 3986.90 2036.20 L 3983.72 2037.24 L 3980.54 2038.27 L 3977.36 2039.30 L 3974.18 2040.33 L 3971.00 2041.36 L 3967.82 2042.39 L 3964.64 2043.42 L 3961.46 2044.46 L 3958.28 2045.49 L 3955.10 2046.52 L 3951.92 2047.55 L 3948.74 2048.58 L 3945.53 2049.47 L 3942.28 2050.23 L 3938.99 2050.85 L 3935.71 2051.47 L 3932.42 2052.09 L 3929.14 2052.71 L 3925.85 2053.34 L 3922.57 2053.96 L 3919.28 2054.58 L 3916.00 2055.20 L 3912.71 2055.82 L 3909.43 2056.44 L 3906.14 2057.06 L 3902.86 2057.69 L 3899.57 2058.31 L 3896.29 2058.93 L 3893.00 2059.55 L 3889.72 2060.17 L 3886.43 2060.79 L 3883.15 2061.42 L 3879.86 2062.04 L 3876.58 2062.66 L 3873.29 2063.28 L 3870.01 2063.90 L 3866.72 2064.52 L 3863.44 2065.14 L 3860.15 2065.77 L 3856.87 2066.39 L 3853.58 2067.01 L 3850.30 2067.63 L 3847.01 2068.25 L 3843.73 2068.87 L 3840.44 2069.49 L 3837.16 2070.12 L 3833.87 2070.74 L 3830.59 2071.36 L 3827.30 2071.98 L 3824.02 2072.60 L 3820.74 2073.22 L 3817.45 2073.84 L 3814.17 2074.47 L 3810.88 2075.09 L 3807.60 2075.71 L 3804.31 2076.33 L 3801.03 2076.95 L 3797.74 2077.57 L 3794.46 2078.19 L 3791.17 2078.82 L 3787.89 2079.44 L 3784.60 2080.06 L 3781.32 2080.68 L 3778.03 2081.30 L 3774.75 2081.92 L 3771.46 2082.55 L 3768.30 2083.50 L 3765.27 2084.81 L 3762.38 2086.48 L 3759.49 2088.16 L 3756.60 2089.85 L 3753.72 2091.53 L 3750.83 2093.22 L 3747.94 2094.90 L 3745.05 2096.59 L 3742.17 2098.27 L 3739.28 2099.95 L 3736.39 2101.64 L 3733.50 2103.32 L 3730.61 2105.01 L 3727.73 2106.69 L 3724.84 2108.38 L 3721.95 2110.06 L 3719.06 2111.75 L 3716.18 2113.43 L 3713.29 2115.12 M 3692.76 869.61 L 3689.51 870.42 L 3686.27 871.23 L 3683.03 872.04 L 3679.78 872.85 L 3676.54 873.67 L 3673.30 874.48 L 3670.05 875.29 L 3666.81 876.10 L 3663.56 876.91 L 3660.32 877.72 L 3657.08 878.53 L 3653.83 879.34 L 3650.59 880.15 L 3647.35 880.96 L 3644.10 881.77 L 3640.86 882.59 L 3637.62 883.40 L 3634.37 884.21 L 3631.13 885.02 L 3627.89 885.83 L 3624.64 886.64 L 3621.43 887.54 L 3618.33 888.71 L 3615.34 890.15 L 3612.41 891.77 L 3609.49 893.39 L 3606.57 895.02 L 3603.65 896.64 L 3600.72 898.27 L 3597.80 899.89 L 3594.88 901.51 L 3591.95 903.14 L 3589.03 904.76 L 3586.11 906.38 L 3583.19 908.01 L 3580.26 909.63 L 3577.44 911.39 L 3574.81 913.39 L 3572.36 915.64 L 3569.99 918.01 L 3567.63 920.37 L 3565.26 922.74 L 3562.90 925.10 L 3560.54 927.46 L 3558.17 929.83 L 3555.81 932.19 L 3553.44 934.56 L 3551.08 936.92 L 3548.72 939.28 L 3546.35 941.65 L 3543.99 944.01 L 3541.62 946.38 L 3539.26 948.74 L 3536.90 951.10 L 3534.53 953.47 L 3532.17 955.83 L 3529.80 958.20 L 3527.44 960.56 L 3525.07 962.93 L 3522.71 965.29 L 3520.35 967.65 L 3517.98 970.02 L 3515.62 972.38 L 3513.25 974.75 L 3510.89 977.11 L 3508.53 979.47 L 3506.16 981.84 L 3503.80 984.20 L 3501.43 986.57 L 3499.07 988.93 L 3496.70 991.30 L 3494.34 993.66 L 3491.98 996.02 L 3489.90 998.60 L 3488.11 1001.38 L 3486.62 1004.36 L 3485.12 1007.36 L 3483.63 1010.35 L 3482.13 1013.34 L 3480.64 1016.33 L 3479.14 1019.32 L 3477.65 1022.31 L 3476.15 1025.30 L 3474.66 1028.29 L 3473.16 1031.28 L 3471.67 1034.27 L 3470.17 1037.26 L 3468.68 1040.25 L 3467.18 1043.24 L 3465.68 1046.23 L 3464.19 1049.22 L 3462.69 1052.21 L 3461.20 1055.20 L 3459.70 1058.19 L 3458.21 1061.18 L 3456.71 1064.17 L 3455.22 1067.16 L 3453.72 1070.15 L 3452.23 1073.14 L 3450.73 1076.13 L 3449.24 1079.12 L 3447.74 1082.12 L 3446.25 1085.11 L 3444.75 1088.10 L 3443.26 1091.09 L 3441.97 1094.15 L 3440.90 1097.30 L 3440.07 1100.54 L 3439.25 1103.78 L 3438.44 1107.02 L 3437.63 1110.27 L 3436.82 1113.51 L 3436.01 1116.75 L 3435.20 1120.00 L 3434.39 1123.24 L 3433.58 1126.49 L 3432.77 1129.73 L 3431.96 1132.97 L 3431.15 1136.22 L 3430.34 1139.46 L 3429.52 1142.70 L 3428.71 1145.95 L 3427.90 1149.19 L 3427.09 1152.43 L 3426.28 1155.68 L 3425.47 1158.92 L 3424.66 1162.16 L 3423.85 1165.41 L 3423.04 1168.65 L 3422.23 1171.89 L 3421.42 1175.14 L 3420.60 1178.38 L 3419.79 1181.63 L 3418.98 1184.87 L 3418.21 1188.12 L 3417.57 1191.40 L 3417.06 1194.70 L 3416.65 1198.01 L 3416.23 1201.33 L 3415.82 1204.65 L 3415.40 1207.97 L 3414.99 1211.28 L 3414.57 1214.60 L 3414.16 1217.92 L 3413.75 1221.24 L 3413.33 1224.55 L 3412.92 1227.87 L 3412.50 1231.19 L 3412.09 1234.51 L 3411.67 1237.82 L 3411.26 1241.14 L 3410.84 1244.46 L 3410.43 1247.78 L 3410.01 1251.09 L 3409.60 1254.41 L 3409.18 1257.73 L 3408.77 1261.05 L 3408.37 1264.37 L 3408.12 1267.69 L 3408.00 1271.03 L 3408.00 1274.37 L 3408.00 1277.72 L 3408.00 1281.06 L 3408.00 1284.40 L 3408.00 1287.75 L 3408.00 1291.09 L 3408.00 1294.43 L 3408.00 1297.78 L 3408.00 1301.12 L 3408.00 1304.46 L 3408.00 1307.81 L 3408.00 1311.15 L 3408.00 1314.49 L 3408.00 1317.84 L 3408.00 1321.18 L 3408.00 1324.52 L 3408.00 1327.87 L 3408.00 1331.21 L 3408.00 1334.55 L 3408.00 1337.90 L 3408.00 1341.24 L 3408.00 1344.58 L 3408.00 1347.93 L 3408.00 1351.27 L 3408.00 1354.61 L 3408.00 1357.96 L 3408.00 1361.30 L 3408.00 1364.64 L 3408.00 1367.99 L 3408.00 1371.33 L 3408.03 1374.67 L 3408.27 1377.99 L 3408.74 1381.29 L 3409.39 1384.57 L 3410.05 1387.84 L 3410.70 1391.12 L 3411.36 1394.40 L 3412.02 1397.68 L 3412.67 1400.96 L 3413.33 1404.24 L 3413.98 1407.51 L 3414.64 1410.79 L 3415.29 1414.07 L 3415.95 1417.35 L 3416.61 1420.63 L 3416.77 1423.76 L 3415.94 1426.59 L 3414.55 1429.25 L 3413.65 1432.05 L 3413.75 1435.16 L 3414.41 1438.44 L 3415.06 1441.72 L 3415.72 1445.00 L 3416.38 1448.28 L 3417.03 1451.56 L 3417.69 1454.83 L 3418.34 1458.11 L 3419.00 1461.39 L 3419.65 1464.67 L 3420.31 1467.95 L 3420.97 1471.23 L 3421.62 1474.51 L 3422.28 1477.78 L 3422.93 1481.06 L 3423.59 1484.34 L 3424.24 1487.62 L 3424.90 1490.90 L 3425.56 1494.18 L 3426.21 1497.45 L 3426.87 1500.73 L 3427.52 1504.01 L 3428.18 1507.29 L 3428.83 1510.57 L 3429.49 1513.85 L 3430.15 1517.13 L 3430.80 1520.40 L 3431.46 1523.68 L 3432.11 1526.96 L 3432.77 1530.24 L 3433.42 1533.52 L 3434.08 1536.80 L 3434.73 1540.07 L 3435.39 1543.35 L 3436.05 1546.63 L 3436.70 1549.91 L 3437.36 1553.19 L 3438.01 1556.47 L 3438.67 1559.74 L 3439.32 1563.02 L 3439.98 1566.30 L 3440.64 1569.58 L 3441.29 1572.86 L 3441.95 1576.14 L 3442.60 1579.42 L 3443.26 1582.69 L 3443.91 1585.97 L 3444.57 1589.25 L 3445.23 1592.53 L 3445.88 1595.81 L 3446.54 1599.09 L 3447.19 1602.36 L 3447.85 1605.64 L 3448.50 1608.92 L 3449.16 1612.20 L 3449.82 1615.48 L 3450.47 1618.76 L 3451.13 1622.04 L 3451.78 1625.31 L 3452.44 1628.59 L 3453.09 1631.87 L 3453.75 1635.15 L 3454.41 1638.43 L 3455.06 1641.71 L 3455.78 1644.97 L 3456.63 1648.20 L 3457.59 1651.40 L 3458.60 1654.58 L 3459.62 1657.77 L 3460.63 1660.95 L 3461.64 1664.14 L 3462.66 1667.33 L 3463.67 1670.51 L 3464.69 1673.70 L 3465.70 1676.88 L 3466.71 1680.07 L 3467.73 1683.26 L 3468.74 1686.44 L 3469.75 1689.63 L 3470.77 1692.81 L 3471.78 1696.00 L 3472.80 1699.19 L 3473.81 1702.37 L 3474.82 1705.56 L 3475.84 1708.74 L 3476.85 1711.93 L 3477.86 1715.12 L 3478.88 1718.30 L 3479.89 1721.49 L 3480.91 1724.67 L 3481.92 1727.86 L 3482.93 1731.05 L 3483.95 1734.23 L 3484.96 1737.42 L 3485.97 1740.60 L 3486.99 1743.79 L 3488.00 1746.98 L 3489.07 1750.14 L 3490.28 1753.25 L 3491.63 1756.31 L 3493.05 1759.33 L 3494.47 1762.36 L 3495.90 1765.38 L 3497.32 1768.41 L 3498.74 1771.43 L 3500.17 1774.46 L 3501.59 1777.48 L 3503.01 1780.51 L 3504.44 1783.53 L 3505.86 1786.56 L 3507.29 1789.58 L 3508.71 1792.61 L 3510.13 1795.63 L 3511.56 1798.66 L 3512.98 1801.68 L 3514.40 1804.71 L 3515.83 1807.73 L 3517.25 1810.76 L 3518.67 1813.78 L 3520.10 1816.81 L 3521.52 1819.83 L 3522.95 1822.86 L 3524.37 1825.88 L 3525.79 1828.91 L 3527.00 1831.98 L 3527.74 1835.16 L 3528.00 1838.45 L 3528.00 1841.79 L 3528.08 1845.11 L 3528.68 1848.30 L 3529.82 1851.36 L 3531.41 1854.30 L 3533.00 1857.24 L 3534.59 1860.18 L 3536.18 1863.12 L 3537.76 1866.07 L 3539.35 1869.01 L 3540.94 1871.95 L 3542.53 1874.89 L 3544.12 1877.83 L 3545.71 1880.77 L 3547.30 1883.71 L 3548.89 1886.65 L 3550.48 1889.59 L 3552.07 1892.54 L 3553.66 1895.48 L 3555.25 1898.42 L 3556.84 1901.36 L 3558.43 1904.30 L 3560.02 1907.24 L 3561.61 1910.18 L 3563.20 1913.12 L 3564.79 1916.07 L 3566.38 1919.01 L 3567.97 1921.95 L 3569.56 1924.89 L 3571.15 1927.83 L 3572.74 1930.77 L 3574.33 1933.71 L 3575.92 1936.65 L 3577.51 1939.59 L 3579.10 1942.54 L 3580.69 1945.48 L 3582.28 1948.42 L 3583.87 1951.36 L 3585.46 1954.30 L 3587.05 1957.24 L 3588.64 1960.18 L 3590.23 1963.12 L 3591.82 1966.07 L 3593.41 1969.01 L 3595.00 1971.95 L 3596.59 1974.89 L 3598.18 1977.83 L 3599.77 1980.77 L 3601.36 1983.71 L 3602.95 1986.65 L 3604.54 1989.59 L 3606.13 1992.54 L 3607.72 1995.48 L 3609.31 1998.42 L 3610.90 2001.36 L 3612.49 2004.30 L 3614.08 2007.24 L 3615.67 2010.18 L 3617.26 2013.12 L 3618.85 2016.07 L 3620.44 2019.01 L 3622.03 2021.95 L 3623.42 2024.97 L 3624.55 2028.08 L 3625.43 2031.30 L 3626.24 2034.55 L 3627.05 2037.79 L 3627.86 2041.03 L 3628.67 2044.28 L 3629.48 2047.52 L 3630.29 2050.76 L 3631.10 2054.01 L 3631.91 2057.25 L 3632.72 2060.50 L 3633.53 2063.74 L 3634.35 2066.98 L 3635.16 2070.23 L 3635.97 2073.47 L 3636.78 2076.71 L 3637.59 2079.96 M 6026.41 1211.99 L 6024.02 1214.38 L 6021.63 1216.77 L 6019.24 1219.16 L 6016.85 1221.55 L 6014.46 1223.94 L 6012.07 1226.33 L 6009.68 1228.72 L 6007.29 1231.11 L 6004.90 1233.50 L 6002.51 1235.89 L 6000.12 1238.28 L 5997.73 1240.67 L 5995.34 1243.06 L 5992.95 1245.45 L 5990.56 1247.84 L 5988.17 1250.23 L 5985.78 1252.62 L 5983.39 1255.01 L 5981.90 1257.69 L 5981.39 1260.68 L 5981.87 1263.99 L 5982.42 1267.32 L 5982.98 1270.66 L 5983.53 1273.99 L 5984.09 1277.33 L 5984.64 1280.66 L 5985.20 1283.99 L 5985.75 1287.33 L 5986.31 1290.66 L 5986.87 1294.00 L 5987.42 1297.33 L 5987.98 1300.66 L 5988.53 1304.00 L 5989.09 1307.33 L 5989.64 1310.67 L 5990.12 1314.01 L 5990.47 1317.37 L 5990.70 1320.74 L 5990.88 1324.11 L 5991.06 1327.49 L 5991.24 1330.86 L 5991.42 1334.24 L 5991.60 1337.61 L 5991.78 1340.99 L 5991.96 1344.36 L 5992.14 1347.74 L 5992.32 1351.11 L 5992.50 1354.49 L 5992.69 1357.86 L 5992.87 1361.24 L 5993.05 1364.61 L 5993.23 1367.99 L 5993.41 1371.36 L 5993.59 1374.74 L 5993.77 1378.11 L 5993.95 1381.49 L 5994.13 1384.86 L 5994.31 1388.24 L 5994.49 1391.61 L 5994.67 1394.99 L 5994.86 1398.37 L 5995.04 1401.74 L 5995.22 1405.12 L 5995.40 1408.49 L 5995.58 1411.87 L 5995.76 1415.24 L 5995.94 1418.62 L 5996.12 1421.99 L 5996.30 1425.37 L 5996.48 1428.74 L 5996.66 1432.12 L 5996.84 1435.49 L 5997.03 1438.87 L 5997.21 1442.24 L 5997.39 1445.62 L 5997.57 1448.99 L 5997.75 1452.37 L 5997.93 1455.74 L 5998.11 1459.12 L 5998.29 1462.49 L 5998.47 1465.87 L 5998.65 1469.24 L 5998.83 1472.62 L 5999.01 1475.99 L 5999.19 1479.37 L 5999.38 1482.74 L 5999.56 1486.12 L 5999.74 1489.49 L 5999.92 1492.87 L 6000.10 1496.25 L 6000.28 1499.62 L 6000.46 1503.00 L 6000.64 1506.37 L 6000.82 1509.75 L 6001.00 1513.12 L 6001.18 1516.50 L 6001.36 1519.87 L 6001.55 1523.25 L 6001.73 1526.62 L 6001.91 1530.00 L 6002.09 1533.37 L 6002.27 1536.75 L 6002.45 1540.12 L 6002.63 1543.50 L 6002.81 1546.87 L 6002.99 1550.25 L 6003.17 1553.62 L 6003.35 1557.00 L 6003.53 1560.37 L 6003.72 1563.75 L 6003.90 1567.12 L 6004.08 1570.50 L 6004.26 1573.87 L 6004.44 1577.25 L 6004.62 1580.62" fill='none' stroke='#000000' stroke-opacity='0.5' stroke-width='126.27' stroke-linecap='round' stroke-linejoin='round' stroke-miterlimit='1'/>
</svg>
