<svg xmlns='http://www.w3.org/2000/svg' width='7680' height='4320' viewBox='0 0 7680 4320'>
<path d="M 6819.42 855.22 L 6813.23 856.03 L 6807.05 856.85 L 6800.86 857.67 L 6794.68 858.48 L 6788.49 859.30 L 6782.31 860.12 L 6776.12 860.93 L 6769.94 861.75 L 6763.76 862.57 L 6757.57 863.38 L 6751.39 864.20 L 6745.20 865.02 L 6739.02 865.84 L 6732.83 866.65 L 6726.65 867.47 L 6720.47 868.29 L 6714.28 869.10 L 6708.10 869.92 L 6701.91 870.74 L 6695.73 871.55 L 6689.54 872.37 L 6683.36 873.19 L 6677.17 874.00 L 6670.99 874.82 L 6664.81 875.64 L 6658.62 876.45 L 6652.44 877.27 L 6646.25 878.09 L 6640.07 878.90 L 6633.88 879.72 L 6627.70 880.54 L 6621.51 881.35 L 6615.33 882.17 L 6609.15 882.99 L 6602.96 883.81 L 6596.78 884.62 L 6590.59 885.44 L 6584.41 886.26 L 6578.22 887.07 L 6572.08 888.10 L 6565.98 889.37 L 6559.93 890.88 L 6553.89 892.42 L 6547.84 893.96 L 6541.80 895.51 L 6535.76 897.05 L 6529.71 898.59 L 6523.67 900.14 L 6517.62 901.68 L 6511.58 903.22 L 6505.53 904.77 L 6499.49 906.31 L 6493.45 907.85 L 6487.40 909.40 L 6481.36 910.94 L 6475.31 912.48 L 6469.27 914.02 L 6463.22 915.57 L 6457.18 917.11 L 6451.14 918.65 L 6445.09 920.20 L 6439.05 921.74 L 6433.00 923.28 L 6426.96 924.83 L 6420.92 926.37 L 6414.87 927.91 L 6408.83 929.46 L 6402.78 931.00 L 6396.74 932.54 L 6390.69 934.09 L 6384.65 935.63 L 6378.61 937.17 L 6372.56 938.72 L 6366.52 940.26 L 6360.47 941.80 L 6354.43 943.35 L 6348.42 945.00 L 6342.48 946.87 L 6336.60 948.96 L 6330.76 951.14 L 6324.91 953.32 L 6319.07 955.50 L 6313.23 957.68 L 6307.38 959.86 L 6301.54 962.04 L 6295.69 964.22 L 6289.85 966.40 L 6284.00 968.58 L 6278.16 970.76 L 6272.31 972.95 L 6266.47 975.13 L 6260.63 977.31 L 6254.78 979.49 L 6248.94 981.67 L 6243.09 983.85 L 6237.25 986.03 L 6231.40 988.21 L 6225.56 990.39 L 6219.71 992.57 L 6213.87 994.75 L 6208.02 996.93 L 6202.18 999.11 L 6196.34 1001.30 L 6190.49 1003.48 L 6184.65 1005.66 L 6178.80 1007.84 L 6172.96 1010.02 L 6167.11 1012.20 L 6161.27 1014.38 L 6155.42 1016.56 L 6149.58 1018.74 L 6143.74 1020.92 L 6137.89 1023.10 L 6132.05 1025.28 L 6126.20 1027.46 L 6120.36 1029.65 L 6114.51 1031.83 L 6108.67 1034.01 L 6102.82 1036.19 L 6096.98 1038.37 L 6091.13 1040.55 L 6085.29 1042.73 L 6079.45 1044.91 L 6073.60 1047.09 L 6067.76 1049.27 L 6061.91 1051.45 L 6056.07 1053.63 L 6050.22 1055.82 L 6044.38 1058.00 L 6038.53 1060.18 L 6032.69 1062.36 L 6026.88 1064.62 L 6021.14 1067.05 L 6015.47 1069.65 L 6009.84 1072.33 L 6004.20 1075.00 L 5998.57 1077.68 L 5992.93 1080.36 L 5987.30 1083.03 L 5981.67 1085.71 L 5976.03 1088.39 L 5970.40 1091.06 L 5964.76 1093.74 L 5959.13 1096.41 L 5953.49 1099.09 L 5947.86 1101.77 L 5942.22 1104.44 L 5936.59 1107.12 L 5930.95 1109.80 L 5925.32 1112.47 L 5919.68 1115.15 L 5914.05 1117.83 L 5908.41 1120.50 L 5902.78 1123.18 L 5897.14 1125.86 L 5891.51 1128.53 L 5885.87 1131.21 L 5880.24 1133.89 L 5874.61 1136.56 L 5868.97 1139.24 L 5863.34 1141.92 L 5857.70 1144.59 L 5852.07 1147.27 L 5846.43 1149.94 L 5840.80 1152.62 L 5835.16 1155.30 L 5829.53 1157.97 L 5823.89 1160.65 L 5818.26 1163.33 L 5812.62 1166.00 L 5806.99 1168.68 L 5801.35 1171.36 L 5795.72 1174.03 L 5790.08 1176.71 L 5784.45 1179.39 L 5778.81 1182.06 L 5773.18 1184.74 L 5767.55 1187.42 L 5761.91 1190.09 L 5756.28 1192.77 L 5750.64 1195.45 L 5745.01 1198.12 L 5739.37 1200.80 L 5733.74 1203.47 L 5728.10 1206.15 L 5722.47 1208.83 L 5716.83 1211.50 L 5711.20 1214.18 L 5705.56 1216.86 L 5699.93 1219.53 L 5694.29 1222.21 L 5688.66 1224.89 L 5683.02 1227.56 L 5677.39 1230.24 L 5671.75 1232.92 L 5666.12 1235.59 L 5660.49 1238.27 L 5654.85 1240.95 L 5649.22 1243.62 L 5643.60 1246.33 L 5638.03 1249.14 L 5632.51 1252.05 L 5627.03 1255.02 L 5621.54 1257.99 L 5616.05 1260.95 L 5610.57 1263.92 L 5605.08 1266.89 L 5599.59 1269.86 L 5594.11 1272.83 L 5588.62 1275.80 L 5583.13 1278.76 L 5577.65 1281.73 L 5572.16 1284.70 L 5566.67 1287.67 L 5561.19 1290.64 L 5555.70 1293.60 L 5550.21 1296.57 L 5544.73 1299.54 L 5539.24 1302.51 L 5533.75 1305.48 L 5528.27 1308.45 L 5522.78 1311.41 L 5517.29 1314.38 L 5511.81 1317.35 L 5506.32 1320.32 L 5500.83 1323.29 L 5495.35 1326.26 L 5489.86 1329.22 L 5484.37 1332.19 L 5478.89 1335.16 L 5473.40 1338.13 L 5467.91 1341.10 L 5462.43 1344.06 L 5456.94 1347.03 L 5451.45 1350.00 L 5445.97 1352.97 L 5440.48 1355.94 L 5434.99 1358.91 L 5429.51 1361.87 L 5424.02 1364.84 L 5418.53 1367.81 L 5413.05 1370.78 L 5407.56 1373.75 L 5402.07 1376.71 L 5396.59 1379.68 L 5391.10 1382.65 L 5385.61 1385.62 L 5380.13 1388.59 L 5374.64 1391.56 L 5369.15 1394.52 L 5363.67 1397.49 L 5358.18 1400.46 L 5352.69 1403.43 L 5347.24 1406.46 L 5341.82 1409.55 L 5336.44 1412.71 L 5331.06 1415.86 L 5325.68 1419.02 L 5320.30 1422.17 L 5314.92 1425.32 L 5309.53 1428.48 L 5304.15 1431.63 L 5298.77 1434.79 L 5293.39 1437.94 L 5288.01 1441.10 L 5282.63 1444.25 L 5277.25 1447.41 L 5271.86 1450.56 L 5266.48 1453.72 L 5261.10 1456.87 L 5255.72 1460.03 L 5250.34 1463.18 L 5244.96 1466.34 L 5239.57 1469.49 L 5234.19 1472.65 L 5228.81 1475.80 L 5223.43 1478.96 L 5218.05 1482.11 L 5212.67 1485.26 L 5207.28 1488.42 L 5201.90 1491.57 L 5196.52 1494.73 L 5191.14 1497.88 L 5185.76 1501.04 L 5180.38 1504.19 L 5174.99 1507.35 L 5169.61 1510.50 L 5164.23 1513.66 L 5158.85 1516.81 L 5153.47 1519.97 L 5148.09 1523.12 L 5142.71 1526.28 L 5137.32 1529.43 L 5131.94 1532.59 L 5126.56 1535.74 L 5121.18 1538.90 L 5115.80 1542.05 L 5110.42 1545.20 L 5105.03 1548.36 L 5099.65 1551.51 L 5094.27 1554.67 L 5088.89 1557.82 L 5083.51 1560.98 L 5078.13 1564.13 L 5072.74 1567.29 L 5067.36 1570.44 L 5061.98 1573.60 L 5056.60 1576.75 L 5051.22 1579.91 L 5045.84 1583.06 L 5040.45 1586.22 L 5035.07 1589.37 L 5029.69 1592.53 L 5024.31 1595.68 L 5018.93 1598.84 L 5013.55 1601.99 L 5008.17 1605.14 L 5002.78 1608.30 L 4997.40 1611.45 L 4992.02 1614.61 L 4986.64 1617.76 L 4981.26 1620.92 L 4975.88 1624.07 L 4970.49 1627.23 L 4965.11 1630.38 L 4959.73 1633.54 L 4954.35 1636.69 L 4948.97 1639.85 L 4943.59 1643.00 L 4938.20 1646.16 L 4932.82 1649.31 L 4927.44 1652.47 L 4922.06 1655.62 L 4916.68 1658.78 L 4911.30 1661.93 L 4905.91 1665.08 L 4900.53 1668.24 L 4895.15 1671.39 L 4889.77 1674.55 L 4884.39 1677.70 L 4879.01 1680.86 L 4873.63 1684.01 L 4868.24 1687.17 L 4862.86 1690.32 L 4857.48 1693.48 L 4852.10 1696.63 L 4846.72 1699.79 L 4841.34 1702.94 L 4835.95 1706.10 L 4830.57 1709.25 L 4825.19 1712.41 L 4819.81 1715.56 L 4814.43 1718.71 L 4809.05 1721.87 L 4803.66 1725.02 L 4798.28 1728.18 L 4792.92 1731.36 L 4787.58 1734.58 L 4782.26 1737.85 L 4776.96 1741.14 L 4771.66 1744.43 L 4766.36 1747.72 L 4761.07 1751.01 L 4755.77 1754.30 L 4750.47 1757.60 L 4745.17 1760.89 L 4739.87 1764.18 L 4734.57 1767.47 L 4729.27 1770.76 L 4723.97 1774.05 L 4718.67 1777.34 L 4713.37 1780.63 L 4708.07 1783.92 L 4702.77 1787.21 L 4697.47 1790.50 L 4692.17 1793.79 L 4686.87 1797.08 L 4681.57 1800.37 L 4676.27 1803.66 L 4670.97 1806.95 L 4665.67 1810.25 L 4660.37 1813.54 L 4655.07 1816.83 L 4649.77 1820.12 L 4644.47 1823.41 L 4639.17 1826.70 L 4633.87 1829.99 L 4628.58 1833.28 L 4623.28 1836.57 L 4617.98 1839.86 L 4612.68 1843.15 L 4607.38 1846.44 L 4602.08 1849.73 L 4596.78 1853.02 L 4591.48 1856.31 L 4586.18 1859.60 L 4580.88 1862.89 L 4575.58 1866.19 L 4570.28 1869.48 L 4564.98 1872.77 L 4559.68 1876.06 L 4554.38 1879.35 L 4549.08 1882.64 L 4543.78 1885.93 L 4538.48 1889.22 L 4533.18 1892.51 L 4527.88 1895.80 L 4522.58 1899.09 L 4517.28 1902.38 L 4511.98 1905.67 L 4506.68 1908.96 L 4501.38 1912.25 L 4496.08 1915.54 L 4490.79 1918.84 L 4485.49 1922.13 L 4480.19 1925.42 L 4474.89 1928.71 L 4469.59 1932.00 L 4464.29 1935.29 L 4458.99 1938.58 L 4453.69 1941.87 L 4448.39 1945.16 L 4443.09 1948.45 L 4437.79 1951.74 L 4432.49 1955.03 L 4427.19 1958.32 L 4421.89 1961.61 L 4416.59 1964.90 L 4411.29 1968.19 L 4405.99 1971.49 L 4400.69 1974.78 L 4395.39 1978.07 L 4390.09 1981.36 L 4384.79 1984.65 L 4379.49 1987.94 L 4374.19 1991.23 L 4368.89 1994.52 L 4363.59 1997.81 L 4358.30 2001.10 L 4353.00 2004.39 L 4347.70 2007.68 L 4342.40 2010.97 L 4337.10 2014.26 L 4331.80 2017.55 L 4326.50 2020.84 L 4321.20 2024.13 L 4315.90 2027.43 L 4310.60 2030.72 L 4305.30 2034.01 L 4300.00 2037.30 L 4294.70 2040.59 L 4289.40 2043.88 L 4284.10 2047.17 L 4278.80 2050.46 L 4273.50 2053.75 L 4268.20 2057.04 L 4262.90 2060.33 L 4257.60 2063.62 L 4252.30 2066.91 L 4247.00 2070.20 L 4241.70 2073.49 L 4236.40 2076.78 L 4231.10 2080.08 L 4225.80 2083.37 L 4220.51 2086.66 L 4215.21 2089.95 L 4209.91 2093.24 L 4204.61 2096.53 L 4199.31 2099.82 L 4194.01 2103.11 L 4188.71 2106.40 L 4183.41 2109.69 L 4178.11 2112.98 L 4172.81 2116.27 L 4167.51 2119.56 L 4162.21 2122.85 L 4156.91 2126.14 L 4151.61 2129.43 L 4146.31 2132.72 L 4141.01 2136.02 L 4135.71 2139.31 L 4130.41 2142.60 L 4125.11 2145.89 L 4119.81 2149.18 L 4114.51 2152.47 L 4109.21 2155.76 L 4103.91 2159.05 L 4098.61 2162.34 L 4093.31 2165.63 L 4088.01 2168.92 L 4082.72 2172.21 L 4077.42 2175.50 L 4072.12 2178.79 L 4066.82 2182.08 L 4061.52 2185.37 L 4056.22 2188.67 L 4050.92 2191.96 L 4045.62 2195.25 L 4040.32 2198.54 L 4035.02 2201.83 L 4029.72 2205.12 L 4024.42 2208.41 L 4019.12 2211.70 L 4013.82 2214.99 L 4008.52 2218.28 L 4003.22 2221.57 L 3997.92 2224.86 L 3992.62 2228.15 L 3987.32 2231.44 L 3982.02 2234.73 L 3976.72 2238.02 L 3971.42 2241.31 L 3966.12 2244.61 L 3960.82 2247.90 L 3955.52 2251.19 L 3950.23 2254.48 L 3944.93 2257.77 L 3939.63 2261.06 L 3934.33 2264.35 L 3929.03 2267.64 L 3923.73 2270.93 L 3918.43 2274.22 L 3913.13 2277.51 L 3907.83 2280.80 L 3902.53 2284.09 L 3897.23 2287.38 L 3891.93 2290.67 L 3886.63 2293.96 L 3881.33 2297.26 L 3876.03 2300.55 L 3870.73 2303.84 L 3865.43 2307.13 L 3860.13 2310.42 L 3854.83 2313.71 L 3849.53 2317.00 L 3844.23 2320.29 L 3838.93 2323.58 L 3833.63 2326.87 L 3828.33 2330.16 L 3823.03 2333.45 L 3817.73 2336.74 L 3812.44 2340.03 L 3807.14 2343.32 L 3801.84 2346.61 L 3796.54 2349.90 L 3791.24 2353.20 L 3785.94 2356.49 L 3780.64 2359.78 L 3775.34 2363.07 L 3770.04 2366.36 L 3764.74 2369.65 L 3759.44 2372.94 L 3754.14 2376.23 L 3748.84 2379.52 L 3743.54 2382.81 L 3738.24 2386.10 L 3732.94 2389.39 L 3727.64 2392.68 L 3722.34 2395.97 L 3717.04 2399.26 L 3711.74 2402.55 L 3706.44 2405.85 L 3701.14 2409.14 L 3695.84 2412.43 L 3690.54 2415.72 L 3685.24 2419.01 L 3679.95 2422.30 L 3674.65 2425.59 L 3669.35 2428.88 L 3664.05 2432.17 L 3658.75 2435.46 L 3653.45 2438.75 L 3648.15 2442.04 L 3642.85 2445.33 L 3637.55 2448.62 L 3632.25 2451.91 L 3626.95 2455.20 L 3621.65 2458.49 L 3616.35 2461.79 L 3611.05 2465.08 L 3605.75 2468.37 L 3600.45 2471.66 L 3595.15 2474.95 L 3589.85 2478.24 L 3584.55 2481.53 L 3579.25 2484.82 L 3573.95 2488.11 L 3568.65 2491.40 L 3563.35 2494.69 L 3558.05 2497.98 L 3552.75 2501.27 L 3547.45 2504.56 L 3542.16 2507.85 L 3536.86 2511.14 L 3531.56 2514.44 L 3526.26 2517.73 L 3520.96 2521.02 L 3515.66 2524.31 L 3510.36 2527.60 L 3505.06 2530.89 L 3499.76 2534.18 L 3494.46 2537.47 L 3489.16 2540.76 L 3483.86 2544.05 L 3478.56 2547.34 L 3473.26 2550.63 L 3467.96 2553.92 L 3462.66 2557.21 L 3457.36 2560.50 L 3452.06 2563.79 L 3446.76 2567.08 L 3441.46 2570.38 L 3436.16 2573.67 L 3430.86 2576.96 L 3425.56 2580.25 L 3420.26 2583.54 L 3414.96 2586.83 L 3409.66 2590.12 L 3404.37 2593.41 L 3399.07 2596.70 L 3393.77 2599.99 L 3388.47 2603.28 L 3383.17 2606.57 L 3377.87 2609.86 L 3372.57 2613.15 L 3367.27 2616.44 L 3361.97 2619.73 L 3356.67 2623.03 L 3351.37 2626.32 L 3346.07 2629.61 L 3340.77 2632.90 L 3335.47 2636.19 L 3330.17 2639.48 L 3324.85 2642.73 L 3319.48 2645.90 L 3314.05 2648.98 L 3308.59 2651.99 L 3303.14 2655.01 L 3297.68 2658.03 L 3292.22 2661.05 L 3286.76 2664.07 L 3281.30 2667.09 L 3275.84 2670.11 L 3270.38 2673.13 L 3264.93 2676.15 L 3259.47 2679.17 L 3254.01 2682.19 L 3248.55 2685.21 L 3243.09 2688.23 L 3237.63 2691.25 L 3232.17 2694.27 L 3226.72 2697.29 L 3221.26 2700.31 L 3215.80 2703.33 L 3210.34 2706.35 L 3204.88 2709.37 L 3199.42 2712.39 L 3193.96 2715.41 L 3188.51 2718.43 L 3183.05 2721.45 L 3177.59 2724.47 L 3172.13 2727.49 L 3166.67 2730.51 L 3161.21 2733.52 L 3155.75 2736.54 L 3150.30 2739.56 L 3144.84 2742.58 L 3139.38 2745.60 L 3133.92 2748.62 L 3128.46 2751.64 L 3123.00 2754.66 L 3117.54 2757.68 L 3112.09 2760.70 L 3106.63 2763.72 L 3101.17 2766.73 L 3095.64 2769.62 L 3090.04 2772.37 L 3084.39 2775.01 L 3078.73 2777.64 L 3073.08 2780.27 L 3067.42 2782.90 L 3061.77 2785.54 L 3056.11 2788.17 L 3050.46 2790.80 L 3044.80 2793.43 L 3039.15 2796.07 L 3033.49 2798.70 L 3027.84 2801.33 L 3022.18 2803.96 L 3016.52 2806.60 L 3010.87 2809.23 L 3005.21 2811.86 L 2999.56 2814.50 L 2993.90 2817.13 L 2988.25 2819.76 L 2982.59 2822.39 L 2976.94 2825.03 L 2971.28 2827.66 L 2965.63 2830.29 L 2959.97 2832.92 L 2954.32 2835.56 L 2948.66 2838.19 L 2943.01 2840.82 L 2937.35 2843.45 L 2931.69 2846.09 L 2926.04 2848.72 L 2920.38 2851.35 L 2914.73 2853.99 L 2909.07 2856.62 L 2903.42 2859.25 L 2897.76 2861.88 L 2892.11 2864.52 L 2886.45 2867.15 L 2880.80 2869.78 L 2875.14 2872.41 L 2869.49 2875.05 L 2863.83 2877.68 L 2858.17 2880.31 L 2852.52 2882.94 L 2846.86 2885.58 L 2841.21 2888.21 L 2835.55 2890.84 L 2829.90 2893.48 L 2824.24 2896.11 L 2818.53 2898.59 L 2812.73 2900.89 L 2806.87 2903.01 L 2800.99 2905.09 L 2795.11 2907.18 L 2789.23 2909.27 L 2783.35 2911.35 L 2777.47 2913.44 L 2771.59 2915.52 L 2765.72 2917.61 L 2759.84 2919.70 L 2753.96 2921.78 L 2748.08 2923.87 L 2742.20 2925.95 L 2736.32 2928.04 L 2730.44 2930.13 L 2724.56 2932.21 L 2718.68 2934.30 L 2712.80 2936.39 L 2706.93 2938.47 L 2701.05 2940.56 L 2695.17 2942.64 L 2689.29 2944.73 L 2683.41 2946.82 L 2677.53 2948.90 L 2671.63 2950.91 L 2665.68 2952.76 L 2659.68 2954.46 L 2653.65 2956.08 L 2647.63 2957.70 L 2641.60 2959.32 L 2635.58 2960.94 L 2629.56 2962.57 L 2623.53 2964.19 L 2617.51 2965.81 L 2611.49 2967.43 L 2605.46 2969.05 L 2599.44 2970.67 L 2593.42 2972.30 L 2587.39 2973.92 L 2581.37 2975.54 L 2575.34 2977.16 L 2569.32 2978.78 L 2563.30 2980.40 L 2557.27 2982.03 L 2551.25 2983.65 L 2545.19 2985.10 L 2539.09 2986.35 L 2532.94 2987.38 L 2526.78 2988.38 L 2520.62 2989.37 L 2514.46 2990.36 L 2508.30 2991.36 L 2502.14 2992.35 L 2495.99 2993.34 L 2489.83 2994.34 L 2483.67 2995.33 L 2477.51 2996.32 L 2471.35 2997.32 L 2465.19 2998.31 L 2459.03 2999.30 L 2452.88 3000.30 L 2446.72 3001.29 L 2440.56 3002.28 L 2434.40 3003.28 L 2428.24 3004.27 L 2422.08 3005.26 L 2415.93 3006.26 L 2409.77 3007.25 L 2403.61 3008.24 L 2397.57 3008.44 L 2391.73 3007.37 L 2385.92 3006.30 L 2380.02 3006.16 L 2373.94 3007.39 L 2367.85 3008.74 L 2361.76 3010.10 L 2355.68 3011.45 L 2349.59 3012.80 L 2343.46 3013.79 L 2337.28 3014.32 L 2331.05 3014.40 L 2324.81 3014.40 L 2318.57 3014.40 L 2312.33 3014.40 L 2306.09 3014.40 L 2299.86 3014.40 L 2293.62 3014.40 L 2287.38 3014.40 L 2281.14 3014.40 L 2274.90 3014.40 L 2268.67 3014.40 L 2262.43 3014.40 L 2256.19 3014.36 L 2249.96 3014.12 L 2243.75 3013.69 L 2237.54 3013.10 L 2231.33 3012.51 L 2225.12 3011.92 L 2218.91 3011.32 L 2212.70 3010.73 L 2206.49 3010.14 L 2200.28 3009.55 L 2194.07 3008.96 L 2187.86 3008.37 L 2181.65 3007.78 L 2175.44 3007.18 L 2169.23 3006.59 L 2163.02 3006.00 L 2156.81 3005.41 L 2150.62 3004.63 L 2144.47 3003.65 L 2138.34 3002.48 L 2132.22 3001.30 L 2126.09 3000.13 L 2119.96 2998.95 L 2113.84 2997.77 L 2107.71 2996.59 L 2101.59 2995.41 L 2095.46 2994.23 L 2089.34 2993.06 L 2083.21 2991.88 L 2077.08 2990.70 L 2070.96 2989.52 L 2064.83 2988.34 L 2058.71 2987.17 L 2052.58 2985.99 L 2046.45 2984.81 L 2040.33 2983.63 L 2034.20 2982.45 L 2028.12 2981.11 L 2022.12 2979.48 L 2016.18 2977.57 L 2010.28 2975.55 L 2004.38 2973.53 L 1998.48 2971.50 L 1992.58 2969.48 L 1986.68 2967.46 L 1980.78 2965.43 L 1974.88 2963.41 L 1968.98 2961.39 L 1963.08 2959.36 L 1957.17 2957.34 L 1951.27 2955.32 L 1945.37 2953.29 L 1939.47 2951.27 L 1933.57 2949.25 L 1927.67 2947.22 L 1921.77 2945.20 L 1915.87 2943.18 L 1909.97 2941.15 L 1904.07 2939.13 L 1898.17 2937.11 L 1892.26 2935.09 L 1886.36 2933.06 L 1880.46 2931.04 L 1874.56 2929.02 L 1868.66 2926.99 L 1862.78 2924.93 L 1857.05 2922.51 L 1851.48 2919.76 L 1846.04 2916.70 L 1840.61 2913.64 L 1835.17 2910.58 L 1829.73 2907.52 L 1824.30 2904.47 L 1818.86 2901.41 L 1813.42 2898.35 L 1807.98 2895.29 L 1802.55 2892.23 L 1797.11 2889.17 L 1791.67 2886.12 L 1786.24 2883.06 L 1780.80 2880.00 L 1771.20 2875.20 L 1768.18 2873.76 L 1765.16 2872.33 L 1762.14 2870.89 L 1759.13 2869.45 L 1756.11 2868.01 L 1753.09 2866.58 L 1750.07 2865.14 L 1747.05 2863.70 L 1744.03 2862.26 L 1741.01 2860.83 L 1737.99 2859.39 L 1734.98 2857.95 L 1731.96 2856.51 L 1728.94 2855.08 L 1725.92 2853.64 L 1722.90 2852.20 L 1719.88 2850.76 L 1716.86 2849.33 L 1713.84 2847.89 L 1710.83 2846.45 L 1707.81 2845.01 L 1704.79 2843.58 L 1701.77 2842.14 L 1698.75 2840.70 L 1695.73 2839.26 L 1692.71 2837.83 L 1689.69 2836.39 L 1686.68 2834.95 L 1683.66 2833.51 L 1680.64 2832.08 L 1677.62 2830.64 L 1674.60 2829.20 L 1671.64 2827.66 L 1668.79 2825.94 L 1666.04 2824.05 L 1663.33 2822.09 L 1660.62 2820.14 L 1657.91 2818.18 L 1655.20 2816.22 L 1652.49 2814.26 L 1649.78 2812.31 L 1647.07 2810.35 L 1644.36 2808.39 L 1641.65 2806.43 L 1638.94 2804.48 L 1636.23 2802.52 L 1633.51 2800.56 L 1630.80 2798.60 L 1628.09 2796.65 L 1625.38 2794.69 L 1622.67 2792.73 L 1619.96 2790.77 L 1617.25 2788.82 L 1614.54 2786.86 L 1611.83 2784.90 L 1609.12 2782.94 L 1606.41 2780.98 L 1603.70 2779.03 L 1600.99 2777.07 L 1598.28 2775.11 L 1595.57 2773.15 L 1592.86 2771.20 L 1590.15 2769.24 L 1587.44 2767.28 L 1584.77 2765.27 L 1582.17 2763.18 L 1579.62 2761.01 L 1577.10 2758.82 L 1574.57 2756.63 L 1572.04 2754.44 L 1569.52 2752.25 L 1566.99 2750.06 L 1564.46 2747.87 L 1561.94 2745.68 L 1559.41 2743.49 L 1556.88 2741.30 L 1554.36 2739.11 L 1551.83 2736.92 L 1549.30 2734.73 L 1546.78 2732.54 L 1544.25 2730.35 L 1541.72 2728.16 L 1539.20 2725.97 L 1536.67 2723.78 L 1534.14 2721.59 L 1531.62 2719.40 L 1529.09 2717.21 L 1526.56 2715.02 L 1524.04 2712.83 L 1521.51 2710.64 L 1518.98 2708.45 L 1516.46 2706.26 L 1513.96 2704.04 L 1511.60 2701.69 L 1509.38 2699.20 L 1507.27 2696.61 L 1505.15 2694.03 L 1503.03 2691.44 L 1500.91 2688.85 L 1498.80 2686.26 L 1496.68 2683.68 L 1494.56 2681.09 L 1492.45 2678.50 L 1490.33 2675.91 L 1488.21 2673.32 L 1486.09 2670.74 L 1483.98 2668.15 L 1481.86 2665.56 L 1479.74 2662.97 L 1477.62 2660.39 L 1475.51 2657.80 L 1473.39 2655.21 L 1471.27 2652.62 L 1469.16 2650.03 L 1467.04 2647.45 L 1464.92 2644.86 L 1462.80 2642.27 L 1460.69 2639.68 L 1458.57 2637.10 L 1456.45 2634.51 L 1454.34 2631.92 L 1452.22 2629.33 L 1450.10 2626.75 L 1447.98 2624.16 L 1445.87 2621.57 L 1443.75 2618.98 L 1441.63 2616.39 L 1439.51 2613.81 L 1437.40 2611.22 L 1435.28 2608.63 L 1433.16 2606.04 L 1431.05 2603.46 L 1428.93 2600.87 L 1426.87 2598.24 L 1424.95 2595.51 L 1423.18 2592.68 L 1421.48 2589.80 L 1419.79 2586.92 L 1418.09 2584.04 L 1416.40 2581.16 L 1414.70 2578.28 L 1413.01 2575.39 L 1411.31 2572.51 L 1409.62 2569.63 L 1407.92 2566.75 L 1406.23 2563.87 L 1404.53 2560.98 L 1402.84 2558.10 L 1401.14 2555.22 L 1399.45 2552.34 L 1397.75 2549.46 L 1396.06 2546.57 L 1394.36 2543.69 L 1392.67 2540.81 L 1390.97 2537.93 L 1389.27 2535.05 L 1387.58 2532.17 L 1385.88 2529.28 L 1384.19 2526.40 L 1382.49 2523.52 L 1380.80 2520.64 L 1379.12 2517.75 L 1377.58 2514.79 L 1376.18 2511.76 L 1374.91 2508.67 L 1373.64 2505.58 L 1372.36 2502.48 L 1371.09 2499.39 L 1369.82 2496.30 L 1368.54 2493.21 L 1367.27 2490.12 L 1366.00 2487.03 L 1364.73 2483.93 L 1363.45 2480.84 L 1362.18 2477.75 L 1360.91 2474.66 L 1359.63 2471.57 L 1358.36 2468.48 L 1357.09 2465.38 L 1355.81 2462.29 L 1354.54 2459.20 L 1353.27 2456.11 L 1352.00 2453.02 L 1350.72 2449.93 L 1349.45 2446.83 L 1348.18 2443.74 L 1346.90 2440.65 L 1345.63 2437.56 L 1344.45 2434.44 L 1343.39 2431.27 L 1342.46 2428.06 L 1341.57 2424.84 L 1340.67 2421.62 L 1339.78 2418.40 L 1338.88 2415.17 L 1337.99 2411.95 L 1337.09 2408.73 L 1336.20 2405.51 L 1335.30 2402.29 L 1334.41 2399.07 L 1333.51 2395.85 L 1332.62 2392.62 L 1331.72 2389.40 L 1330.83 2386.18 L 1329.93 2382.96 L 1329.04 2379.74 L 1328.14 2376.52 L 1327.25 2373.29 L 1326.35 2370.07 L 1325.46 2366.85 L 1324.56 2363.63 L 1323.67 2360.41 L 1322.77 2357.19 L 1321.88 2353.97 L 1320.98 2350.74 L 1320.21 2347.50 L 1319.57 2344.22 L 1319.06 2340.92 L 1318.56 2337.61 L 1318.07 2334.30 L 1317.57 2331.00 L 1317.07 2327.69 L 1316.58 2324.39 L 1316.08 2321.08 L 1315.59 2317.77 L 1315.09 2314.47 L 1314.59 2311.16 L 1314.10 2307.85 L 1313.60 2304.55 L 1313.11 2301.24 L 1312.61 2297.93 L 1312.11 2294.63 L 1311.62 2291.32 L 1311.12 2288.01 L 1310.63 2284.71 L 1310.13 2281.40 L 1309.63 2278.09 L 1309.14 2274.79 L 1308.64 2271.48 L 1308.15 2268.17 L 1307.65 2264.87 L 1307.15 2261.56 L 1306.66 2258.26 L 1306.16 2254.95 L 1305.77 2251.63 L 1305.49 2248.30 L 1305.33 2244.97 L 1305.18 2241.63 L 1305.04 2238.29 L 1304.89 2234.95 L 1304.75 2231.60 L 1304.60 2228.26 L 1304.46 2224.92 L 1304.31 2221.58 L 1304.17 2218.24 L 1304.02 2214.90 L 1303.88 2211.56 L 1303.73 2208.22 L 1303.59 2204.88 L 1303.44 2201.54 L 1303.30 2198.20 L 1303.15 2194.86 L 1303.01 2191.52 L 1302.86 2188.18 L 1302.71 2184.84 L 1302.57 2181.50 L 1302.42 2178.16 L 1302.28 2174.82 L 1302.13 2171.48 L 1301.99 2168.14 L 1301.84 2164.80 L 1301.70 2161.46 L 1301.55 2158.12 L 1301.41 2154.78 L 1301.26 2151.44 L 1301.12 2148.10 L 1300.97 2144.76 L 1300.97 2141.42 L 1301.15 2138.09 L 1301.50 2134.77 L 1301.88 2131.45 L 1302.26 2128.13 L 1302.65 2124.80 L 1303.03 2121.48 L 1303.41 2118.16 L 1303.80 2114.84 L 1304.18 2111.52 L 1304.56 2108.20 L 1304.95 2104.88 L 1305.33 2101.55 L 1305.71 2098.23 L 1306.09 2094.91 L 1306.48 2091.59 L 1306.86 2088.27 L 1307.24 2084.95 L 1307.63 2081.63 L 1308.01 2078.30 L 1308.39 2074.98 L 1308.78 2071.66 L 1309.16 2068.34 L 1309.54 2065.02 L 1309.93 2061.70 L 1310.31 2058.38 L 1310.69 2055.05 L 1311.08 2051.73 L 1311.46 2048.41 L 1311.84 2045.09 L 1312.23 2041.77 L 1312.61 2038.45 L 1312.99 2035.13 L 1313.38 2031.80 L 1313.76 2028.48 L 1314.14 2025.16 L 1314.53 2021.84 L 1314.94 2018.52 L 1315.48 2015.23 L 1316.13 2011.95 L 1316.89 2008.70 L 1317.64 2005.44 L 1318.39 2002.18 L 1319.14 1998.92 L 1319.89 1995.66 L 1320.64 1992.41 L 1321.40 1989.15 L 1322.15 1985.89 L 1322.90 1982.63 L 1323.65 1979.38 L 1324.40 1976.12 L 1325.16 1972.86 L 1325.91 1969.60 L 1326.66 1966.34 L 1327.41 1963.09 L 1328.16 1959.83 L 1328.93 1956.57 L 1329.83 1953.36 L 1330.88 1950.19 L 1332.05 1947.06 L 1333.23 1943.93 L 1334.40 1940.80 L 1335.57 1937.67 L 1336.75 1934.54 L 1337.92 1931.41 L 1339.10 1928.28 L 1340.27 1925.15 L 1341.44 1922.02 L 1342.62 1918.89 L 1343.79 1915.76 L 1344.97 1912.63 L 1346.14 1909.49 L 1347.31 1906.36 L 1348.49 1903.23 L 1349.66 1900.10 L 1350.84 1896.97 L 1352.01 1893.84 L 1353.18 1890.71 L 1354.36 1887.58 L 1355.53 1884.45 L 1356.71 1881.32 L 1357.88 1878.19 L 1359.05 1875.06 L 1360.23 1871.93 L 1361.40 1868.80 L 1362.58 1865.67 L 1363.75 1862.54 L 1364.92 1859.40 L 1366.10 1856.27 L 1367.27 1853.14 L 1368.45 1850.01 L 1369.62 1846.88 L 1370.79 1843.75 L 1372.02 1840.65 L 1373.46 1837.65 L 1375.09 1834.74 L 1376.86 1831.91 L 1378.63 1829.07 L 1380.40 1826.24 L 1382.18 1823.40 L 1383.95 1820.56 L 1385.72 1817.73 L 1387.49 1814.89 L 1389.26 1812.06 L 1391.04 1809.22 L 1392.81 1806.39 L 1394.58 1803.55 L 1396.35 1800.72 L 1398.12 1797.88 L 1399.90 1795.05 L 1401.67 1792.21 L 1403.44 1789.38 L 1405.21 1786.54 L 1406.98 1783.71 L 1408.76 1780.87 L 1410.53 1778.04 L 1412.30 1775.20 L 1414.07 1772.36 L 1415.84 1769.53 L 1417.62 1766.69 L 1419.43 1763.89 L 1421.44 1761.24 L 1423.64 1758.76 L 1426.01 1756.39 L 1428.37 1754.03 L 1430.74 1751.66 L 1433.10 1749.30 L 1435.47 1746.93 L 1437.83 1744.57 L 1440.19 1742.21 L 1442.56 1739.84 L 1444.92 1737.48 L 1447.29 1735.11 L 1449.65 1732.75 L 1452.02 1730.38 L 1454.38 1728.02 L 1456.74 1725.66 L 1459.11 1723.29 L 1461.47 1720.93 L 1463.84 1718.56 L 1466.20 1716.20 L 1468.56 1713.84 L 1470.93 1711.47 L 1473.29 1709.11 L 1475.66 1706.74 L 1478.02 1704.38 L 1480.39 1702.01 L 1482.75 1699.65 L 1485.11 1697.29 L 1487.48 1694.92 L 1489.84 1692.56 L 1492.32 1690.34 L 1494.96 1688.32 L 1497.76 1686.50 L 1500.59 1684.73 L 1503.43 1682.96 L 1506.27 1681.18 L 1509.10 1679.41 L 1511.94 1677.64 L 1514.77 1675.87 L 1517.61 1674.10 L 1520.44 1672.32 L 1523.28 1670.55 L 1526.11 1668.78 L 1528.97 1667.07 L 1531.97 1665.67 L 1535.10 1664.57 L 1538.33 1663.72 L 1541.56 1662.87 L 1544.80 1662.02 L 1548.03 1661.17 L 1551.26 1660.32 L 1554.50 1659.47 L 1557.73 1658.62 L 1560.97 1657.77 L 1564.20 1656.92 L 1567.43 1656.07 L 1570.67 1655.21 L 1573.90 1654.36 L 1577.13 1653.51 L 1580.37 1652.66 L 1583.60 1651.81 L 1586.83 1650.96 L 1590.07 1650.11 L 1593.30 1649.26 L 1596.53 1648.41 L 1599.77 1647.56 L 1603.00 1646.71 L 1606.23 1645.85 L 1609.47 1645.00 L 1612.70 1644.15 L 1615.93 1643.30 L 1619.17 1642.45 L 1625.74 1641.60 L 1629.08 1641.60 L 1632.42 1641.60 L 1635.77 1641.60 L 1639.11 1641.60 L 1642.45 1641.60 L 1645.79 1641.60 L 1649.13 1641.60 L 1652.47 1641.60 L 1655.82 1641.60 L 1659.16 1641.60 L 1662.50 1641.60 L 1665.84 1641.60 L 1669.18 1641.60 L 1672.52 1641.66 L 1675.81 1642.00 L 1679.07 1642.62 L 1682.31 1643.47 L 1685.54 1644.32 L 1688.77 1645.17 L 1692.00 1646.02 L 1695.23 1646.87 L 1698.46 1647.72 L 1701.69 1648.57 L 1704.93 1649.42 L 1708.16 1650.27 L 1711.39 1651.12 L 1714.62 1651.97 L 1717.85 1652.82 L 1721.08 1653.67 L 1724.32 1654.53 L 1727.55 1655.38 L 1730.78 1656.23 L 1734.01 1657.08 L 1737.24 1657.93 L 1740.47 1658.78 L 1743.70 1659.63 L 1746.94 1660.48 L 1750.17 1661.33 L 1753.40 1662.18 L 1756.63 1663.03 L 1759.86 1663.88 L 1763.09 1664.73 L 1766.20 1665.87 L 1769.18 1667.32 L 1772.03 1669.06 L 1774.87 1670.81 L 1777.72 1672.56 L 1780.56 1674.32 L 1783.41 1676.07 L 1786.25 1677.82 L 1789.10 1679.57 L 1791.95 1681.32 L 1794.79 1683.07 L 1797.64 1684.82 L 1800.48 1686.57 L 1803.33 1688.33 L 1806.18 1690.08 L 1809.02 1691.83 L 1811.87 1693.58 L 1814.71 1695.33 L 1817.56 1697.08 L 1820.41 1698.83 L 1823.25 1700.59 L 1826.09 1702.34 L 1828.81 1704.27 L 1831.40 1706.36 L 1833.87 1708.61 L 1836.34 1710.86 L 1838.81 1713.10 L 1841.29 1715.35 L 1843.76 1717.60 L 1846.23 1719.85 L 1848.70 1722.09 L 1851.18 1724.34 L 1853.65 1726.59 L 1856.12 1728.84 L 1858.59 1731.09 L 1861.07 1733.33 L 1863.54 1735.58 L 1866.01 1737.83 L 1868.48 1740.08 L 1870.96 1742.32 L 1873.43 1744.57 L 1875.90 1746.82 L 1878.37 1749.07 L 1880.73 1751.42 L 1882.92 1753.93 L 1884.93 1756.58 L 1886.90 1759.28 L 1888.86 1761.99 L 1890.83 1764.69 L 1892.79 1767.39 L 1894.76 1770.09 L 1896.72 1772.80 L 1898.69 1775.50 L 1900.66 1778.20 L 1902.62 1780.90 L 1904.59 1783.61 L 1906.55 1786.31 L 1908.52 1789.01 L 1910.48 1791.71 L 1912.45 1794.42 L 1914.41 1797.12 L 1916.38 1799.82 L 1918.32 1802.54 L 1920.07 1805.37 L 1921.65 1808.30 L 1923.07 1811.32 L 1924.49 1814.35 L 1925.92 1817.37 L 1927.34 1820.39 L 1928.76 1823.42 L 1930.18 1826.44 L 1931.61 1829.46 L 1933.03 1832.49 L 1934.45 1835.51 L 1935.87 1838.53 L 1937.30 1841.56 L 1938.72 1844.58 L 1940.14 1847.60 L 1941.57 1850.63 L 1942.99 1853.65 L 1944.41 1856.68 L 1945.83 1859.70 L 1947.26 1862.72 L 1948.68 1865.75 L 1950.10 1868.77 L 1951.53 1871.79 L 1952.95 1874.82 L 1954.37 1877.84 L 1955.79 1880.86 L 1957.20 1883.89 L 1958.48 1886.98 L 1959.63 1890.10 L 1960.69 1893.27 L 1961.75 1896.44 L 1962.81 1899.62 L 1963.86 1902.79 L 1964.92 1905.96 L 1965.98 1909.13 L 1967.03 1912.30 L 1968.09 1915.47 L 1969.15 1918.64 L 1970.20 1921.81 L 1971.26 1924.98 L 1972.32 1928.15 L 1973.37 1931.32 L 1974.43 1934.49 L 1975.49 1937.66 L 1976.54 1940.83 L 1977.43 1944.04 L 1978.15 1947.29 L 1978.70 1950.59 L 1979.25 1953.88 L 1979.80 1957.18 L 1980.35 1960.48 L 1980.90 1963.77 L 1981.44 1967.07 L 1981.99 1970.36 L 1982.54 1973.66 L 1983.09 1976.96 L 1983.64 1980.25 L 1984.19 1983.55 L 1984.74 1986.84 L 1985.29 1990.14 L 1985.84 1993.44 L 1986.39 1996.73 L 1986.94 2000.03 L 1987.49 2003.32 L 1988.04 2006.62 L 1988.59 2009.92 L 1989.14 2013.21 L 1989.68 2016.51 L 1990.23 2019.81 L 1990.78 2023.10 L 1991.33 2026.40 L 1991.74 2029.71 L 1991.96 2033.03 L 1992.00 2036.37 L 1992.00 2039.71 L 1992.00 2043.05 L 1992.00 2046.39 L 1992.00 2049.73 L 1992.00 2053.07 L 1992.00 2056.42 L 1992.00 2059.76 L 1992.00 2063.10 L 1992.00 2066.44 L 1992.00 2069.78 L 1992.00 2073.12 L 1992.00 2076.47 L 1992.00 2079.81 L 1992.00 2083.15 L 1992.00 2086.49 L 1992.00 2089.83 L 1992.00 2093.17 L 1992.00 2096.51 L 1992.00 2099.86 L 1992.00 2103.20 L 1992.00 2106.54 L 1992.00 2109.88 L 1992.00 2113.22 L 1992.00 2116.56 L 1992.00 2119.91 L 1992.00 2123.25 L 1992.00 2126.59 L 1992.00 2129.93 L 1992.00 2133.27 L 1992.00 2136.61 L 1992.00 2139.95 L 1992.00 2143.30 L 1992.00 2146.64 L 1992.00 2149.98 L 1992.00 2153.32 L 1992.00 2156.66 L 1992.00 2160.00 L 1992.00 2163.35 L 1992.00 2166.69 L 1992.00 2170.03 L 1992.00 2173.37 L 1992.00 2176.71 L 1992.00 2180.05 L 1992.00 2183.39 L 1992.00 2186.74 L 1992.00 2190.08 L 1992.00 2193.42 L 1992.00 2196.76 L 1992.00 2200.10 L 1992.00 2203.44 L 1991.87 2206.77 L 1991.55 2210.09 L 1991.03 2213.38 L 1990.44 2216.67 L 1989.85 2219.96 L 1989.26 2223.25 L 1988.67 2226.54 L 1988.08 2229.83 L 1987.49 2233.12 L 1986.90 2236.40 L 1986.31 2239.69 L 1985.72 2242.98 L 1985.13 2246.27 L 1984.54 2249.56 L 1983.95 2252.85 L 1983.36 2256.14 L 1982.77 2259.43 L 1982.18 2262.72 L 1981.59 2266.01 L 1981.00 2269.29 L 1980.41 2272.58 L 1979.82 2275.87 L 1979.23 2279.16 L 1978.64 2282.45 L 1978.05 2285.74 L 1977.46 2289.03 L 1976.87 2292.32 L 1976.28 2295.61 L 1975.69 2298.90 L 1975.10 2302.18 L 1974.50 2305.47 L 1973.91 2308.76 L 1973.32 2312.05 L 1972.73 2315.34 L 1972.14 2318.63 L 1971.55 2321.92 L 1970.96 2325.21 L 1970.37 2328.50 L 1969.78 2331.79 L 1969.19 2335.07 L 1968.60 2338.36 L 1968.01 2341.65 L 1967.42 2344.94 L 1966.83 2348.23 L 1966.24 2351.52 L 1965.65 2354.81 L 1965.06 2358.10 L 1964.47 2361.39 L 1963.88 2364.68 L 1963.29 2367.96 L 1962.70 2371.25 L 1962.11 2374.54 L 1961.52 2377.83 L 1960.93 2381.12 L 1960.34 2384.41 L 1959.75 2387.70 L 1959.16 2390.99 L 1958.46 2394.25 L 1957.62 2397.48 L 1956.64 2400.67 L 1955.61 2403.85 L 1954.59 2407.03 L 1953.57 2410.21 L 1952.54 2413.39 L 1951.52 2416.57 L 1950.49 2419.75 L 1949.47 2422.93 L 1948.44 2426.11 L 1947.42 2429.29 L 1946.40 2432.47 L 1945.37 2435.66 L 1944.35 2438.84 L 1943.32 2442.02 L 1942.30 2445.20 L 1941.27 2448.38 L 1940.25 2451.56 L 1939.23 2454.74 L 1938.20 2457.92 L 1937.18 2461.10 L 1936.15 2464.28 L 1935.13 2467.46 L 1934.10 2470.64 L 1933.08 2473.82 L 1932.06 2477.00 L 1931.03 2480.18 L 1930.01 2483.37 L 1928.98 2486.55 L 1927.96 2489.73 L 1926.93 2492.91 L 1925.91 2496.09 L 1924.89 2499.27 L 1923.86 2502.45 L 1922.84 2505.63 L 1921.81 2508.81 L 1920.79 2511.99 L 1919.76 2515.17 L 1918.74 2518.35 L 1917.72 2521.53 L 1916.69 2524.71 L 1915.67 2527.89 L 1914.64 2531.08 L 1913.62 2534.26 L 1912.59 2537.44 L 1911.57 2540.62 L 1910.55 2543.80 L 1909.52 2546.98 L 1908.50 2550.16 L 1907.47 2553.34 L 1906.45 2556.52 L 1905.42 2559.70 L 1904.40 2562.88 L 1903.38 2566.06 L 1902.35 2569.24 L 1901.33 2572.42 L 1900.30 2575.60 L 1899.28 2578.79 L 1898.26 2581.97 L 1897.23 2585.15 L 1896.21 2588.33 L 1895.18 2591.51 L 1894.16 2594.69 L 1893.13 2597.87 L 1892.11 2601.05 L 1891.09 2604.23 L 1890.06 2607.41 L 1889.04 2610.59 L 1888.01 2613.77 L 1886.99 2616.95 L 1885.96 2620.13 L 1884.94 2623.31 L 1883.92 2626.50 L 1882.89 2629.68 L 1881.87 2632.86 L 1880.84 2636.04 L 1879.82 2639.22 L 1878.79 2642.40 L 1877.77 2645.58 L 1876.75 2648.76 L 1875.72 2651.94 L 1874.70 2655.12 L 1873.67 2658.30 L 1872.65 2661.48 L 1871.62 2664.66 L 1870.60 2667.84 L 1869.58 2671.02 L 1868.55 2674.21 L 1867.47 2677.37 L 1866.31 2680.50 L 1865.07 2683.60 L 1863.81 2686.69 L 1862.54 2689.79 L 1861.28 2692.88 L 1860.01 2695.97 L 1858.75 2699.06 L 1857.48 2702.16 L 1856.22 2705.25 L 1854.95 2708.34 L 1853.69 2711.43 L 1852.42 2714.53 L 1851.16 2717.62 L 1849.89 2720.71 L 1848.63 2723.81 L 1847.36 2726.90 L 1846.09 2729.99 L 1844.83 2733.08 L 1843.56 2736.18 L 1842.30 2739.27 L 1841.03 2742.36 L 1839.77 2745.45 L 1838.50 2748.55 L 1837.24 2751.64 L 1835.97 2754.73 L 1834.71 2757.83 L 1833.44 2760.92 L 1832.18 2764.01 L 1830.91 2767.10 L 1829.65 2770.20 L 1828.38 2773.29 L 1827.12 2776.38 L 1825.85 2779.47 L 1824.51 2782.53 L 1823.04 2785.52 L 1821.43 2788.44 L 1819.75 2791.34 L 1818.08 2794.23 L 1816.40 2797.12 L 1814.73 2800.01 L 1813.06 2802.90 L 1811.38 2805.80 L 1809.71 2808.69 L 1808.03 2811.58 L 1806.36 2814.47 L 1804.68 2817.36 L 1803.01 2820.25 L 1801.34 2823.15 L 1799.66 2826.04 L 1797.99 2828.93 L 1796.31 2831.82 L 1794.64 2834.71 L 1792.96 2837.61 L 1791.29 2840.50 L 1789.62 2843.39 L 1787.94 2846.28 L 1786.27 2849.17 L 1784.59 2852.07 L 1782.92 2854.96 L 1781.25 2857.85 L 1779.57 2860.74 L 1777.90 2863.63 L 1776.22 2866.52 L 1774.55 2869.42 L 1772.87 2872.31 M 1774.56 2883.01 L 1773.13 2886.03 L 1771.69 2889.04 L 1770.26 2892.06 L 1768.82 2895.07 L 1767.39 2898.09 L 1765.95 2901.10 L 1764.52 2904.12 L 1763.08 2907.13 L 1761.65 2910.14 L 1760.21 2913.16 L 1758.77 2916.17 L 1757.34 2919.19 L 1755.90 2922.20 L 1754.47 2925.22 L 1753.03 2928.23 L 1751.60 2931.25 L 1750.16 2934.26 L 1748.73 2937.27 L 1747.29 2940.29 L 1745.86 2943.30 L 1744.42 2946.32 L 1742.98 2949.33 L 1741.55 2952.35 L 1740.11 2955.36 L 1738.68 2958.38 L 1737.24 2961.39 L 1735.81 2964.40 L 1734.37 2967.42 L 1732.94 2970.43 L 1731.50 2973.45 L 1730.07 2976.46 L 1728.59 2979.45 L 1727.04 2982.41 L 1725.41 2985.32 L 1723.76 2988.22 L 1722.10 2991.12 L 1720.44 2994.02 L 1718.79 2996.92 L 1717.13 2999.82 L 1715.48 3002.72 L 1713.82 3005.62 L 1712.16 3008.52 L 1710.51 3011.41 L 1708.85 3014.31 L 1707.19 3017.21 L 1705.54 3020.11 L 1703.88 3023.01 L 1702.22 3025.91 L 1700.57 3028.81 L 1698.91 3031.71 L 1697.25 3034.61 L 1695.60 3037.50 L 1693.94 3040.40 L 1692.28 3043.30 L 1690.63 3046.20 L 1688.97 3049.10 L 1687.32 3052.00 L 1685.66 3054.90 L 1684.00 3057.80 L 1682.35 3060.70 L 1680.69 3063.59 L 1679.03 3066.49 L 1677.38 3069.39 L 1675.72 3072.29 L 1674.06 3075.19 L 1672.41 3078.09 L 1670.75 3080.99 L 1669.09 3083.89 L 1667.44 3086.78 L 1665.78 3089.68 L 1664.12 3092.58 L 1662.47 3095.48 L 1660.81 3098.38 L 1659.15 3101.28 L 1657.50 3104.18 L 1655.84 3107.08 L 1654.19 3109.98 L 1652.52 3112.87 L 1650.79 3115.72 L 1649.01 3118.55 L 1647.18 3121.34 L 1645.36 3124.14 L 1643.53 3126.93 L 1641.70 3129.72 L 1639.88 3132.52 L 1638.05 3135.31 L 1636.22 3138.11 L 1634.39 3140.90 L 1632.57 3143.70 L 1630.74 3146.49 L 1628.91 3149.29 L 1627.09 3152.08 L 1625.26 3154.87 L 1623.43 3157.67 L 1621.60 3160.46 L 1619.78 3163.26 L 1617.95 3166.05 L 1616.12 3168.85 L 1614.30 3171.64 L 1612.47 3174.44 L 1610.64 3177.23 L 1608.81 3180.02 L 1606.99 3182.82 L 1605.16 3185.61 L 1603.33 3188.41 L 1601.51 3191.20 L 1599.68 3194.00 L 1597.85 3196.79 L 1596.02 3199.59 L 1594.20 3202.38 L 1592.37 3205.17 L 1590.54 3207.97 L 1588.72 3210.76 L 1586.89 3213.56 L 1585.06 3216.35 L 1583.23 3219.15 L 1581.41 3221.94 L 1579.58 3224.74 L 1577.75 3227.53 L 1575.93 3230.32 L 1574.10 3233.12 L 1572.27 3235.91 L 1570.41 3238.68 L 1568.48 3241.41 L 1566.49 3244.08 L 1564.47 3246.74 L 1562.44 3249.40 L 1560.42 3252.05 L 1558.39 3254.71 L 1556.37 3257.36 L 1554.35 3260.02 L 1552.32 3262.67 L 1550.30 3265.33 L 1548.28 3267.99 L 1546.25 3270.64 L 1544.23 3273.30 L 1542.21 3275.95 L 1540.18 3278.61 L 1538.16 3281.26 L 1536.14 3283.92 L 1534.11 3286.58 L 1532.09 3289.23 L 1530.07 3291.89 L 1528.04 3294.54 L 1526.02 3297.20 L 1524.00 3299.85 L 1521.97 3302.51 L 1519.95 3305.17 L 1517.93 3307.82 L 1515.90 3310.48 L 1513.88 3313.13 L 1511.86 3315.79 L 1509.83 3318.44 L 1507.81 3321.10 L 1505.79 3323.76 L 1503.76 3326.41 L 1501.74 3329.07 L 1499.72 3331.72 L 1497.69 3334.38 L 1495.67 3337.04 L 1493.63 3339.68 L 1491.56 3342.30 L 1489.47 3344.90 L 1487.36 3347.49 L 1485.26 3350.08 L 1483.15 3352.67 L 1481.05 3355.27 L 1478.94 3357.86 L 1476.84 3360.45 L 1474.73 3363.04 L 1472.63 3365.63 L 1470.52 3368.22 L 1468.41 3370.81 L 1466.31 3373.40 L 1464.20 3376.00 L 1462.10 3378.59 L 1459.99 3381.18 L 1457.89 3383.77 L 1455.78 3386.36 L 1453.68 3388.95 L 1451.57 3391.54 L 1449.47 3394.13 L 1447.36 3396.73 L 1445.26 3399.32 L 1443.15 3401.91 L 1441.04 3404.50 L 1438.94 3407.09 L 1436.83 3409.68 L 1434.73 3412.27 L 1432.62 3414.86 L 1430.45 3417.40 L 1428.20 3419.86 L 1425.89 3422.26 L 1423.56 3424.66 L 1421.24 3427.06 L 1418.92 3429.46 L 1416.60 3431.86 L 1414.28 3434.26 L 1411.95 3436.66 L 1409.63 3439.06 L 1407.31 3441.46 L 1404.99 3443.86 L 1402.67 3446.26 L 1400.35 3448.66 L 1398.02 3451.06 L 1395.70 3453.46 L 1393.38 3455.85 L 1391.06 3458.25 L 1388.74 3460.65 L 1386.41 3463.05 L 1384.09 3465.45 L 1381.77 3467.85 L 1379.45 3470.25 L 1377.13 3472.65 L 1374.80 3475.05 L 1372.48 3477.45 L 1370.16 3479.85 L 1367.84 3482.25 L 1365.52 3484.65 L 1363.20 3487.04 L 1360.87 3489.44 L 1358.55 3491.84 L 1356.23 3494.24 L 1353.91 3496.64 L 1351.59 3499.04 L 1349.26 3501.44 L 1346.94 3503.84 L 1344.62 3506.24 L 1342.30 3508.64 L 1339.98 3511.04 L 1337.66 3513.44 L 1335.33 3515.84 L 1333.01 3518.23 L 1330.69 3520.63 L 1328.37 3523.03 L 1326.05 3525.43 L 1323.72 3527.83 L 1321.40 3530.23 L 1319.08 3532.63 L 1316.76 3535.03 L 1314.44 3537.43 L 1312.12 3539.83 L 1309.79 3542.23 L 1307.47 3544.63 L 1305.15 3547.03 L 1302.83 3549.42 L 1300.51 3551.82 L 1298.18 3554.22 L 1295.86 3556.62 L 1293.54 3559.02 L 1291.22 3561.42 L 1288.90 3563.82 L 1286.51 3566.15 L 1284.05 3568.40 L 1281.52 3570.58 L 1278.99 3572.75 L 1276.45 3574.93 L 1273.92 3577.10 L 1271.38 3579.27 L 1268.85 3581.45 L 1266.31 3583.62 L 1263.78 3585.79 L 1261.24 3587.96 L 1258.71 3590.14 L 1256.17 3592.31 L 1253.64 3594.48 L 1251.10 3596.66 L 1248.57 3598.83 L 1246.03 3601.00 L 1243.50 3603.17 L 1240.96 3605.35 L 1238.43 3607.52 L 1235.89 3609.69 L 1233.36 3611.87 L 1230.82 3614.04 L 1228.29 3616.21 L 1225.75 3618.38 L 1223.22 3620.56 L 1220.68 3622.73 L 1218.15 3624.90 L 1215.61 3627.08 L 1213.08 3629.25 L 1210.54 3631.42 L 1208.01 3633.59 L 1205.47 3635.77 L 1202.94 3637.94 L 1200.40 3640.11 L 1197.87 3642.29 L 1195.33 3644.46 L 1192.80 3646.63 L 1190.26 3648.80 L 1187.73 3650.98 L 1185.19 3653.15 L 1182.66 3655.32 L 1180.12 3657.50 L 1177.59 3659.67 L 1175.05 3661.84 L 1172.52 3664.01 L 1169.98 3666.19 L 1167.45 3668.36 L 1164.91 3670.53 L 1162.38 3672.71 L 1159.84 3674.88 L 1157.31 3677.05 L 1154.77 3679.22 L 1152.24 3681.40 L 1149.70 3683.57 L 1147.17 3685.74 L 1144.63 3687.92 L 1142.10 3690.09 L 1139.56 3692.26 L 1137.03 3694.43 L 1134.49 3696.61 L 1131.96 3698.78 L 1129.42 3700.95 L 1126.89 3703.13 L 1124.35 3705.30 L 1121.82 3707.47 L 1119.24 3709.59 L 1116.60 3711.62 L 1113.89 3713.57 L 1111.16 3715.50 L 1108.43 3717.42 L 1105.70 3719.34 L 1102.97 3721.26 L 1100.24 3723.18 L 1097.51 3725.10 L 1094.78 3727.02 L 1092.05 3728.95 L 1089.32 3730.87 L 1086.58 3732.79 L 1083.85 3734.71 L 1081.12 3736.63 L 1078.39 3738.55 L 1075.66 3740.47 L 1072.93 3742.40 L 1070.20 3744.32 L 1067.47 3746.24 L 1064.74 3748.16 L 1062.01 3750.08 L 1059.28 3752.00 L 1056.55 3753.92 L 1053.82 3755.85 L 1051.09 3757.77 L 1048.36 3759.69 L 1045.63 3761.61 L 1042.90 3763.53 L 1040.17 3765.45 L 1037.44 3767.37 L 1034.71 3769.30 L 1031.98 3771.22 L 1029.25 3773.14 L 1026.51 3775.06 L 1023.78 3776.98 L 1021.05 3778.90 L 1018.32 3780.82 L 1015.59 3782.75 L 1012.86 3784.67 L 1010.13 3786.59 L 1007.40 3788.51 L 1004.67 3790.43 L 1001.94 3792.35 L 999.21 3794.27 L 996.48 3796.20 L 993.75 3798.12 L 991.01 3800.02 L 988.22 3801.86 L 985.39 3803.62 L 982.52 3805.32 L 979.64 3807.03 L 976.77 3808.73 L 973.90 3810.43 L 971.03 3812.13 L 968.16 3813.83 L 965.28 3815.54 L 962.41 3817.24 L 959.54 3818.94 L 956.67 3820.64 L 953.79 3822.34 L 950.92 3824.05 L 948.05 3825.75 L 945.18 3827.45 L 942.30 3829.15 L 939.43 3830.85 L 936.56 3832.56 L 933.69 3834.26 L 930.82 3835.96 L 927.94 3837.66 L 925.07 3839.37 L 922.20 3841.07 L 919.33 3842.77 L 916.45 3844.47 L 913.58 3846.17 L 910.71 3847.88 L 907.84 3849.58 L 904.96 3851.28 L 902.09 3852.98 L 899.22 3854.68 L 896.35 3856.39 L 893.48 3858.09 L 890.60 3859.79 L 887.73 3861.49 L 884.86 3863.19 L 881.99 3864.90 L 879.11 3866.60 L 876.24 3868.30 L 873.37 3870.00 L 870.50 3871.71 L 867.62 3873.41 L 864.75 3875.11 L 861.88 3876.81 L 858.96 3878.43 L 856.01 3879.99 L 853.03 3881.49 L 850.04 3882.98 L 847.06 3884.47 L 844.07 3885.97 L 841.08 3887.46 L 838.10 3888.95 L 835.11 3890.44 L 832.12 3891.94 L 829.14 3893.43 L 826.15 3894.92 L 823.17 3896.42 L 820.18 3897.91 L 817.19 3899.40 L 814.21 3900.90 L 811.22 3902.39 L 808.23 3903.88 L 805.25 3905.38 L 802.26 3906.87 L 799.27 3908.36 L 796.29 3909.86 L 793.30 3911.35 L 790.32 3912.84 L 787.33 3914.34 L 784.34 3915.83 L 781.36 3917.32 L 778.37 3918.81 L 775.38 3920.31 L 772.40 3921.80 L 769.41 3923.29 L 766.43 3924.79 L 763.44 3926.28 L 760.45 3927.77 L 757.47 3929.27 L 754.48 3930.76 L 751.49 3932.25 L 748.51 3933.75 L 745.52 3935.24 L 742.54 3936.73 L 739.55 3938.23 L 736.55 3939.70 L 733.52 3941.08 L 730.45 3942.38 L 727.35 3943.62 L 724.25 3944.86 L 721.15 3946.10 L 718.05 3947.34 L 714.95 3948.58 L 711.85 3949.82 L 708.75 3951.06 L 705.65 3952.30 L 702.55 3953.54 L 699.45 3954.78 L 696.35 3956.02 L 693.25 3957.26 L 690.15 3958.50 L 687.05 3959.74 L 683.95 3960.98 L 680.85 3962.22 L 677.75 3963.46 L 674.65 3964.70 L 671.55 3965.94 L 668.45 3967.18 L 665.35 3968.42 L 662.25 3969.66 L 659.15 3970.90 L 656.05 3972.14 L 652.95 3973.38 L 649.85 3974.62 L 646.75 3975.86 L 643.65 3977.10 L 640.55 3978.34 L 637.45 3979.58 L 634.35 3980.82 L 631.25 3982.06 L 628.15 3983.30 L 625.05 3984.54 L 621.95 3985.78 L 618.85 3987.02 L 615.75 3988.26 L 612.65 3989.50 L 609.55 3990.74 L 606.45 3991.98 L 603.35 3993.22 L 600.25 3994.46 L 597.15 3995.70 L 594.05 3996.94 L 590.92 3998.09 L 587.75 3999.14 L 584.55 4000.09 L 581.34 4001.01 L 578.13 4001.93 L 574.93 4002.86 L 571.72 4003.78 L 568.51 4004.71 L 565.30 4005.63 L 562.09 4006.56 L 558.88 4007.48 L 555.68 4008.41 L 552.47 4009.33 L 549.26 4010.25 L 546.05 4011.18 L 542.84 4012.10 L 539.63 4013.03 L 536.43 4013.95 L 533.22 4014.88 L 530.01 4015.80 L 526.80 4016.73 L 523.59 4017.65 L 520.38 4018.57 L 517.18 4019.50 L 513.97 4020.42 L 510.76 4021.35 L 507.55 4022.27 L 504.34 4023.20 L 501.14 4024.12 L 497.93 4025.04 L 494.72 4025.97 L 491.51 4026.89 L 488.30 4027.82 L 485.09 4028.74 L 481.89 4029.67 L 478.68 4030.59 L 475.47 4031.52 L 472.26 4032.44 L 469.05 4033.36 L 465.84 4034.29 L 462.64 4035.21 L 459.43 4036.14 L 456.22 4037.06 L 453.01 4037.99 L 449.80 4038.91 L 446.60 4039.84 L 443.39 4040.76 L 440.18 4041.68 L 436.97 4042.61 L 433.76 4043.53 L 430.55 4044.46 L 427.35 4045.38 L 424.14 4046.31 L 420.93 4047.23 L 417.72 4048.15 L 414.51 4049.08 L 411.30 4050.00 L 408.10 4050.93 L 404.89 4051.85 L 401.68 4052.78 L 398.47 4053.70 L 395.26 4054.63 L 392.06 4055.55 L 388.85 4056.47 L 385.64 4057.40 L 382.43 4058.32 L 379.22 4059.25 L 376.01 4060.17 L 372.81 4061.10 L 369.60 4062.02 L 366.39 4062.95 L 363.18 4063.87 L 359.97 4064.79 L 356.76 4065.72 L 353.56 4066.64 L 350.35 4067.57 L 347.14 4068.49 L 343.93 4069.42 L 340.72 4070.34 L 337.52 4071.27 L 334.31 4072.19 L 331.10 4073.11 L 327.89 4074.04 L 324.68 4074.96 L 321.47 4075.89 L 318.27 4076.81 L 315.06 4077.74 L 311.85 4078.66 L 308.63 4079.52 L 305.37 4080.26 L 302.10 4080.87 L 298.81 4081.43 L 295.51 4082.00 L 292.22 4082.56 L 288.93 4083.12 L 285.64 4083.68 L 282.35 4084.24 L 279.06 4084.80 L 275.77 4085.37 L 272.48 4085.93 L 269.18 4086.49 L 265.89 4087.05 L 262.60 4087.61 L 259.31 4088.18 L 256.02 4088.74 L 252.73 4089.30 L 249.44 4089.86 L 246.15 4090.42 L 242.86 4090.99 L 239.56 4091.55 L 236.27 4092.11 L 232.98 4092.67 L 229.69 4093.23 L 226.40 4093.80 L 223.11 4094.36 L 219.82 4094.92 L 216.53 4095.48 L 213.24 4096.04 L 209.94 4096.60 L 206.65 4097.17 L 203.36 4097.73 L 200.07 4098.29 L 196.78 4098.85 L 193.49 4099.41 L 190.20 4099.98 L 186.91 4100.54 L 183.62 4101.10 L 180.32 4101.66 L 177.03 4102.22 L 173.74 4102.79 L 170.45 4103.35 L 167.16 4103.91 L 163.87 4104.47 L 160.58 4105.03 L 157.29 4105.60 L 153.99 4106.16 L 150.70 4106.72 L 147.41 4107.28 L 144.12 4107.84 L 140.83 4108.40 L 137.54 4108.97 L 134.25 4109.53 L 130.96 4110.09 L 127.67 4110.65 L 124.37 4111.21 L 121.08 4111.78 L 117.79 4112.34 L 114.50 4112.90 L 111.20 4113.41 L 107.90 4113.86 L 104.58 4114.25 L 101.26 4114.62 L 97.94 4114.98 L 94.63 4115.35 L 91.31 4115.72 L 87.99 4116.09 L 84.67 4116.46 L 81.35 4116.83 L 78.03 4117.20 L 74.72 4117.56 L 71.40 4117.93 L 68.08 4118.30 L 64.76 4118.67 L 61.44 4119.04 L 58.12 4119.41 L 54.81 4119.78 L 51.49 4120.15 L 48.17 4120.51 L 44.85 4120.88 L 41.53 4121.25 L 38.21 4121.62 L 34.90 4121.99 L 31.58 4122.36 L 28.26 4122.73 L 24.96 4122.81 L 21.69 4122.51 L 18.44 4121.81 L 15.20 4121.00 L 11.96 4120.19 L 8.72 4119.38 L 6.29 4119.66 L 4.88 4121.32 L 4.50 4124.37 L 4.33 4127.70 L 4.17 4131.04 L 4.00 4134.37 L 3.83 4137.70 L 3.67 4141.04 L 3.50 4144.37 L 3.33 4147.71 L 3.17 4151.04 L 3.00 4154.38 L 2.83 4157.71 L 2.67 4161.05 L 2.50 4164.38 L 2.33 4167.72 L 2.17 4171.05 L 2.00 4174.38 L 1.83 4177.72 L 1.67 4181.05 L 1.50 4184.39 L 1.33 4187.72 L 1.17 4191.06 L 1.00 4194.39 L 0.83 4197.73 L 0.67 4201.06 L 0.50 4204.40 L 0.33 4207.73 L 0.17 4211.07 M 6828.95 854.40 L 6832.30 854.40 L 6835.66 854.40 L 6839.01 854.40 L 6842.36 854.40 L 6845.71 854.40 L 6849.06 854.40 L 6852.41 854.40 L 6855.77 854.40 L 6859.12 854.40 L 6862.47 854.40 L 6865.82 854.40 L 6869.17 854.40 L 6872.52 854.40 L 6875.88 854.40 L 6879.23 854.40 L 6882.58 854.40 L 6885.93 854.40 L 6889.28 854.40 L 6892.63 854.40 L 6895.99 854.40 L 6899.34 854.40 L 6902.69 854.40 L 6906.04 854.40 L 6909.39 854.40 L 6912.74 854.40 L 6916.10 854.40 L 6919.45 854.40 L 6922.80 854.40 L 6926.15 854.40 L 6929.50 854.40 L 6932.86 854.40 L 6936.21 854.40 L 6939.56 854.40 L 6942.91 854.40 L 6946.26 854.40 L 6949.61 854.40 L 6952.97 854.40 L 6956.32 854.40 L 6959.67 854.40 L 6963.02 854.40 L 6966.37 854.40 L 6969.72 854.40 L 6973.08 854.40 L 6976.43 854.40 L 6979.78 854.40 L 6983.13 854.40 L 6986.48 854.40 L 6989.83 854.40 L 6993.19 854.40 L 6996.54 854.40 L 6999.89 854.40 L 7003.24 854.40 L 7006.59 854.40 L 7009.94 854.40 L 7013.30 854.40 L 7016.65 854.40 L 7020.00 854.43 L 7023.34 854.59 L 7026.68 854.86 L 7030.01 855.22 L 7033.34 855.58 L 7036.68 855.94 L 7040.01 856.30 L 7043.34 856.66 L 7046.67 857.02 L 7050.00 857.38 L 7053.34 857.74 L 7056.67 858.10 L 7060.00 858.47 L 7063.33 858.83 L 7066.67 859.19 L 7070.00 859.55 L 7073.33 859.91 L 7076.66 860.27 L 7080.00 860.63 L 7083.33 860.99 L 7086.66 861.35 L 7089.99 861.71 L 7093.32 862.07 L 7096.66 862.43 L 7099.99 862.79 L 7103.32 863.15 L 7106.65 863.51 L 7109.99 863.87 L 7113.32 864.23 L 7116.65 864.59 L 7119.98 864.95 L 7123.32 865.31 L 7126.65 865.67 L 7129.98 866.03 L 7133.31 866.39 L 7136.64 866.75 L 7139.98 867.11 L 7143.31 867.47 L 7146.64 867.83 L 7149.97 868.19 L 7153.31 868.55 L 7156.64 868.91 L 7159.97 869.27 L 7163.30 869.63 L 7166.64 869.99 L 7169.97 870.35 L 7173.30 870.71 L 7176.63 871.07 L 7179.96 871.43 L 7183.30 871.79 L 7186.63 872.15 L 7189.96 872.51 L 7193.29 872.88 L 7196.63 873.24 L 7199.94 873.69 L 7203.25 874.24 L 7206.54 874.88 L 7209.83 875.52 L 7213.12 876.16 L 7216.41 876.80 L 7219.70 877.44 L 7222.99 878.09 L 7226.28 878.73 L 7229.57 879.37 L 7232.86 880.01 L 7236.15 880.65 L 7239.44 881.29 L 7242.73 881.94 L 7246.01 882.58 L 7249.30 883.22 L 7252.59 883.86 L 7255.88 884.50 L 7259.17 885.15 L 7262.46 885.79 L 7265.75 886.43 L 7269.04 887.07 L 7272.33 887.71 L 7275.62 888.36 L 7278.91 889.00 L 7282.20 889.64 L 7285.49 890.28 L 7288.78 890.92 L 7292.07 891.56 L 7295.36 892.21 L 7298.65 892.85 L 7301.94 893.49 L 7305.23 894.13 L 7308.52 894.77 L 7311.81 895.42 L 7315.10 896.06 L 7318.39 896.70 L 7321.68 897.34 L 7324.97 897.98 L 7328.26 898.63 L 7331.55 899.27 L 7334.84 899.91 L 7338.13 900.55 L 7341.42 901.19 L 7344.71 901.84 L 7348.00 902.48 L 7351.28 903.12 L 7354.57 903.76 L 7357.86 904.40 L 7361.15 905.04 L 7364.44 905.69 L 7367.73 906.33 L 7371.02 906.97 L 7374.31 907.61 L 7377.60 908.25 L 7380.89 908.90 L 7384.18 909.54 L 7387.47 910.18 L 7390.76 910.82 L 7394.05 911.48 L 7397.31 912.22 L 7400.56 913.04 L 7403.79 913.93 L 7407.02 914.82 L 7410.25 915.71 L 7413.49 916.60 L 7416.72 917.49 L 7419.95 918.39 L 7423.18 919.28 L 7426.41 920.17 L 7429.64 921.06 L 7432.87 921.95 L 7436.10 922.84 L 7439.33 923.73 L 7442.57 924.62 L 7445.80 925.52 L 7449.03 926.41 L 7452.26 927.30 L 7455.49 928.19 L 7458.72 929.08 L 7461.95 929.97 L 7465.18 930.86 L 7468.41 931.76 L 7471.64 932.65 L 7474.88 933.54 L 7478.11 934.43 L 7481.34 935.32 L 7484.57 936.21 L 7487.80 937.10 L 7491.03 937.99 L 7494.26 938.89 L 7497.49 939.78 L 7500.72 940.67 L 7503.95 941.56 L 7507.19 942.45 L 7510.42 943.34 L 7513.65 944.23 L 7516.88 945.13 L 7520.11 946.02 L 7523.34 946.91 L 7526.57 947.80 L 7529.80 948.69 L 7533.03 949.58 L 7536.27 950.47 L 7539.50 951.36 L 7542.73 952.26 L 7545.96 953.15 L 7549.19 954.04 L 7552.42 954.93 L 7555.65 955.82 L 7558.88 956.71 L 7562.11 957.60 L 7565.34 958.50 L 7568.58 959.39 L 7571.81 960.28 L 7575.04 961.17 L 7578.27 962.06 L 7581.50 962.95 L 7584.73 963.84 L 7587.96 964.73 L 7591.19 965.63 L 7594.42 966.52 L 7597.66 967.41 L 7600.89 968.30 L 7604.12 969.19 L 7607.35 970.08 L 7610.58 970.97 L 7613.81 971.86 L 7617.04 972.76 L 7620.27 973.65 L 7623.50 974.54 L 7626.73 975.43 L 7629.97 976.32 L 7633.20 977.21 L 7636.43 978.10 L 7639.66 979.00 L 7642.89 979.89 L 7646.12 980.78 L 7649.35 981.67 L 7652.58 982.56 L 7655.81 983.45 L 7659.04 984.34 L 7662.28 985.23 L 7665.51 986.13 L 7668.74 987.02 L 7671.97 987.91 M 1780.80 2880.00 L 1776.00 2884.80" fill='none' stroke='#000000' stroke-opacity='0.5' stroke-width='182.40' stroke-linecap='round' stroke-linejoin='round' stroke-miterlimit='1'/>
</svg>
