<svg xmlns='http://www.w3.org/2000/svg' width='7680' height='4320' viewBox='0 0 7680 4320'>
<path d="M 4964.66 3283.36 L 4961.33 3283.52 L 4957.99 3283.68 L 4954.66 3283.84 L 4951.32 3283.99 L 4947.98 3284.15 L 4944.65 3284.31 L 4941.31 3284.47 L 4937.97 3284.63 L 4934.64 3284.79 L 4931.30 3284.95 L 4927.97 3285.11 L 4924.63 3285.27 L 4921.29 3285.42 L 4917.96 3285.58 L 4914.62 3285.74 L 4911.28 3285.90 L 4907.95 3286.06 L 4904.61 3286.22 L 4901.28 3286.38 L 4897.94 3286.54 L 4894.60 3286.70 L 4891.27 3286.85 L 4887.93 3287.01 L 4884.59 3287.17 L 4881.26 3287.33 L 4877.92 3287.49 L 4874.59 3287.65 L 4871.25 3287.81 L 4867.91 3287.97 L 4864.58 3288.12 L 4861.24 3288.28 L 4857.90 3288.44 L 4854.57 3288.60 L 4851.23 3288.76 L 4847.90 3288.92 L 4844.56 3289.08 L 4841.22 3289.24 L 4837.89 3289.40 L 4834.55 3289.55 L 4831.21 3289.71 L 4827.88 3289.87 L 4824.54 3290.03 L 4821.21 3290.19 L 4817.87 3290.35 L 4814.53 3290.51 L 4811.20 3290.67 L 4807.86 3290.83 L 4804.52 3290.98 L 4801.19 3291.14 L 4797.85 3291.30 L 4794.52 3291.46 L 4791.18 3291.62 L 4787.84 3291.78 L 4784.51 3291.94 L 4781.17 3292.10 L 4777.83 3292.26 L 4774.50 3292.41 L 4771.16 3292.57 L 4767.83 3292.73 L 4764.49 3292.89 L 4761.15 3293.05 L 4757.82 3293.21 L 4754.48 3293.37 L 4751.15 3293.53 L 4747.81 3293.69 L 4744.47 3293.84 L 4741.14 3294.00 L 4737.80 3294.16 L 4734.46 3294.32 L 4731.13 3294.48 L 4727.79 3294.64 L 4724.46 3294.80 L 4721.12 3294.96 L 4717.78 3295.12 L 4714.45 3295.27 L 4711.11 3295.43 L 4707.77 3295.59 L 4704.44 3295.75 L 4701.10 3295.91 L 4697.77 3296.07 L 4694.43 3296.23 L 4691.09 3296.39 L 4687.76 3296.54 L 4684.42 3296.70 L 4681.08 3296.86 L 4677.75 3297.02 L 4674.41 3297.18 L 4671.08 3297.34 L 4667.74 3297.51 L 4664.41 3297.73 L 4661.08 3297.99 L 4657.75 3298.28 L 4654.42 3298.56 L 4651.10 3298.85 L 4647.77 3299.14 L 4644.44 3299.42 L 4641.11 3299.71 L 4637.78 3300.00 L 4634.46 3300.28 L 4631.13 3300.57 L 4627.80 3300.86 L 4624.47 3301.15 L 4621.15 3301.43 L 4617.82 3301.72 L 4614.49 3302.01 L 4611.16 3302.29 L 4607.84 3302.58 L 4604.51 3302.87 L 4601.18 3303.15 L 4597.85 3303.44 L 4594.53 3303.73 L 4591.20 3304.01 L 4587.87 3304.30 L 4584.54 3304.59 L 4581.21 3304.87 L 4577.89 3305.16 L 4574.56 3305.45 L 4571.23 3305.74 L 4567.90 3306.02 L 4564.58 3306.31 L 4561.25 3306.60 L 4557.92 3306.88 L 4554.59 3307.17 L 4551.27 3307.46 L 4547.94 3307.74 L 4544.61 3308.03 L 4541.28 3308.32 L 4537.95 3308.60 L 4534.63 3308.89 L 4531.30 3309.18 L 4527.97 3309.46 L 4524.64 3309.75 L 4521.32 3310.04 L 4517.99 3310.33 L 4514.66 3310.61 L 4511.33 3310.90 L 4508.01 3311.19 L 4504.68 3311.47 L 4501.35 3311.76 L 4498.02 3312.05 L 4494.70 3312.33 L 4491.37 3312.62 L 4488.04 3312.91 L 4484.71 3313.19 L 4481.38 3313.48 L 4478.06 3313.77 L 4474.73 3314.05 L 4471.40 3314.34 L 4468.07 3314.63 L 4464.75 3314.91 L 4461.42 3315.20 L 4458.09 3315.49 L 4454.76 3315.78 L 4451.44 3316.06 L 4448.11 3316.35 L 4444.78 3316.64 L 4441.45 3316.92 L 4438.12 3317.21 L 4434.80 3317.50 L 4431.47 3317.78 L 4428.14 3318.07 L 4424.81 3318.36 L 4421.49 3318.64 L 4418.16 3318.93 L 4414.83 3319.22 L 4411.50 3319.50 L 4408.18 3319.79 L 4404.85 3320.08 L 4401.52 3320.37 L 4398.19 3320.65 L 4394.87 3320.94 L 4391.54 3321.23 L 4388.21 3321.54 L 4384.89 3321.90 L 4381.58 3322.30 L 4378.26 3322.71 L 4374.95 3323.12 L 4371.63 3323.53 L 4368.32 3323.94 L 4365.00 3324.35 L 4361.69 3324.76 L 4358.37 3325.17 L 4355.06 3325.58 L 4351.74 3325.99 L 4348.43 3326.40 L 4345.12 3326.81 L 4341.80 3327.22 L 4338.49 3327.64 L 4335.17 3328.05 L 4331.86 3328.46 L 4328.54 3328.87 L 4325.23 3329.28 L 4321.91 3329.69 L 4318.60 3330.10 L 4315.28 3330.51 L 4311.97 3330.92 L 4308.65 3331.33 L 4305.34 3331.74 L 4302.02 3332.15 L 4298.71 3332.56 L 4295.40 3332.97 L 4292.08 3333.38 L 4288.77 3333.80 L 4285.45 3334.21 L 4282.14 3334.62 L 4278.82 3335.03 L 4275.51 3335.44 L 4272.19 3335.85 L 4268.88 3336.26 L 4265.56 3336.67 L 4262.25 3337.08 L 4258.93 3337.49 L 4255.62 3337.90 L 4252.30 3338.31 L 4248.99 3338.72 L 4245.68 3339.13 L 4242.36 3339.54 L 4239.05 3339.96 L 4235.73 3340.37 L 4232.42 3340.78 L 4229.10 3341.19 L 4225.79 3341.60 L 4222.47 3342.01 L 4219.16 3342.42 L 4215.84 3342.83 L 4212.53 3343.24 L 4209.21 3343.65 L 4205.90 3344.06 L 4202.58 3344.47 L 4199.27 3344.88 L 4195.96 3345.29 L 4192.64 3345.70 L 4189.33 3346.12 L 4186.01 3346.53 L 4182.70 3346.94 L 4179.38 3347.35 L 4176.07 3347.76 L 4172.75 3348.17 L 4169.44 3348.58 L 4166.12 3348.99 L 4162.81 3349.40 L 4159.49 3349.81 L 4156.18 3350.22 L 4152.86 3350.63 L 4149.55 3351.04 L 4146.24 3351.45 L 4142.92 3351.86 L 4139.61 3352.28 L 4136.29 3352.69 L 4132.98 3353.10 L 4129.66 3353.51 L 4126.35 3353.92 L 4123.03 3354.33 L 4119.72 3354.74 L 4116.40 3355.15 L 4113.09 3355.56 L 4109.77 3355.97 L 4106.46 3356.38 L 4103.14 3356.79 L 4099.83 3357.20 L 4096.52 3357.61 L 4093.20 3358.02 L 4089.89 3358.44 L 4086.57 3358.85 L 4083.26 3359.26 L 4079.94 3359.67 L 4076.63 3360.08 L 4073.31 3360.49 L 4070.00 3360.90 L 4066.68 3361.31 L 4063.37 3361.72 L 4060.05 3362.13 L 4056.74 3362.54 L 4053.42 3362.95 L 4050.11 3363.36 L 4046.80 3363.77 L 4043.48 3364.18 L 4040.17 3364.60 L 4036.85 3365.01 L 4033.54 3365.42 L 4030.22 3365.83 L 4026.91 3366.24 L 4023.59 3366.65 L 4020.28 3367.06 L 4016.96 3367.47 L 4013.65 3367.88 L 4010.33 3368.29 L 4007.02 3368.70 L 4003.70 3369.11 L 4000.39 3369.52 L 3997.08 3369.93 L 3993.76 3370.34 L 3990.45 3370.76 L 3987.13 3371.17 L 3983.82 3371.58 L 3980.50 3371.99 L 3977.19 3372.40 L 3973.87 3372.81 L 3970.56 3373.22 L 3967.24 3373.63 L 3963.93 3374.04 L 3960.61 3374.45 L 3957.30 3374.86 L 3953.98 3375.27 L 3950.67 3375.68 L 3947.36 3376.09 L 3944.04 3376.50 L 3940.73 3376.92 L 3937.41 3377.33 L 3934.10 3377.74 L 3930.78 3378.15 L 3927.47 3378.56 L 3924.15 3378.97 L 3920.84 3379.38 L 3917.52 3379.79 L 3914.21 3380.20 L 3910.89 3380.61 L 3907.58 3381.02 L 3904.26 3381.43 L 3900.95 3381.84 L 3897.64 3382.25 L 3894.32 3382.66 L 3891.01 3383.08 L 3887.69 3383.49 L 3884.38 3383.90 L 3881.06 3384.31 L 3877.75 3384.72 L 3874.43 3385.13 L 3871.12 3385.54 L 3867.80 3385.95 L 3864.49 3386.36 L 3861.17 3386.77 L 3857.86 3387.18 L 3854.54 3387.59 L 3851.23 3388.00 L 3847.92 3388.42 L 3844.61 3388.88 L 3841.31 3389.38 L 3838.01 3389.93 L 3834.72 3390.48 L 3831.42 3391.03 L 3828.13 3391.58 L 3824.83 3392.13 L 3821.54 3392.68 L 3818.25 3393.23 L 3814.95 3393.77 L 3811.66 3394.32 L 3808.36 3394.87 L 3805.07 3395.42 L 3801.77 3395.97 L 3798.48 3396.52 L 3795.18 3397.07 L 3791.89 3397.62 L 3788.59 3398.17 L 3785.30 3398.72 L 3782.01 3399.27 L 3778.71 3399.81 L 3775.42 3400.36 L 3772.12 3400.91 L 3768.83 3401.46 L 3765.53 3402.01 L 3762.24 3402.56 L 3758.94 3403.11 L 3755.65 3403.66 L 3752.35 3404.21 L 3749.06 3404.76 L 3745.76 3405.31 L 3742.47 3405.85 L 3739.18 3406.40 L 3735.88 3406.95 L 3732.59 3407.50 L 3729.29 3408.05 L 3726.00 3408.60 L 3722.70 3409.15 L 3719.41 3409.70 L 3716.11 3410.25 L 3712.82 3410.80 L 3709.52 3411.35 L 3706.23 3411.89 L 3702.94 3412.44 L 3699.64 3412.99 L 3696.35 3413.54 L 3693.05 3414.09 L 3689.76 3414.64 L 3686.46 3415.19 L 3683.17 3415.74 L 3679.87 3416.29 L 3676.58 3416.84 L 3673.28 3417.39 L 3669.99 3417.94 L 3666.70 3418.48 L 3663.40 3419.03 L 3660.11 3419.58 L 3656.81 3420.13 L 3653.52 3420.68 L 3650.22 3421.23 L 3646.93 3421.78 L 3643.63 3422.33 L 3640.34 3422.88 L 3637.04 3423.43 L 3633.75 3423.98 L 3630.46 3424.52 L 3627.16 3425.07 L 3623.87 3425.62 L 3620.57 3426.17 L 3617.28 3426.72 L 3613.98 3427.27 L 3610.69 3427.82 L 3607.39 3428.37 L 3604.10 3428.92 L 3600.80 3429.47 L 3597.51 3430.02 L 3594.21 3430.56 L 3590.92 3431.11 L 3587.63 3431.66 L 3584.33 3432.21 L 3581.04 3432.76 L 3577.74 3433.31 L 3574.45 3433.86 L 3571.15 3434.41 L 3567.86 3434.96 L 3564.56 3435.51 L 3561.27 3436.06 L 3557.97 3436.60 L 3554.68 3437.15 L 3551.39 3437.70 L 3548.09 3438.25 L 3544.80 3438.80 L 3541.50 3439.35 L 3538.21 3439.90 L 3534.91 3440.45 L 3531.62 3441.00 L 3528.32 3441.55 L 3525.03 3442.10 L 3521.73 3442.64 L 3518.44 3443.19 L 3515.15 3443.74 L 3511.85 3444.29 L 3508.56 3444.84 L 3505.26 3445.39 L 3501.97 3445.94 L 3498.67 3446.49 L 3495.38 3447.04 L 3492.08 3447.59 L 3488.79 3448.14 L 3485.49 3448.68 L 3482.20 3449.23 L 3478.91 3449.78 L 3475.61 3450.33 L 3472.32 3450.88 L 3469.02 3451.43 L 3465.73 3451.98 L 3462.43 3452.53 L 3459.14 3453.08 L 3455.84 3453.63 L 3452.55 3454.18 L 3449.25 3454.72 L 3445.96 3455.27 L 3442.66 3455.82 L 3439.37 3456.37 L 3436.08 3456.92 L 3432.78 3457.47 L 3429.49 3458.02 L 3426.19 3458.57 L 3422.90 3459.12 L 3419.60 3459.67 L 3416.31 3460.22 L 3413.01 3460.76 L 3409.72 3461.31 L 3406.42 3461.86 L 3403.13 3462.41 L 3399.84 3462.96 L 3396.54 3463.51 L 3393.25 3464.06 L 3389.95 3464.61 L 3386.66 3465.16 L 3383.36 3465.71 L 3380.07 3466.26 L 3376.77 3466.80 L 3373.48 3467.35 L 3370.18 3467.90 L 3366.89 3468.45 L 3363.60 3469.00 L 3360.30 3469.55 L 3357.01 3470.10 L 3353.71 3470.65 L 3350.42 3471.20 L 3347.12 3471.75 L 3343.83 3472.30 L 3340.53 3472.84 L 3337.24 3473.39 L 3333.94 3473.94 L 3330.65 3474.49 L 3327.36 3475.04 L 3324.06 3475.59 L 3320.77 3476.14 L 3317.47 3476.69 L 3314.18 3477.24 L 3310.88 3477.79 L 3307.59 3478.34 L 3304.29 3478.88 L 3301.00 3479.43 L 3297.70 3479.98 L 3294.41 3480.53 L 3291.11 3481.08 L 3287.82 3481.63 L 3284.53 3482.18 L 3281.23 3482.73 L 3277.94 3483.28 L 3274.64 3483.83 L 3271.35 3484.38 L 3268.05 3484.92 L 3264.76 3485.47 L 3261.46 3486.02 L 3258.17 3486.57 L 3254.87 3487.12 L 3251.58 3487.67 L 3248.29 3488.22 L 3244.99 3488.77 L 3241.70 3489.32 L 3238.40 3489.87 L 3235.11 3490.42 L 3231.81 3490.96 L 3228.52 3491.51 L 3225.22 3492.06 L 3221.93 3492.61 L 3218.63 3493.16 L 3215.34 3493.71 L 3212.05 3494.26 L 3208.75 3494.81 L 3205.46 3495.36 L 3202.16 3495.91 L 3198.87 3496.46 L 3195.57 3497.00 L 3192.28 3497.55 L 3188.98 3498.10 L 3185.69 3498.65 L 3182.40 3499.23 L 3179.11 3499.83 L 3175.83 3500.45 L 3172.55 3501.08 L 3169.27 3501.70 L 3165.99 3502.33 L 3162.71 3502.95 L 3159.43 3503.58 L 3156.15 3504.20 L 3152.87 3504.83 L 3149.58 3505.45 L 3146.30 3506.08 L 3143.02 3506.70 L 3139.74 3507.33 L 3136.46 3507.95 L 3133.18 3508.58 L 3129.90 3509.20 L 3126.62 3509.83 L 3123.34 3510.45 L 3120.05 3511.08 L 3116.77 3511.70 L 3113.49 3512.33 L 3110.21 3512.95 L 3106.93 3513.58 L 3103.65 3514.20 L 3100.37 3514.83 L 3097.09 3515.45 L 3093.81 3516.07 L 3090.53 3516.70 L 3087.24 3517.32 L 3083.96 3517.95 L 3080.68 3518.57 L 3077.40 3519.20 L 3074.12 3519.82 L 3070.84 3520.45 L 3067.56 3521.07 L 3064.28 3521.70 L 3061.00 3522.32 L 3057.72 3522.95 L 3054.43 3523.57 L 3051.15 3524.20 L 3047.87 3524.82 L 3044.59 3525.45 L 3041.31 3526.07 L 3038.03 3526.70 L 3034.75 3527.32 L 3031.47 3527.95 L 3028.19 3528.57 L 3024.91 3529.20 L 3021.62 3529.82 L 3018.34 3530.45 L 3015.06 3531.07 L 3011.78 3531.70 L 3008.50 3532.32 L 3005.22 3532.95 L 3001.94 3533.57 L 2998.66 3534.20 L 2995.38 3534.82 L 2992.10 3535.45 L 2988.81 3536.07 L 2985.53 3536.70 L 2982.25 3537.32 L 2978.97 3537.95 L 2975.69 3538.57 L 2972.41 3539.20 L 2969.13 3539.82 L 2965.85 3540.45 L 2962.57 3541.07 L 2959.28 3541.70 L 2956.00 3542.32 L 2952.72 3542.95 L 2949.44 3543.57 L 2946.16 3544.20 L 2942.88 3544.82 L 2939.60 3545.45 L 2936.32 3546.07 L 2933.04 3546.70 L 2929.76 3547.32 L 2926.47 3547.95 L 2923.19 3548.57 L 2919.91 3549.20 L 2916.63 3549.82 L 2913.35 3550.45 L 2910.07 3551.07 L 2906.79 3551.70 L 2903.51 3552.32 L 2900.23 3552.95 L 2896.95 3553.57 L 2893.66 3554.20 L 2890.38 3554.82 L 2887.10 3555.45 L 2883.82 3556.07 L 2880.54 3556.70 L 2877.26 3557.32 L 2873.98 3557.95 L 2870.70 3558.57 L 2867.42 3559.20 L 2864.14 3559.82 L 2860.85 3560.45 L 2857.57 3561.07 L 2854.29 3561.70 L 2851.01 3562.32 L 2847.73 3562.95 L 2844.45 3563.57 L 2841.17 3564.20 L 2837.89 3564.82 L 2834.61 3565.45 L 2831.33 3566.07 L 2828.04 3566.70 L 2824.76 3567.32 L 2821.48 3567.95 L 2818.20 3568.57 L 2814.92 3569.20 L 2811.64 3569.82 L 2808.36 3570.45 L 2805.08 3571.07 L 2801.80 3571.70 L 2798.51 3572.32 L 2795.23 3572.95 L 2791.95 3573.57 L 2788.67 3574.20 L 2785.39 3574.82 L 2782.11 3575.45 L 2778.83 3576.07 L 2775.55 3576.70 L 2772.27 3577.32 L 2768.99 3577.95 L 2765.70 3578.57 L 2762.42 3579.20 L 2759.14 3579.82 L 2755.86 3580.45 L 2752.58 3581.07 L 2749.30 3581.70 L 2746.02 3582.32 L 2742.74 3582.95 L 2739.46 3583.57 L 2736.18 3584.20 L 2732.89 3584.82 L 2729.61 3585.45 L 2726.33 3586.07 L 2723.05 3586.69 L 2719.77 3587.32 L 2716.49 3587.94 L 2713.21 3588.57 L 2709.93 3589.19 L 2706.65 3589.82 L 2703.37 3590.44 L 2700.08 3591.07 L 2696.80 3591.69 L 2693.52 3592.32 L 2690.24 3592.94 L 2686.96 3593.57 L 2683.68 3594.19 L 2680.40 3594.82 L 2677.12 3595.44 L 2673.84 3596.07 L 2670.56 3596.69 L 2667.27 3597.32 L 2663.99 3597.94 L 2660.71 3598.57 L 2657.43 3599.19 L 2654.15 3599.82 L 2650.87 3600.44 L 2647.59 3601.07 L 2644.31 3601.69 L 2641.03 3602.32 L 2637.74 3602.94 L 2634.46 3603.57 L 2631.18 3604.19 L 2627.90 3604.82 L 2624.62 3605.44 L 2621.34 3606.07 L 2618.06 3606.69 L 2614.78 3607.32 L 2611.50 3607.94 L 2608.22 3608.57 L 2604.93 3609.19 L 2601.65 3609.82 L 2598.37 3610.44 L 2595.09 3611.07 L 2591.81 3611.69 L 2588.53 3612.32 L 2585.25 3612.94 L 2581.97 3613.57 L 2578.69 3614.19 L 2575.41 3614.82 L 2572.12 3615.44 L 2568.84 3616.07 L 2565.56 3616.69 L 2562.28 3617.32 L 2559.00 3617.94 L 2555.72 3618.57 L 2552.44 3619.19 L 2549.16 3619.82 L 2545.88 3620.44 L 2542.60 3621.07 L 2539.31 3621.69 L 2536.03 3622.32 L 2532.75 3622.94 L 2529.47 3623.57 L 2526.19 3624.19 L 2522.91 3624.82 L 2519.63 3625.44 L 2516.35 3626.07 L 2513.07 3626.69 L 2509.79 3627.32 L 2506.50 3627.94 L 2503.22 3628.57 L 2499.94 3629.19 L 2496.66 3629.82 L 2493.38 3630.44 L 2490.10 3631.07 L 2486.82 3631.69 L 2483.54 3632.32 L 2480.26 3632.94 L 2476.96 3633.37 L 2473.64 3633.59 L 2470.30 3633.60 L 2466.96 3633.60 L 2463.62 3633.60 L 2460.28 3633.60 L 2456.94 3633.60 L 2453.60 3633.60 L 2450.26 3633.60 L 2446.92 3633.60 L 2443.58 3633.60 L 2440.24 3633.60 L 2436.90 3633.60 L 2433.56 3633.60 L 2430.26 3633.36 L 2427.05 3632.71 L 2423.91 3631.65 L 2420.81 3630.41 L 2417.71 3629.16 L 2414.61 3627.92 L 2411.51 3626.68 L 2408.41 3625.44 L 2405.31 3624.20 L 2402.21 3622.96 L 2399.11 3621.72 L 2396.00 3620.48 L 2392.90 3619.24 L 2389.80 3618.00 L 2386.70 3616.76 L 2383.62 3615.48 L 2380.79 3613.83 L 2378.21 3611.81 L 2375.85 3609.45 L 2373.49 3607.09 L 2371.12 3604.72 L 2368.76 3602.36 L 2366.40 3600.00 L 2284.80 3628.80 M 2559.89 3202.04 L 2556.58 3202.47 L 2553.27 3202.91 L 2549.96 3203.34 L 2546.65 3203.78 L 2543.34 3204.21 L 2540.02 3204.65 L 2536.71 3205.09 L 2533.40 3205.52 L 2530.09 3205.96 L 2526.78 3206.39 L 2523.47 3206.83 L 2520.16 3207.26 L 2516.85 3207.70 L 2513.54 3208.13 L 2510.23 3208.57 L 2506.92 3209.01 L 2503.61 3209.44 L 2500.29 3209.88 L 2496.98 3210.31 L 2493.67 3210.75 L 2490.36 3211.18 L 2487.05 3211.62 L 2483.74 3212.06 L 2480.43 3212.49 L 2477.12 3212.93 L 2473.81 3213.36 L 2470.50 3213.80 L 2467.19 3214.23 L 2463.88 3214.67 L 2460.56 3215.10 L 2457.25 3215.54 L 2453.94 3215.98 L 2450.63 3216.41 L 2447.32 3216.85 L 2444.01 3217.28 L 2440.70 3217.72 L 2437.39 3218.15 L 2434.08 3218.59 L 2430.77 3219.03 L 2427.46 3219.46 L 2424.15 3219.90 L 2420.84 3220.33 L 2417.52 3220.77 L 2414.21 3221.20 L 2410.90 3221.64 L 2407.59 3222.07 L 2404.28 3222.51 L 2400.97 3222.95 L 2397.66 3223.38 L 2394.35 3223.82 L 2391.04 3224.25 L 2387.73 3224.69 L 2384.42 3225.12 L 2381.12 3225.62 L 2377.83 3226.19 L 2374.55 3226.83 L 2371.27 3227.47 L 2368.00 3228.12 L 2364.72 3228.76 L 2361.44 3229.41 L 2358.17 3230.05 L 2354.89 3230.70 L 2351.61 3231.34 L 2348.34 3231.99 L 2345.06 3232.63 L 2341.78 3233.28 L 2338.51 3233.92 L 2335.23 3234.56 L 2331.95 3235.21 L 2328.68 3235.85 L 2325.40 3236.50 L 2322.12 3237.14 L 2318.85 3237.79 L 2315.57 3238.43 L 2312.29 3239.08 L 2309.02 3239.72 L 2305.74 3240.37 L 2302.46 3241.01 L 2299.19 3241.65 L 2295.91 3242.30 L 2292.64 3242.94 L 2289.36 3243.59 L 2286.08 3244.23 L 2282.81 3244.88 L 2279.53 3245.52 L 2276.25 3246.17 L 2272.98 3246.81 L 2269.70 3247.46 L 2266.42 3248.10 L 2263.15 3248.74 L 2259.87 3249.39 L 2256.59 3250.03 L 2253.32 3250.68 L 2250.04 3251.32 L 2246.76 3251.97 L 2243.49 3252.61 L 2240.21 3253.26 L 2236.93 3253.90 L 2233.66 3254.55 L 2230.38 3255.19 L 2227.10 3255.84 L 2223.83 3256.48 L 2220.55 3257.12 L 2217.27 3257.77 L 2214.00 3258.41 L 2210.72 3259.06 L 2207.44 3259.70 L 2204.17 3260.35 L 2200.89 3260.99 L 2197.62 3261.64 L 2194.34 3262.28 L 2191.06 3262.93 L 2187.79 3263.57 L 2184.51 3264.21 L 2181.23 3264.86 L 2177.96 3265.50 L 2174.68 3266.15 L 2171.40 3266.79 L 2168.13 3267.44 L 2164.85 3268.08 L 2161.57 3268.73 L 2158.30 3269.37 L 2155.02 3270.02 L 2151.74 3270.66 L 2148.47 3271.30 L 2145.19 3271.95 L 2141.91 3272.59 L 2138.64 3273.24 L 2135.36 3273.88 L 2132.08 3274.53 L 2128.81 3275.17 L 2125.53 3275.82 L 2122.25 3276.46 L 2118.98 3277.11 L 2115.70 3277.75 L 2112.42 3278.40 L 2109.15 3279.04 L 2105.87 3279.68 L 2102.60 3280.33 L 2099.32 3280.97 L 2096.04 3281.62 L 2092.77 3282.26 L 2089.49 3282.93 L 2086.23 3283.63 L 2082.97 3284.36 L 2079.72 3285.11 L 2076.46 3285.87 L 2073.21 3286.62 L 2069.96 3287.37 L 2066.70 3288.12 L 2063.45 3288.87 L 2060.20 3289.63 L 2056.94 3290.38 L 2053.69 3291.13 L 2050.44 3291.88 L 2047.18 3292.64 L 2043.93 3293.39 L 2040.68 3294.14 L 2037.42 3294.89 L 2034.17 3295.64 L 2030.91 3296.40 L 2027.66 3297.15 L 2024.41 3297.90 L 2021.15 3298.65 L 2017.90 3299.40 L 2014.65 3300.16 L 2011.39 3300.91 L 2008.14 3301.66 L 2004.89 3302.41 L 2001.63 3303.16 L 1998.38 3303.92 L 1995.13 3304.67 L 1991.87 3305.42 L 1988.62 3306.17 L 1985.36 3306.92 L 1982.11 3307.68 L 1978.86 3308.43 L 1975.60 3309.18 L 1972.35 3309.93 L 1969.10 3310.69 L 1965.84 3311.44 L 1962.59 3312.19 L 1959.34 3312.94 L 1956.08 3313.69 L 1952.83 3314.45 L 1949.58 3315.20 L 1946.32 3315.95 L 1943.07 3316.70 L 1939.81 3317.45 L 1936.56 3318.21 L 1933.31 3318.96 L 1930.05 3319.71 L 1926.80 3320.46 L 1923.55 3321.21 L 1920.29 3321.97 L 1917.04 3322.72 L 1913.79 3323.47 L 1910.53 3324.22 L 1907.28 3324.97 L 1904.03 3325.73 L 1900.77 3326.48 L 1897.52 3327.23 L 1894.27 3327.98 L 1891.01 3328.74 L 1887.76 3329.49 L 1884.50 3330.24 L 1881.25 3330.99 L 1878.00 3331.74 L 1874.74 3332.50 L 1871.49 3333.25 L 1868.24 3334.00 L 1864.98 3334.75 L 1861.73 3335.50 L 1858.48 3336.26 L 1855.22 3337.01 L 1851.97 3337.76 L 1848.72 3338.51 L 1845.46 3339.26 L 1842.21 3340.02 L 1838.95 3340.77 L 1835.70 3341.52 L 1832.45 3342.27 L 1829.19 3343.02 L 1825.94 3343.78 L 1822.69 3344.53 L 1819.43 3345.28 L 1816.18 3346.03 L 1812.93 3346.78 L 1809.67 3347.54 L 1806.42 3348.29 L 1803.17 3349.04 L 1799.91 3349.79 L 1796.66 3350.55 L 1793.40 3351.30 L 1790.15 3352.05 L 1786.90 3352.80 L 1783.64 3353.55 L 1780.39 3354.31 L 1777.14 3355.06 L 1773.88 3355.81 L 1770.63 3356.56 L 1767.38 3357.31 L 1764.12 3358.07 L 1760.87 3358.82 L 1757.62 3359.57 L 1754.36 3360.32 L 1751.11 3361.07 L 1747.85 3361.83 L 1744.60 3362.58 L 1741.35 3363.33 L 1738.09 3364.08 L 1734.84 3364.83 L 1731.59 3365.59 L 1728.33 3366.34 L 1725.08 3367.09 L 1721.83 3367.84 L 1718.57 3368.60 L 1715.32 3369.35 L 1712.07 3370.10 L 1708.81 3370.85 L 1705.56 3371.60 L 1702.31 3372.36 L 1699.05 3373.11 L 1695.80 3373.86 L 1692.54 3374.61 L 1689.29 3375.36 L 1686.04 3376.12 L 1682.78 3376.87 L 1679.53 3377.62 L 1676.28 3378.37 L 1673.02 3379.12 L 1669.77 3379.88 L 1666.52 3380.63 L 1663.26 3381.38 L 1660.01 3382.13 L 1656.76 3382.88 L 1653.50 3383.64 L 1650.25 3384.39 L 1646.99 3385.14 L 1643.74 3385.89 L 1640.49 3386.65 L 1637.23 3387.40 L 1633.98 3388.15 L 1630.73 3388.90 L 1627.47 3389.65 L 1624.22 3390.41 L 1620.97 3391.16 L 1617.71 3391.91 L 1614.46 3392.66 L 1611.21 3393.41 L 1607.95 3394.17 L 1604.70 3394.92 L 1601.44 3395.67 L 1598.19 3396.42 L 1594.94 3397.17 L 1591.68 3397.93 L 1588.43 3398.68 L 1585.18 3399.43 L 1581.92 3400.18 L 1578.67 3400.93 L 1575.42 3401.69 L 1572.16 3402.44 L 1568.91 3403.19 L 1565.66 3403.94 L 1562.40 3404.69 L 1559.15 3405.45 L 1555.90 3406.20 L 1552.64 3406.95 L 1549.39 3407.70 L 1546.13 3408.46 L 1542.88 3409.21 L 1539.63 3409.96 L 1536.37 3410.71 L 1533.12 3411.46 L 1529.87 3412.22 L 1526.61 3412.97 L 1523.36 3413.72 L 1520.11 3414.47 L 1516.85 3415.22 L 1513.60 3415.98 L 1510.35 3416.73 L 1507.09 3417.48 L 1503.84 3418.23 L 1500.58 3418.98 L 1497.33 3419.74 L 1494.08 3420.49 L 1490.82 3421.24 L 1487.57 3421.99 L 1484.32 3422.74 L 1481.06 3423.50 L 1477.81 3424.25 L 1474.56 3425.00 L 1471.30 3425.75 L 1468.05 3426.51 L 1464.80 3427.26 L 1461.54 3428.01 L 1458.29 3428.76 L 1455.03 3429.51 L 1451.78 3430.27 L 1448.53 3431.02 L 1445.27 3431.77 L 1442.02 3432.52 L 1438.77 3433.27 L 1435.51 3434.03 L 1432.26 3434.78 L 1429.01 3435.53 L 1425.75 3436.28 L 1422.50 3437.03 L 1419.25 3437.79 L 1415.99 3438.54 L 1412.74 3439.29 L 1409.49 3440.04 L 1406.23 3440.79 L 1402.98 3441.55 L 1399.72 3442.30 L 1396.47 3443.05 L 1393.22 3443.80 L 1389.96 3444.56 L 1386.71 3445.31 L 1383.46 3446.06 L 1380.20 3446.81 L 1376.95 3447.56 L 1373.70 3448.32 L 1370.44 3449.07 L 1367.19 3449.82 L 1363.94 3450.57 L 1360.68 3451.32 L 1357.43 3452.08 L 1354.17 3452.83 L 1350.92 3453.58 L 1347.67 3454.33 L 1344.41 3455.08 L 1341.16 3455.84 L 1337.91 3456.59 L 1334.65 3457.34 L 1331.40 3458.09 L 1328.15 3458.84 L 1324.89 3459.60 L 1321.64 3460.35 L 1318.39 3461.10 L 1315.13 3461.85 L 1311.88 3462.61 L 1308.62 3463.36 L 1305.37 3464.11 L 1302.12 3464.86 L 1298.86 3465.61 L 1295.61 3466.37 L 1292.36 3467.12 L 1289.10 3467.87 L 1285.85 3468.62 L 1282.60 3469.37 L 1279.34 3470.13 L 1276.09 3470.88 L 1272.84 3471.63 L 1269.58 3472.38 L 1266.33 3473.13 L 1263.07 3473.89 L 1259.82 3474.64 L 1256.57 3475.39 L 1253.31 3476.14 L 1250.06 3476.89 L 1246.81 3477.65 L 1243.55 3478.40 L 1240.30 3479.15 L 1237.05 3479.90 L 1233.79 3480.65 L 1230.54 3481.41 L 1227.29 3482.16 L 1224.03 3482.91 L 1220.78 3483.66 L 1217.53 3484.42 L 1214.27 3485.17 L 1211.02 3485.92 L 1207.76 3486.67 L 1204.51 3487.42 L 1201.26 3488.18 L 1198.00 3488.93 L 1194.75 3489.68 L 1191.50 3490.43 L 1188.24 3491.18 L 1184.99 3491.94 L 1181.74 3492.69 L 1178.48 3493.44 L 1175.23 3494.19 L 1171.98 3494.94 L 1168.72 3495.70 L 1165.47 3496.45 L 1162.21 3497.20 L 1158.96 3497.95 L 1155.71 3498.70 L 1152.45 3499.46 L 1149.20 3500.21 L 1145.95 3500.96 L 1142.69 3501.71 L 1139.44 3502.47 L 1136.19 3503.22 L 1132.93 3503.95 L 1129.66 3504.65 L 1126.39 3505.33 L 1123.12 3506.01 L 1119.85 3506.69 L 1116.58 3507.37 L 1113.32 3508.04 L 1110.05 3508.72 L 1106.78 3509.40 L 1103.51 3510.08 L 1100.24 3510.76 L 1096.97 3511.44 L 1093.70 3512.12 L 1090.43 3512.79 L 1087.16 3513.47 L 1083.89 3514.15 L 1080.62 3514.83 L 1077.35 3515.51 L 1074.08 3516.19 L 1070.81 3516.87 L 1067.54 3517.54 L 1064.27 3518.22 L 1061.00 3518.90 L 1057.73 3519.58 L 1054.46 3520.26 L 1051.19 3520.94 L 1047.92 3521.62 L 1044.65 3522.29 L 1041.38 3522.97 L 1038.11 3523.65 L 1034.84 3524.33 L 1031.57 3525.01 L 1028.30 3525.69 L 1025.03 3526.37 L 1021.76 3527.05 L 1018.49 3527.72 L 1015.23 3528.40 L 1011.96 3529.08 L 1008.69 3529.76 L 1005.42 3530.44 L 1002.15 3531.12 L 998.88 3531.80 L 995.61 3532.47 L 992.34 3533.15 L 989.07 3533.83 L 985.80 3534.51 L 982.53 3535.19 L 979.26 3535.87 L 975.99 3536.55 L 972.72 3537.22 L 969.45 3537.90 L 966.18 3538.58 L 962.91 3539.26 L 959.64 3539.94 L 956.37 3540.62 L 953.10 3541.30 L 949.83 3541.97 L 946.56 3542.65 L 943.29 3543.33 L 940.02 3544.01 L 936.75 3544.69 L 933.48 3545.37 L 930.21 3546.05 L 926.94 3546.72 L 923.67 3547.40 L 920.40 3548.08 L 917.13 3548.76 L 913.87 3549.44 L 910.60 3550.12 L 907.33 3550.80 L 904.06 3551.48 L 900.79 3552.15 L 897.52 3552.83 L 894.25 3553.51 L 890.98 3554.19 L 887.71 3554.87 L 884.44 3555.55 L 881.17 3556.23 L 877.90 3556.90 L 874.63 3557.58 L 871.36 3558.26 L 868.09 3558.94 L 864.82 3559.62 L 861.55 3560.30 L 858.28 3560.98 L 855.01 3561.65 L 851.74 3562.33 L 848.47 3563.01 L 845.20 3563.69 L 841.93 3564.37 L 838.66 3565.05 L 835.39 3565.73 L 832.12 3566.40 L 828.85 3567.08 L 825.58 3567.76 L 822.31 3568.44 L 819.04 3569.12 L 815.78 3569.80 L 812.51 3570.48 L 809.24 3571.15 L 805.97 3571.83 L 802.70 3572.51 L 799.43 3573.19 L 796.16 3573.87 L 792.89 3574.55 L 789.62 3575.23 L 786.35 3575.91 L 783.08 3576.58 L 779.81 3577.26 L 776.54 3577.94 L 773.27 3578.62 L 770.00 3579.30 L 766.73 3579.98 L 763.46 3580.66 L 760.19 3581.33 L 756.92 3582.01 L 753.65 3582.69 L 750.38 3583.37 L 747.11 3584.05 L 743.84 3584.73 L 740.57 3585.41 L 737.30 3586.08 L 734.03 3586.76 L 730.76 3587.44 L 727.49 3588.12 L 724.22 3588.80 L 720.95 3589.48 L 717.69 3590.16 L 714.42 3590.83 L 711.15 3591.51 L 707.88 3592.19 L 704.61 3592.87 L 701.34 3593.55 L 698.07 3594.23 L 694.80 3594.91 L 691.53 3595.58 L 688.26 3596.26 L 684.99 3596.94 L 681.72 3597.62 L 678.45 3598.30 L 675.18 3598.98 L 671.91 3599.66 L 668.64 3600.34 L 665.37 3601.01 L 662.10 3601.69 L 658.83 3602.37 L 655.56 3603.05 L 652.29 3603.73 L 649.02 3604.41 L 645.75 3605.09 L 642.48 3605.76 L 639.21 3606.44 L 635.94 3607.12 L 632.67 3607.80 L 629.40 3608.48 L 626.13 3609.14 L 622.85 3609.74 L 619.55 3610.28 L 616.25 3610.79 L 612.95 3611.29 L 609.65 3611.79 L 606.35 3612.30 L 603.05 3612.80 L 599.75 3613.31 L 596.45 3613.81 L 593.15 3614.32 L 589.84 3614.82 L 586.54 3615.33 L 583.24 3615.83 L 579.94 3616.34 L 576.64 3616.84 L 573.34 3617.35 L 570.04 3617.85 L 566.74 3618.36 L 563.44 3618.86 L 560.14 3619.37 L 556.83 3619.87 L 553.53 3620.38 L 550.23 3620.88 L 546.93 3621.39 L 543.63 3621.89 L 540.33 3622.40 L 537.03 3622.90 L 533.73 3623.41 L 530.43 3623.91 L 527.13 3624.42 L 523.82 3624.92 L 520.52 3625.43 L 517.22 3625.93 L 513.92 3626.44 L 510.62 3626.94 L 507.32 3627.45 L 504.02 3627.95 L 500.72 3628.45 L 497.42 3628.96 L 494.12 3629.46 L 490.82 3629.97 L 487.51 3630.47 L 484.21 3630.98 L 480.91 3631.48 L 477.61 3631.99 L 474.31 3632.49 L 471.01 3633.00 L 467.71 3633.50 L 464.41 3634.01 L 461.11 3634.51 L 457.81 3635.02 L 454.50 3635.52 L 451.20 3636.03 L 447.90 3636.53 L 444.60 3637.04 L 441.30 3637.54 L 438.00 3638.05 L 434.70 3638.55 L 431.40 3639.06 L 428.10 3639.56 L 424.80 3640.07 L 421.49 3640.57 L 418.19 3641.08 L 414.89 3641.58 L 411.59 3642.09 L 408.29 3642.59 L 404.99 3643.10 L 401.69 3643.60 L 398.39 3644.11 L 395.09 3644.61 L 391.79 3645.12 L 388.49 3645.62 L 385.18 3646.12 L 381.88 3646.63 L 378.58 3647.13 L 375.28 3647.64 L 371.98 3648.14 L 368.68 3648.65 L 365.38 3649.15 L 362.08 3649.66 L 358.78 3650.16 L 355.48 3650.67 L 352.17 3651.17 L 348.87 3651.68 L 345.57 3652.18 L 342.27 3652.69 L 338.97 3653.19 L 335.67 3653.70 L 332.37 3654.20 L 329.07 3654.71 L 325.77 3655.21 L 322.47 3655.72 L 319.16 3656.22 L 315.86 3656.73 L 312.56 3657.23 L 309.26 3657.74 L 305.96 3658.24 L 302.66 3658.75 L 299.36 3659.25 L 296.06 3659.76 L 292.76 3660.26 L 289.46 3660.77 L 286.16 3661.27 L 282.85 3661.78 L 279.55 3662.28 L 276.25 3662.78 L 272.95 3663.29 L 269.65 3663.79 L 266.35 3664.30 L 263.05 3664.80 L 259.75 3665.31 L 256.45 3665.81 L 253.15 3666.32 L 249.84 3666.82 L 246.54 3667.33 L 243.24 3667.83 L 239.94 3668.34 L 236.64 3668.84 L 233.34 3669.35 L 230.04 3669.85 L 226.74 3670.36 L 223.44 3670.86 L 220.14 3671.37 L 216.83 3671.78 L 213.50 3672.08 L 210.17 3672.26 L 206.84 3672.41 L 203.50 3672.56 L 200.16 3672.70 L 196.83 3672.85 L 193.49 3673.00 L 190.16 3673.15 L 186.82 3673.30 L 183.48 3673.45 L 180.15 3673.59 L 176.81 3673.74 L 173.47 3673.89 L 170.14 3674.04 L 166.80 3674.19 L 163.47 3674.33 L 160.13 3674.48 L 156.79 3674.63 L 153.46 3674.78 L 150.12 3674.93 L 146.79 3675.08 L 143.45 3675.22 L 140.11 3675.37 L 136.78 3675.52 L 133.44 3675.67 L 130.11 3675.82 L 126.77 3675.97 L 123.43 3676.11 L 120.10 3676.26 L 116.76 3676.41 L 113.43 3676.56 L 110.09 3676.71 L 106.75 3676.86 L 103.42 3677.00 L 100.08 3677.15 L 96.75 3677.30 L 93.41 3677.45 L 90.07 3677.60 L 86.74 3677.75 L 83.40 3677.89 L 80.07 3678.04 L 76.73 3678.19 L 73.39 3678.34 L 70.06 3678.49 L 66.72 3678.63 L 63.39 3678.78 L 60.05 3678.93 L 56.71 3679.08 L 53.38 3679.23 L 50.04 3679.38 L 46.70 3679.52 L 43.37 3679.67 L 40.03 3679.82 L 36.70 3679.97 L 33.36 3680.12 L 30.02 3680.27 L 26.69 3680.41 L 23.35 3680.56 L 20.02 3680.71 L 16.68 3680.86 L 13.34 3681.01 L 10.01 3681.16 L 6.67 3681.30 L 3.34 3681.45 M 6156.94 3081.74 L 6160.29 3081.87 L 6163.63 3082.01 L 6166.97 3082.15 L 6170.31 3082.28 L 6173.66 3082.42 L 6177.00 3082.56 L 6180.34 3082.69 L 6183.68 3082.83 L 6187.03 3082.96 L 6190.37 3083.10 L 6193.71 3083.24 L 6197.05 3083.37 L 6200.40 3083.51 L 6203.74 3083.65 L 6207.08 3083.78 L 6210.42 3083.92 L 6213.77 3084.06 L 6217.11 3084.19 L 6220.45 3084.33 L 6223.79 3084.47 L 6227.14 3084.60 L 6230.48 3084.74 L 6233.82 3084.87 L 6237.16 3085.01 L 6240.51 3085.15 L 6243.85 3085.28 L 6247.19 3085.42 L 6250.53 3085.56 L 6253.88 3085.69 L 6257.22 3085.83 L 6260.56 3085.97 L 6263.90 3086.10 L 6267.25 3086.24 L 6270.59 3086.38 L 6273.93 3086.51 L 6277.27 3086.65 L 6280.62 3086.78 L 6283.96 3086.92 L 6287.30 3087.06 L 6290.64 3087.19 L 6293.99 3087.33 L 6297.33 3087.47 L 6300.67 3087.60 L 6304.01 3087.74 L 6307.36 3087.88 L 6310.70 3088.01 L 6314.04 3088.15 L 6317.38 3088.29 L 6320.73 3088.42 L 6324.07 3088.56 L 6327.41 3088.69 L 6330.75 3088.83 L 6334.10 3088.97 L 6337.44 3089.10 L 6340.78 3089.24 L 6344.12 3089.38 L 6347.47 3089.51 L 6350.81 3089.65 L 6354.15 3089.79 L 6357.49 3089.92 L 6360.84 3090.06 L 6364.18 3090.20 L 6367.52 3090.33 L 6370.86 3090.47 L 6374.21 3090.60 L 6377.55 3090.74 L 6380.89 3090.88 L 6384.23 3091.01 L 6387.57 3091.22 L 6390.90 3091.53 L 6394.21 3091.95 L 6397.53 3092.41 L 6400.84 3092.87 L 6404.16 3093.33 L 6407.47 3093.78 L 6410.78 3094.24 L 6414.10 3094.70 L 6417.41 3095.16 L 6420.72 3095.62 L 6424.04 3096.08 L 6427.35 3096.54 L 6430.67 3097.00 L 6433.98 3097.46 L 6437.29 3097.91 L 6440.61 3098.37 L 6443.92 3098.83 L 6447.23 3099.29 L 6450.55 3099.75 L 6453.86 3100.21 L 6457.17 3100.67 L 6460.49 3101.13 L 6463.80 3101.58 L 6467.12 3102.04 L 6470.43 3102.50 L 6473.74 3102.96 L 6477.06 3103.42 L 6480.37 3103.88 L 6483.68 3104.34 L 6487.00 3104.80 L 6490.31 3105.26 L 6493.63 3105.71 L 6496.94 3106.17 L 6500.25 3106.63 L 6503.57 3107.09 L 6506.88 3107.55 L 6510.19 3108.01 L 6513.51 3108.47 L 6516.82 3108.93 L 6520.13 3109.38 L 6523.45 3109.84 L 6526.76 3110.30 L 6530.08 3110.76 L 6533.39 3111.22 L 6536.70 3111.68 L 6540.02 3112.14 L 6543.33 3112.60 L 6546.64 3113.06 L 6549.96 3113.51 L 6553.27 3113.97 L 6556.59 3114.43 L 6559.90 3114.89 L 6563.21 3115.35 L 6566.53 3115.81 L 6569.84 3116.27 L 6573.15 3116.73 L 6576.47 3117.18 L 6579.78 3117.64 L 6583.09 3118.10 L 6586.41 3118.56 L 6589.72 3119.02 L 6593.04 3119.48 L 6596.35 3119.94 L 6599.66 3120.40 L 6602.98 3120.86 L 6606.29 3121.31 L 6609.60 3121.77 L 6612.92 3122.23 L 6616.23 3122.69 L 6619.55 3123.15 L 6622.86 3123.61 L 6626.17 3124.07 L 6629.49 3124.53 L 6632.80 3124.98 L 6636.11 3125.44 L 6639.43 3125.90 L 6642.74 3126.36 L 6646.06 3126.82 L 6649.37 3127.28 L 6652.68 3127.74 L 6656.00 3128.20 L 6659.31 3128.66 L 6662.62 3129.11 L 6665.94 3129.57 L 6669.25 3130.03 L 6672.56 3130.49 L 6675.88 3130.95 L 6679.19 3131.41 L 6682.51 3131.87 L 6685.82 3132.33 L 6689.13 3132.78 L 6692.45 3133.24 L 6695.76 3133.70 L 6699.07 3134.19 L 6702.37 3134.73 L 6705.66 3135.32 L 6708.95 3135.94 L 6712.24 3136.57 L 6715.52 3137.19 L 6718.81 3137.81 L 6722.10 3138.44 L 6725.38 3139.06 L 6728.67 3139.68 L 6731.96 3140.30 L 6735.24 3140.93 L 6738.53 3141.55 L 6741.82 3142.17 L 6745.10 3142.79 L 6748.39 3143.42 L 6751.68 3144.04 L 6754.96 3144.66 L 6758.25 3145.29 L 6761.54 3145.91 L 6764.82 3146.53 L 6768.11 3147.15 L 6771.40 3147.78 L 6774.69 3148.40 L 6777.97 3149.02 L 6781.26 3149.64 L 6784.55 3150.27 L 6787.83 3150.89 L 6791.12 3151.51 L 6794.41 3152.14 L 6797.69 3152.76 L 6800.98 3153.38 L 6804.27 3154.00 L 6807.55 3154.63 L 6810.84 3155.25 L 6814.13 3155.87 L 6817.41 3156.50 L 6820.70 3157.12 L 6823.99 3157.74 L 6827.27 3158.36 L 6830.56 3158.99 L 6833.85 3159.61 L 6837.13 3160.23 L 6840.42 3160.85 L 6843.71 3161.48 L 6847.00 3162.10 L 6850.28 3162.72 L 6853.57 3163.35 L 6856.86 3163.97 L 6860.14 3164.59 L 6863.43 3165.21 L 6866.72 3165.84 L 6870.00 3166.46 L 6873.29 3167.08 L 6876.58 3167.71 L 6879.86 3168.33 L 6883.15 3168.95 L 6886.44 3169.57 L 6889.72 3170.20 L 6893.01 3170.82 L 6896.30 3171.44 L 6899.58 3172.06 L 6902.87 3172.69 L 6906.16 3173.31 L 6909.45 3173.93 L 6912.73 3174.56 L 6916.02 3175.18 L 6919.31 3175.80 L 6922.59 3176.42 L 6925.88 3177.05 L 6929.17 3177.67 L 6932.45 3178.29 L 6935.74 3178.91 L 6939.03 3179.54 L 6942.31 3180.16 L 6945.60 3180.78 L 6948.89 3181.41 L 6952.17 3182.03 L 6955.46 3182.65 L 6958.75 3183.27 L 6962.03 3183.90 L 6965.32 3184.52 L 6968.61 3185.14 L 6971.89 3185.77 L 6975.18 3186.39 L 6978.47 3187.01 L 6981.76 3187.63 L 6985.04 3188.26 L 6988.33 3188.88 L 6991.62 3189.50 L 6994.90 3190.12 L 6998.19 3190.75 L 7001.48 3191.37 L 7004.76 3191.99 L 7008.05 3192.62 L 7011.34 3193.24 L 7014.62 3193.86 L 7017.91 3194.48 L 7021.20 3195.11 L 7024.48 3195.73 L 7027.77 3196.35 L 7031.06 3196.98 L 7034.34 3197.60 L 7037.63 3198.22 L 7040.92 3198.84 L 7044.21 3199.47 L 7047.49 3200.09 L 7050.78 3200.71 L 7054.07 3201.33 L 7057.35 3201.96 L 7060.64 3202.58 L 7063.93 3203.20 L 7067.21 3203.83 L 7070.50 3204.45 L 7073.79 3205.07 L 7077.07 3205.69 L 7080.36 3206.32 L 7083.65 3206.94 L 7086.93 3207.56 L 7090.22 3208.18 L 7093.51 3208.81 L 7096.79 3209.43 L 7100.08 3210.05 L 7103.37 3210.68 L 7106.65 3211.30 L 7109.94 3211.92 L 7113.23 3212.54 L 7116.52 3213.17 L 7119.80 3213.79 L 7123.09 3214.41 L 7126.38 3215.04 L 7129.66 3215.66 L 7132.95 3216.28 L 7136.24 3216.90 L 7139.52 3217.53 L 7142.81 3218.15 L 7146.10 3218.77 L 7149.38 3219.39 L 7152.67 3220.02 L 7155.95 3220.67 L 7159.23 3221.35 L 7162.49 3222.07 L 7165.76 3222.79 L 7169.03 3223.52 L 7172.29 3224.24 L 7175.56 3224.97 L 7178.82 3225.69 L 7182.09 3226.42 L 7185.35 3227.15 L 7188.62 3227.87 L 7191.88 3228.60 L 7195.15 3229.32 L 7198.42 3230.05 L 7201.68 3230.77 L 7204.95 3231.50 L 7208.21 3232.23 L 7211.48 3232.95 L 7214.74 3233.68 L 7218.01 3234.40 L 7221.28 3235.13 L 7224.54 3235.85 L 7227.81 3236.58 L 7231.07 3237.30 L 7234.34 3238.03 L 7237.60 3238.76 L 7240.87 3239.48 L 7244.13 3240.21 L 7247.40 3240.93 L 7250.67 3241.66 L 7253.93 3242.38 L 7257.20 3243.11 L 7260.46 3243.84 L 7263.73 3244.56 L 7266.99 3245.29 L 7270.26 3246.01 L 7273.53 3246.74 L 7276.79 3247.46 L 7280.06 3248.19 L 7283.32 3248.92 L 7286.59 3249.64 L 7289.85 3250.37 L 7293.12 3251.09 L 7296.39 3251.82 L 7299.65 3252.54 L 7302.92 3253.27 L 7306.18 3254.00 L 7309.45 3254.72 L 7312.71 3255.45 L 7315.98 3256.17 L 7319.24 3256.90 L 7322.51 3257.62 L 7325.78 3258.35 L 7329.04 3259.08 L 7332.31 3259.80 L 7335.57 3260.53 L 7338.84 3261.25 L 7342.10 3261.98 L 7345.37 3262.70 L 7348.64 3263.43 L 7351.90 3264.16 L 7355.17 3264.88 L 7358.43 3265.61 L 7361.70 3266.33 L 7364.96 3267.06 L 7368.23 3267.78 L 7371.50 3268.51 L 7374.76 3269.24 L 7378.03 3269.96 L 7381.29 3270.69 L 7384.56 3271.41 L 7387.82 3272.14 L 7391.09 3272.86 L 7394.35 3273.59 L 7397.62 3274.32 L 7400.89 3275.04 L 7404.15 3275.77 L 7407.42 3276.49 L 7410.68 3277.22 L 7413.95 3277.94 L 7417.21 3278.67 L 7420.48 3279.40 L 7423.75 3280.12 L 7427.01 3280.85 L 7430.28 3281.57 L 7433.54 3282.30 L 7436.81 3283.02 L 7440.07 3283.75 L 7443.34 3284.48 L 7446.60 3285.20 L 7449.87 3285.93 L 7453.14 3286.65 L 7456.40 3287.38 L 7459.67 3288.10 L 7462.93 3288.83 L 7466.20 3289.56 L 7469.46 3290.28 L 7472.73 3291.01 L 7476.00 3291.73 L 7479.26 3292.46 L 7482.53 3293.18 L 7485.79 3293.91 L 7489.06 3294.64 L 7492.32 3295.36 L 7495.59 3296.09 L 7498.86 3296.81 L 7502.12 3297.54 L 7505.39 3298.26 L 7508.65 3298.99 L 7511.92 3299.72 L 7515.18 3300.44 L 7518.45 3301.17 L 7521.71 3301.89 L 7524.98 3302.62 L 7528.25 3303.34 L 7531.51 3304.07 L 7534.78 3304.79 L 7538.04 3305.52 L 7541.31 3306.25 L 7544.57 3306.97 L 7547.84 3307.70 L 7551.11 3308.42 L 7554.37 3309.15 L 7557.64 3309.87 L 7560.90 3310.60 L 7564.17 3311.33 L 7567.43 3312.05 L 7570.70 3312.78 L 7573.97 3313.50 L 7577.23 3314.23 L 7580.50 3314.95 L 7583.76 3315.68 L 7587.03 3316.41 L 7590.29 3317.13 L 7593.56 3317.86 L 7596.82 3318.58 L 7600.09 3319.31 L 7603.36 3320.03 L 7606.62 3320.76 L 7609.89 3321.49 L 7613.15 3322.21 L 7616.42 3322.94 L 7619.68 3323.66 L 7622.95 3324.39 L 7626.22 3325.11 L 7629.48 3325.84 L 7632.75 3326.57 L 7636.01 3327.29 L 7639.28 3328.02 L 7642.54 3328.74 L 7645.81 3329.47 L 7649.07 3330.19 L 7652.34 3330.92 L 7655.61 3331.65 L 7658.87 3332.37 L 7662.14 3333.10 L 7665.40 3333.82 L 7668.67 3334.55 L 7671.93 3335.27 M 4971.35 3283.20 L 4974.70 3283.20 L 4978.05 3283.20 L 4981.40 3283.20 L 4984.75 3283.20 L 4988.10 3283.20 L 4991.45 3283.20 L 4994.79 3283.20 L 4998.14 3283.20 L 5001.49 3283.20 L 5004.84 3283.20 L 5008.19 3283.20 L 5011.54 3283.20 L 5014.89 3283.20 L 5018.24 3283.20 L 5021.59 3283.20 L 5024.94 3283.20 L 5028.29 3283.20 L 5031.64 3283.20 L 5034.99 3283.20 L 5038.34 3283.20 L 5041.69 3283.20 L 5045.03 3283.20 L 5048.38 3283.20 L 5051.73 3283.20 L 5055.08 3283.20 L 5058.43 3283.20 L 5061.78 3283.20 L 5065.13 3283.20 L 5068.48 3283.20 L 5071.83 3283.20 L 5075.18 3283.20 L 5078.53 3283.20 L 5081.88 3283.20 L 5085.23 3283.20 L 5088.58 3283.20 L 5091.93 3283.20 L 5095.28 3283.20 L 5098.62 3283.20 L 5101.97 3283.20 L 5105.32 3283.20 L 5108.67 3283.20 L 5112.02 3283.20 L 5115.37 3283.20 L 5118.72 3283.20 L 5122.07 3283.20 L 5125.42 3283.20 L 5128.77 3283.20 L 5132.12 3283.20 L 5135.47 3283.20 L 5138.82 3283.20 L 5142.17 3283.20 L 5145.52 3283.20 L 5148.86 3283.20 L 5152.21 3283.20 L 5155.56 3283.20 L 5158.91 3283.20 L 5162.26 3283.20 L 5165.61 3283.20 L 5168.96 3283.20 L 5172.31 3283.20 L 5175.66 3283.20 L 5179.01 3283.20 L 5182.36 3283.20 L 5185.71 3283.20 L 5189.06 3283.20 L 5192.41 3283.20 L 5195.76 3283.20 L 5199.10 3283.20 L 5202.45 3283.20 L 5205.80 3283.20 L 5209.15 3283.20 L 5212.50 3283.20 L 5215.85 3283.20 L 5219.20 3283.20 L 5222.55 3283.20 L 5225.90 3283.20 L 5229.25 3283.20 L 5232.60 3283.20 L 5235.95 3283.20 L 5239.30 3283.20 L 5242.65 3283.20 L 5246.00 3283.20 L 5249.35 3283.20 L 5252.69 3283.20 L 5256.04 3283.20 L 5259.39 3283.20 L 5262.74 3283.21 L 5266.09 3283.28 L 5269.43 3283.42 L 5272.78 3283.61 L 5276.12 3283.80 L 5279.47 3283.98 L 5282.81 3284.17 L 5286.15 3284.36 L 5289.50 3284.55 L 5292.84 3284.74 L 5296.19 3284.93 L 5299.53 3285.12 L 5302.87 3285.31 L 5306.22 3285.50 L 5309.56 3285.69 L 5312.91 3285.88 L 5316.25 3286.07 L 5319.59 3286.26 L 5322.94 3286.45 L 5326.28 3286.63 L 5329.63 3286.82 L 5332.97 3287.01 L 5336.31 3287.20 L 5339.66 3287.39 L 5343.00 3287.58 L 5346.35 3287.77 L 5349.69 3287.96 L 5353.03 3288.15 L 5356.38 3288.34 L 5359.72 3288.53 L 5363.07 3288.72 L 5366.41 3288.91 L 5369.75 3289.10 L 5373.10 3289.28 L 5376.44 3289.47 L 5379.79 3289.66 L 5383.13 3289.85 L 5386.47 3290.04 L 5389.82 3290.23 L 5393.16 3290.42 L 5396.51 3290.61 L 5399.85 3290.80 L 5403.19 3290.99 L 5406.54 3291.18 L 5409.88 3291.37 L 5413.23 3291.56 L 5416.57 3291.75 L 5419.91 3291.93 L 5423.26 3292.12 L 5426.60 3292.31 L 5429.95 3292.50 L 5433.29 3292.69 L 5436.63 3292.88 L 5439.98 3293.07 L 5443.32 3293.26 L 5446.67 3293.45 L 5450.01 3293.64 L 5453.35 3293.83 L 5456.70 3294.02 L 5460.04 3294.21 L 5463.39 3294.40 L 5466.73 3294.58 L 5470.07 3294.77 L 5473.42 3294.96 L 5476.76 3295.15 L 5480.11 3295.34 L 5483.45 3295.53 L 5486.79 3295.72 L 5490.14 3295.91 L 5493.48 3296.10 L 5496.83 3296.29 L 5500.17 3296.48 L 5503.51 3296.67 L 5506.86 3296.86 L 5510.20 3297.05 L 5513.55 3297.23 L 5516.89 3297.43 L 5520.22 3297.71 L 5523.55 3298.08 L 5526.87 3298.54 L 5530.19 3298.99 L 5533.51 3299.44 L 5536.83 3299.89 L 5540.14 3300.35 L 5543.46 3300.80 L 5546.78 3301.25 L 5550.10 3301.70 L 5553.42 3302.16 L 5556.74 3302.61 L 5560.06 3303.06 L 5563.37 3303.51 L 5566.69 3303.97 L 5570.01 3304.42 L 5573.33 3304.87 L 5576.65 3305.32 L 5579.97 3305.78 L 5583.29 3306.23 L 5586.61 3306.68 L 5589.92 3307.14 L 5593.24 3307.59 L 5596.56 3308.04 L 5599.88 3308.49 L 5603.20 3308.95 L 5606.52 3309.40 L 5609.84 3309.85 L 5613.15 3310.30 L 5616.47 3310.76 L 5619.79 3311.21 L 5623.11 3311.66 L 5626.43 3312.11 L 5629.75 3312.57 L 5633.07 3313.02 L 5636.38 3313.47 L 5639.70 3313.92 L 5643.02 3314.38 L 5646.34 3314.83 L 5649.66 3315.28 L 5652.98 3315.73 L 5656.30 3316.19 L 5659.62 3316.64 L 5662.93 3317.09 L 5666.25 3317.54 L 5669.57 3318.00 L 5672.89 3318.45 L 5676.21 3318.90 L 5679.53 3319.35 L 5682.85 3319.81 L 5686.16 3320.26 L 5689.48 3320.71 L 5692.80 3321.16 L 5696.12 3321.62 L 5699.44 3322.07 L 5702.76 3322.52 L 5706.08 3322.97 L 5709.39 3323.43 L 5712.71 3323.88 L 5716.03 3324.33 L 5719.35 3324.78 L 5722.67 3325.24 L 5725.99 3325.69 L 5729.31 3326.14 L 5732.63 3326.59 L 5735.94 3327.05 L 5739.26 3327.50 L 5742.58 3327.95 L 5745.90 3328.40 L 5749.22 3328.86 L 5752.54 3329.31 L 5755.86 3329.76 L 5759.17 3330.21 L 5762.49 3330.67 L 5765.81 3331.12 L 5769.13 3331.57 L 5772.45 3332.02 L 5775.77 3332.48 L 5779.09 3332.93 L 5782.40 3333.38 L 5785.72 3333.83 L 5789.04 3334.29 L 5792.36 3334.74 L 5795.68 3335.19 L 5799.00 3335.65 L 5802.32 3336.10 L 5805.64 3336.55 L 5808.95 3337.00 L 5812.27 3337.46 L 5815.59 3337.91 L 5818.91 3338.36 L 5822.23 3338.81 L 5825.55 3339.27 L 5828.87 3339.72 L 5832.18 3340.17 L 5835.49 3340.68 L 5838.78 3341.29 L 5842.06 3341.99 L 5845.32 3342.72 L 5848.59 3343.46 L 5851.86 3344.20 L 5855.13 3344.94 L 5858.39 3345.68 L 5861.66 3346.41 L 5864.93 3347.15 L 5868.19 3347.89 L 5871.46 3348.63 L 5874.73 3349.36 L 5878.00 3350.10 L 5881.26 3350.84 L 5884.53 3351.58 L 5887.80 3352.32 L 5891.06 3353.05 L 5894.33 3353.79 L 5897.60 3354.53 L 5900.86 3355.27 L 5904.13 3356.00 L 5907.40 3356.74 L 5910.67 3357.48 L 5913.93 3358.22 L 5917.20 3358.95 L 5920.47 3359.69 L 5923.73 3360.43 L 5927.00 3361.17 L 5930.27 3361.91 L 5933.54 3362.64 L 5936.80 3363.38 L 5940.07 3364.12 L 5943.34 3364.86 L 5946.60 3365.59 L 5949.87 3366.33 L 5953.14 3367.07 L 5956.41 3367.81 L 5959.67 3368.55 L 5962.94 3369.28 L 5966.21 3370.02 L 5969.47 3370.76 L 5972.74 3371.50 L 5976.01 3372.23 L 5979.27 3372.97 L 5982.54 3373.71 L 5985.79 3374.54 L 5989.01 3375.43 L 5992.22 3376.40 L 5995.42 3377.38 L 5998.63 3378.35 L 6001.83 3379.32 L 6005.04 3380.29 L 6008.24 3381.26 L 6011.45 3382.23 L 6014.65 3383.20 L 6017.86 3384.18 L 6021.06 3385.15 L 6024.27 3386.12 L 6027.48 3387.09 L 6030.68 3388.06 L 6033.89 3389.03 L 6037.09 3390.00 L 6040.30 3390.97 L 6043.50 3391.95 L 6046.71 3392.92 L 6049.91 3393.89 L 6053.12 3394.86 L 6056.32 3395.83 L 6059.53 3396.80 L 6062.73 3397.77 L 6065.94 3398.75 L 6069.15 3399.72 L 6072.35 3400.69 L 6075.56 3401.66 L 6078.76 3402.63 L 6081.97 3403.60 L 6085.17 3404.57 L 6088.38 3405.54 L 6091.58 3406.52 L 6094.79 3407.49 L 6097.99 3408.46 L 6101.20 3409.43 L 6104.41 3410.40 L 6107.61 3411.37 L 6110.82 3412.34 L 6114.02 3413.32 L 6117.23 3414.29 L 6120.43 3415.26 L 6123.64 3416.23 L 6126.84 3417.20 L 6130.05 3418.17 L 6133.25 3419.14 L 6136.46 3420.11 L 6139.66 3421.09 L 6142.90 3421.78 L 6146.17 3422.05 L 6149.50 3421.90 L 6152.83 3421.60 L 6156.17 3421.29 L 6159.50 3420.99 L 6162.84 3420.69 L 6166.17 3420.38 L 6169.51 3420.08 L 6172.84 3419.78 L 6176.18 3419.47 L 6179.52 3419.17 L 6182.85 3418.87 L 6186.19 3418.56 L 6189.52 3418.26 L 6192.86 3417.96 L 6196.10 3417.33 L 6199.23 3416.30 L 6202.25 3414.88 L 6205.24 3413.38 L 6208.24 3411.88 L 6211.23 3410.38 L 6214.23 3408.89 L 6217.23 3407.39 L 6220.22 3405.89 L 6223.22 3404.39 L 6226.21 3402.89 L 6229.21 3401.40 L 6232.20 3399.90 M 2566.56 3201.60 L 2569.91 3201.60 L 2573.27 3201.60 L 2576.63 3201.60 L 2579.99 3201.60 L 2583.34 3201.60 L 2586.70 3201.60 L 2590.06 3201.60 L 2593.42 3201.60 L 2596.77 3201.60 L 2600.13 3201.60 L 2603.49 3201.60 L 2606.85 3201.60 L 2610.20 3201.60 L 2613.56 3201.60 L 2616.92 3201.60 L 2620.28 3201.60 L 2623.63 3201.60 L 2626.99 3201.60 L 2630.35 3201.60 L 2633.71 3201.60 L 2637.06 3201.60 L 2640.42 3201.60 L 2643.78 3201.60 L 2647.14 3201.60 L 2650.49 3201.60 L 2653.85 3201.60 L 2657.21 3201.60 L 2660.57 3201.60 L 2663.92 3201.60 L 2667.23 3201.84 L 2670.45 3202.52 L 2673.58 3203.65 L 2676.66 3204.97 L 2679.75 3206.29 L 2682.83 3207.61 L 2685.92 3208.94 L 2689.01 3210.26 L 2692.09 3211.58 L 2695.18 3212.90 L 2698.26 3214.23 L 2701.19 3215.78 L 2703.88 3217.68 L 2706.34 3219.94 L 2708.71 3222.31 L 2711.09 3224.69 L 2713.46 3227.06 L 2715.84 3229.44 L 2718.21 3231.81 L 2720.58 3234.18 L 2722.96 3236.56 L 2724.78 3239.10 L 2725.58 3241.95 L 2725.38 3245.10 L 2724.72 3248.40 L 2724.06 3251.69 L 2723.40 3254.98 L 2722.75 3258.27 L 2722.09 3261.56 L 2721.43 3264.86 L 2720.77 3268.15 L 2720.11 3271.44 L 2719.45 3274.73 L 2718.79 3278.03 L 2718.14 3281.32 L 2717.48 3284.61 L 2716.26 3287.61 L 2714.48 3290.30 L 2712.12 3292.68 L 2709.75 3295.05 L 2707.37 3297.43 L 2705.00 3299.80 L 2702.63 3302.17 L 2700.25 3304.55 L 2697.88 3306.92 L 2695.50 3309.30 L 2693.13 3311.67 L 2690.76 3314.04 L 2688.38 3316.42 L 2686.01 3318.79 L 2683.63 3321.17 L 2681.26 3323.54 L 2678.88 3325.92 L 2676.51 3328.29 L 2674.14 3330.66 L 2671.76 3333.04 L 2669.39 3335.41 L 2667.01 3337.79 L 2664.64 3340.16 L 2662.27 3342.53 L 2659.89 3344.91 L 2657.52 3347.28 L 2655.14 3349.66 L 2652.77 3352.03 L 2650.40 3354.40 L 2648.02 3356.78 L 2645.65 3359.15 L 2643.27 3361.53 L 2640.90 3363.90 L 2638.53 3366.27 L 2636.15 3368.65 L 2633.78 3371.02 L 2631.32 3373.30 L 2628.74 3375.41 L 2626.01 3377.36 L 2623.23 3379.24 L 2620.44 3381.12 L 2617.66 3382.99 L 2614.88 3384.87 L 2612.09 3386.75 L 2609.31 3388.62 L 2606.52 3390.50 L 2603.74 3392.38 L 2600.96 3394.26 L 2598.17 3396.13 L 2595.39 3398.01 L 2592.61 3399.89 L 2589.82 3401.77 L 2587.04 3403.64 L 2584.26 3405.52 L 2581.47 3407.40 L 2578.69 3409.27 L 2575.91 3411.15 L 2573.12 3413.03 L 2570.34 3414.91 L 2567.55 3416.78 L 2564.77 3418.66 L 2561.99 3420.54 L 2559.20 3422.42 L 2556.42 3424.29 L 2553.64 3426.17 L 2550.85 3428.05 L 2548.07 3429.92 L 2545.29 3431.80 L 2542.50 3433.68 L 2539.72 3435.56 L 2536.94 3437.43 L 2534.15 3439.31 L 2531.37 3441.19 L 2528.59 3443.07 L 2525.80 3444.94 L 2523.02 3446.82 L 2520.23 3448.70 L 2517.45 3450.58 L 2514.67 3452.45 L 2511.88 3454.33 L 2509.10 3456.21 L 2506.32 3458.08 L 2503.53 3459.96 L 2500.75 3461.84 L 2497.97 3463.72 L 2495.18 3465.59 L 2492.40 3467.47 L 2489.62 3469.35 L 2486.83 3471.23 L 2484.05 3473.10 L 2481.26 3474.98 L 2478.48 3476.86 L 2475.70 3478.73 L 2472.91 3480.61 L 2470.13 3482.49 L 2467.35 3484.37 L 2464.56 3486.24 L 2461.78 3488.12 L 2459.00 3490.00 L 2456.21 3491.88 L 2453.43 3493.75 L 2450.65 3495.63 L 2447.86 3497.51 L 2445.08 3499.38 L 2442.29 3501.26 L 2439.51 3503.14 L 2436.73 3505.02 L 2433.94 3506.89 L 2431.16 3508.77 L 2428.38 3510.65 L 2425.65 3512.60 L 2423.06 3514.71 L 2420.61 3516.99 L 2418.24 3519.36 L 2415.86 3521.74 L 2413.49 3524.11 L 2411.11 3526.49 L 2408.74 3528.86 L 2406.37 3531.23 L 2403.99 3533.61 L 2401.62 3535.98 L 2399.24 3538.36 L 2396.87 3540.73 L 2394.50 3543.10 L 2392.21 3545.54 L 2390.26 3548.20 L 2388.63 3551.10 L 2387.24 3554.15 L 2385.85 3557.21 L 2384.46 3560.27 L 2383.07 3563.32 L 2381.68 3566.38 L 2380.29 3569.44 L 2378.90 3572.49 L 2377.51 3575.55 L 2376.13 3578.60 L 2374.74 3581.66 L 2373.35 3584.72 L 2371.96 3587.77 L 2370.57 3590.83 L 2369.18 3593.89 L 2367.79 3596.94 M 6150.25 3081.94 L 6146.89 3082.27 L 6143.54 3082.61 L 6140.18 3082.94 L 6136.83 3083.28 L 6133.48 3083.61 L 6130.12 3083.95 L 6126.77 3084.28 L 6123.42 3084.62 L 6120.06 3084.95 L 6116.71 3085.29 L 6113.35 3085.62 L 6110.00 3085.96 L 6106.69 3086.49 L 6103.45 3087.30 L 6100.27 3088.40 L 6097.12 3089.58 L 6093.96 3090.76 L 6090.81 3091.95 L 6087.65 3093.13 L 6084.49 3094.31 L 6081.34 3095.50 L 6078.18 3096.68 L 6075.03 3097.87 L 6071.87 3099.05 L 6068.88 3100.47 L 6066.21 3102.35 L 6063.87 3104.69 L 6061.67 3107.25 L 6059.48 3109.81 L 6057.28 3112.37 L 6055.09 3114.93 L 6052.90 3117.49 L 6050.70 3120.05 L 6048.51 3122.60 L 6046.32 3125.16 L 6044.12 3127.72 L 6041.93 3130.28 L 6040.02 3132.95 L 6038.85 3135.88 L 6038.40 3139.09 L 6038.40 3142.46 L 6038.40 3145.83 L 6038.40 3149.20 L 6038.40 3152.57 L 6038.40 3155.94 L 6038.40 3159.31 L 6038.83 3162.58 L 6039.75 3165.73 L 6041.18 3168.77 L 6042.69 3171.78 L 6044.20 3174.79 L 6045.70 3177.81 L 6047.21 3180.82 L 6048.72 3183.84 L 6050.23 3186.85 L 6051.73 3189.87 L 6053.24 3192.88 L 6054.75 3195.90 L 6056.29 3198.88 L 6058.19 3201.60 L 6060.42 3204.05 L 6062.97 3206.25 L 6065.52 3208.46 L 6068.06 3210.67 L 6070.61 3212.88 L 6073.16 3215.08 L 6075.71 3217.29 L 6078.25 3219.50 L 6080.80 3221.71 L 6083.35 3223.91 L 6085.89 3226.12 L 6088.44 3228.33 L 6090.99 3230.54 L 6093.54 3232.74 L 6096.08 3234.95 L 6098.63 3237.16 L 6101.18 3239.37 L 6103.72 3241.57 L 6106.27 3243.78 L 6108.82 3245.99 L 6111.37 3248.20 L 6113.91 3250.40 L 6116.46 3252.61 L 6119.01 3254.82 L 6121.55 3257.03 L 6124.10 3259.23 L 6126.65 3261.44 L 6129.19 3263.65 L 6131.74 3265.86 L 6134.29 3268.06 L 6136.84 3270.27 L 6139.38 3272.48 L 6141.93 3274.69 L 6144.48 3276.89 L 6147.02 3279.10 L 6149.57 3281.31 L 6152.12 3283.52 L 6154.67 3285.72 L 6157.21 3287.93 L 6159.76 3290.14 L 6162.31 3292.35 L 6164.85 3294.55 L 6167.40 3296.76 L 6169.95 3298.97 L 6172.49 3301.18 L 6175.04 3303.38 L 6177.59 3305.59 L 6180.14 3307.80 L 6182.68 3310.01 L 6185.23 3312.21 L 6187.78 3314.42 L 6190.32 3316.63 L 6192.87 3318.84 L 6195.42 3321.04 L 6197.97 3323.25 L 6200.30 3325.62 L 6202.26 3328.27 L 6203.84 3331.20 L 6205.27 3334.26 L 6206.69 3337.31 L 6208.12 3340.37 L 6209.54 3343.42 L 6210.97 3346.48 L 6212.39 3349.53 L 6213.82 3352.59 L 6215.25 3355.64 L 6216.67 3358.69 L 6218.10 3361.75 L 6219.52 3364.80 L 6220.95 3367.86 L 6222.37 3370.91 L 6223.80 3373.97 L 6225.22 3377.02 L 6226.65 3380.07 L 6228.07 3383.13 L 6229.50 3386.18 L 6230.92 3389.24 L 6232.35 3392.29 L 6233.77 3395.35 M 6238.05 3400.21 L 6240.89 3402.02 L 6243.74 3403.84 L 6246.59 3405.65 L 6249.44 3407.46 L 6252.28 3409.27 L 6255.13 3411.08 L 6257.98 3412.90 L 6260.83 3414.71 L 6263.67 3416.52 L 6266.52 3418.33 L 6269.37 3420.14 L 6272.22 3421.96 L 6275.06 3423.77 L 6277.91 3425.58 L 6280.76 3427.39 L 6283.61 3429.20 L 6286.49 3430.95 L 6289.44 3432.57 L 6292.47 3434.05 L 6295.54 3435.46 L 6298.60 3436.87 L 6301.67 3438.28 L 6304.74 3439.68 L 6307.81 3441.09 L 6310.87 3442.50 L 6313.94 3443.91 L 6317.01 3445.31 L 6320.07 3446.72 L 6323.14 3448.13 L 6326.21 3449.54 L 6329.28 3450.95 L 6332.34 3452.35 L 6335.41 3453.76 L 6338.48 3455.17 L 6341.55 3456.58 L 6344.61 3457.99 L 6347.68 3459.39 L 6350.75 3460.80 L 6353.82 3462.21 L 6356.88 3463.62 L 6359.95 3465.03 L 6363.02 3466.43 L 6366.09 3467.84 L 6369.15 3469.25 L 6372.22 3470.66 L 6375.29 3472.07 L 6378.35 3473.47 L 6381.42 3474.88 L 6384.49 3476.29 L 6387.56 3477.70 L 6390.62 3479.11 L 6393.69 3480.51 L 6396.76 3481.92 L 6399.83 3483.33 L 6402.89 3484.74 L 6405.96 3486.15 L 6409.03 3487.55 L 6412.10 3488.96 L 6415.16 3490.37 L 6418.23 3491.78 L 6421.30 3493.19 L 6424.36 3494.59 L 6427.43 3496.00 L 6430.50 3497.41 L 6433.57 3498.82 L 6436.63 3500.23 L 6439.70 3501.63 L 6442.77 3503.04 L 6445.84 3504.45 L 6448.90 3505.86 L 6451.97 3507.27 L 6455.04 3508.67 L 6458.11 3510.08 L 6461.17 3511.49 L 6464.24 3512.90 L 6467.31 3514.31 L 6470.38 3515.71 L 6473.44 3517.12 L 6476.51 3518.53 L 6479.58 3519.94 L 6482.64 3521.35 L 6485.71 3522.75 L 6488.78 3524.16 L 6491.85 3525.57 L 6494.91 3526.98 L 6497.98 3528.38 L 6501.05 3529.79 L 6504.12 3531.20 L 6507.18 3532.61 L 6510.25 3534.02 L 6513.32 3535.42 L 6516.39 3536.83 L 6519.45 3538.24 L 6522.52 3539.65 L 6525.59 3541.06 L 6528.65 3542.46 L 6531.72 3543.87 L 6534.79 3545.28 L 6537.86 3546.69 L 6540.92 3548.10 L 6543.99 3549.50 L 6547.06 3550.91 L 6550.13 3552.32 L 6553.19 3553.73 L 6556.26 3555.14 L 6559.33 3556.54 L 6562.40 3557.95 L 6565.46 3559.36 L 6568.53 3560.77 L 6571.60 3562.18 L 6574.67 3563.58 L 6577.73 3564.99" fill='none' stroke='#000000' stroke-opacity='0.5' stroke-width='118.75' stroke-linecap='round' stroke-linejoin='round' stroke-miterlimit='1'/>
</svg>
