<svg xmlns='http://www.w3.org/2000/svg' width='7680' height='4320' viewBox='0 0 7680 4320'>
<path d="M 3432.17 3086.40 L 3437.15 3086.40 L 3442.12 3086.40 L 3447.09 3086.40 L 3452.06 3086.40 L 3457.04 3086.40 L 3462.01 3086.40 L 3466.98 3086.40 L 3471.95 3086.40 L 3476.93 3086.40 L 3481.90 3086.40 L 3486.87 3086.40 L 3491.84 3086.40 L 3496.82 3086.40 L 3501.79 3086.40 L 3506.76 3086.40 L 3511.73 3086.40 L 3516.71 3086.40 L 3521.68 3086.40 L 3526.65 3086.40 L 3531.62 3086.40 L 3536.60 3086.40 L 3541.57 3086.40 L 3546.54 3086.40 L 3551.51 3086.40 L 3556.49 3086.40 L 3561.46 3086.40 L 3566.43 3086.40 L 3571.40 3086.40 L 3576.38 3086.40 L 3581.35 3086.40 L 3586.32 3086.40 L 3591.29 3086.40 L 3596.27 3086.40 L 3601.24 3086.40 L 3606.21 3086.40 L 3611.19 3086.40 L 3616.16 3086.40 L 3621.13 3086.40 L 3626.10 3086.40 L 3631.08 3086.40 L 3636.05 3086.40 L 3641.02 3086.40 L 3645.99 3086.40 L 3650.97 3086.40 L 3655.94 3086.40 L 3660.91 3086.40 L 3665.88 3086.40 L 3670.86 3086.40 L 3675.83 3086.40 L 3680.80 3086.40 L 3685.77 3086.40 L 3690.75 3086.40 L 3695.72 3086.48 L 3700.68 3086.65 L 3705.65 3086.91 L 3710.62 3087.17 L 3715.58 3087.43 L 3720.55 3087.69 L 3725.51 3087.95 L 3730.48 3088.21 L 3735.44 3088.48 L 3740.41 3088.74 L 3745.38 3089.00 L 3750.34 3089.26 L 3755.31 3089.52 L 3760.27 3089.78 L 3765.24 3090.04 L 3770.20 3090.31 L 3775.17 3090.57 L 3780.14 3090.83 L 3785.10 3091.09 L 3790.07 3091.35 L 3795.03 3091.61 L 3800.00 3091.87 L 3804.96 3092.13 L 3809.93 3092.40 L 3814.90 3092.66 L 3819.86 3092.92 L 3824.83 3093.18 L 3829.79 3093.44 L 3834.76 3093.70 L 3839.72 3093.96 L 3844.69 3094.23 L 3849.66 3094.49 L 3854.62 3094.75 L 3859.59 3095.01 L 3864.55 3095.27 L 3869.52 3095.53 L 3874.48 3095.81 L 3879.44 3096.17 L 3884.39 3096.61 L 3889.34 3097.12 L 3894.29 3097.63 L 3899.23 3098.14 L 3904.18 3098.64 L 3909.13 3099.15 L 3914.07 3099.66 L 3919.02 3100.17 L 3923.97 3100.67 L 3928.91 3101.18 L 3933.86 3101.69 L 3938.81 3102.20 L 3943.75 3102.70 L 3948.70 3103.21 L 3953.65 3103.72 L 3958.59 3104.22 L 3963.54 3104.73 L 3968.49 3105.24 L 3973.43 3105.75 L 3978.38 3106.25 L 3983.32 3106.76 L 3988.27 3107.27 L 3993.22 3107.78 L 3998.16 3108.28 L 4003.11 3108.79 L 4008.06 3109.30 L 4013.00 3109.81 L 4017.95 3110.31 L 4022.90 3110.82 L 4027.84 3111.33 L 4032.79 3111.83 L 4037.74 3112.34 L 4042.68 3112.85 L 4047.63 3113.36 L 4052.58 3113.86 L 4057.52 3114.37 L 4062.46 3114.92 L 4067.39 3115.60 L 4072.29 3116.39 L 4077.19 3117.26 L 4082.09 3118.13 L 4086.98 3119.00 L 4091.88 3119.87 L 4096.77 3120.74 L 4101.67 3121.61 L 4106.57 3122.48 L 4111.46 3123.35 L 4116.36 3124.22 L 4121.25 3125.09 L 4126.15 3125.96 L 4131.04 3126.83 L 4135.94 3127.70 L 4140.84 3128.58 L 4145.73 3129.45 L 4150.63 3130.32 L 4155.52 3131.19 L 4160.42 3132.06 L 4165.32 3132.93 L 4170.21 3133.80 L 4175.11 3134.67 L 4180.00 3135.54 L 4184.90 3136.41 L 4189.79 3137.28 L 4194.69 3138.15 L 4199.59 3139.02 L 4204.48 3139.89 L 4209.38 3140.76 L 4214.27 3141.63 L 4219.17 3142.50 L 4224.06 3143.37 L 4228.96 3144.24 L 4233.86 3145.11 L 4238.75 3145.98 L 4243.65 3146.85 L 4248.54 3147.72 L 4253.44 3148.59 L 4258.34 3149.46 L 4263.23 3150.33 L 4268.13 3151.20 L 4273.02 3152.08 L 4277.91 3152.99 L 4282.76 3154.06 L 4287.57 3155.29 L 4292.35 3156.65 L 4297.14 3158.01 L 4301.92 3159.36 L 4306.71 3160.72 L 4311.49 3162.08 L 4316.27 3163.43 L 4321.06 3164.79 L 4325.84 3166.15 L 4330.63 3167.50 L 4335.41 3168.86 L 4340.19 3170.22 L 4344.98 3171.57 L 4349.76 3172.93 L 4354.55 3174.29 L 4359.33 3175.64 L 4364.11 3177.00 L 4368.90 3178.36 L 4373.68 3179.71 L 4378.47 3181.07 L 4383.25 3182.43 L 4388.03 3183.78 L 4392.82 3185.14 L 4397.60 3186.50 L 4402.38 3187.85 L 4407.17 3189.21 L 4411.95 3190.57 L 4416.74 3191.92 L 4421.52 3193.28 L 4426.30 3194.64 L 4431.09 3195.99 L 4435.87 3197.35 L 4440.66 3198.71 L 4445.44 3200.06 L 4450.22 3201.42 L 4455.01 3202.78 L 4459.79 3204.13 L 4464.58 3205.49 L 4469.36 3206.85 L 4474.14 3208.20 L 4478.93 3209.56 L 4483.71 3210.92 L 4488.50 3212.27 L 4493.28 3213.63 L 4498.06 3214.99 L 4502.85 3216.34 L 4507.63 3217.70 L 4512.42 3219.06 L 4517.20 3220.41 L 4521.98 3221.77 L 4526.77 3223.12 L 4531.55 3224.48 L 4536.33 3225.84 L 4541.12 3227.19 L 4545.90 3228.55 L 4550.69 3229.91 L 4555.47 3231.26 L 4560.25 3232.62 L 4565.04 3233.98 L 4569.82 3235.33 L 4574.61 3236.69 L 4579.39 3238.05 L 4584.17 3239.40 L 4588.96 3240.76 L 4593.74 3242.12 L 4598.53 3243.48 L 4603.27 3244.94 L 4607.99 3246.51 L 4612.67 3248.18 L 4617.36 3249.86 L 4622.04 3251.53 L 4626.72 3253.20 L 4631.40 3254.87 L 4636.09 3256.55 L 4640.77 3258.22 L 4645.45 3259.89 L 4650.14 3261.56 L 4654.82 3263.24 L 4659.50 3264.91 L 4664.19 3266.58 L 4668.87 3268.25 L 4673.55 3269.93 L 4678.23 3271.60 L 4682.92 3273.27 L 4687.60 3274.94 L 4692.28 3276.62 L 4696.97 3278.29 L 4701.65 3279.96 L 4706.33 3281.63 L 4711.01 3283.30 L 4715.70 3284.98 L 4720.38 3286.65 L 4725.06 3288.32 L 4729.75 3289.99 L 4734.43 3291.67 L 4739.11 3293.34 L 4743.79 3295.01 L 4748.48 3296.68 L 4753.16 3298.36 L 4757.84 3300.03 L 4762.53 3301.70 L 4767.21 3303.37 L 4771.89 3305.05 L 4776.57 3306.72 L 4781.26 3308.39 L 4785.94 3310.06 L 4790.62 3311.74 L 4795.31 3313.41 L 4799.99 3315.08 L 4804.67 3316.75 L 4809.35 3318.43 L 4814.04 3320.10 L 4818.72 3321.77 L 4823.40 3323.44 L 4828.09 3325.12 L 4832.77 3326.79 L 4837.45 3328.46 L 4842.13 3330.13 L 4846.82 3331.81 L 4851.50 3333.48 L 4856.18 3335.15 L 4860.87 3336.82 L 4865.55 3338.50 L 4870.23 3340.17 L 4874.91 3341.84 L 4879.60 3343.51 L 4884.28 3345.19 L 4888.96 3346.86 L 4893.65 3348.53 L 4898.33 3350.20 L 4903.01 3351.88 L 4907.69 3353.55 L 4912.38 3355.22 L 4917.06 3356.89 L 4921.74 3358.57 L 4926.43 3360.24 L 4931.11 3361.91 L 4935.79 3363.58 L 4940.47 3365.26 L 4945.16 3366.93 L 4949.84 3368.60 L 4954.52 3370.27 L 4959.21 3371.95 L 4963.89 3373.62 L 4968.57 3375.29 L 4973.25 3376.96 L 4977.94 3378.63 L 4982.62 3380.31 L 4987.30 3381.98 L 4991.99 3383.65 L 4996.67 3385.32 L 5001.35 3387.00 L 5006.04 3388.67 L 5010.72 3390.34 L 5015.40 3392.01 L 5020.08 3393.69 L 5024.77 3395.36 L 5029.45 3397.03 L 5034.13 3398.70 L 5038.82 3400.38 L 5043.50 3402.05 L 5048.18 3403.72 L 5052.86 3405.39 L 5057.55 3407.07 L 5062.23 3408.74 L 5066.91 3410.41 L 5071.60 3412.08 L 5076.28 3413.76 L 5080.96 3415.43 L 5085.64 3417.10 L 5090.33 3418.77 L 5095.01 3420.45 L 5099.69 3422.12 L 5104.38 3423.79 L 5109.06 3425.46 L 5113.74 3427.14 L 5118.42 3428.81 L 5123.11 3430.48 L 5127.79 3432.15 L 5132.47 3433.83 L 5137.16 3435.50 L 5141.84 3437.17 L 5146.52 3438.84 L 5151.20 3440.52 L 5155.89 3442.19 L 5160.57 3443.86 L 5165.25 3445.53 L 5169.94 3447.21 L 5174.62 3448.88 L 5179.30 3450.55 L 5183.98 3452.22 L 5188.67 3453.90 L 5193.35 3455.57 L 5198.03 3457.24 L 5202.72 3458.91 L 5207.40 3460.59 L 5212.08 3462.26 L 5216.76 3463.93 L 5221.45 3465.60 L 5226.13 3467.28 L 5230.81 3468.95 L 5235.50 3470.62 L 5240.18 3472.29 L 5244.86 3473.96 L 5249.54 3475.64 L 5254.23 3477.31 L 5258.91 3478.98 L 5263.59 3480.65 L 5268.28 3482.33 L 5272.96 3484.00 L 5277.64 3485.67 L 5282.32 3487.34 L 5287.01 3489.02 L 5291.69 3490.69 L 5296.37 3492.36 L 5301.06 3494.03 L 5305.74 3495.71 L 5310.42 3497.38 L 5315.11 3499.05 L 5319.79 3500.72 L 5324.47 3502.40 L 5329.15 3504.07 L 5333.84 3505.74 L 5338.52 3507.41 L 5343.20 3509.09 L 5347.89 3510.76 L 5352.57 3512.43 L 5357.25 3514.10 L 5361.93 3515.78 L 5366.62 3517.45 L 5371.30 3519.12 L 5375.98 3520.79 L 5380.67 3522.47 L 5385.35 3524.14 L 5390.03 3525.81 L 5394.71 3527.48 L 5399.40 3529.16 L 5404.08 3530.83 L 5408.78 3532.45 L 5413.50 3534.02 L 5418.24 3535.53 L 5422.98 3537.02 L 5427.72 3538.52 L 5432.46 3540.02 L 5437.20 3541.52 L 5441.94 3543.01 L 5446.69 3544.51 L 5451.43 3546.01 L 5456.17 3547.51 L 5460.91 3549.00 L 5465.65 3550.50 L 5470.39 3552.00 L 5475.14 3553.50 L 5479.88 3554.99 L 5484.62 3556.49 L 5489.36 3557.99 L 5494.10 3559.49 L 5498.85 3560.98 L 5503.59 3562.48 L 5508.33 3563.98 L 5513.07 3565.47 L 5517.81 3566.97 L 5522.55 3568.47 L 5527.30 3569.97 L 5532.04 3571.46 L 5536.78 3572.96 L 5541.52 3574.46 L 5546.26 3575.96 L 5551.00 3577.45 L 5555.75 3578.95 L 5560.49 3580.45 L 5565.23 3581.95 L 5569.97 3583.44 L 5574.71 3584.94 L 5579.46 3586.44 L 5584.20 3587.94 L 5588.94 3589.43 L 5593.68 3590.93 L 5598.42 3592.43 L 5603.16 3593.93 L 5607.91 3595.42 L 5612.65 3596.92 L 5617.39 3598.42 L 5622.13 3599.92 L 5626.87 3601.41 L 5631.61 3602.91 L 5636.36 3604.41 L 5641.10 3605.90 L 5645.84 3607.40 L 5650.58 3608.90 L 5655.32 3610.40 L 5660.07 3611.89 L 5664.81 3613.39 L 5669.55 3614.89 L 5674.29 3616.39 L 5679.04 3617.87 L 5683.81 3619.26 L 5688.61 3620.55 L 5693.43 3621.76 L 5698.26 3622.96 L 5703.08 3624.17 L 5707.90 3625.38 L 5712.73 3626.58 L 5717.55 3627.79 L 5722.38 3628.99 L 5727.20 3630.20 L 5732.03 3631.41 L 5736.85 3632.61 L 5741.67 3633.82 L 5746.50 3635.02 L 5751.32 3636.23 L 5756.15 3637.44 L 5760.97 3638.64 L 5765.79 3639.85 L 5770.62 3641.05 L 5775.44 3642.26 L 5780.27 3643.47 L 5785.09 3644.67 L 5789.91 3645.88 L 5794.74 3647.08 L 5799.56 3648.29 L 5804.39 3649.50 L 5809.21 3650.70 L 5814.03 3651.91 L 5818.86 3653.11 L 5823.68 3654.32 L 5828.51 3655.53 L 5833.33 3656.73 L 5838.16 3657.94 L 5842.98 3659.14 L 5847.80 3660.35 L 5852.63 3661.56 L 5857.45 3662.76 L 5862.28 3663.97 L 5867.10 3665.17 L 5871.92 3666.38 L 5876.75 3667.59 L 5881.57 3668.79 L 5886.40 3670.00 L 5891.22 3671.21 L 5896.04 3672.41 L 5900.87 3673.62 L 5905.69 3674.82 L 5910.52 3676.03 L 5915.34 3677.24 L 5920.16 3678.44 L 5924.99 3679.65 L 5929.81 3680.85 L 5934.64 3682.06 L 5939.46 3683.27 L 5944.29 3684.47 L 5949.11 3685.68 L 5953.93 3686.88 L 5958.76 3688.09 L 5963.58 3689.30 L 5968.41 3690.50 L 5973.23 3691.71 L 5978.05 3692.91 L 5982.88 3694.12 L 5987.70 3695.33 L 5992.53 3696.53 L 5997.35 3697.74 L 6002.17 3698.94 L 6007.01 3700.09 L 6011.87 3701.11 L 6016.77 3701.99 L 6021.67 3702.81 L 6026.57 3703.63 L 6031.48 3704.45 L 6036.38 3705.26 L 6041.29 3706.08 L 6046.19 3706.90 L 6051.10 3707.72 L 6056.00 3708.53 L 6060.91 3709.35 L 6065.81 3710.17 L 6070.72 3710.99 L 6075.62 3711.80 L 6080.53 3712.62 L 6085.43 3713.44 L 6090.34 3714.26 L 6095.24 3715.07 L 6100.15 3715.89 L 6105.05 3716.71 L 6109.96 3717.53 L 6114.86 3718.34 L 6119.77 3719.16 L 6124.67 3719.98 L 6129.58 3720.80 L 6134.48 3721.61 L 6139.39 3722.43 L 6144.29 3723.25 L 6149.20 3724.07 L 6154.10 3724.88 L 6159.01 3725.70 L 6163.91 3726.52 L 6168.82 3727.34 L 6173.72 3728.15 L 6178.63 3728.97 L 6183.53 3729.79 L 6188.44 3730.61 L 6193.34 3731.42 L 6198.25 3732.24 L 6203.15 3733.06 L 6208.06 3733.84 L 6212.99 3734.52 L 6217.92 3735.10 L 6222.87 3735.61 L 6227.81 3736.12 L 6232.76 3736.63 L 6237.71 3737.14 L 6242.65 3737.65 L 6247.60 3738.17 L 6252.55 3738.68 L 6257.49 3739.19 L 6262.44 3739.70 L 6267.38 3740.21 L 6272.33 3740.72 L 6277.28 3741.24 L 6282.22 3741.75 L 6287.17 3742.26 L 6292.12 3742.77 L 6297.06 3743.28 L 6302.01 3743.79 L 6306.95 3744.31 L 6311.90 3744.82 L 6316.85 3745.33 L 6321.79 3745.84 L 6326.74 3746.35 L 6331.68 3746.86 L 6336.63 3747.38 L 6341.58 3747.89 L 6346.52 3748.37 L 6351.48 3748.71 L 6356.45 3748.91 L 6361.42 3749.00 L 6366.39 3749.09 L 6371.36 3749.17 L 6376.33 3749.26 L 6381.31 3749.35 L 6386.28 3749.44 L 6391.25 3749.53 L 6396.22 3749.62 L 6401.19 3749.71 L 6406.16 3749.80 L 6411.14 3749.88 L 6416.11 3749.97 L 6421.08 3750.06 L 6426.05 3750.15 L 6431.02 3750.24 L 6436.00 3750.33 L 6440.97 3750.42 L 6445.94 3750.51 L 6450.91 3750.59 L 6455.88 3750.68 L 6460.85 3750.77 L 6465.83 3750.86 L 6470.80 3750.95 L 6475.77 3751.04 L 6480.74 3751.13 L 6485.71 3751.22 L 6490.68 3751.31 L 6495.66 3751.39 L 6500.63 3751.48 L 6505.60 3751.57 L 6510.57 3751.66 L 6515.54 3751.75 L 6520.52 3751.84 L 6525.49 3751.93 L 6530.46 3752.02 L 6535.43 3752.10 L 6540.40 3752.19 L 6545.37 3752.28 L 6550.35 3752.37 L 6555.32 3752.46 L 6560.29 3752.55 L 6565.26 3752.64 L 6570.23 3752.73 L 6575.20 3752.81 L 6580.18 3752.90 L 6585.15 3752.99 L 6590.12 3753.08 L 6595.09 3753.17 L 6600.06 3753.26 L 6605.04 3753.35 L 6610.01 3753.44 L 6614.98 3753.50 L 6619.94 3753.41 L 6624.91 3753.16 L 6629.86 3752.78 L 6634.82 3752.40 L 6639.78 3752.02 L 6644.74 3751.64 L 6649.70 3751.25 L 6654.65 3750.87 L 6659.61 3750.49 L 6664.57 3750.11 L 6669.53 3749.73 L 6674.49 3749.35 L 6679.44 3748.97 L 6684.40 3748.58 L 6689.36 3748.20 L 6694.32 3747.82 L 6699.28 3747.44 L 6704.23 3747.06 L 6709.19 3746.68 L 6714.15 3746.30 L 6719.11 3745.91 L 6724.07 3745.53 L 6729.02 3745.15 L 6733.98 3744.77 L 6738.94 3744.39 L 6743.89 3743.91 L 6748.82 3743.33 L 6753.75 3742.65 L 6758.67 3741.96 L 6763.60 3741.28 L 6768.52 3740.59 L 6773.45 3739.91 L 6778.37 3739.23 L 6783.30 3738.54 L 6788.23 3737.86 L 6793.15 3737.17 L 6798.08 3736.49 L 6803.00 3735.81 L 6807.93 3735.12 L 6812.85 3734.44 L 6817.78 3733.75 L 6822.70 3733.07 L 6827.63 3732.39 L 6832.55 3731.70 L 6837.48 3731.02 L 6842.40 3730.33 L 6847.33 3729.65 L 6852.25 3728.96 L 6857.18 3728.28 L 6862.10 3727.60 L 6867.03 3726.91 L 6871.96 3726.23 L 6876.88 3725.54 L 6881.81 3724.86 L 6886.73 3724.18 L 6891.66 3723.49 L 6896.58 3722.81 L 6901.51 3722.12 L 6906.43 3721.44 L 6911.36 3720.76 L 6916.25 3719.92 L 6921.12 3718.92 L 6925.95 3717.76 L 6930.78 3716.58 L 6935.61 3715.39 L 6940.44 3714.21 L 6945.27 3713.03 L 6950.10 3711.84 L 6954.93 3710.66 L 6959.76 3709.48 L 6964.59 3708.30 L 6969.42 3707.11 L 6974.25 3705.93 L 6979.08 3704.75 L 6983.91 3703.56 L 6988.74 3702.38 L 6993.57 3701.20 L 6998.40 3700.02 L 7003.23 3698.83 L 7008.06 3697.65 L 7012.89 3696.47 L 7017.72 3695.29 L 7022.55 3694.10 L 7027.38 3692.92 L 7032.21 3691.74 L 7037.04 3690.55 L 7041.87 3689.37 L 7046.70 3688.19 L 7051.53 3687.01 L 7056.36 3685.82 L 7061.19 3684.64 L 7066.02 3683.46 L 7070.85 3682.27 L 7075.68 3681.09 L 7080.51 3679.91 L 7085.34 3678.73 L 7090.17 3677.54 L 7095.00 3676.36 L 7099.83 3675.18 L 7104.66 3673.99 L 7109.49 3672.81 L 7114.32 3671.63 L 7119.15 3670.45 L 7123.98 3669.26 L 7128.81 3668.08 L 7133.64 3666.90 L 7138.47 3665.71 L 7143.30 3664.53 L 7148.12 3663.32 L 7152.88 3661.93 L 7157.60 3660.38 L 7162.28 3658.70 L 7166.96 3657.01 L 7171.64 3655.33 L 7176.32 3653.65 L 7181.00 3651.96 L 7185.68 3650.28 L 7190.35 3648.59 L 7195.03 3646.91 L 7199.71 3645.22 L 7204.39 3643.54 L 7209.07 3641.86 L 7213.75 3640.17 L 7218.43 3638.49 L 7223.10 3636.80 L 7227.78 3635.12 L 7232.46 3633.43 L 7237.14 3631.75 L 7241.82 3630.07 L 7246.50 3628.38 L 7251.18 3626.70 L 7255.86 3625.01 L 7260.53 3623.33 L 7265.21 3621.64 L 7269.89 3619.96 L 7274.57 3618.27 L 7279.25 3616.59 L 7283.93 3614.91 L 7288.61 3613.22 L 7293.28 3611.54 L 7297.96 3609.85 L 7302.64 3608.17 L 7307.32 3606.48 L 7312.00 3604.80 L 7316.68 3603.12 L 7321.36 3601.43 L 7326.03 3599.75 L 7330.71 3598.06 L 7335.39 3596.38 L 7340.07 3594.69 L 7344.75 3593.01 L 7349.43 3591.33 L 7354.11 3589.64 L 7358.78 3587.96 L 7363.46 3586.27 L 7368.14 3584.59 L 7372.82 3582.90 L 7377.50 3581.22 L 7382.18 3579.54 L 7386.86 3577.85 L 7391.48 3576.03 L 7396.04 3574.06 L 7400.53 3571.93 L 7405.02 3569.79 L 7409.50 3567.65 L 7413.99 3565.50 L 7418.48 3563.36 L 7422.97 3561.22 L 7427.46 3559.08 L 7431.94 3556.94 L 7436.43 3554.79 L 7440.92 3552.65 L 7445.41 3550.51 L 7449.89 3548.37 L 7454.38 3546.23 L 7458.87 3544.09 L 7463.36 3541.94 L 7467.84 3539.80 L 7472.33 3537.66 L 7476.82 3535.52 L 7481.31 3533.38 L 7485.79 3531.23 L 7490.28 3529.09 L 7494.77 3526.95 L 7499.26 3524.81 L 7503.75 3522.67 L 7508.23 3520.53 L 7512.72 3518.38 L 7517.21 3516.24 L 7521.70 3514.10 L 7526.18 3511.96 L 7530.67 3509.82 L 7535.16 3507.67 L 7539.65 3505.53 L 7544.13 3503.39 L 7548.62 3501.25 L 7553.11 3499.11 L 7557.60 3496.96 L 7562.09 3494.82 L 7566.57 3492.68 L 7571.06 3490.54 L 7575.55 3488.40 L 7580.04 3486.26 L 7584.52 3484.11 L 7589.01 3481.97 L 7593.50 3479.83 L 7597.99 3477.69 L 7602.38 3475.37 L 7606.65 3472.85 L 7610.81 3470.13 L 7614.94 3467.37 L 7619.08 3464.61 L 7623.22 3461.85 L 7627.36 3459.10 L 7631.49 3456.34 L 7635.63 3453.58 L 7639.77 3450.82 L 7644.00 3448.30 L 7648.48 3446.37 L 7653.21 3445.04 L 7658.09 3444.06 L 7662.96 3443.09 L 7667.12 3441.48 L 7669.75 3438.55 L 7670.86 3434.28 L 7671.17 3429.32 L 7671.48 3424.35 L 7671.79 3419.39 L 7672.10 3414.43 L 7672.41 3409.47 L 7672.72 3404.50 L 7673.03 3399.54 L 7673.34 3394.58 L 7673.65 3389.61 L 7673.96 3384.65 L 7674.27 3379.69 L 7674.58 3374.73 L 7674.89 3369.76 M 3423.87 3086.61 L 3420.53 3086.82 L 3417.20 3087.03 L 3413.87 3087.23 L 3410.53 3087.44 L 3407.20 3087.65 L 3403.86 3087.86 L 3400.53 3088.07 L 3397.20 3088.28 L 3393.86 3088.48 L 3390.53 3088.69 L 3387.20 3088.90 L 3383.86 3089.11 L 3380.53 3089.32 L 3377.20 3089.53 L 3373.86 3089.73 L 3370.53 3089.94 L 3367.19 3090.15 L 3363.86 3090.36 L 3360.53 3090.57 L 3357.19 3090.78 L 3353.86 3090.98 L 3350.53 3091.19 L 3347.19 3091.40 L 3343.86 3091.61 L 3340.53 3091.82 L 3337.19 3092.03 L 3333.86 3092.23 L 3330.52 3092.44 L 3327.19 3092.65 L 3323.86 3092.86 L 3320.52 3093.07 L 3317.19 3093.28 L 3313.86 3093.48 L 3310.52 3093.69 L 3307.19 3093.90 L 3303.86 3094.11 L 3300.52 3094.32 L 3297.19 3094.53 L 3293.85 3094.73 L 3290.52 3094.94 L 3287.19 3095.15 L 3283.85 3095.36 L 3280.52 3095.57 L 3277.19 3095.78 L 3273.85 3095.98 L 3270.52 3096.19 L 3267.19 3096.40 L 3263.85 3096.61 L 3260.52 3096.82 L 3257.18 3097.03 L 3253.85 3097.23 L 3250.52 3097.44 L 3247.18 3097.65 L 3243.85 3097.86 L 3240.52 3098.07 L 3237.18 3098.28 L 3233.85 3098.48 L 3230.52 3098.69 L 3227.18 3098.90 L 3223.85 3099.11 L 3220.52 3099.32 L 3217.18 3099.53 L 3213.85 3099.73 L 3210.51 3099.94 L 3207.18 3100.15 L 3203.85 3100.36 L 3200.51 3100.57 L 3197.18 3100.78 L 3193.85 3100.98 L 3190.51 3101.19 L 3187.18 3101.40 L 3183.85 3101.61 L 3180.51 3101.82 L 3177.18 3102.03 L 3173.84 3102.23 L 3170.51 3102.44 L 3167.18 3102.65 L 3163.84 3102.86 L 3160.51 3103.07 L 3157.18 3103.28 L 3153.84 3103.48 L 3150.51 3103.69 L 3147.18 3103.90 L 3143.84 3104.11 L 3140.51 3104.32 L 3137.17 3104.53 L 3133.84 3104.73 L 3130.51 3104.94 L 3127.17 3105.15 L 3123.84 3105.36 L 3120.51 3105.57 L 3117.17 3105.78 L 3113.84 3105.99 L 3110.51 3106.19 L 3107.17 3106.40 L 3103.84 3106.61 L 3100.50 3106.82 L 3097.17 3107.03 L 3093.84 3107.24 L 3090.50 3107.44 L 3087.17 3107.65 L 3083.84 3107.86 L 3080.50 3108.07 L 3077.17 3108.28 L 3073.84 3108.49 L 3070.50 3108.69 L 3067.17 3108.90 L 3063.83 3109.11 L 3060.50 3109.32 L 3057.17 3109.53 L 3053.83 3109.74 L 3050.50 3109.94 L 3047.17 3110.15 L 3043.83 3110.36 L 3040.50 3110.57 L 3037.17 3110.78 L 3033.83 3110.99 L 3030.50 3111.19 L 3027.16 3111.40 L 3023.83 3111.61 L 3020.50 3111.82 L 3017.16 3112.03 L 3013.83 3112.24 L 3010.50 3112.44 L 3007.16 3112.65 L 3003.83 3112.86 L 3000.50 3113.07 L 2997.16 3113.28 L 2993.83 3113.49 L 2990.49 3113.69 L 2987.16 3113.90 L 2983.83 3114.11 L 2980.49 3114.32 L 2977.16 3114.53 L 2973.83 3114.74 L 2970.49 3114.94 L 2967.16 3115.20 L 2963.84 3115.53 L 2960.52 3115.92 L 2957.21 3116.33 L 2953.89 3116.73 L 2950.58 3117.14 L 2947.26 3117.55 L 2943.95 3117.95 L 2940.63 3118.36 L 2937.32 3118.77 L 2934.00 3119.17 L 2930.69 3119.58 L 2927.37 3119.99 L 2924.06 3120.39 L 2920.74 3120.80 L 2917.43 3121.21 L 2914.11 3121.61 L 2910.80 3122.02 L 2907.48 3122.43 L 2904.16 3122.83 L 2900.85 3123.24 L 2897.53 3123.65 L 2894.22 3124.05 L 2890.90 3124.46 L 2887.59 3124.87 L 2884.27 3125.27 L 2880.96 3125.68 L 2877.64 3126.09 L 2874.33 3126.49 L 2871.01 3126.90 L 2867.70 3127.31 L 2864.38 3127.71 L 2861.07 3128.12 L 2857.75 3128.52 L 2854.44 3128.93 L 2851.12 3129.34 L 2847.80 3129.74 L 2844.49 3130.15 L 2841.17 3130.56 L 2837.86 3130.96 L 2834.54 3131.37 L 2831.23 3131.78 L 2827.91 3132.18 L 2824.60 3132.59 L 2821.28 3133.00 L 2817.97 3133.40 L 2814.65 3133.81 L 2811.34 3134.22 L 2808.02 3134.62 L 2804.71 3135.03 L 2801.39 3135.44 L 2798.08 3135.84 L 2794.76 3136.25 L 2791.44 3136.66 L 2788.13 3137.06 L 2784.81 3137.47 L 2781.50 3137.88 L 2778.18 3138.28 L 2774.87 3138.69 L 2771.55 3139.10 L 2768.24 3139.50 L 2764.92 3139.91 L 2761.61 3140.32 L 2758.29 3140.72 L 2754.98 3141.13 L 2751.66 3141.54 L 2748.35 3141.94 L 2745.03 3142.35 L 2741.72 3142.76 L 2738.40 3143.16 L 2735.08 3143.57 L 2731.77 3143.98 L 2728.45 3144.38 L 2725.14 3144.79 L 2721.82 3145.20 L 2718.51 3145.60 L 2715.19 3146.01 L 2711.88 3146.42 L 2708.56 3146.82 L 2705.25 3147.23 L 2701.93 3147.63 L 2698.62 3148.04 L 2695.30 3148.45 L 2691.99 3148.85 L 2688.67 3149.26 L 2685.36 3149.67 L 2682.04 3150.07 L 2678.72 3150.48 L 2675.41 3150.89 L 2672.09 3151.29 L 2668.78 3151.70 L 2665.46 3152.11 L 2662.15 3152.51 L 2658.83 3152.92 L 2655.52 3153.33 L 2652.20 3153.73 L 2648.89 3154.14 L 2645.57 3154.55 L 2642.26 3154.95 L 2638.94 3155.36 L 2635.63 3155.77 L 2632.31 3156.17 L 2629.00 3156.58 L 2625.68 3156.99 L 2622.36 3157.39 L 2619.05 3157.80 L 2615.73 3158.21 L 2612.42 3158.61 L 2609.10 3159.02 L 2605.79 3159.43 L 2602.47 3159.83 L 2599.16 3160.24 L 2595.84 3160.65 L 2592.53 3161.05 L 2589.21 3161.46 L 2585.90 3161.87 L 2582.58 3162.27 L 2579.27 3162.68 L 2575.95 3163.09 L 2572.64 3163.49 L 2569.32 3163.90 L 2566.00 3164.31 L 2562.69 3164.71 L 2559.37 3165.12 L 2556.06 3165.52 L 2552.74 3165.93 L 2549.43 3166.34 L 2546.11 3166.74 L 2542.80 3167.15 L 2539.48 3167.56 L 2536.17 3167.96 L 2532.85 3168.37 L 2529.54 3168.78 L 2526.22 3169.18 L 2522.91 3169.59 L 2519.59 3170.00 L 2516.28 3170.40 L 2512.96 3170.81 L 2509.64 3171.22 L 2506.33 3171.62 L 2503.01 3172.03 L 2499.70 3172.44 L 2496.38 3172.84 L 2493.07 3173.25 L 2489.75 3173.66 L 2486.44 3174.06 L 2483.12 3174.47 L 2479.81 3174.88 L 2476.49 3175.28 L 2473.18 3175.69 L 2469.86 3176.10 L 2466.55 3176.50 L 2463.23 3176.91 L 2459.92 3177.33 L 2456.61 3177.82 L 2453.32 3178.36 L 2450.03 3178.95 L 2446.74 3179.53 L 2443.45 3180.11 L 2440.16 3180.70 L 2436.88 3181.28 L 2433.59 3181.87 L 2430.30 3182.45 L 2427.01 3183.04 L 2423.72 3183.62 L 2420.43 3184.21 L 2417.14 3184.79 L 2413.86 3185.38 L 2410.57 3185.96 L 2407.28 3186.55 L 2403.99 3187.13 L 2400.70 3187.72 L 2397.41 3188.30 L 2394.12 3188.88 L 2390.84 3189.47 L 2387.55 3190.05 L 2384.26 3190.64 L 2380.97 3191.22 L 2377.68 3191.81 L 2374.39 3192.39 L 2371.10 3192.98 L 2367.82 3193.56 L 2364.53 3194.15 L 2361.24 3194.73 L 2357.95 3195.32 L 2354.66 3195.90 L 2351.37 3196.48 L 2348.09 3197.07 L 2344.80 3197.65 L 2341.51 3198.24 L 2338.22 3198.82 L 2334.93 3199.41 L 2331.64 3199.99 L 2328.35 3200.58 L 2325.07 3201.16 L 2321.78 3201.75 L 2318.49 3202.33 L 2315.20 3202.92 L 2311.91 3203.50 L 2308.62 3204.08 L 2305.33 3204.67 L 2302.05 3205.25 L 2298.76 3205.84 L 2295.47 3206.42 L 2292.18 3207.01 L 2288.89 3207.59 L 2285.60 3208.18 L 2282.31 3208.76 L 2279.03 3209.35 L 2275.74 3209.93 L 2272.45 3210.52 L 2269.16 3211.10 L 2265.87 3211.69 L 2262.58 3212.27 L 2259.29 3212.85 L 2256.01 3213.44 L 2252.72 3214.02 L 2249.43 3214.61 L 2246.14 3215.19 L 2242.85 3215.78 L 2239.56 3216.36 L 2236.27 3216.95 L 2232.99 3217.53 L 2229.70 3218.12 L 2226.41 3218.70 L 2223.12 3219.29 L 2219.83 3219.87 L 2216.54 3220.45 L 2213.25 3221.04 L 2209.97 3221.62 L 2206.68 3222.21 L 2203.39 3222.79 L 2200.10 3223.38 L 2196.81 3223.96 L 2193.52 3224.55 L 2190.23 3225.13 L 2186.95 3225.72 L 2183.66 3226.30 L 2180.37 3226.89 L 2177.08 3227.47 L 2173.79 3228.05 L 2170.50 3228.64 L 2167.21 3229.22 L 2163.93 3229.81 L 2160.64 3230.39 L 2157.35 3230.98 L 2154.06 3231.56 L 2150.77 3232.15 L 2147.48 3232.73 L 2144.19 3233.32 L 2140.91 3233.90 L 2137.62 3234.49 L 2134.33 3235.07 L 2131.04 3235.66 L 2127.75 3236.24 L 2124.46 3236.82 L 2121.17 3237.41 L 2117.89 3237.99 L 2114.60 3238.58 L 2111.31 3239.16 L 2108.02 3239.75 L 2104.73 3240.33 L 2101.44 3240.92 L 2098.15 3241.50 L 2094.87 3242.09 L 2091.58 3242.67 L 2088.29 3243.26 L 2085.00 3243.84 L 2081.71 3244.42 L 2078.42 3245.01 L 2075.13 3245.59 L 2071.85 3246.18 L 2068.56 3246.76 L 2065.27 3247.35 L 2061.98 3247.93 L 2058.69 3248.52 L 2055.40 3249.10 L 2052.11 3249.69 L 2048.83 3250.27 L 2045.54 3250.86 L 2042.25 3251.44 L 2038.96 3252.02 L 2035.67 3252.61 L 2032.38 3253.19 L 2029.09 3253.78 L 2025.81 3254.36 L 2022.52 3254.95 L 2019.23 3255.53 L 2015.94 3256.12 L 2012.65 3256.70 L 2009.36 3257.29 L 2006.07 3257.87 L 2002.79 3258.46 L 1999.50 3259.04 L 1996.21 3259.63 L 1992.92 3260.21 L 1989.63 3260.79 L 1986.34 3261.38 L 1983.05 3261.96 L 1979.77 3262.55 L 1976.48 3263.13 L 1973.19 3263.72 L 1969.90 3264.30 L 1966.61 3264.89 L 1963.32 3265.47 L 1960.03 3266.06 L 1956.75 3266.64 L 1953.46 3267.23 L 1950.17 3267.81 L 1946.88 3268.39 L 1943.59 3268.98 L 1940.30 3269.56 L 1937.01 3270.15 L 1933.73 3270.73 L 1930.44 3271.32 L 1927.15 3271.90 L 1923.86 3272.49 L 1920.57 3273.07 L 1917.28 3273.66 L 1913.99 3274.24 L 1910.71 3274.83 L 1907.42 3275.41 L 1904.13 3276.00 L 1900.84 3276.58 L 1897.55 3277.16 L 1894.26 3277.75 L 1890.97 3278.33 L 1887.69 3278.92 L 1884.40 3279.50 L 1881.11 3280.09 L 1877.82 3280.67 L 1874.53 3281.26 L 1871.24 3281.84 L 1867.95 3282.43 L 1864.67 3283.01 L 1861.38 3283.60 L 1858.09 3284.18 L 1854.80 3284.76 L 1851.51 3285.35 L 1848.22 3285.93 L 1844.93 3286.52 L 1841.65 3287.10 L 1838.36 3287.69 L 1835.07 3288.27 L 1831.78 3288.86 L 1828.49 3289.44 L 1825.20 3290.03 L 1821.91 3290.61 L 1818.63 3291.20 L 1815.34 3291.78 L 1812.05 3292.38 L 1808.77 3293.02 L 1805.50 3293.70 L 1802.24 3294.43 L 1798.98 3295.15 L 1795.72 3295.87 L 1792.46 3296.59 L 1789.20 3297.31 L 1785.94 3298.03 L 1782.67 3298.75 L 1779.41 3299.47 L 1776.15 3300.19 L 1772.89 3300.91 L 1769.63 3301.63 L 1766.37 3302.35 L 1763.11 3303.07 L 1759.84 3303.79 L 1756.58 3304.51 L 1753.32 3305.23 L 1750.06 3305.95 L 1746.80 3306.67 L 1743.54 3307.40 L 1740.28 3308.12 L 1737.01 3308.84 L 1733.75 3309.56 L 1730.49 3310.28 L 1727.23 3311.00 L 1723.97 3311.72 L 1720.71 3312.44 L 1717.44 3313.16 L 1714.18 3313.88 L 1710.92 3314.60 L 1707.66 3315.32 L 1704.40 3316.04 L 1701.14 3316.76 L 1697.88 3317.48 L 1694.61 3318.20 L 1691.35 3318.92 L 1688.09 3319.64 L 1684.83 3320.37 L 1681.57 3321.09 L 1678.31 3321.81 L 1675.05 3322.53 L 1671.78 3323.25 L 1668.52 3323.97 L 1665.26 3324.69 L 1662.00 3325.41 L 1658.74 3326.13 L 1655.48 3326.85 L 1652.22 3327.57 L 1648.95 3328.29 L 1645.69 3329.01 L 1642.43 3329.73 L 1639.17 3330.45 L 1635.91 3331.17 L 1632.65 3331.89 L 1629.38 3332.62 L 1626.12 3333.34 L 1622.86 3334.06 L 1619.60 3334.78 L 1616.34 3335.50 L 1613.08 3336.22 L 1609.82 3336.94 L 1606.55 3337.66 L 1603.29 3338.38 L 1600.03 3339.10 L 1596.77 3339.82 L 1593.51 3340.54 L 1590.25 3341.26 L 1586.99 3341.98 L 1583.72 3342.70 L 1580.46 3343.42 L 1577.20 3344.14 L 1573.94 3344.86 L 1570.68 3345.59 L 1567.42 3346.31 L 1564.16 3347.03 L 1560.89 3347.75 L 1557.63 3348.47 L 1554.37 3349.19 L 1551.11 3349.91 L 1547.85 3350.63 L 1544.59 3351.35 L 1541.32 3352.07 L 1538.06 3352.79 L 1534.80 3353.51 L 1531.54 3354.23 L 1528.28 3354.95 L 1525.02 3355.67 L 1521.76 3356.39 L 1518.49 3357.11 L 1515.23 3357.83 L 1511.97 3358.56 L 1508.71 3359.28 L 1505.45 3360.00 L 1502.19 3360.72 L 1498.93 3361.44 L 1495.66 3362.16 L 1492.40 3362.88 L 1489.14 3363.60 L 1485.88 3364.32 L 1482.62 3365.04 L 1479.36 3365.76 L 1476.09 3366.48 L 1472.83 3367.20 L 1469.57 3367.92 L 1466.31 3368.64 L 1463.05 3369.36 L 1459.79 3370.08 L 1456.53 3370.80 L 1453.26 3371.53 L 1450.00 3372.25 L 1446.74 3372.97 L 1443.48 3373.69 L 1440.22 3374.41 L 1436.96 3375.13 L 1433.70 3375.85 L 1430.43 3376.57 L 1427.17 3377.29 L 1423.91 3378.01 L 1420.65 3378.73 L 1417.39 3379.45 L 1414.13 3380.17 L 1410.87 3380.89 L 1407.60 3381.61 L 1404.34 3382.33 L 1401.08 3383.05 L 1397.83 3383.80 L 1394.58 3384.59 L 1391.35 3385.43 L 1388.12 3386.27 L 1384.89 3387.12 L 1381.65 3387.97 L 1378.42 3388.81 L 1375.19 3389.66 L 1371.96 3390.51 L 1368.73 3391.35 L 1365.50 3392.20 L 1362.27 3393.04 L 1359.04 3393.89 L 1355.80 3394.74 L 1352.57 3395.58 L 1349.34 3396.43 L 1346.11 3397.28 L 1342.88 3398.12 L 1339.65 3398.97 L 1336.42 3399.81 L 1333.19 3400.66 L 1329.96 3401.51 L 1326.72 3402.35 L 1323.49 3403.20 L 1320.26 3404.05 L 1317.03 3404.89 L 1313.80 3405.74 L 1310.57 3406.58 L 1307.34 3407.43 L 1304.11 3408.28 L 1300.88 3409.12 L 1297.64 3409.97 L 1294.41 3410.82 L 1291.18 3411.66 L 1287.95 3412.51 L 1284.72 3413.35 L 1281.49 3414.20 L 1278.26 3415.05 L 1275.03 3415.89 L 1271.79 3416.74 L 1268.56 3417.59 L 1265.33 3418.43 L 1262.10 3419.28 L 1258.87 3420.12 L 1255.64 3420.97 L 1252.41 3421.82 L 1249.18 3422.66 L 1245.95 3423.51 L 1242.71 3424.36 L 1239.48 3425.20 L 1236.25 3426.05 L 1233.02 3426.89 L 1229.79 3427.74 L 1226.56 3428.59 L 1223.33 3429.43 L 1220.10 3430.28 L 1216.87 3431.13 L 1213.63 3431.97 L 1210.40 3432.82 L 1207.17 3433.66 L 1203.94 3434.51 L 1200.71 3435.36 L 1197.47 3436.12 L 1194.19 3436.60 L 1190.87 3436.80 L 1187.53 3436.80 L 1184.19 3436.80 L 1180.85 3436.80 L 1177.51 3436.80 L 1174.17 3436.80 L 1170.83 3436.80 L 1167.49 3436.80 L 1164.15 3436.80 L 1160.81 3436.80 L 1157.47 3436.80 L 1154.13 3436.80 L 1150.79 3436.80 L 1147.45 3436.80 L 1144.11 3436.80 L 1140.77 3436.80 L 1137.43 3436.80 L 1134.09 3436.80 L 1130.75 3436.80 L 1127.41 3436.80 L 1124.13 3436.49 L 1120.93 3435.78 L 1117.81 3434.64 L 1114.71 3433.40 L 1111.60 3432.16 L 1108.50 3430.92 L 1105.40 3429.68 L 1102.30 3428.44 M 147.35 3110.40 L 150.71 3110.40 L 154.06 3110.40 L 157.41 3110.40 L 160.77 3110.40 L 164.12 3110.40 L 167.47 3110.40 L 170.82 3110.40 L 174.18 3110.40 L 177.53 3110.40 L 180.88 3110.40 L 184.24 3110.40 L 187.59 3110.40 L 190.94 3110.40 L 194.30 3110.40 L 197.65 3110.40 L 201.00 3110.40 L 204.35 3110.40 L 207.71 3110.40 L 211.06 3110.40 L 214.41 3110.40 L 217.77 3110.40 L 221.12 3110.40 L 224.47 3110.40 L 227.83 3110.40 L 231.18 3110.40 L 234.53 3110.40 L 237.88 3110.40 L 241.24 3110.40 L 244.59 3110.40 L 247.94 3110.40 L 251.30 3110.40 L 254.65 3110.40 L 258.00 3110.40 L 261.36 3110.40 L 264.71 3110.40 L 268.06 3110.40 L 271.41 3110.40 L 274.77 3110.40 L 278.12 3110.40 L 281.47 3110.40 L 284.83 3110.40 L 288.18 3110.40 L 291.53 3110.40 L 294.89 3110.40 L 298.24 3110.40 L 301.59 3110.40 L 304.94 3110.40 L 308.30 3110.40 L 311.65 3110.40 L 315.00 3110.40 L 318.36 3110.40 L 321.71 3110.40 L 325.06 3110.40 L 328.42 3110.40 L 331.77 3110.40 L 335.12 3110.40 L 338.47 3110.40 L 341.83 3110.40 L 345.18 3110.40 L 348.53 3110.40 L 351.89 3110.40 L 355.24 3110.40 L 358.59 3110.40 L 361.95 3110.40 L 365.30 3110.40 L 368.65 3110.40 L 372.00 3110.40 L 375.36 3110.40 L 378.71 3110.40 L 382.06 3110.40 L 385.42 3110.40 L 388.77 3110.40 L 392.12 3110.40 L 395.48 3110.40 L 398.83 3110.40 L 402.18 3110.40 L 405.54 3110.40 L 408.89 3110.40 L 412.24 3110.47 L 415.59 3110.63 L 418.93 3110.87 L 422.27 3111.13 L 425.62 3111.39 L 428.96 3111.64 L 432.30 3111.90 L 435.64 3112.16 L 438.99 3112.41 L 442.33 3112.67 L 445.67 3112.93 L 449.02 3113.19 L 452.36 3113.44 L 455.70 3113.70 L 459.05 3113.96 L 462.39 3114.21 L 465.73 3114.47 L 469.08 3114.73 L 472.42 3114.99 L 475.76 3115.24 L 479.11 3115.50 L 482.45 3115.76 L 485.79 3116.01 L 489.13 3116.27 L 492.48 3116.53 L 495.82 3116.79 L 499.16 3117.04 L 502.51 3117.30 L 505.85 3117.56 L 509.19 3117.81 L 512.54 3118.07 L 515.88 3118.33 L 519.22 3118.59 L 522.57 3118.84 L 525.91 3119.10 L 529.25 3119.36 L 532.60 3119.62 L 535.93 3119.91 L 539.26 3120.29 L 542.58 3120.74 L 545.90 3121.24 L 549.22 3121.73 L 552.53 3122.22 L 555.85 3122.72 L 559.17 3123.21 L 562.48 3123.71 L 565.80 3124.20 L 569.12 3124.69 L 572.43 3125.19 L 575.75 3125.68 L 579.07 3126.18 L 582.38 3126.67 L 585.70 3127.16 L 589.01 3127.66 L 592.33 3128.15 L 595.65 3128.65 L 598.96 3129.14 L 602.28 3129.63 L 605.60 3130.13 L 608.91 3130.62 L 612.23 3131.12 L 615.55 3131.61 L 618.86 3132.10 L 622.18 3132.60 L 625.50 3133.09 L 628.81 3133.58 L 632.13 3134.08 L 635.45 3134.57 L 638.76 3135.07 L 642.08 3135.56 L 645.39 3136.05 L 648.71 3136.55 L 652.03 3137.04 L 655.34 3137.54 L 658.66 3138.03 L 661.98 3138.52 L 665.29 3139.02 L 668.61 3139.51 L 671.93 3140.01 L 675.24 3140.50 L 678.56 3140.99 L 681.88 3141.49 L 685.19 3141.98 L 688.51 3142.48 L 691.82 3142.97 L 695.14 3143.46 L 698.46 3143.96 L 701.77 3144.45 L 705.09 3144.95 L 708.41 3145.44 L 711.72 3145.93 L 715.04 3146.43 L 718.36 3146.92 L 721.67 3147.42 L 724.99 3147.91 L 728.31 3148.40 L 731.62 3148.90 L 734.94 3149.39 L 738.25 3149.88 L 741.57 3150.38 L 744.89 3150.87 L 748.20 3151.37 L 751.52 3151.86 L 754.84 3152.35 L 758.15 3152.85 L 761.46 3153.40 L 764.74 3154.06 L 768.00 3154.84 L 771.25 3155.68 L 774.49 3156.51 L 777.74 3157.35 L 780.99 3158.19 L 784.23 3159.03 L 787.48 3159.87 L 790.73 3160.70 L 793.97 3161.54 L 797.22 3162.38 L 800.47 3163.22 L 803.71 3164.05 L 806.96 3164.89 L 810.21 3165.73 L 813.45 3166.57 L 816.70 3167.41 L 819.95 3168.24 L 823.19 3169.08 L 826.44 3169.92 L 829.69 3170.76 L 832.93 3171.60 L 836.18 3172.43 L 839.43 3173.27 L 842.67 3174.11 L 845.92 3174.95 L 849.17 3175.78 L 852.41 3176.62 L 855.66 3177.46 L 858.91 3178.30 L 862.15 3179.14 L 865.40 3179.97 L 868.65 3180.81 L 871.89 3181.65 L 875.14 3182.49 L 878.39 3183.33 L 881.63 3184.16 L 884.88 3185.00 L 888.13 3185.84 L 891.37 3186.68 L 894.62 3187.51 L 897.87 3188.35 L 901.11 3189.19 L 904.36 3190.03 L 907.61 3190.87 L 910.82 3191.80 L 913.98 3192.90 L 917.08 3194.15 L 920.17 3195.46 L 923.26 3196.76 L 926.35 3198.07 L 929.44 3199.38 L 932.52 3200.68 L 935.61 3201.99 L 938.70 3203.30 L 941.79 3204.60 L 944.88 3205.91 L 947.96 3207.22 L 951.05 3208.52 L 954.14 3209.83 L 957.23 3211.13 L 960.32 3212.44 L 963.40 3213.75 L 966.49 3215.05 L 969.58 3216.36 L 972.67 3217.67 L 975.76 3218.97 L 978.84 3220.28 L 981.93 3221.59 L 985.02 3222.89 L 988.11 3224.20 L 991.20 3225.51 L 994.28 3226.81 L 997.37 3228.12 L 1000.46 3229.43 L 1003.55 3230.73 L 1006.64 3232.04 L 1009.72 3233.34 L 1012.81 3234.65 L 1015.90 3235.96 L 1018.99 3237.26 L 1022.08 3238.57 L 1025.16 3239.88 L 1028.25 3241.18 L 1031.34 3242.49 L 1034.39 3243.86 L 1037.26 3245.52 L 1039.95 3247.47 L 1042.51 3249.63 L 1045.07 3251.80 L 1047.63 3253.97 L 1050.19 3256.13 L 1052.75 3258.30 L 1055.31 3260.46 L 1057.87 3262.63 L 1060.43 3264.80 L 1062.99 3266.96 L 1065.55 3269.13 L 1068.11 3271.29 L 1070.67 3273.46 L 1073.23 3275.62 L 1075.79 3277.79 L 1078.35 3279.96 L 1080.91 3282.12 L 1083.47 3284.29 L 1086.03 3286.45 L 1088.59 3288.62 L 1091.15 3290.79 L 1093.71 3292.95 L 1096.27 3295.12 L 1098.47 3297.54 L 1100.27 3300.28 L 1101.65 3303.31 L 1102.97 3306.39 L 1104.29 3309.48 L 1105.61 3312.56 L 1106.93 3315.64 L 1108.25 3318.72 L 1109.57 3321.80 L 1110.89 3324.89 L 1112.21 3327.97 L 1112.96 3331.12 L 1113.10 3334.36 L 1112.63 3337.67 L 1112.13 3340.99 L 1111.63 3344.30 L 1111.14 3347.62 L 1110.64 3350.93 L 1110.14 3354.25 L 1109.65 3357.57 L 1109.15 3360.88 L 1108.65 3364.20 L 1108.15 3367.51 L 1107.66 3370.83 L 1107.16 3374.15 L 1106.66 3377.46 L 1106.16 3380.78 L 1105.67 3384.09 L 1105.17 3387.41 L 1104.67 3390.72 L 1104.17 3394.04 L 1103.68 3397.36 L 1103.18 3400.67 L 1102.68 3403.99 L 1102.18 3407.30 L 1101.69 3410.62 L 1101.19 3413.94 L 1100.69 3417.25 L 1100.19 3420.57 L 1099.70 3423.88 M 1096.22 3428.76 L 1093.25 3430.32 L 1090.27 3431.88 L 1087.29 3433.44 L 1084.31 3435.00 L 1081.34 3436.56 L 1078.36 3438.12 L 1075.38 3439.68 L 1072.40 3441.24 L 1069.43 3442.80 L 1066.45 3444.35 L 1063.47 3445.91 L 1060.50 3447.47 L 1057.52 3449.03 L 1054.54 3450.59 L 1051.56 3452.15 L 1048.59 3453.71 L 1045.61 3455.27 L 1042.63 3456.83 L 1039.65 3458.39 L 1036.68 3459.95 L 1033.70 3461.51 L 1030.72 3463.07 L 1027.75 3464.63 L 1024.77 3466.19 L 1021.79 3467.75 L 1018.81 3469.31 L 1015.84 3470.87 L 1012.86 3472.43 L 1009.88 3473.99 L 1006.90 3475.55 L 1003.93 3477.11 L 1000.94 3478.64 L 997.89 3480.04 L 994.78 3481.29 L 991.61 3482.42 L 988.45 3483.55 L 985.28 3484.68 L 982.12 3485.81 L 978.95 3486.94 L 975.79 3488.08 L 972.62 3489.21 L 969.46 3490.34 L 966.29 3491.47 L 963.13 3492.60 L 959.96 3493.73 L 956.80 3494.86 L 953.63 3495.99 L 950.47 3497.12 L 947.30 3498.25 L 944.14 3499.38 L 940.97 3500.51 L 937.81 3501.64 L 934.64 3502.77 L 931.48 3503.90 L 928.31 3505.03 L 925.15 3506.16 L 921.98 3507.29 L 918.82 3508.42 L 915.65 3509.55 L 912.48 3510.68 L 909.32 3511.81 L 906.15 3512.94 L 902.99 3514.08 L 899.82 3515.21 L 896.66 3516.34 L 893.49 3517.47 L 890.33 3518.60 L 887.16 3519.73 L 884.00 3520.86 L 880.83 3521.99 L 877.67 3523.12 L 874.50 3524.25 L 871.34 3525.38 L 868.17 3526.51 L 865.01 3527.64 L 861.84 3528.77 L 858.68 3529.90 L 855.51 3531.03 L 852.35 3532.16 L 849.18 3533.29 L 846.02 3534.42 L 842.85 3535.55 L 839.69 3536.68 L 836.52 3537.81 L 833.35 3538.94 L 830.19 3540.08 L 827.02 3541.21 L 823.86 3542.34 L 820.69 3543.47 L 817.53 3544.60 L 814.36 3545.73 L 811.20 3546.86 L 808.03 3547.99 L 804.87 3549.12 L 801.70 3550.25 L 798.53 3551.35 L 795.33 3552.37 L 792.10 3553.32 L 788.87 3554.23 L 785.63 3555.13 L 782.40 3556.04 L 779.16 3556.95 L 775.92 3557.86 L 772.69 3558.77 L 769.45 3559.68 L 766.22 3560.58 L 762.98 3561.49 L 759.75 3562.40 L 756.51 3563.31 L 753.27 3564.22 L 750.04 3565.13 L 746.80 3566.03 L 743.57 3566.94 L 740.33 3567.85 L 737.09 3568.76 L 733.86 3569.67 L 730.62 3570.58 L 727.39 3571.48 L 724.15 3572.39 L 720.91 3573.30 L 717.68 3574.21 L 714.44 3575.12 L 711.21 3576.03 L 707.97 3576.93 L 704.73 3577.84 L 701.50 3578.75 L 698.26 3579.66 L 695.03 3580.57 L 691.79 3581.48 L 688.55 3582.38 L 685.32 3583.29 L 682.08 3584.20 L 678.85 3585.11 L 675.61 3586.02 L 672.37 3586.93 L 669.14 3587.83 L 665.90 3588.74 L 662.67 3589.65 L 659.43 3590.56 L 656.19 3591.47 L 652.96 3592.38 L 649.72 3593.28 L 646.49 3594.19 L 643.25 3595.10 L 640.02 3596.01 L 636.78 3596.92 L 633.54 3597.83 L 630.31 3598.73 L 627.07 3599.64 L 623.84 3600.55 L 620.60 3601.46 L 617.36 3602.37 L 614.13 3603.28 L 610.89 3604.18 L 607.66 3605.09 L 604.42 3606.00 L 601.18 3606.91 L 597.95 3607.82 L 594.71 3608.73 L 591.48 3609.63 L 588.24 3610.54 L 585.00 3611.45 L 581.77 3612.36 L 578.53 3613.27 L 575.30 3614.18 L 572.06 3615.08 L 568.82 3615.99 L 565.59 3616.90 L 562.35 3617.81 L 559.12 3618.72 L 555.88 3619.63 L 552.64 3620.53 L 549.41 3621.44 L 546.17 3622.35 L 542.94 3623.26 L 539.70 3624.17 L 536.47 3625.08 L 533.23 3625.98 L 529.99 3626.89 L 526.76 3627.80 L 523.59 3628.89 L 520.50 3630.17 L 517.49 3631.66 L 514.48 3633.16 L 511.47 3634.66 L 508.47 3636.17 L 505.46 3637.67 L 502.46 3639.17 L 499.45 3640.68 L 496.41 3642.04 L 493.25 3642.97 L 489.97 3643.46 L 486.61 3643.66 L 483.26 3643.86 L 479.90 3644.05 L 476.55 3644.25 L 473.19 3644.45 L 469.84 3644.64 L 466.48 3644.84 L 463.13 3645.04 L 459.77 3645.24 L 456.42 3645.43 L 453.06 3645.63 L 449.71 3645.83 L 446.35 3646.03 L 443.00 3646.22 L 439.64 3646.42 L 436.29 3646.62 L 432.93 3646.82 L 429.58 3647.01 L 426.22 3647.21 L 422.87 3647.41 L 419.51 3647.61 L 416.16 3647.80 M 144.00 3110.40 L 0.00 3129.60" fill='none' stroke='#000000' stroke-opacity='0.5' stroke-width='118.75' stroke-linecap='round' stroke-linejoin='round' stroke-miterlimit='1'/>
</svg>
