<svg xmlns='http://www.w3.org/2000/svg' width='7680' height='4320' viewBox='0 0 7680 4320'>
<path d="M 6353.99 3000.44 L 6347.99 3000.89 L 6341.98 3001.33 L 6335.98 3001.78 L 6329.97 3002.22 L 6323.97 3002.67 L 6317.96 3003.11 L 6311.96 3003.56 L 6305.95 3004.00 L 6299.95 3004.45 L 6293.94 3004.89 L 6287.94 3005.34 L 6281.93 3005.78 L 6275.93 3006.23 L 6269.92 3006.67 L 6263.92 3007.12 L 6257.91 3007.56 L 6251.91 3008.01 L 6245.90 3008.45 L 6239.90 3008.90 L 6233.89 3009.34 L 6227.89 3009.79 L 6221.88 3010.23 L 6215.88 3010.68 L 6209.87 3011.12 L 6203.87 3011.57 L 6197.86 3012.01 L 6191.86 3012.46 L 6185.85 3012.90 L 6179.85 3013.34 L 6173.84 3013.79 L 6167.84 3014.23 L 6161.83 3014.68 L 6155.83 3015.12 L 6149.82 3015.57 L 6143.82 3016.01 L 6137.81 3016.46 L 6131.81 3016.90 L 6125.80 3017.35 L 6119.80 3017.79 L 6113.79 3018.24 L 6107.78 3018.68 L 6101.79 3019.22 L 6095.80 3019.86 L 6089.83 3020.61 L 6083.86 3021.38 L 6077.88 3022.15 L 6071.91 3022.91 L 6065.94 3023.68 L 6059.97 3024.45 L 6053.99 3025.22 L 6048.02 3025.99 L 6042.05 3026.75 L 6036.08 3027.52 L 6030.11 3028.29 L 6024.13 3029.06 L 6018.16 3029.83 L 6012.19 3030.59 L 6006.22 3031.36 L 6000.24 3032.13 L 5994.27 3032.90 L 5988.30 3033.66 L 5982.33 3034.43 L 5976.35 3035.20 L 5970.38 3035.97 L 5964.41 3036.74 L 5958.44 3037.50 L 5952.46 3038.27 L 5946.49 3039.04 L 5940.52 3039.81 L 5934.55 3040.58 L 5928.57 3041.34 L 5922.60 3042.11 L 5916.63 3042.88 L 5910.66 3043.65 L 5904.68 3044.41 L 5898.71 3045.18 L 5892.74 3045.95 L 5886.77 3046.72 L 5880.79 3047.49 L 5874.82 3048.25 L 5868.85 3049.02 L 5862.88 3049.79 L 5856.91 3050.56 L 5850.93 3051.33 L 5844.96 3052.09 L 5838.99 3052.86 L 5833.02 3053.63 L 5827.04 3054.40 L 5821.07 3055.17 L 5815.10 3055.93 L 5809.13 3056.70 L 5803.15 3057.47 L 5797.18 3058.24 L 5791.21 3059.00 L 5785.24 3059.77 L 5779.26 3060.54 L 5773.29 3061.31 L 5767.33 3062.13 L 5761.38 3063.05 L 5755.44 3064.06 L 5749.51 3065.11 L 5743.58 3066.16 L 5737.66 3067.22 L 5731.73 3068.27 L 5725.80 3069.32 L 5719.87 3070.37 L 5713.94 3071.42 L 5708.01 3072.48 L 5702.08 3073.53 L 5696.15 3074.58 L 5690.22 3075.63 L 5684.29 3076.68 L 5678.37 3077.74 L 5672.44 3078.79 L 5666.51 3079.84 L 5660.58 3080.89 L 5654.65 3081.94 L 5648.72 3082.99 L 5642.79 3084.05 L 5636.86 3085.10 L 5630.93 3086.15 L 5625.01 3087.20 L 5619.08 3088.25 L 5613.15 3089.31 L 5607.22 3090.36 L 5601.29 3091.41 L 5595.36 3092.46 L 5589.43 3093.51 L 5583.50 3094.57 L 5577.57 3095.62 L 5571.64 3096.67 L 5565.72 3097.72 L 5559.79 3098.77 L 5553.86 3099.83 L 5547.93 3100.88 L 5542.00 3101.93 L 5536.07 3102.98 L 5530.14 3104.03 L 5524.21 3105.08 L 5518.28 3106.14 L 5512.35 3107.19 L 5506.43 3108.24 L 5500.50 3109.29 L 5494.57 3110.34 L 5488.64 3111.40 L 5482.71 3112.45 L 5476.78 3113.50 L 5470.86 3114.58 L 5464.95 3115.73 L 5459.05 3116.96 L 5453.17 3118.23 L 5447.28 3119.51 L 5441.40 3120.78 L 5435.51 3122.05 L 5429.63 3123.32 L 5423.74 3124.60 L 5417.85 3125.87 L 5411.97 3127.14 L 5406.08 3128.41 L 5400.20 3129.69 L 5394.31 3130.96 L 5388.43 3132.23 L 5382.54 3133.50 L 5376.66 3134.78 L 5370.77 3136.05 L 5364.88 3137.32 L 5359.00 3138.59 L 5353.11 3139.87 L 5347.23 3141.14 L 5341.34 3142.41 L 5335.46 3143.69 L 5329.57 3144.96 L 5323.69 3146.23 L 5317.80 3147.50 L 5311.91 3148.78 L 5306.03 3150.05 L 5300.14 3151.32 L 5294.26 3152.59 L 5288.37 3153.87 L 5282.49 3155.14 L 5276.60 3156.41 L 5270.72 3157.68 L 5264.83 3158.96 L 5258.94 3160.23 L 5253.06 3161.50 L 5247.17 3162.77 L 5241.29 3164.05 L 5235.40 3165.32 L 5229.52 3166.59 L 5223.63 3167.86 L 5217.75 3169.14 L 5211.86 3170.41 L 5205.97 3171.68 L 5200.09 3172.95 L 5194.20 3174.23 L 5188.32 3175.50 L 5182.43 3176.77 L 5176.55 3178.04 L 5170.66 3179.32 L 5164.77 3180.59 L 5158.89 3181.86 L 5153.00 3183.13 L 5147.12 3184.41 L 5141.23 3185.68 L 5135.35 3186.95 L 5129.46 3188.22 L 5123.58 3189.50 L 5117.69 3190.77 L 5111.82 3192.12 L 5105.98 3193.55 L 5100.14 3195.06 L 5094.31 3196.56 L 5088.48 3198.06 L 5082.65 3199.57 L 5076.82 3201.07 L 5070.99 3202.57 L 5065.16 3204.08 L 5059.33 3205.58 L 5053.50 3207.08 L 5047.67 3208.59 L 5041.84 3210.09 L 5036.00 3211.59 L 5030.17 3213.10 L 5024.34 3214.60 L 5018.51 3216.10 L 5012.68 3217.61 L 5006.85 3219.11 L 5001.02 3220.61 L 4995.19 3222.12 L 4989.36 3223.62 L 4983.53 3225.12 L 4977.70 3226.63 L 4971.86 3228.13 L 4966.03 3229.63 L 4960.20 3231.14 L 4954.37 3232.64 L 4948.54 3234.14 L 4942.71 3235.65 L 4936.88 3237.15 L 4931.05 3238.65 L 4925.22 3240.15 L 4919.39 3241.66 L 4913.56 3243.16 L 4907.72 3244.66 L 4901.89 3246.17 L 4896.06 3247.67 L 4890.23 3249.17 L 4884.40 3250.68 L 4878.57 3252.18 L 4872.74 3253.68 L 4866.91 3255.19 L 4861.08 3256.69 L 4855.25 3258.19 L 4849.42 3259.70 L 4843.58 3261.20 L 4837.75 3262.70 L 4831.92 3264.21 L 4826.09 3265.71 L 4820.26 3267.21 L 4814.43 3268.72 L 4808.60 3270.22 L 4802.77 3271.72 L 4796.94 3273.23 L 4791.11 3274.73 L 4785.28 3276.23 L 4779.44 3277.74 L 4773.61 3279.24 L 4767.78 3280.74 L 4761.95 3282.25 L 4756.12 3283.75 L 4750.29 3285.25 L 4744.46 3286.76 L 4738.63 3288.26 L 4732.80 3289.76 L 4726.97 3291.27 L 4721.14 3292.77 L 4715.30 3294.27 L 4709.47 3295.78 L 4703.64 3297.28 L 4697.81 3298.78 L 4691.98 3300.29 L 4686.15 3301.79 L 4680.32 3303.29 L 4674.49 3304.80 L 4668.66 3306.30 L 4662.83 3307.80 L 4657.00 3309.31 L 4651.16 3310.81 L 4645.33 3312.31 L 4639.50 3313.82 L 4633.67 3315.32 L 4627.84 3316.82 L 4622.01 3318.33 L 4616.18 3319.83 L 4610.35 3321.33 L 4604.52 3322.84 L 4598.69 3324.34 L 4592.86 3325.84 L 4587.02 3327.35 L 4581.19 3328.85 L 4575.36 3330.35 L 4569.53 3331.86 L 4563.70 3333.36 L 4557.87 3334.86 L 4552.04 3336.36 L 4546.21 3337.87 L 4540.38 3339.37 L 4534.55 3340.87 L 4528.72 3342.38 L 4522.88 3343.88 L 4517.05 3345.38 L 4511.22 3346.89 L 4505.39 3348.39 L 4499.57 3349.94 L 4493.77 3351.56 L 4487.99 3353.25 L 4482.22 3354.96 L 4476.45 3356.67 L 4470.67 3358.38 L 4464.90 3360.09 L 4459.13 3361.80 L 4453.35 3363.51 L 4447.58 3365.22 L 4441.81 3366.93 L 4436.03 3368.64 L 4430.26 3370.35 L 4424.49 3372.06 L 4418.71 3373.77 L 4412.94 3375.48 L 4407.17 3377.20 L 4401.39 3378.91 L 4395.62 3380.62 L 4389.85 3382.33 L 4384.07 3384.04 L 4378.30 3385.75 L 4372.52 3387.46 L 4366.75 3389.17 L 4360.98 3390.88 L 4355.20 3392.59 L 4349.43 3394.30 L 4343.66 3396.01 L 4337.88 3397.72 L 4332.11 3399.43 L 4326.34 3401.14 L 4320.56 3402.86 L 4314.79 3404.57 L 4309.02 3406.28 L 4303.24 3407.99 L 4297.47 3409.70 L 4291.70 3411.41 L 4285.92 3413.12 L 4280.15 3414.83 L 4274.38 3416.54 L 4268.60 3418.25 L 4262.83 3419.96 L 4257.06 3421.67 L 4251.28 3423.38 L 4245.51 3425.09 L 4239.73 3426.80 L 4233.96 3428.52 L 4228.19 3430.23 L 4222.41 3431.94 L 4216.64 3433.65 L 4210.87 3435.36 L 4205.09 3437.07 L 4199.32 3438.78 L 4193.55 3440.49 L 4187.77 3442.20 L 4182.00 3443.91 L 4176.23 3445.62 L 4170.45 3447.33 L 4164.68 3449.04 L 4158.91 3450.75 L 4153.13 3452.46 L 4147.36 3454.18 L 4141.59 3455.89 L 4135.81 3457.60 L 4130.04 3459.31 L 4124.27 3461.02 L 4118.49 3462.73 L 4112.72 3464.44 L 4106.95 3466.15 L 4101.17 3467.86 L 4095.40 3469.57 L 4089.62 3471.28 L 4083.85 3472.99 L 4078.08 3474.70 L 4072.30 3476.41 L 4066.53 3478.12 L 4060.76 3479.83 L 4054.98 3481.55 L 4049.21 3483.26 L 4043.44 3484.97 L 4037.66 3486.68 L 4031.89 3488.39 L 4026.12 3490.10 L 4020.34 3491.81 L 4014.57 3493.52 L 4008.80 3495.23 L 4003.02 3496.94 L 3997.25 3498.65 L 3991.48 3500.36 L 3985.70 3502.07 L 3979.93 3503.78 L 3974.16 3505.49 L 3968.38 3507.21 L 3962.61 3508.92 L 3956.83 3510.63 L 3951.06 3512.34 L 3945.29 3514.05 L 3939.51 3515.76 L 3933.74 3517.47 L 3927.97 3519.18 L 3922.19 3520.89 L 3916.42 3522.60 L 3910.65 3524.31 L 3904.87 3526.02 L 3899.10 3527.73 L 3893.33 3529.44 L 3887.55 3531.15 L 3881.78 3532.87 L 3876.01 3534.58 L 3870.23 3536.29 L 3864.46 3538.00 L 3858.69 3539.71 L 3852.91 3541.42 L 3847.14 3543.13 L 3841.37 3544.84 L 3835.59 3546.55 L 3829.82 3548.26 L 3824.04 3549.97 L 3818.27 3551.68 L 3812.50 3553.39 L 3806.72 3555.10 L 3800.95 3556.81 L 3795.18 3558.53 L 3789.40 3560.24 L 3783.63 3561.95 L 3777.86 3563.66 L 3772.08 3565.37 L 3766.31 3567.08 L 3760.54 3568.79 L 3754.76 3570.50 L 3748.99 3572.21 L 3743.22 3573.92 L 3737.44 3575.63 L 3731.67 3577.34 L 3725.90 3579.05 L 3720.12 3580.76 L 3714.35 3582.47 L 3708.58 3584.19 L 3702.80 3585.90 L 3697.03 3587.61 L 3691.25 3589.32 L 3685.48 3591.03 L 3679.71 3592.74 L 3673.93 3594.45 L 3668.16 3596.16 L 3662.39 3597.87 L 3656.61 3599.58 L 3650.84 3601.29 L 3645.07 3603.00 L 3639.29 3604.71 L 3633.52 3606.42 L 3627.75 3608.13 L 3621.97 3609.85 L 3616.20 3611.56 L 3610.43 3613.27 L 3604.65 3614.98 L 3598.88 3616.69 L 3593.11 3618.40 L 3587.33 3620.11 L 3581.56 3621.82 L 3575.79 3623.53 L 3570.01 3625.24 L 3564.24 3626.95 L 3558.46 3628.66 L 3552.69 3630.37 L 3546.92 3632.08 L 3541.14 3633.79 L 3535.37 3635.50 L 3529.60 3637.22 L 3523.82 3638.93 L 3518.05 3640.64 L 3512.28 3642.35 L 3506.50 3644.06 L 3500.73 3645.77 L 3494.96 3647.48 L 3489.18 3649.19 L 3483.41 3650.90 L 3477.64 3652.61 L 3471.86 3654.32 L 3466.09 3656.03 L 3460.32 3657.74 L 3454.54 3659.45 L 3448.77 3661.16 L 3443.00 3662.88 L 3437.22 3664.59 L 3431.45 3666.30 L 3425.67 3668.01 L 3419.90 3669.72 L 3414.13 3671.43 L 3408.35 3673.14 L 3402.58 3674.85 L 3396.81 3676.56 L 3391.03 3678.27 L 3385.26 3679.98 L 3379.49 3681.69 L 3373.71 3683.40 L 3367.94 3685.11 L 3362.17 3686.82 L 3356.39 3688.54 L 3350.62 3690.25 L 3344.85 3691.96 L 3339.07 3693.67 L 3333.30 3695.38 L 3327.53 3697.09 L 3321.75 3698.80 L 3315.98 3700.51 L 3310.21 3702.22 L 3304.43 3703.93 L 3298.66 3705.64 L 3292.88 3707.35 L 3287.11 3709.06 L 3281.34 3710.77 L 3275.56 3712.48 L 3269.79 3714.20 L 3264.02 3715.91 L 3258.24 3717.62 L 3252.47 3719.33 L 3246.70 3721.04 L 3240.92 3722.75 L 3235.15 3724.46 L 3229.38 3726.17 L 3223.60 3727.88 L 3217.83 3729.59 L 3212.06 3731.30 L 3206.28 3733.01 L 3200.51 3734.72 L 3194.74 3736.43 L 3188.96 3738.14 L 3183.19 3739.86 L 3177.42 3741.57 L 3171.64 3743.28 L 3165.87 3744.99 L 3160.09 3746.70 L 3154.32 3748.41 L 3148.55 3750.12 L 3142.77 3751.83 L 3137.00 3753.54 L 3131.23 3755.25 L 3125.45 3756.96 L 3119.68 3758.67 L 3113.91 3760.38 L 3108.13 3762.09 L 3102.36 3763.80 L 3096.59 3765.52 L 3090.81 3767.23 L 3085.04 3768.94 L 3079.27 3770.65 L 3073.47 3772.29 L 3067.66 3773.85 L 3061.82 3775.31 L 3055.97 3776.75 L 3050.13 3778.20 L 3044.28 3779.64 L 3038.43 3781.08 L 3032.59 3782.53 L 3026.74 3783.97 L 3020.90 3785.41 L 3015.05 3786.85 L 3009.20 3788.30 L 3003.36 3789.74 L 2997.51 3791.18 L 2991.66 3792.62 L 2985.82 3794.07 L 2979.97 3795.51 L 2974.13 3796.95 L 2968.28 3798.39 L 2962.43 3799.84 L 2956.59 3801.28 L 2950.74 3802.72 L 2944.89 3804.16 L 2939.05 3805.61 L 2933.20 3807.05 L 2927.36 3808.49 L 2921.51 3809.93 L 2915.66 3811.38 L 2909.82 3812.82 L 2903.97 3814.26 L 2898.12 3815.70 L 2892.28 3817.15 L 2886.43 3818.59 L 2880.59 3820.03 L 2874.74 3821.47 L 2868.89 3822.92 L 2863.05 3824.36 L 2857.20 3825.80 L 2851.35 3827.24 L 2845.51 3828.69 L 2839.66 3830.13 L 2833.82 3831.57 L 2827.97 3833.02 L 2822.12 3834.46 L 2816.28 3835.90 L 2810.43 3837.34 L 2804.59 3838.79 L 2798.74 3840.23 L 2792.89 3841.67 L 2787.05 3843.11 L 2781.20 3844.56 L 2775.35 3846.00 L 2769.51 3847.44 L 2763.66 3848.88 L 2757.82 3850.33 L 2751.97 3851.77 L 2746.12 3853.21 L 2740.28 3854.65 L 2734.43 3856.10 L 2728.58 3857.54 L 2722.74 3858.98 L 2716.89 3860.42 L 2711.05 3861.87 L 2705.18 3863.23 L 2699.29 3864.45 L 2693.37 3865.53 L 2687.43 3866.54 L 2681.50 3867.54 L 2675.56 3868.55 L 2669.62 3869.56 L 2663.68 3870.56 L 2657.75 3871.57 L 2651.81 3872.57 L 2645.87 3873.58 L 2639.94 3874.59 L 2634.00 3875.59 L 2628.06 3876.60 L 2622.13 3877.61 L 2616.19 3878.61 L 2610.25 3879.62 L 2604.32 3880.62 L 2598.38 3881.63 L 2592.44 3882.64 L 2586.50 3883.64 L 2580.57 3884.65 L 2574.63 3885.66 L 2568.69 3886.66 L 2562.76 3887.67 L 2556.82 3888.67 L 2550.88 3889.68 L 2544.95 3890.69 L 2539.01 3891.69 L 2533.07 3892.70 L 2527.14 3893.71 L 2521.20 3894.71 L 2515.26 3895.72 L 2509.32 3896.72 L 2503.39 3897.73 L 2497.45 3898.74 L 2491.51 3899.74 L 2485.58 3900.75 L 2479.64 3901.76 L 2473.70 3902.76 L 2467.77 3903.77 L 2461.83 3904.77 L 2455.89 3905.78 L 2449.96 3906.79 L 2444.02 3907.79 L 2438.08 3908.80 L 2432.15 3909.81 L 2426.21 3910.81 L 2420.25 3911.54 L 2414.26 3911.94 L 2408.24 3912.00 L 2402.22 3912.00 L 2396.20 3912.00 L 2390.18 3912.00 L 2384.16 3912.00 L 2378.14 3912.00 L 2372.11 3912.00 L 2366.09 3912.00 L 2360.07 3912.00 L 2354.19 3911.41 L 2348.52 3909.92 L 2343.06 3907.53 L 2337.68 3904.84 L 2332.29 3902.14 L 2326.90 3899.45 L 2321.52 3896.76 L 2316.13 3894.07 L 2310.75 3891.37 L 2305.36 3888.68 L 2299.97 3885.99 L 2294.59 3883.29 L 2289.68 3880.43 L 2287.38 3876.63 L 2287.69 3871.89 L 2290.14 3866.39 L 2292.58 3860.89 L 2295.03 3855.38 L 2297.47 3849.88 L 2299.92 3844.38 L 2302.57 3839.01 L 2305.82 3834.06 L 2309.67 3829.53 L 2313.93 3825.27 L 2318.19 3821.01 L 2322.44 3816.76 L 2326.70 3812.50 L 2330.96 3808.24 L 2335.22 3803.98 L 2339.48 3799.72 L 2343.73 3795.47 L 2348.02 3791.24 L 2352.71 3787.61 L 2357.80 3784.56 L 2363.28 3782.07 L 2368.77 3779.58 L 2374.25 3777.09 L 2379.73 3774.60 L 2385.21 3772.10 L 2390.69 3769.61 L 2396.18 3767.12 L 2401.66 3764.63 L 2407.14 3762.14 L 2412.62 3759.64 L 2418.10 3757.15 L 2423.58 3754.66 L 2429.07 3752.17 L 2434.55 3749.68 L 2440.03 3747.19 L 2445.51 3744.69 L 2450.99 3742.20 L 2456.48 3739.71 L 2461.96 3737.22 L 2467.44 3734.73 L 2472.92 3732.24 L 2478.40 3729.74 L 2483.89 3727.25 L 2489.37 3724.76 L 2494.85 3722.27 L 2500.33 3719.78 L 2505.81 3717.29 L 2511.29 3714.79 L 2516.78 3712.30 L 2522.26 3709.81 L 2527.74 3707.32 L 2533.22 3704.83 L 2538.70 3702.33 L 2544.19 3699.84 L 2549.67 3697.35 L 2555.15 3694.86 L 2560.63 3692.37 L 2566.11 3689.88 L 2571.59 3687.38 L 2577.08 3684.89 L 2582.56 3682.40 L 2588.04 3679.91 L 2593.52 3677.42 L 2599.00 3674.93 L 2604.49 3672.43 L 2609.97 3669.94 L 2615.45 3667.45 L 2620.93 3664.96 L 2626.41 3662.47 L 2631.89 3659.98 L 2637.38 3657.48 L 2642.86 3654.99 L 2648.34 3652.50 L 2653.82 3650.01 L 2659.30 3647.52 L 2664.79 3645.02 L 2670.27 3642.53 L 2675.75 3640.04 L 2681.23 3637.55 L 2686.71 3635.06 L 2692.20 3632.57 L 2697.68 3630.07 L 2703.16 3627.58 L 2708.64 3625.09 L 2714.12 3622.60 L 2719.60 3620.11 L 2725.09 3617.62 L 2730.57 3615.12 L 2736.05 3612.63 L 2741.53 3610.14 L 2747.01 3607.65 L 2752.50 3605.16 L 2757.98 3602.66 L 2763.46 3600.17 L 2768.94 3597.68 L 2774.46 3595.28 L 2780.02 3592.97 L 2785.62 3590.76 L 2791.22 3588.54 L 2796.82 3586.33 L 2802.42 3584.11 L 2808.02 3581.89 L 2813.62 3579.68 L 2819.21 3577.46 L 2824.81 3575.24 L 2830.41 3573.03 L 2836.01 3570.81 L 2841.61 3568.60 L 2847.21 3566.38 L 2852.81 3564.16 L 2858.41 3561.95 L 2864.01 3559.73 L 2869.60 3557.51 L 2875.20 3555.30 L 2880.80 3553.08 L 2886.40 3550.87 L 2892.00 3548.65 L 2897.60 3546.43 L 2903.20 3544.22 L 2908.80 3542.00 L 2914.40 3539.78 L 2919.99 3537.57 L 2925.59 3535.35 L 2931.19 3533.14 L 2936.79 3530.92 L 2942.39 3528.70 L 2947.99 3526.49 L 2953.59 3524.27 L 2959.19 3522.06 L 2964.79 3519.84 L 2970.38 3517.62 L 2975.98 3515.41 L 2981.58 3513.19 L 2987.18 3510.97 L 2992.78 3508.76 L 2998.38 3506.54 L 3003.98 3504.33 L 3009.58 3502.11 L 3015.18 3499.89 L 3020.78 3497.68 L 3026.37 3495.46 L 3031.97 3493.24 L 3037.57 3491.03 L 3043.17 3488.81 L 3048.77 3486.60 L 3054.37 3484.38 L 3059.97 3482.16 L 3065.57 3479.95 L 3071.17 3477.73 L 3076.76 3475.51 L 3082.36 3473.30 L 3087.96 3471.08 L 3093.56 3468.87 L 3099.16 3466.65 L 3104.76 3464.43 L 3110.36 3462.22 L 3115.96 3460.00 L 3121.56 3457.78 L 3127.15 3455.57 L 3132.75 3453.35 L 3138.35 3451.14 L 3143.95 3448.92 L 3149.55 3446.70 L 3155.15 3444.49 L 3160.75 3442.27 L 3166.35 3440.05 L 3171.95 3437.84 L 3177.54 3435.62 L 3183.14 3433.41 L 3188.74 3431.19 L 3194.34 3428.97 L 3199.94 3426.76 L 3205.54 3424.54 L 3211.14 3422.32 L 3216.74 3420.11 L 3222.34 3417.89 L 3227.93 3415.68 L 3233.45 3413.28 L 3238.84 3410.63 L 3244.10 3407.71 L 3249.33 3404.73 L 3254.56 3401.74 L 3259.78 3398.75 L 3264.92 3395.65 L 3269.74 3392.12 L 3274.23 3388.17 L 3278.49 3383.91 L 3282.75 3379.65 L 3287.01 3375.39 L 3291.26 3371.14 L 3295.52 3366.88 L 3299.78 3362.62 L 3304.04 3358.36 L 3308.23 3354.06 L 3311.90 3349.37 L 3315.04 3344.32 L 3317.74 3338.93 L 3320.43 3333.54 L 3323.12 3328.16 L 3325.81 3322.77 L 3328.51 3317.39 M 3197.74 3279.28 L 3193.88 3280.17 L 3190.02 3281.05 L 3186.16 3281.93 L 3182.31 3282.82 L 3178.45 3283.70 L 3174.59 3284.58 L 3170.73 3285.47 L 3166.87 3286.35 L 3163.01 3287.23 L 3159.15 3288.12 L 3155.29 3289.00 L 3151.43 3289.88 L 3147.57 3290.77 L 3143.72 3291.65 L 3139.86 3292.53 L 3136.00 3293.42 L 3132.14 3294.30 L 3128.28 3295.18 L 3124.42 3296.07 L 3120.56 3296.95 L 3116.70 3297.83 L 3112.84 3298.72 L 3108.99 3299.60 L 3105.13 3300.48 L 3101.27 3301.37 L 3097.41 3302.25 L 3093.55 3303.13 L 3089.69 3304.02 L 3085.83 3304.90 L 3081.97 3305.78 L 3078.11 3306.67 L 3074.26 3307.55 L 3070.40 3308.43 L 3066.54 3309.32 L 3062.68 3310.20 L 3058.82 3311.08 L 3054.96 3311.97 L 3051.10 3312.85 L 3047.24 3313.73 L 3043.38 3314.62 L 3039.52 3315.50 L 3035.67 3316.38 L 3031.81 3317.27 L 3027.95 3318.15 L 3024.09 3319.04 L 3020.23 3319.92 L 3016.37 3320.80 L 3012.51 3321.69 L 3008.65 3322.57 L 3004.79 3323.45 L 3000.94 3324.34 L 2997.08 3325.22 L 2993.22 3326.10 L 2989.36 3326.99 L 2985.50 3327.87 L 2981.64 3328.75 L 2977.78 3329.64 L 2973.92 3330.52 L 2970.06 3331.40 L 2966.20 3332.29 L 2962.35 3333.17 L 2958.49 3334.05 L 2954.63 3334.94 L 2950.77 3335.82 L 2946.91 3336.70 L 2943.05 3337.59 L 2939.19 3338.47 L 2935.33 3339.35 L 2931.47 3340.24 L 2927.62 3341.12 L 2923.76 3342.00 L 2919.90 3342.89 L 2916.04 3343.77 L 2912.18 3344.65 L 2908.32 3345.54 L 2904.46 3346.42 L 2900.60 3347.30 L 2896.74 3348.19 L 2892.89 3349.07 L 2889.03 3349.95 L 2885.17 3350.84 L 2881.31 3351.72 L 2877.45 3352.60 L 2873.59 3353.49 L 2869.73 3354.37 L 2865.87 3355.25 L 2862.01 3356.14 L 2858.15 3357.02 L 2854.30 3357.90 L 2850.44 3358.79 L 2846.58 3359.67 L 2842.72 3360.55 L 2838.86 3361.44 L 2835.00 3362.32 L 2831.14 3363.20 L 2827.28 3364.09 L 2823.42 3364.97 L 2819.57 3365.85 L 2815.71 3366.74 L 2811.85 3367.62 L 2807.99 3368.50 L 2804.14 3369.41 L 2800.29 3370.36 L 2796.46 3371.33 L 2792.62 3372.32 L 2788.79 3373.31 L 2784.95 3374.29 L 2781.12 3375.28 L 2777.29 3376.26 L 2773.45 3377.25 L 2769.62 3378.24 L 2765.78 3379.22 L 2761.95 3380.21 L 2758.12 3381.19 L 2754.28 3382.18 L 2750.45 3383.17 L 2746.61 3384.15 L 2742.78 3385.14 L 2738.94 3386.12 L 2735.11 3387.11 L 2731.28 3388.09 L 2727.44 3389.08 L 2723.61 3390.07 L 2719.77 3391.05 L 2715.94 3392.04 L 2712.11 3393.02 L 2708.27 3394.01 L 2704.44 3395.00 L 2700.60 3395.98 L 2696.77 3396.97 L 2692.94 3397.95 L 2689.10 3398.94 L 2685.27 3399.93 L 2681.43 3400.91 L 2677.60 3401.90 L 2673.77 3402.88 L 2669.93 3403.87 L 2666.10 3404.85 L 2662.26 3405.84 L 2658.43 3406.83 L 2654.60 3407.81 L 2650.76 3408.80 L 2646.93 3409.78 L 2643.09 3410.77 L 2639.26 3411.76 L 2635.43 3412.74 L 2631.59 3413.73 L 2627.76 3414.71 L 2623.92 3415.70 L 2620.09 3416.69 L 2616.26 3417.67 L 2612.42 3418.66 L 2608.59 3419.64 L 2604.75 3420.63 L 2600.92 3421.61 L 2597.09 3422.60 L 2593.25 3423.59 L 2589.42 3424.57 L 2585.58 3425.56 L 2581.75 3426.54 L 2577.92 3427.53 L 2574.08 3428.52 L 2570.25 3429.50 L 2566.41 3430.49 L 2562.58 3431.47 L 2558.75 3432.46 L 2554.91 3433.45 L 2551.08 3434.43 L 2547.24 3435.42 L 2543.41 3436.40 L 2539.58 3437.39 L 2535.74 3438.38 L 2531.91 3439.36 L 2528.07 3440.35 L 2524.24 3441.33 L 2520.41 3442.32 L 2516.57 3443.30 L 2512.74 3444.29 L 2508.90 3445.28 L 2505.07 3446.26 L 2501.24 3447.25 L 2497.40 3448.23 L 2493.57 3449.22 L 2489.73 3450.21 L 2485.90 3451.19 L 2482.07 3452.18 L 2478.23 3453.16 L 2474.40 3454.15 L 2470.56 3455.14 L 2466.74 3456.17 L 2462.93 3457.23 L 2459.13 3458.33 L 2455.32 3459.43 L 2451.52 3460.52 L 2447.71 3461.62 L 2443.91 3462.72 L 2440.11 3463.81 L 2436.30 3464.91 L 2432.50 3466.01 L 2428.70 3467.10 L 2424.89 3468.20 L 2421.09 3469.30 L 2417.28 3470.40 L 2413.48 3471.49 L 2409.68 3472.59 L 2405.87 3473.69 L 2402.07 3474.78 L 2398.27 3475.88 L 2394.46 3476.98 L 2390.66 3478.07 L 2386.85 3479.17 L 2383.05 3480.27 L 2379.25 3481.36 L 2375.44 3482.46 L 2371.64 3483.56 L 2367.84 3484.66 L 2364.03 3485.75 L 2360.23 3486.85 L 2356.42 3487.95 L 2352.62 3489.04 L 2348.82 3490.14 L 2345.01 3491.24 L 2341.21 3492.33 L 2337.41 3493.43 L 2333.60 3494.53 L 2329.80 3495.63 L 2325.99 3496.72 L 2322.19 3497.82 L 2318.39 3498.92 L 2314.58 3500.01 L 2310.78 3501.11 L 2306.98 3502.21 L 2303.17 3503.30 L 2299.37 3504.40 L 2295.56 3505.50 L 2291.76 3506.59 L 2287.96 3507.69 L 2284.15 3508.79 L 2280.35 3509.89 L 2276.55 3510.98 L 2272.74 3512.08 L 2268.94 3513.18 L 2265.13 3514.27 L 2261.33 3515.37 L 2257.53 3516.47 L 2253.72 3517.56 L 2249.92 3518.66 L 2246.12 3519.76 L 2242.31 3520.86 L 2238.51 3521.95 L 2234.70 3523.05 L 2230.90 3524.15 L 2227.10 3525.24 L 2223.29 3526.34 L 2219.49 3527.44 L 2215.69 3528.53 L 2211.88 3529.63 L 2208.08 3530.73 L 2204.27 3531.82 L 2200.47 3532.92 L 2196.67 3534.02 L 2192.86 3535.12 L 2189.06 3536.21 L 2185.26 3537.31 L 2181.45 3538.41 L 2177.65 3539.50 L 2173.84 3540.60 L 2170.04 3541.70 L 2166.24 3542.79 L 2162.43 3543.89 L 2158.63 3544.99 L 2154.83 3546.09 L 2151.02 3547.18 L 2147.22 3548.28 L 2143.42 3549.38 L 2139.61 3550.47 L 2135.81 3551.57 L 2132.00 3552.67 L 2128.20 3553.76 L 2124.40 3554.86 L 2120.59 3555.96 L 2116.79 3557.05 L 2112.99 3558.15 L 2109.18 3559.25 L 2105.38 3560.35 L 2101.57 3561.44 L 2097.77 3562.54 L 2093.97 3563.64 L 2090.16 3564.73 L 2086.36 3565.83 L 2082.56 3566.93 L 2078.75 3568.02 L 2074.95 3569.12 L 2071.14 3570.22 L 2067.34 3571.32 L 2063.54 3572.41 L 2059.73 3573.51 L 2055.93 3574.61 L 2052.13 3575.70 L 2048.32 3576.80 L 2044.52 3577.90 L 2040.71 3578.99 L 2036.91 3580.09 L 2033.11 3581.19 L 2029.30 3582.28 L 2025.50 3583.38 L 2021.70 3584.48 L 2017.89 3585.58 L 2014.09 3586.67 L 2010.28 3587.77 L 2006.48 3588.87 L 2002.68 3589.96 L 1998.87 3591.06 L 1995.07 3592.16 L 1991.27 3593.25 L 1987.46 3594.35 L 1983.66 3595.45 L 1979.85 3596.55 L 1976.05 3597.64 L 1972.25 3598.74 L 1968.44 3599.84 L 1964.64 3600.93 L 1960.84 3602.03 L 1957.03 3603.13 L 1953.23 3604.22 L 1949.42 3605.32 L 1945.62 3606.42 L 1941.82 3607.51 L 1938.01 3608.61 L 1934.21 3609.71 L 1930.41 3610.81 L 1926.60 3611.90 L 1922.80 3613.00 L 1918.99 3614.10 L 1915.19 3615.19 L 1911.39 3616.29 L 1907.58 3617.39 L 1903.78 3618.48 L 1899.98 3619.58 L 1896.17 3620.68 L 1892.37 3621.78 L 1888.56 3622.87 L 1884.76 3623.97 L 1880.96 3625.07 L 1877.15 3626.16 L 1873.35 3627.26 L 1869.55 3628.36 L 1865.74 3629.45 L 1861.94 3630.55 L 1858.13 3631.65 L 1854.33 3632.75 L 1850.53 3633.84 L 1846.72 3634.94 L 1842.92 3636.04 L 1839.12 3637.13 L 1835.31 3638.23 L 1831.51 3639.33 L 1827.70 3640.42 L 1823.90 3641.52 L 1820.10 3642.62 L 1816.29 3643.71 L 1812.49 3644.81 L 1808.69 3645.91 L 1804.88 3647.01 L 1801.08 3648.10 L 1797.27 3649.20 L 1793.47 3650.30 L 1789.67 3651.39 L 1785.86 3652.49 L 1782.06 3653.59 L 1778.26 3654.68 L 1774.45 3655.78 L 1770.65 3656.88 L 1766.84 3657.98 L 1763.04 3659.07 L 1759.24 3660.17 L 1755.43 3661.27 L 1751.63 3662.36 L 1747.83 3663.46 L 1744.02 3664.56 L 1740.22 3665.65 L 1736.42 3666.75 L 1732.61 3667.85 L 1728.81 3668.94 L 1725.00 3670.04 L 1721.20 3671.14 L 1717.40 3672.24 L 1713.59 3673.33 L 1709.79 3674.43 L 1705.99 3675.53 L 1702.18 3676.62 L 1698.38 3677.72 L 1694.57 3678.82 L 1690.77 3679.91 L 1686.97 3681.01 L 1683.16 3682.11 L 1679.36 3683.21 L 1675.56 3684.30 L 1671.75 3685.40 L 1667.95 3686.50 L 1664.14 3687.59 L 1660.34 3688.69 L 1656.54 3689.79 L 1652.73 3690.88 L 1648.93 3691.98 L 1645.13 3693.08 L 1641.32 3694.17 L 1637.52 3695.27 L 1633.71 3696.37 L 1629.91 3697.47 L 1626.11 3698.56 L 1622.30 3699.66 L 1618.50 3700.76 L 1614.70 3701.85 L 1610.89 3702.95 L 1607.09 3704.05 L 1603.28 3705.14 L 1599.48 3706.24 L 1595.68 3707.34 L 1591.87 3708.44 L 1588.07 3709.53 L 1584.27 3710.63 L 1580.46 3711.73 L 1576.66 3712.82 L 1572.85 3713.92 L 1569.05 3715.02 L 1565.25 3716.11 L 1561.44 3717.21 L 1557.64 3718.31 L 1553.84 3719.40 L 1550.03 3720.50 L 1546.23 3721.60 L 1542.42 3722.70 L 1538.62 3723.79 L 1534.82 3724.89 L 1531.01 3725.99 L 1527.21 3727.08 L 1523.41 3728.18 L 1519.60 3729.28 L 1515.80 3730.37 L 1511.99 3731.47 L 1508.19 3732.57 L 1504.39 3733.67 L 1500.58 3734.76 L 1496.78 3735.86 L 1492.98 3736.96 L 1489.17 3738.05 L 1485.37 3739.15 L 1481.56 3740.25 L 1477.76 3741.34 L 1473.96 3742.44 L 1470.15 3743.54 L 1466.35 3744.63 L 1462.55 3745.73 L 1458.74 3746.83 L 1454.94 3747.93 L 1451.13 3749.02 L 1447.33 3750.12 L 1443.53 3751.22 L 1439.72 3752.31 L 1435.92 3753.41 L 1432.12 3754.51 L 1428.31 3755.60 L 1424.51 3756.70 L 1420.70 3757.80 L 1416.90 3758.90 L 1413.10 3759.99 L 1409.29 3761.09 L 1405.49 3762.19 L 1401.69 3763.28 L 1397.88 3764.38 L 1394.08 3765.48 L 1390.27 3766.57 L 1386.47 3767.67 L 1382.67 3768.77 L 1378.86 3769.86 L 1375.06 3770.96 L 1371.26 3772.06 L 1367.45 3773.16 L 1363.65 3774.25 L 1359.84 3775.35 L 1356.04 3776.45 L 1352.24 3777.54 L 1348.43 3778.64 L 1344.63 3779.74 L 1340.83 3780.83 L 1337.02 3781.93 L 1333.22 3783.03 L 1329.42 3784.13 L 1325.61 3785.22 L 1321.81 3786.32 L 1318.00 3787.42 L 1314.20 3788.51 L 1310.40 3789.61 L 1306.59 3790.71 L 1302.79 3791.80 L 1298.99 3792.90 L 1295.18 3794.00 L 1291.38 3795.09 L 1287.57 3796.19 L 1283.77 3797.29 L 1279.97 3798.39 L 1276.16 3799.48 L 1272.36 3800.58 L 1268.56 3801.68 L 1264.75 3802.77 L 1260.95 3803.87 L 1257.14 3804.97 L 1253.34 3806.06 L 1249.54 3807.16 L 1245.73 3808.26 L 1241.93 3809.36 L 1238.13 3810.45 L 1234.32 3811.55 L 1230.52 3812.65 L 1226.71 3813.74 L 1222.91 3814.84 L 1219.11 3815.94 L 1215.30 3817.03 L 1211.50 3818.13 L 1207.70 3819.23 L 1203.89 3820.32 L 1200.09 3821.42 L 1196.28 3822.52 L 1192.48 3823.62 L 1188.67 3824.70 L 1184.85 3825.71 L 1181.00 3826.65 L 1177.14 3827.53 L 1173.28 3828.41 L 1169.43 3829.30 L 1165.57 3830.18 L 1161.71 3831.06 L 1157.85 3831.94 L 1153.99 3832.83 L 1150.13 3833.71 L 1146.27 3834.59 L 1142.41 3835.47 L 1138.55 3836.35 L 1134.69 3837.24 L 1130.83 3838.12 L 1126.97 3839.00 L 1123.11 3839.88 L 1119.26 3840.76 L 1115.40 3841.65 L 1111.54 3842.53 L 1107.68 3843.41 L 1103.82 3844.29 L 1099.96 3845.17 L 1096.10 3846.06 L 1092.24 3846.94 L 1088.38 3847.82 L 1084.52 3848.70 L 1080.66 3849.59 L 1076.80 3850.47 L 1072.94 3851.35 L 1069.09 3852.23 L 1065.23 3853.11 L 1061.37 3854.00 L 1057.51 3854.88 L 1053.65 3855.76 L 1049.79 3856.64 L 1045.93 3857.52 L 1042.07 3858.41 L 1038.21 3859.29 L 1034.35 3860.17 L 1030.49 3861.05 L 1026.63 3861.94 L 1022.77 3862.82 L 1018.92 3863.70 L 1015.06 3864.58 L 1011.20 3865.46 L 1007.34 3866.35 L 1003.48 3867.23 L 999.62 3868.11 L 995.76 3868.99 L 991.90 3869.87 L 988.04 3870.76 L 984.18 3871.64 L 980.32 3872.52 L 976.46 3873.40 L 972.60 3874.28 L 968.75 3875.17 L 964.89 3876.05 L 961.03 3876.93 L 957.17 3877.81 L 953.31 3878.70 L 949.45 3879.58 L 945.59 3880.46 L 941.73 3881.34 L 937.87 3882.22 L 934.01 3883.11 L 930.15 3883.99 L 926.29 3884.87 L 922.43 3885.75 L 918.58 3886.63 L 914.72 3887.52 L 910.86 3888.40 L 907.00 3889.28 L 903.14 3890.16 L 899.28 3891.04 L 895.42 3891.93 L 891.56 3892.81 L 887.70 3893.69 L 883.84 3894.57 L 879.98 3895.46 L 876.12 3896.34 L 872.27 3897.22 L 868.41 3898.10 L 864.55 3898.98 L 860.69 3899.87 L 856.83 3900.75 L 852.97 3901.61 L 849.08 3902.35 L 845.17 3902.96 L 841.25 3903.46 L 837.32 3903.96 L 833.39 3904.46 L 829.47 3904.96 L 825.54 3905.46 L 821.61 3905.96 L 817.68 3906.46 L 813.76 3906.96 L 809.83 3907.46 L 805.90 3907.96 L 801.98 3908.46 L 798.05 3908.96 L 794.12 3909.46 L 790.19 3909.96 L 786.27 3910.46 L 782.34 3910.96 L 778.41 3911.46 L 774.49 3911.96 L 770.56 3912.46 L 766.63 3912.96 L 762.71 3913.46 L 758.78 3913.96 L 754.85 3914.46 L 750.92 3914.96 L 747.00 3915.46 L 743.07 3915.96 L 739.14 3916.46 L 735.22 3916.96 L 731.29 3917.46 L 727.36 3917.96 L 723.43 3918.46 L 719.51 3918.96 L 715.58 3919.46 L 711.65 3919.96 L 707.73 3920.46 L 703.80 3920.96 L 699.87 3921.46 L 695.95 3921.96 L 692.02 3922.46 L 688.09 3922.96 L 684.16 3923.46 L 680.24 3923.96 L 676.31 3924.46 L 672.38 3924.95 L 668.46 3925.45 L 664.53 3925.95 L 660.60 3926.45 L 656.67 3926.95 L 652.75 3927.45 L 648.82 3927.95 L 644.89 3928.45 L 640.97 3928.95 L 637.04 3929.45 L 633.11 3929.95 L 629.18 3930.45 L 625.26 3930.95 L 621.33 3931.45 L 617.40 3931.95 L 613.48 3932.45 L 609.55 3932.95 L 605.62 3933.45 L 601.70 3933.95 L 597.77 3934.45 L 593.84 3934.95 L 589.91 3935.45 L 585.98 3935.80 L 582.03 3935.98 L 578.07 3936.00 L 574.11 3936.00 L 570.16 3936.00 L 566.20 3936.00 L 562.24 3936.00 L 558.28 3936.00 L 554.32 3936.00 L 550.36 3936.00 L 546.40 3936.00 L 542.44 3936.00 L 538.48 3936.00 L 534.53 3936.00 L 530.57 3936.00 L 526.61 3936.00 L 522.65 3936.00 L 518.69 3936.00 L 514.73 3936.00 L 510.77 3936.00 L 506.81 3936.00 L 502.86 3936.00 L 498.90 3936.00 L 494.94 3936.00 L 490.98 3936.00 L 487.02 3936.00 L 483.06 3936.00 L 479.10 3936.00 L 475.14 3936.00 L 471.19 3936.00 L 467.23 3936.00 L 463.27 3935.93 L 459.33 3935.67 L 455.41 3935.23 L 451.49 3934.67 L 447.57 3934.11 L 443.65 3933.55 L 439.73 3932.99 L 435.81 3932.43 L 431.89 3931.87 L 427.97 3931.31 L 424.05 3930.75 L 420.14 3930.19 L 416.22 3929.63 L 412.30 3929.07 L 408.38 3928.51 L 404.46 3927.95 L 400.54 3927.39 L 396.62 3926.83 L 392.70 3926.27 L 388.78 3925.71 L 384.86 3925.15 L 380.95 3924.59 L 377.03 3924.03 L 373.11 3923.47 L 369.19 3922.91 L 365.27 3922.35 L 361.35 3921.79 L 357.43 3921.23 L 353.51 3920.67 L 349.59 3920.11 L 345.67 3919.55 L 341.76 3918.99 L 337.84 3918.43 L 333.92 3917.87 L 330.00 3917.30 L 326.13 3916.51 L 322.31 3915.52 L 318.53 3914.34 L 314.76 3913.16 L 310.98 3911.98 L 307.20 3910.80 L 303.42 3909.62 L 299.64 3908.44 L 295.86 3907.26 L 292.08 3906.08 L 288.31 3904.90 L 284.53 3903.71 L 280.75 3902.53 L 276.97 3901.35 L 273.19 3900.17 L 269.41 3898.99 L 265.63 3897.81 L 261.86 3896.63 L 258.08 3895.45 L 254.30 3894.27 L 250.60 3892.90 L 247.00 3891.30 L 243.51 3889.45 L 240.04 3887.54 L 236.57 3885.63 L 233.10 3883.73 L 229.63 3881.82 L 226.16 3879.91 L 222.70 3878.00 L 219.23 3876.09 L 215.76 3874.19 L 212.29 3872.28 L 208.82 3870.37 L 205.35 3868.46 L 201.88 3866.56 L 198.41 3864.65 L 194.95 3862.74 L 191.48 3860.83 L 188.01 3858.92 L 184.54 3857.02 L 181.07 3855.11 L 177.60 3853.20 L 174.13 3851.29 L 170.66 3849.39 L 167.20 3847.48 L 163.73 3845.57 L 160.26 3843.66 L 156.81 3841.73 L 153.58 3839.50 L 150.58 3836.98 L 147.78 3834.18 L 144.98 3831.38 L 142.18 3828.58 L 139.38 3825.78 L 136.58 3822.98 L 133.78 3820.18 L 130.98 3817.38 L 128.18 3814.58 L 125.38 3811.78 L 122.58 3808.98 L 119.78 3806.18 L 116.98 3803.38 L 114.18 3800.58 L 111.39 3797.79 L 108.59 3794.99 L 105.79 3792.19 L 102.99 3789.39 L 100.19 3786.59 L 97.39 3783.79 L 94.59 3780.99 L 91.79 3778.19 L 88.99 3775.39 L 86.19 3772.59 L 83.39 3769.79 L 80.59 3766.99 L 77.79 3764.19 L 75.00 3761.40 L 72.20 3758.60 L 69.40 3755.80 L 66.60 3753.00 L 63.80 3750.20 L 61.00 3747.40 L 58.20 3744.60 L 55.40 3741.80 L 52.60 3739.00 L 49.80 3736.20 L 47.00 3733.40 L 44.20 3730.60 L 41.40 3727.80 L 38.60 3725.00 L 35.81 3722.21 L 33.01 3719.41 L 30.21 3716.61 L 27.41 3713.81 L 24.45 3711.21 L 21.30 3708.86 L 17.95 3706.77 L 14.55 3704.73 L 11.16 3702.70 L 7.76 3700.66 L 4.37 3698.62 L 1.78 3696.13 L 0.33 3692.99 L 0.00 3689.22 L 0.00 3685.26 L 0.00 3681.30 L 0.00 3677.34 L 0.00 3673.39 L 0.00 3669.43 L 0.00 3665.47 L 0.00 3661.51 L 0.00 3657.55 L 0.00 3653.59 L 0.00 3649.63 L 0.00 3645.67 L 0.00 3641.72 L 0.00 3637.76 L 0.00 3633.80 L 0.00 3629.84 L 0.00 3625.88 L 0.00 3621.92 L 0.00 3617.96 L 0.00 3614.00 L 0.00 3610.05 L 0.00 3606.09 L 0.00 3602.13 L 0.00 3598.17 L 0.00 3594.21 L 0.00 3590.25 L 0.00 3586.29 L 0.00 3582.33 L 0.00 3578.38 L 0.00 3574.42 L 0.00 3570.46 L 0.00 3566.50 L 0.00 3562.54 L 0.00 3558.58 L 0.00 3554.62 L 0.00 3550.66 L 0.00 3546.71 L 0.00 3542.75 L 0.00 3538.79 L 0.00 3534.83 L 0.00 3530.87 L 0.00 3526.91 L 0.00 3522.95 L 0.00 3518.99 L 0.00 3515.04 L 0.00 3511.08 L 0.00 3507.12 L 0.00 3503.16 M 6363.34 3000.00 L 6366.68 3000.00 L 6370.03 3000.00 L 6373.37 3000.00 L 6376.71 3000.00 L 6380.05 3000.00 L 6383.40 3000.00 L 6386.74 3000.00 L 6390.08 3000.00 L 6393.42 3000.00 L 6396.77 3000.00 L 6400.11 3000.00 L 6403.45 3000.00 L 6406.79 3000.00 L 6410.14 3000.00 L 6413.48 3000.00 L 6416.82 3000.00 L 6420.16 3000.00 L 6423.50 3000.00 L 6426.85 3000.00 L 6430.19 3000.00 L 6433.53 3000.00 L 6436.87 3000.00 L 6440.22 3000.00 L 6443.56 3000.00 L 6446.90 3000.00 L 6450.24 3000.00 L 6453.59 3000.00 L 6456.93 3000.00 L 6460.27 3000.00 L 6463.61 3000.00 L 6466.96 3000.00 L 6470.30 3000.00 L 6473.64 3000.00 L 6476.98 3000.00 L 6480.33 3000.00 L 6483.67 3000.00 L 6487.01 3000.00 L 6490.35 3000.00 L 6493.69 3000.00 L 6497.04 3000.00 L 6500.38 3000.00 L 6503.72 3000.00 L 6507.06 3000.00 L 6510.41 3000.00 L 6513.75 3000.00 L 6517.09 3000.00 L 6520.43 3000.00 L 6523.78 3000.00 L 6527.12 3000.00 L 6530.46 3000.00 L 6533.80 3000.00 L 6537.15 3000.00 L 6540.49 3000.00 L 6543.83 3000.00 L 6547.17 3000.00 L 6550.51 3000.00 L 6553.86 3000.00 L 6557.20 3000.00 L 6560.54 3000.00 L 6563.88 3000.00 L 6567.23 3000.00 L 6570.57 3000.00 L 6573.91 3000.00 L 6577.25 3000.00 L 6580.60 3000.00 L 6583.94 3000.00 L 6587.28 3000.00 L 6590.62 3000.00 L 6593.97 3000.00 L 6597.31 3000.00 L 6600.65 3000.00 L 6603.99 3000.00 L 6607.34 3000.00 L 6610.68 3000.00 L 6614.02 3000.00 L 6617.36 3000.00 L 6620.70 3000.00 L 6624.05 3000.00 L 6627.39 3000.00 L 6630.73 3000.00 L 6634.07 3000.00 L 6637.42 3000.00 L 6640.76 3000.00 L 6644.10 3000.00 L 6647.44 3000.00 L 6650.79 3000.00 L 6654.13 3000.00 L 6657.47 3000.00 L 6660.81 3000.00 L 6664.16 3000.00 L 6667.50 3000.00 L 6670.84 3000.00 L 6674.18 3000.00 L 6677.52 3000.00 L 6680.87 3000.00 L 6684.21 3000.00 L 6687.55 3000.00 L 6690.89 3000.00 L 6694.24 3000.00 L 6697.58 3000.00 L 6700.92 3000.00 L 6704.26 3000.00 L 6707.61 3000.00 L 6710.95 3000.00 L 6714.29 3000.00 L 6717.63 3000.00 L 6720.98 3000.00 L 6724.31 3000.08 L 6727.65 3000.24 L 6730.98 3000.49 L 6734.31 3000.76 L 6737.65 3001.03 L 6740.98 3001.29 L 6744.31 3001.56 L 6747.64 3001.83 L 6750.97 3002.09 L 6754.30 3002.36 L 6757.64 3002.63 L 6760.97 3002.89 L 6764.30 3003.16 L 6767.63 3003.43 L 6770.96 3003.69 L 6774.30 3003.96 L 6777.63 3004.23 L 6780.96 3004.49 L 6784.29 3004.76 L 6787.62 3005.03 L 6790.95 3005.29 L 6794.29 3005.56 L 6797.62 3005.83 L 6800.95 3006.09 L 6804.28 3006.36 L 6807.61 3006.62 L 6810.94 3006.89 L 6814.28 3007.16 L 6817.61 3007.42 L 6820.94 3007.69 L 6824.27 3007.96 L 6827.60 3008.22 L 6830.93 3008.49 L 6834.27 3008.76 L 6837.60 3009.02 L 6840.93 3009.29 L 6844.26 3009.61 L 6847.58 3009.99 L 6850.89 3010.43 L 6854.20 3010.88 L 6857.51 3011.33 L 6860.82 3011.78 L 6864.13 3012.24 L 6867.45 3012.69 L 6870.76 3013.14 L 6874.07 3013.59 L 6877.38 3014.04 L 6880.69 3014.49 L 6884.01 3014.95 L 6887.32 3015.40 L 6890.63 3015.85 L 6893.94 3016.30 L 6897.25 3016.75 L 6900.56 3017.20 L 6903.88 3017.66 L 6907.19 3018.11 L 6910.50 3018.56 L 6913.81 3019.01 L 6917.12 3019.46 L 6920.43 3019.91 L 6923.75 3020.37 L 6927.06 3020.82 L 6930.37 3021.27 L 6933.68 3021.72 L 6936.99 3022.17 L 6940.30 3022.62 L 6943.62 3023.07 L 6946.93 3023.53 L 6950.24 3023.98 L 6953.55 3024.43 L 6956.86 3024.88 L 6960.17 3025.33 L 6963.49 3025.78 L 6966.80 3026.24 L 6970.11 3026.69 L 6973.42 3027.14 L 6976.73 3027.59 L 6980.05 3028.04 L 6983.36 3028.49 L 6986.67 3028.95 L 6989.98 3029.40 L 6993.29 3029.85 L 6996.60 3030.30 L 6999.92 3030.75 L 7003.23 3031.20 L 7006.54 3031.66 L 7009.85 3032.11 L 7013.16 3032.56 L 7016.47 3033.01 L 7019.79 3033.46 L 7023.10 3033.91 L 7026.41 3034.36 L 7029.72 3034.82 L 7033.03 3035.27 L 7036.34 3035.72 L 7039.66 3036.17 L 7042.97 3036.62 L 7046.28 3037.07 L 7049.59 3037.53 L 7052.90 3037.98 L 7056.20 3038.53 L 7059.48 3039.16 L 7062.74 3039.87 L 7066.01 3040.59 L 7069.27 3041.30 L 7072.54 3042.02 L 7075.80 3042.73 L 7079.07 3043.45 L 7082.33 3044.16 L 7085.60 3044.87 L 7088.86 3045.59 L 7092.13 3046.30 L 7095.39 3047.02 L 7098.66 3047.73 L 7101.92 3048.45 L 7105.19 3049.16 L 7108.45 3049.87 L 7111.72 3050.59 L 7114.98 3051.30 L 7118.25 3052.02 L 7121.51 3052.73 L 7124.78 3053.45 L 7128.04 3054.16 L 7131.31 3054.87 L 7134.58 3055.59 L 7137.84 3056.30 L 7141.11 3057.02 L 7144.37 3057.73 L 7147.64 3058.45 L 7150.90 3059.16 L 7154.17 3059.87 L 7157.43 3060.59 L 7160.70 3061.30 L 7163.96 3062.02 L 7167.23 3062.73 L 7170.49 3063.45 L 7173.76 3064.16 L 7177.02 3064.87 L 7180.29 3065.59 L 7183.55 3066.30 L 7186.82 3067.02 L 7190.08 3067.73 L 7193.35 3068.44 L 7196.61 3069.16 L 7199.88 3069.87 L 7203.14 3070.59 L 7206.41 3071.30 L 7209.64 3072.14 L 7212.84 3073.10 L 7216.00 3074.18 L 7219.17 3075.25 L 7222.33 3076.33 L 7225.49 3077.40 L 7228.66 3078.48 L 7231.82 3079.56 L 7234.99 3080.63 L 7238.15 3081.71 L 7241.32 3082.78 L 7244.48 3083.86 L 7247.65 3084.94 L 7250.81 3086.01 L 7253.97 3087.09 L 7257.14 3088.16 L 7260.30 3089.24 L 7263.47 3090.31 L 7266.63 3091.39 L 7269.80 3092.47 L 7272.96 3093.54 L 7276.13 3094.62 L 7279.29 3095.69 L 7282.45 3096.77 L 7285.62 3097.85 L 7288.78 3098.92 L 7291.95 3100.00 L 7295.11 3101.07 L 7298.28 3102.15 L 7301.44 3103.23 L 7304.61 3104.30 L 7307.77 3105.38 L 7310.93 3106.45 L 7314.10 3107.53 L 7317.26 3108.61 L 7320.43 3109.68 L 7323.59 3110.76 L 7326.76 3111.83 L 7329.92 3112.91 L 7333.09 3113.99 L 7336.25 3115.06 L 7339.41 3116.14 L 7342.58 3117.21 L 7345.74 3118.29 L 7348.91 3119.36 L 7352.07 3120.44 L 7355.24 3121.52 L 7358.40 3122.59 L 7361.57 3123.67 L 7364.73 3124.74 L 7367.89 3125.82 L 7371.06 3126.90 L 7374.22 3127.97 L 7377.39 3129.05 L 7380.55 3130.12 L 7383.72 3131.20 L 7386.88 3132.28 L 7390.05 3133.35 L 7393.21 3134.43 L 7396.37 3135.50 L 7399.54 3136.58 L 7402.70 3137.66 L 7405.87 3138.73 L 7409.03 3139.81 L 7412.20 3140.88 L 7415.36 3141.96 L 7418.53 3143.03 L 7421.69 3144.11 L 7424.85 3145.19 L 7428.02 3146.26 L 7431.18 3147.34 L 7434.35 3148.41 L 7437.51 3149.49 L 7440.68 3150.57 L 7443.84 3151.64 L 7446.99 3152.74 L 7450.09 3154.00 L 7453.11 3155.40 L 7456.09 3156.92 L 7459.07 3158.44 L 7462.04 3159.96 L 7465.02 3161.48 L 7467.99 3163.00 L 7470.97 3164.52 L 7473.95 3166.04 L 7476.92 3167.56 L 7479.90 3169.09 L 7482.87 3170.61 L 7485.85 3172.13 L 7488.83 3173.65 L 7491.80 3175.17 L 7494.78 3176.69 L 7497.76 3178.21 L 7500.73 3179.73 L 7503.71 3181.25 L 7506.68 3182.78 L 7509.66 3184.30 L 7512.64 3185.82 L 7515.61 3187.34 L 7518.59 3188.86 L 7521.56 3190.38 L 7524.54 3191.90 L 7527.52 3193.42 L 7530.49 3194.95 L 7533.47 3196.47 L 7536.45 3197.99 L 7539.42 3199.51 L 7542.40 3201.03 L 7545.37 3202.55 L 7548.35 3204.07 L 7551.33 3205.59 L 7554.30 3207.11 L 7557.28 3208.64 L 7560.25 3210.16 L 7563.23 3211.68 L 7566.21 3213.20 L 7569.18 3214.72 L 7572.16 3216.24 L 7575.14 3217.76 L 7578.11 3219.28 L 7581.09 3220.80 L 7584.06 3222.33 L 7587.04 3223.85 L 7590.02 3225.37 L 7592.99 3226.89 L 7595.97 3228.41 L 7598.94 3229.93 L 7601.92 3231.45 L 7604.90 3232.97 L 7607.87 3234.50 L 7610.85 3236.02 L 7613.83 3237.54 L 7616.80 3239.06 L 7619.78 3240.58 L 7622.75 3242.10 L 7625.73 3243.62 L 7628.71 3245.14 L 7631.68 3246.66 L 7634.66 3248.19 L 7637.63 3249.71 L 7640.61 3251.23 L 7643.59 3252.75 L 7646.56 3254.27 L 7649.54 3255.79 L 7652.52 3257.31 L 7655.49 3258.83 L 7658.47 3260.35 L 7661.44 3261.88 L 7664.30 3263.57 L 7666.95 3265.54 L 7669.39 3267.79 L 7671.75 3270.15 L 7673.69 3272.69 L 7674.84 3275.56 L 7675.20 3278.75 L 7675.20 3282.10 L 7675.20 3285.44 L 7675.20 3288.78 L 7675.20 3292.12 L 7675.20 3295.46 L 7675.20 3298.81 L 7675.20 3302.15 L 7675.20 3305.49 L 7675.20 3308.83 L 7675.20 3312.18 L 7675.20 3315.52 L 7675.20 3318.86 L 7675.20 3322.20 L 7675.20 3325.55 L 7675.20 3328.89 L 7675.20 3332.23 L 7675.20 3335.57 L 7675.20 3338.92 L 7675.20 3342.26 M 3204.41 3278.40 L 3207.23 3278.40 L 3210.04 3278.40 L 3212.85 3278.40 L 3215.66 3278.40 L 3218.48 3278.40 L 3221.29 3278.40 L 3224.10 3278.40 L 3226.92 3278.40 L 3229.73 3278.40 L 3232.54 3278.40 L 3235.35 3278.40 L 3238.17 3278.40 L 3240.98 3278.40 L 3243.79 3278.40 L 3246.60 3278.40 L 3249.42 3278.40 L 3252.23 3278.40 L 3255.04 3278.40 L 3257.84 3278.53 L 3260.60 3278.93 L 3263.32 3279.58 L 3266.02 3280.35 L 3268.73 3281.12 L 3271.43 3281.89 L 3274.14 3282.67 L 3276.84 3283.44 L 3279.54 3284.21 L 3282.25 3284.99 L 3284.95 3285.76 L 3287.66 3286.53 L 3290.35 3287.33 L 3292.94 3288.36 L 3295.42 3289.64 L 3297.81 3291.13 L 3300.19 3292.62 L 3302.58 3294.11 L 3304.96 3295.60 L 3307.35 3297.09 L 3309.73 3298.58 L 3312.12 3300.07 L 3314.50 3301.56 L 3316.89 3303.06 L 3319.27 3304.55 L 3321.66 3306.04 L 3324.04 3307.53 L 3326.43 3309.02 L 3328.81 3310.51 M 3777.60 3177.60 L 3782.40 3177.60" fill='none' stroke='#000000' stroke-opacity='0.5' stroke-width='118.75' stroke-linecap='round' stroke-linejoin='round' stroke-miterlimit='1'/>
</svg>
