<svg xmlns='http://www.w3.org/2000/svg' width='7680' height='4320' viewBox='0 0 7680 4320'>
<path d="M 4224.86 1022.40 L 4230.51 1022.40 L 4236.17 1022.40 L 4241.83 1022.40 L 4247.48 1022.40 L 4253.14 1022.40 L 4258.80 1022.40 L 4264.45 1022.40 L 4270.11 1022.40 L 4275.77 1022.40 L 4281.42 1022.40 L 4287.08 1022.40 L 4292.74 1022.40 L 4298.39 1022.40 L 4304.05 1022.40 L 4309.71 1022.40 L 4315.36 1022.40 L 4321.02 1022.40 L 4326.68 1022.40 L 4332.33 1022.40 L 4337.99 1022.40 L 4343.65 1022.40 L 4349.31 1022.40 L 4354.95 1022.55 L 4360.55 1023.09 L 4366.11 1024.02 L 4371.64 1025.19 L 4377.18 1026.35 L 4382.71 1027.52 L 4388.25 1028.68 L 4393.78 1029.85 L 4399.32 1031.01 L 4404.85 1032.18 L 4410.39 1033.35 L 4415.93 1034.51 L 4421.46 1035.68 L 4427.00 1036.84 L 4432.53 1038.01 L 4438.07 1039.17 L 4443.60 1040.34 L 4448.90 1042.07 L 4453.95 1044.44 L 4458.75 1047.42 L 4463.52 1050.46 L 4468.29 1053.49 L 4473.06 1056.53 L 4477.84 1059.57 L 4482.61 1062.61 L 4487.38 1065.64 L 4492.15 1068.68 L 4496.93 1071.72 L 4501.17 1075.27 L 4504.79 1079.43 L 4507.79 1084.19 L 4510.70 1089.04 L 4513.61 1093.89 L 4516.02 1098.94 L 4517.86 1104.22 L 4519.14 1109.72 L 4520.36 1115.24 L 4521.59 1120.76 L 4522.82 1126.29 L 4524.05 1131.81 L 4525.22 1137.33 L 4525.75 1142.89 L 4525.64 1148.47 L 4524.94 1154.09 L 4524.24 1159.70 L 4523.54 1165.31 L 4522.83 1170.92 L 4522.01 1176.50 L 4520.66 1181.94 L 4518.79 1187.23 L 4516.52 1192.41 L 4514.25 1197.59 L 4511.99 1202.78 L 4509.72 1207.96 L 4507.45 1213.14 L 4505.18 1218.32 L 4502.92 1223.51 L 4500.65 1228.69 L 4498.38 1233.87 L 4496.11 1239.05 L 4493.85 1244.24 L 4491.58 1249.42 L 4489.15 1254.51 L 4486.33 1259.37 L 4483.13 1264.00 L 4479.71 1268.51 L 4476.29 1273.01 L 4472.87 1277.51 L 4469.44 1282.02 L 4466.02 1286.52 L 4462.60 1291.02 L 4459.18 1295.53 L 4455.75 1300.03 L 4452.33 1304.53 L 4448.91 1309.04 L 4445.48 1313.54 L 4442.06 1318.05 L 4438.64 1322.55 L 4435.22 1327.05 L 4431.79 1331.56 L 4428.37 1336.06 L 4424.95 1340.56 L 4421.52 1345.07 L 4418.10 1349.57 L 4414.68 1354.08 L 4411.26 1358.58 L 4407.83 1363.08 L 4404.41 1367.59 L 4400.99 1372.09 L 4397.56 1376.59 L 4394.14 1381.10 L 4390.72 1385.60 L 4387.30 1390.10 L 4383.87 1394.61 L 4380.45 1399.11 L 4377.03 1403.62 L 4373.61 1408.12 L 4370.18 1412.62 L 4366.76 1417.13 L 4363.34 1421.63 L 4359.91 1426.13 L 4356.49 1430.64 L 4353.07 1435.14 L 4349.65 1439.65 L 4346.22 1444.15 L 4342.80 1448.65 L 4339.38 1453.16 L 4335.95 1457.66 L 4332.53 1462.16 L 4329.11 1466.67 L 4325.69 1471.17 L 4322.26 1475.68 L 4318.84 1480.18 L 4315.42 1484.68 L 4311.99 1489.19 L 4308.59 1493.70 L 4305.32 1498.31 L 4302.20 1503.02 L 4299.19 1507.81 L 4296.18 1512.60 L 4293.17 1517.39 L 4290.16 1522.18 L 4287.16 1526.98 L 4284.15 1531.77 L 4281.14 1536.56 L 4278.13 1541.35 L 4275.12 1546.14 L 4272.11 1550.93 L 4269.11 1555.72 L 4266.10 1560.51 L 4263.09 1565.30 L 4260.08 1570.09 L 4257.07 1574.88 L 4254.07 1579.67 L 4251.06 1584.46 L 4248.05 1589.25 L 4245.04 1594.04 L 4242.03 1598.83 L 4239.03 1603.63 L 4236.02 1608.42 L 4233.01 1613.21 L 4230.00 1618.00 L 4226.99 1622.79 L 4223.99 1627.58 L 4220.98 1632.37 L 4217.97 1637.16 L 4214.96 1641.95 L 4211.95 1646.74 L 4208.95 1651.53 L 4205.94 1656.32 L 4202.93 1661.11 L 4199.92 1665.90 L 4196.91 1670.69 L 4193.90 1675.49 L 4190.90 1680.28 L 4187.89 1685.07 L 4184.88 1689.86 L 4181.87 1694.65 L 4178.87 1699.44 L 4176.07 1704.35 L 4173.46 1709.36 L 4171.04 1714.47 L 4168.62 1719.58 L 4166.20 1724.69 L 4163.78 1729.81 L 4161.35 1734.92 L 4158.93 1740.03 L 4156.51 1745.14 L 4154.09 1750.25 L 4151.67 1755.37 L 4149.25 1760.48 L 4146.83 1765.59 L 4144.40 1770.70 L 4141.98 1775.82 L 4139.56 1780.93 L 4137.14 1786.04 L 4134.76 1791.17 L 4132.59 1796.38 L 4130.64 1801.68 L 4128.85 1807.05 L 4127.06 1812.42 L 4125.27 1817.78 L 4123.48 1823.15 L 4121.69 1828.52 L 4119.91 1833.88 L 4118.12 1839.25 L 4116.33 1844.62 L 4114.54 1849.98 L 4112.75 1855.35 L 4110.96 1860.71 L 4109.17 1866.08 L 4107.38 1871.45 L 4105.60 1876.81 L 4103.81 1882.18 L 4102.02 1887.55 L 4100.40 1892.95 L 4099.20 1898.44 L 4098.40 1904.02 L 4097.84 1909.65 L 4097.27 1915.28 L 4096.71 1920.91 L 4096.15 1926.53 L 4095.58 1932.16 L 4095.02 1937.79 L 4094.46 1943.42 L 4093.90 1949.05 L 4093.33 1954.68 L 4092.77 1960.31 L 4092.21 1965.94 L 4091.64 1971.56 L 4091.08 1977.19 L 4090.52 1982.82 L 4090.13 1988.45 L 4090.22 1994.06 L 4090.78 1999.66 L 4091.64 2005.25 L 4092.50 2010.84 L 4093.36 2016.43 L 4094.22 2022.02 L 4095.08 2027.61 L 4095.94 2033.20 L 4096.80 2038.79 L 4097.66 2044.38 L 4098.62 2049.95 L 4100.06 2055.37 L 4101.98 2060.65 L 4104.27 2065.82 L 4106.57 2070.99 L 4108.87 2076.15 L 4111.17 2081.32 L 4113.46 2086.49 L 4115.76 2091.66 L 4118.50 2096.54 L 4121.75 2101.08 L 4125.53 2105.27 L 4129.37 2109.42 L 4133.22 2113.56 L 4137.07 2117.71 L 4140.92 2121.85 L 4144.77 2126.00 L 4148.62 2130.15 L 4152.47 2134.29 L 4156.32 2138.44 L 4160.17 2142.58 L 4164.02 2146.73 L 4167.87 2150.87 L 4171.72 2155.02 L 4175.56 2159.16 L 4179.63 2163.03 L 4184.05 2166.47 L 4188.81 2169.47 L 4193.70 2172.32 L 4198.58 2175.17 L 4203.47 2178.02 L 4208.36 2180.88 L 4213.24 2183.73 L 4218.13 2186.58 L 4223.02 2189.43 L 4227.90 2192.28 L 4232.79 2195.13 L 4237.80 2197.71 L 4242.96 2199.97 L 4248.26 2201.92 L 4253.59 2203.83 L 4258.92 2205.73 L 4264.24 2207.63 L 4269.57 2209.53 L 4274.90 2211.44 L 4280.23 2213.34 L 4285.55 2215.24 L 4290.88 2217.14 L 4296.21 2219.05 L 4301.55 2220.89 L 4306.96 2222.49 L 4312.45 2223.84 L 4317.98 2225.01 L 4323.52 2226.17 L 4329.05 2227.34 L 4334.59 2228.50 L 4340.12 2229.67 L 4345.66 2230.83 L 4351.20 2232.00 L 4356.73 2233.16 L 4362.27 2234.33 L 4367.80 2235.50 L 4373.34 2236.66 L 4378.87 2237.83 L 4384.41 2238.99 L 4389.94 2240.16 L 4395.50 2241.18 L 4401.09 2242.01 L 4406.71 2242.66 L 4412.33 2243.26 L 4417.96 2243.87 L 4423.58 2244.47 L 4429.20 2245.07 L 4434.83 2245.67 L 4440.45 2246.28 L 4446.08 2246.88 L 4451.70 2247.48 L 4457.33 2248.09 L 4462.95 2248.69 L 4468.58 2249.29 L 4474.20 2249.89 L 4479.83 2250.50 L 4485.45 2251.10 L 4491.07 2251.70 L 4496.70 2252.30 L 4502.32 2252.91 L 4507.95 2253.51 L 4513.57 2254.11 L 4519.20 2254.71 L 4524.82 2255.32 L 4530.46 2255.75 L 4536.10 2255.97 L 4541.76 2256.00 L 4547.41 2256.00 L 4553.07 2256.00 L 4558.73 2256.00 L 4564.38 2256.00 L 4570.04 2256.00 L 4575.70 2256.00 L 4581.35 2256.00 L 4587.01 2256.00 L 4592.67 2256.00 L 4598.32 2256.00 L 4603.98 2256.00 L 4609.64 2256.00 L 4615.29 2256.00 L 4620.95 2256.00 L 4626.61 2256.00 L 4632.26 2256.00 L 4637.92 2256.00 L 4643.58 2256.00 L 4649.23 2256.00 L 4654.89 2256.00 L 4660.55 2256.00 L 4666.20 2256.00 L 4671.86 2256.00 L 4677.52 2256.00 L 4683.17 2256.00 L 4688.83 2256.00 L 4694.49 2256.00 L 4700.14 2256.00 L 4705.80 2256.00 L 4711.46 2256.00 L 4717.11 2256.00 L 4722.77 2256.00 L 4728.43 2256.00 L 4734.08 2256.00 L 4739.72 2255.78 L 4745.31 2255.16 L 4750.85 2254.12 L 4756.37 2252.90 L 4761.89 2251.67 L 4767.42 2250.44 L 4772.94 2249.21 L 4778.46 2247.99 L 4784.00 2247.21 L 4789.58 2247.08 L 4795.18 2247.60 L 4800.79 2248.30 L 4806.41 2249.00 L 4812.02 2249.70 L 4817.63 2250.40 L 4823.22 2250.55 L 4828.78 2250.05 L 4834.30 2248.91 L 4839.82 2247.68 L 4845.35 2246.46 L 4850.87 2245.23 L 4856.39 2244.00 L 4861.91 2242.82 L 4867.38 2242.64 L 4872.79 2243.46 L 4878.19 2244.97 L 4883.68 2245.70 L 4889.25 2245.63 L 4894.88 2245.07 L 4900.51 2244.51 L 4906.14 2243.95 L 4911.77 2243.38 L 4917.39 2242.82 L 4923.02 2242.26 L 4928.65 2241.69 L 4934.28 2241.13 L 4939.91 2240.57 L 4945.54 2240.01 L 4951.17 2239.44 L 4956.79 2238.88 L 4962.42 2238.32 L 4968.05 2237.75 L 4973.68 2237.19 L 4979.31 2236.63 L 4984.94 2236.07 L 4990.57 2235.50 L 4996.20 2234.94 L 5001.82 2234.38 L 5007.45 2233.81 L 5013.08 2233.25 L 5018.71 2232.69 L 5024.34 2232.13 L 5029.97 2231.56 L 5035.60 2231.00 L 5041.22 2230.44 L 5046.85 2229.87 L 5052.48 2229.31 L 5058.11 2228.75 L 5063.74 2228.19 L 5069.37 2227.60 L 5074.98 2226.94 L 5080.59 2226.20 L 5086.19 2225.40 L 5091.79 2224.60 L 5097.39 2223.80 L 5102.99 2223.00 L 5108.59 2222.20 L 5114.19 2221.40 L 5119.79 2220.60 L 5125.39 2219.80 L 5130.99 2219.00 L 5136.59 2218.20 L 5142.19 2217.40 L 5147.79 2216.60 L 5153.39 2215.80 L 5158.99 2215.00 L 5164.59 2214.20 L 5170.19 2213.40 L 5175.79 2212.60 L 5181.39 2211.80 L 5186.99 2211.00 L 5192.59 2210.20 L 5198.19 2209.40 L 5203.79 2208.60 L 5209.39 2207.80 L 5214.99 2207.00 L 5220.59 2206.20 L 5226.19 2205.40 L 5231.79 2204.60 L 5237.39 2203.80 L 5242.99 2203.00 L 5248.59 2202.20 L 5254.19 2201.40 L 5259.79 2200.60 L 5265.39 2199.80 L 5270.99 2199.00 L 5276.59 2198.20 L 5282.19 2197.40 L 5287.79 2196.60 L 5293.39 2195.80 L 5298.99 2195.00 L 5304.59 2194.20 L 5310.18 2193.40 L 5315.78 2192.60 L 5321.38 2191.80 L 5326.98 2191.00 L 5332.58 2190.20 L 5338.18 2189.40 L 5343.78 2188.60 L 5349.38 2187.80 L 5354.98 2187.00 L 5360.58 2186.20 L 5366.18 2185.40 L 5371.78 2184.60 L 5377.38 2183.80 L 5382.98 2183.00 L 5388.58 2182.20 L 5394.18 2181.40 L 5399.78 2180.60 L 5405.38 2179.80 L 5410.98 2179.00 L 5416.58 2178.20 L 5422.18 2177.40 L 5427.78 2176.60 L 5433.38 2175.80 L 5438.98 2175.00 L 5444.58 2174.20 L 5450.18 2173.40 L 5455.78 2172.60 L 5461.38 2171.80 L 5466.98 2171.00 L 5472.58 2170.20 L 5478.18 2169.40 L 5483.78 2168.60 L 5489.38 2167.80 L 5494.98 2167.00 L 5500.58 2166.20 L 5506.18 2165.40 L 5511.78 2164.60 L 5517.38 2163.80 L 5522.98 2163.00 L 5528.58 2162.20 L 5534.18 2161.40 L 5539.78 2160.60 L 5545.38 2159.80 L 5550.98 2159.00 L 5556.58 2158.20 L 5562.18 2157.40 L 5567.78 2156.60 L 5573.38 2155.80 L 5578.98 2155.00 L 5584.58 2154.20 L 5590.18 2153.40 L 5595.78 2152.60 L 5601.38 2151.80 L 5606.98 2151.00 L 5612.58 2150.20 L 5618.18 2149.40 L 5623.78 2148.60 L 5629.38 2147.80 L 5634.98 2147.00 L 5640.58 2146.20 L 5646.18 2145.40 L 5651.78 2144.60 L 5657.38 2143.80 L 5662.98 2143.00 L 5668.58 2142.20 L 5674.18 2141.39 L 5679.77 2140.53 L 5685.35 2139.62 L 5690.93 2138.68 L 5696.50 2137.74 L 5702.08 2136.79 L 5707.66 2135.85 L 5713.24 2134.90 L 5718.81 2133.96 L 5724.39 2133.01 L 5729.97 2132.07 L 5735.55 2131.13 L 5741.12 2130.18 L 5746.70 2129.24 L 5752.28 2128.29 L 5757.86 2127.35 L 5763.43 2126.40 L 5769.01 2125.46 L 5774.59 2124.52 L 5780.17 2123.57 L 5785.74 2122.63 L 5791.32 2121.68 L 5796.90 2120.74 L 5802.47 2119.80 L 5808.05 2118.85 L 5813.63 2117.91 L 5819.21 2116.96 L 5824.78 2116.02 L 5830.36 2115.07 L 5835.94 2114.13 L 5841.52 2113.19 L 5847.09 2112.24 L 5852.67 2111.30 L 5858.25 2110.35 L 5863.83 2109.41 L 5869.40 2108.46 L 5874.98 2107.52 L 5880.56 2106.58 L 5886.14 2105.63 L 5891.71 2104.69 L 5897.29 2103.74 L 5902.87 2102.80 L 5908.45 2101.86 L 5914.02 2100.91 L 5919.60 2099.97 L 5925.18 2099.02 L 5930.75 2098.08 L 5936.33 2097.13 L 5941.91 2096.19 L 5947.49 2095.25 L 5953.06 2094.30 L 5958.64 2093.36 L 5964.22 2092.41 L 5969.80 2091.47 L 5975.37 2090.52 L 5980.95 2089.58 L 5986.53 2088.64 L 5992.11 2087.69 L 5997.68 2086.75 L 6003.26 2085.80 L 6008.84 2084.86 L 6014.42 2083.92 L 6019.99 2082.97 L 6025.57 2082.03 L 6031.15 2081.08 L 6036.73 2080.14 L 6042.30 2079.19 L 6047.88 2078.25 L 6053.46 2077.31 L 6059.03 2076.36 L 6064.61 2075.42 L 6070.19 2074.47 L 6075.77 2073.53 L 6081.34 2072.58 L 6086.92 2071.64 L 6092.50 2070.70 L 6098.08 2069.75 L 6103.65 2068.81 L 6109.23 2067.86 L 6114.81 2066.92 L 6120.39 2065.98 L 6125.96 2065.03 L 6131.54 2064.09 L 6137.12 2063.14 L 6142.70 2062.20 L 6148.27 2061.25 L 6153.85 2060.31 L 6159.43 2059.37 L 6165.01 2058.42 L 6170.58 2057.48 L 6176.16 2056.53 L 6181.74 2055.59 L 6187.31 2054.65 L 6192.89 2053.70 L 6198.47 2052.76 L 6204.05 2051.81 L 6209.62 2050.87 L 6215.20 2049.92 L 6220.78 2048.98 L 6226.36 2048.04 L 6231.93 2047.09 L 6237.51 2046.15 L 6243.09 2045.20 L 6248.67 2044.26 L 6254.24 2043.31 L 6259.82 2042.37 L 6265.40 2041.43 L 6270.98 2040.48 L 6276.55 2039.54 L 6282.13 2038.59 L 6287.71 2037.65 L 6293.29 2036.71 L 6298.86 2035.76 L 6304.44 2034.82 L 6310.02 2033.87 L 6315.59 2032.93 L 6321.17 2031.98 L 6326.75 2031.04 L 6332.33 2030.10 L 6337.90 2029.15 L 6343.48 2028.21 L 6349.06 2027.26 L 6354.64 2026.32 L 6360.21 2025.37 L 6365.79 2024.43 L 6371.37 2023.49 L 6376.95 2022.54 L 6382.52 2021.60 L 6388.10 2020.65 L 6393.68 2019.71 L 6399.26 2018.77 L 6404.83 2017.82 L 6410.41 2016.88 L 6415.99 2015.93 L 6421.57 2014.99 L 6427.14 2014.04 L 6432.72 2013.10 L 6438.30 2012.16 L 6443.87 2011.21 L 6449.45 2010.27 L 6455.03 2009.32 L 6460.61 2008.38 L 6466.18 2007.43 L 6471.76 2006.49 L 6477.34 2005.55 L 6482.92 2004.60 L 6488.49 2003.66 L 6494.07 2002.71 L 6499.65 2001.77 L 6505.23 2000.83 L 6510.80 1999.88 L 6516.38 1998.94 L 6521.96 1997.99 L 6527.54 1997.05 L 6533.11 1996.10 L 6538.69 1995.16 L 6544.27 1994.22 L 6549.85 1993.27 L 6555.42 1992.33 L 6561.00 1991.38 L 6566.58 1990.44 L 6572.15 1989.50 L 6577.73 1988.55 L 6583.31 1987.61 L 6588.89 1986.66 L 6594.46 1985.72 L 6600.04 1984.77 L 6605.62 1983.83 L 6611.20 1982.89 L 6616.77 1981.94 L 6622.35 1981.00 L 6627.93 1980.05 L 6633.51 1979.11 L 6639.08 1978.16 L 6644.66 1977.22 L 6650.24 1976.28 L 6655.82 1975.33 L 6661.39 1974.39 L 6666.97 1973.44 L 6672.55 1972.50 L 6678.13 1971.56 L 6683.70 1970.61 L 6689.28 1969.67 L 6694.86 1968.72 L 6700.43 1967.78 L 6706.01 1966.83 L 6711.59 1965.89 L 6717.17 1964.95 L 6722.74 1964.00 L 6728.32 1963.06 L 6733.90 1962.11 L 6739.48 1961.17 L 6745.05 1960.22 L 6750.63 1959.28 L 6756.21 1958.34 L 6761.79 1957.39 L 6767.36 1956.45 L 6772.94 1955.50 L 6778.52 1954.56 L 6784.10 1953.62 L 6789.67 1952.67 L 6795.25 1951.73 L 6800.83 1950.78 L 6806.41 1949.84 L 6811.98 1948.89 L 6817.56 1947.95 L 6823.14 1947.01 L 6828.71 1946.06 L 6834.29 1945.12 L 6839.87 1944.17 L 6845.45 1943.23 L 6851.02 1942.28 L 6856.60 1941.34 L 6862.18 1940.40 L 6867.76 1939.45 L 6873.33 1938.51 L 6878.91 1937.56 L 6884.49 1936.62 L 6890.07 1935.68 L 6895.65 1934.77 L 6901.24 1933.93 L 6906.84 1933.14 L 6912.45 1932.38 L 6918.05 1931.62 L 6923.66 1930.86 L 6929.26 1930.10 L 6934.87 1929.33 L 6940.48 1928.57 L 6946.08 1927.81 L 6951.69 1927.05 L 6957.29 1926.29 L 6962.90 1925.52 L 6968.50 1924.76 L 6974.11 1924.00 L 6979.71 1923.24 L 6985.32 1922.48 L 6990.92 1921.72 L 6996.53 1920.95 L 7002.13 1920.19 L 7007.74 1919.43 L 7013.34 1918.67 L 7018.95 1917.91 L 7024.55 1917.14 L 7030.16 1916.38 L 7035.76 1915.62 L 7041.37 1914.86 L 7046.97 1914.10 L 7052.58 1913.33 L 7058.18 1912.57 L 7063.79 1911.81 L 7069.39 1911.05 L 7075.00 1910.29 L 7080.61 1909.53 L 7086.21 1908.76 L 7091.82 1908.00 L 7097.42 1907.24 L 7103.03 1906.48 L 7108.63 1905.72 L 7114.24 1904.95 L 7119.84 1904.19 L 7125.45 1903.43 L 7131.05 1902.67 L 7136.66 1901.91 L 7142.26 1901.14 L 7147.87 1900.38 L 7153.47 1899.62 L 7159.08 1898.86 L 7164.68 1898.10 L 7170.29 1897.34 L 7175.89 1896.57 L 7181.50 1895.81 L 7187.10 1895.05 L 7192.71 1894.29 L 7198.31 1893.53 L 7203.92 1892.76 L 7209.53 1892.00 L 7215.13 1891.24 L 7220.74 1890.48 L 7226.34 1889.72 L 7231.95 1888.95 L 7237.55 1888.19 L 7243.16 1887.43 L 7248.76 1886.67 L 7254.37 1885.91 L 7259.97 1885.15 L 7265.58 1884.38 L 7271.18 1883.62 L 7276.79 1882.86 L 7282.39 1882.10 L 7288.00 1881.34 L 7293.60 1880.57 L 7299.21 1879.81 L 7304.81 1879.05 L 7310.42 1878.29 L 7316.02 1877.53 L 7321.63 1876.76 L 7327.23 1876.00 L 7332.84 1875.24 L 7338.44 1874.48 L 7344.05 1873.72 L 7349.66 1872.96 L 7355.26 1872.19 L 7360.87 1871.43 L 7366.47 1870.67 L 7372.08 1869.91 L 7377.68 1869.15 L 7383.29 1868.38 L 7388.89 1867.64 L 7394.51 1866.95 L 7400.13 1866.31 L 7405.75 1865.70 L 7411.38 1865.09 L 7417.00 1864.47 L 7422.62 1863.86 L 7428.25 1863.25 L 7433.87 1862.63 L 7439.49 1862.02 L 7445.12 1861.41 L 7450.74 1860.79 L 7456.36 1860.18 L 7461.99 1859.57 L 7467.61 1858.95 L 7473.23 1858.34 L 7478.86 1857.72 L 7484.48 1857.11 L 7490.10 1856.50 L 7495.73 1855.88 L 7501.35 1855.27 L 7506.97 1854.66 L 7512.60 1854.04 L 7518.22 1853.43 L 7523.84 1852.82 L 7529.47 1852.20 L 7535.09 1851.59 L 7540.71 1850.98 L 7546.34 1850.36 L 7551.96 1849.75 L 7557.58 1849.14 L 7563.21 1848.52 L 7568.83 1847.91 L 7574.45 1847.30 L 7580.08 1846.68 L 7585.70 1846.07 L 7591.32 1845.46 L 7596.95 1844.84 L 7602.57 1844.23 L 7608.19 1843.62 L 7613.82 1843.00 L 7619.44 1842.39 L 7625.06 1841.77 L 7630.69 1841.16 L 7636.31 1840.55 L 7641.93 1839.93 L 7647.56 1839.32 L 7653.16 1839.04 L 7658.71 1839.42 L 7664.22 1840.46 L 7669.71 1841.83 M 4215.90 1022.91 L 4212.60 1023.42 L 4209.30 1023.92 L 4206.00 1024.43 L 4202.70 1024.94 L 4199.41 1025.45 L 4196.11 1025.95 L 4192.81 1026.46 L 4189.51 1026.97 L 4186.21 1027.48 L 4182.91 1027.98 L 4179.61 1028.49 L 4176.31 1029.00 L 4173.01 1029.51 L 4169.71 1030.01 L 4166.42 1030.52 L 4163.12 1031.03 L 4159.82 1031.54 L 4156.52 1032.04 L 4153.22 1032.55 L 4149.92 1033.06 L 4146.62 1033.57 L 4143.32 1034.07 L 4140.02 1034.58 L 4136.72 1035.09 L 4133.42 1035.60 L 4130.13 1036.10 L 4126.83 1036.61 L 4123.53 1037.12 L 4120.23 1037.63 L 4116.93 1038.13 L 4113.63 1038.64 L 4110.33 1039.15 L 4107.03 1039.66 L 4103.73 1040.16 L 4100.43 1040.67 L 4097.13 1041.18 L 4093.84 1041.69 L 4090.54 1042.19 L 4087.24 1042.70 L 4083.94 1043.21 L 4080.64 1043.72 L 4077.34 1044.22 L 4074.04 1044.73 L 4070.74 1045.24 L 4067.44 1045.75 L 4064.14 1046.25 L 4060.85 1046.76 L 4057.55 1047.27 L 4054.25 1047.78 L 4050.95 1048.28 L 4047.65 1048.79 L 4044.35 1049.30 L 4041.05 1049.81 L 4037.75 1050.32 L 4034.45 1050.82 L 4031.15 1051.33 L 4027.85 1051.84 L 4024.56 1052.35 L 4021.26 1052.85 L 4017.96 1053.36 L 4014.66 1053.87 L 4011.36 1054.38 L 4008.06 1054.88 L 4004.76 1055.39 L 4001.46 1055.90 L 3998.16 1056.41 L 3994.86 1056.91 L 3991.56 1057.42 L 3988.27 1057.93 L 3984.97 1058.44 L 3981.67 1058.94 L 3978.37 1059.45 L 3975.07 1059.96 L 3971.78 1060.50 L 3968.51 1061.15 L 3965.26 1061.90 L 3962.02 1062.72 L 3958.79 1063.55 L 3955.55 1064.37 L 3952.32 1065.19 L 3949.08 1066.01 L 3945.85 1066.83 L 3942.61 1067.65 L 3939.38 1068.48 L 3936.14 1069.30 L 3932.91 1070.12 L 3929.67 1070.94 L 3926.44 1071.76 L 3923.20 1072.58 L 3919.97 1073.41 L 3916.73 1074.23 L 3913.50 1075.05 L 3910.26 1075.87 L 3907.03 1076.69 L 3903.79 1077.51 L 3900.55 1078.34 L 3897.32 1079.16 L 3894.08 1079.98 L 3890.85 1080.80 L 3887.61 1081.62 L 3884.38 1082.44 L 3881.14 1083.27 L 3877.91 1084.09 L 3874.67 1084.91 L 3871.44 1085.73 L 3868.20 1086.55 L 3864.97 1087.37 L 3861.73 1088.19 L 3858.50 1089.02 L 3855.26 1089.84 L 3852.03 1090.66 L 3848.79 1091.48 L 3845.56 1092.30 L 3842.32 1093.12 L 3839.09 1093.95 L 3835.85 1094.77 L 3832.62 1095.59 L 3829.38 1096.41 L 3826.15 1097.23 L 3822.91 1098.05 L 3819.68 1098.88 L 3816.44 1099.70 L 3813.21 1100.52 L 3809.97 1101.34 L 3806.73 1102.16 L 3803.50 1102.98 L 3800.26 1103.81 L 3797.03 1104.63 L 3793.79 1105.45 L 3790.56 1106.27 L 3787.32 1107.09 L 3784.09 1107.91 L 3780.85 1108.74 L 3777.62 1109.56 L 3774.38 1110.38 L 3771.15 1111.20 L 3767.91 1112.02 L 3764.68 1112.84 L 3761.44 1113.67 L 3758.21 1114.49 L 3754.97 1115.31 L 3751.74 1116.13 L 3748.50 1116.95 L 3745.27 1117.77 L 3742.03 1118.60 L 3738.80 1119.42 L 3735.56 1120.24 L 3732.33 1121.06 L 3729.09 1121.88 L 3725.86 1122.70 L 3722.62 1123.53 L 3719.39 1124.35 L 3716.15 1125.17 L 3712.91 1125.99 L 3709.68 1126.81 L 3706.44 1127.63 L 3703.21 1128.45 L 3699.97 1129.28 L 3696.74 1130.10 L 3693.50 1130.92 L 3690.27 1131.74 L 3687.03 1132.56 L 3683.80 1133.38 L 3680.56 1134.21 L 3677.33 1135.03 L 3674.09 1135.85 L 3670.86 1136.67 L 3667.64 1137.56 L 3664.45 1138.54 L 3661.29 1139.60 L 3658.13 1140.66 L 3654.96 1141.73 L 3651.80 1142.80 L 3648.64 1143.87 L 3645.48 1144.94 L 3642.31 1146.00 L 3639.15 1147.07 L 3635.99 1148.14 L 3632.83 1149.21 L 3629.66 1150.27 L 3626.50 1151.34 L 3623.34 1152.41 L 3620.18 1153.48 L 3617.01 1154.55 L 3613.85 1155.61 L 3610.69 1156.68 L 3607.53 1157.75 L 3604.36 1158.82 L 3601.20 1159.89 L 3598.04 1160.95 L 3594.88 1162.02 L 3591.71 1163.09 L 3588.55 1164.16 L 3585.39 1165.22 L 3582.23 1166.29 L 3579.06 1167.36 L 3575.90 1168.43 L 3572.74 1169.50 L 3569.58 1170.56 L 3566.41 1171.63 L 3563.25 1172.70 L 3560.09 1173.77 L 3556.93 1174.84 L 3553.76 1175.90 L 3550.60 1176.97 L 3547.44 1178.04 L 3544.28 1179.11 L 3541.11 1180.17 L 3537.95 1181.24 L 3534.79 1182.31 L 3531.63 1183.38 L 3528.46 1184.45 L 3525.30 1185.51 L 3522.14 1186.58 L 3518.98 1187.65 L 3515.82 1188.72 L 3512.65 1189.78 L 3509.49 1190.85 L 3506.33 1191.92 L 3503.17 1192.99 L 3500.00 1194.06 L 3496.84 1195.12 L 3493.68 1196.19 L 3490.52 1197.26 L 3487.35 1198.33 L 3484.19 1199.40 L 3481.03 1200.46 L 3477.87 1201.53 L 3474.70 1202.60 L 3471.54 1203.67 L 3468.38 1204.73 L 3465.22 1205.80 L 3462.05 1206.87 L 3458.89 1207.94 L 3455.73 1209.01 L 3452.57 1210.07 L 3449.40 1211.14 L 3446.24 1212.21 L 3443.08 1213.28 L 3439.92 1214.35 L 3436.75 1215.41 L 3433.59 1216.48 L 3430.43 1217.55 L 3427.27 1218.62 L 3424.10 1219.68 L 3420.94 1220.75 L 3417.78 1221.82 L 3414.62 1222.89 L 3411.45 1223.96 L 3408.29 1225.02 L 3405.13 1226.09 L 3401.97 1227.16 L 3398.80 1228.23 L 3395.64 1229.29 L 3392.48 1230.36 L 3389.32 1231.43 L 3386.15 1232.50 L 3382.99 1233.57 L 3379.83 1234.63 L 3376.67 1235.70 L 3373.50 1236.77 L 3370.34 1237.84 L 3367.18 1238.91 L 3364.02 1239.97 L 3360.85 1241.04 L 3357.69 1242.11 L 3354.53 1243.18 L 3351.37 1244.24 L 3348.21 1245.31 L 3345.04 1246.38 L 3341.88 1247.45 L 3338.72 1248.52 L 3335.56 1249.58 L 3332.39 1250.65 L 3329.23 1251.72 L 3326.07 1252.79 L 3322.91 1253.86 L 3319.74 1254.92 L 3316.58 1255.99 L 3313.42 1257.06 L 3310.26 1258.13 L 3307.09 1259.19 L 3303.93 1260.26 L 3300.77 1261.33 L 3297.63 1262.47 L 3294.52 1263.68 L 3291.44 1264.95 L 3288.36 1266.23 L 3285.27 1267.51 L 3282.19 1268.79 L 3279.11 1270.07 L 3276.02 1271.35 L 3272.94 1272.63 L 3269.86 1273.90 L 3266.77 1275.18 L 3263.69 1276.46 L 3260.61 1277.74 L 3257.52 1279.02 L 3254.44 1280.30 L 3251.36 1281.57 L 3248.27 1282.85 L 3245.19 1284.13 L 3242.11 1285.41 L 3239.02 1286.69 L 3235.94 1287.97 L 3232.86 1289.25 L 3229.77 1290.52 L 3226.69 1291.80 L 3223.61 1293.08 L 3220.52 1294.36 L 3217.44 1295.64 L 3214.36 1296.92 L 3211.27 1298.19 L 3208.19 1299.47 L 3205.11 1300.75 L 3202.02 1302.03 L 3198.94 1303.31 L 3195.86 1304.59 L 3192.77 1305.87 L 3189.69 1307.14 L 3186.61 1308.42 L 3183.52 1309.70 L 3180.44 1310.98 L 3177.36 1312.26 L 3174.27 1313.54 L 3171.19 1314.81 L 3168.11 1316.09 L 3165.02 1317.37 L 3161.94 1318.65 L 3158.86 1319.93 L 3155.77 1321.21 L 3152.69 1322.49 L 3149.61 1323.76 L 3146.52 1325.04 L 3143.44 1326.32 L 3140.36 1327.60 L 3137.27 1328.88 L 3134.19 1330.16 L 3131.11 1331.43 L 3128.02 1332.71 L 3124.94 1333.99 L 3121.86 1335.27 L 3118.77 1336.55 L 3115.69 1337.83 L 3112.61 1339.11 L 3109.52 1340.38 L 3106.44 1341.66 L 3103.36 1342.94 L 3100.27 1344.22 L 3097.19 1345.50 L 3094.11 1346.78 L 3091.02 1348.05 L 3087.94 1349.33 L 3084.86 1350.61 L 3081.77 1351.89 L 3078.69 1353.17 L 3075.61 1354.45 L 3072.52 1355.72 L 3069.44 1357.00 L 3066.36 1358.28 L 3063.27 1359.56 L 3060.19 1360.84 L 3057.11 1362.12 L 3054.02 1363.40 L 3050.94 1364.67 L 3047.86 1365.95 L 3044.77 1367.23 L 3041.69 1368.51 L 3038.61 1369.79 L 3035.52 1371.07 L 3032.44 1372.34 L 3029.36 1373.62 L 3026.27 1374.90 L 3023.19 1376.18 L 3020.11 1377.46 L 3017.02 1378.74 L 3013.94 1380.02 L 3010.86 1381.29 L 3007.77 1382.57 L 3004.69 1383.85 L 3001.61 1385.13 L 2998.52 1386.41 L 2995.44 1387.69 L 2992.36 1388.96 L 2989.27 1390.24 L 2986.19 1391.52 L 2983.11 1392.80 L 2980.02 1394.08 L 2976.94 1395.36 L 2973.86 1396.64 L 2970.77 1397.91 L 2967.69 1399.19 L 2964.61 1400.47 L 2961.52 1401.75 L 2958.44 1403.03 L 2955.36 1404.31 L 2952.27 1405.58 L 2949.19 1406.86 L 2946.11 1408.14 L 2943.02 1409.42 L 2939.94 1410.70 L 2936.86 1411.98 L 2933.77 1413.26 L 2930.69 1414.53 L 2927.61 1415.81 L 2924.52 1417.09 L 2921.44 1418.37 L 2918.36 1419.65 L 2915.27 1420.93 L 2912.19 1422.20 L 2909.11 1423.48 L 2906.03 1424.78 L 2902.99 1426.15 L 2899.97 1427.58 L 2896.98 1429.05 L 2893.98 1430.53 L 2890.99 1432.00 L 2887.99 1433.48 L 2885.00 1434.95 L 2882.00 1436.42 L 2879.01 1437.90 L 2876.01 1439.37 L 2873.02 1440.84 L 2870.02 1442.32 L 2867.03 1443.79 L 2864.04 1445.27 L 2861.04 1446.74 L 2858.05 1448.21 L 2855.05 1449.69 L 2852.06 1451.16 L 2849.06 1452.63 L 2846.07 1454.11 L 2843.07 1455.58 L 2840.08 1457.05 L 2837.08 1458.53 L 2834.09 1460.00 L 2831.09 1461.48 L 2828.10 1462.95 L 2825.10 1464.42 L 2822.11 1465.90 L 2819.11 1467.37 L 2816.12 1468.84 L 2813.12 1470.32 L 2810.13 1471.79 L 2807.13 1473.27 L 2804.14 1474.74 L 2801.14 1476.21 L 2798.15 1477.69 L 2795.15 1479.16 L 2792.16 1480.63 L 2789.16 1482.11 L 2786.17 1483.58 L 2783.17 1485.06 L 2780.18 1486.53 L 2777.18 1488.00 L 2774.19 1489.48 L 2771.19 1490.95 L 2768.20 1492.42 L 2765.20 1493.90 L 2762.21 1495.37 L 2759.21 1496.84 L 2756.22 1498.32 L 2753.22 1499.79 L 2750.23 1501.27 L 2747.23 1502.74 L 2744.24 1504.21 L 2741.24 1505.69 L 2738.25 1507.16 L 2735.25 1508.63 L 2732.26 1510.11 L 2729.26 1511.58 L 2726.27 1513.06 L 2723.27 1514.53 L 2720.28 1516.00 L 2717.28 1517.48 L 2714.29 1518.95 L 2711.29 1520.42 L 2708.30 1521.90 L 2705.30 1523.37 L 2702.31 1524.84 L 2699.31 1526.32 L 2696.32 1527.79 L 2693.32 1529.27 L 2690.33 1530.74 L 2687.33 1532.21 L 2684.34 1533.69 L 2681.34 1535.16 L 2678.35 1536.63 L 2675.35 1538.11 L 2672.36 1539.58 L 2669.36 1541.06 L 2666.37 1542.53 L 2663.37 1544.00 L 2660.38 1545.48 L 2657.38 1546.95 L 2654.39 1548.42 L 2651.39 1549.90 L 2648.40 1551.37 L 2645.40 1552.85 L 2642.41 1554.32 L 2639.42 1555.79 L 2636.42 1557.27 L 2633.43 1558.74 L 2630.43 1560.21 L 2627.44 1561.69 L 2624.44 1563.16 L 2621.45 1564.63 L 2618.45 1566.11 L 2615.46 1567.58 L 2612.46 1569.06 L 2609.47 1570.53 L 2606.47 1572.00 L 2603.49 1573.50 L 2600.54 1575.06 L 2597.63 1576.69 L 2594.74 1578.36 L 2591.85 1580.03 L 2588.96 1581.70 L 2586.07 1583.37 L 2583.18 1585.04 L 2580.29 1586.71 L 2577.40 1588.38 L 2574.51 1590.05 L 2571.62 1591.72 L 2568.73 1593.39 L 2565.84 1595.06 L 2562.95 1596.73 L 2560.06 1598.40 L 2557.17 1600.07 L 2554.28 1601.74 L 2551.39 1603.41 L 2548.50 1605.08 L 2545.61 1606.75 L 2542.72 1608.42 L 2539.83 1610.09 L 2536.94 1611.76 L 2534.05 1613.43 L 2531.16 1615.10 L 2528.27 1616.77 L 2525.38 1618.44 L 2522.49 1620.11 L 2519.60 1621.78 L 2516.71 1623.45 L 2513.82 1625.12 L 2510.93 1626.79 L 2508.04 1628.46 L 2505.15 1630.13 L 2502.26 1631.80 L 2499.36 1633.47 L 2496.47 1635.14 L 2493.58 1636.81 L 2490.69 1638.48 L 2487.80 1640.15 L 2484.91 1641.82 L 2482.02 1643.49 L 2479.13 1645.16 L 2476.24 1646.83 L 2473.35 1648.50 L 2470.46 1650.17 L 2467.57 1651.84 L 2464.68 1653.51 L 2461.79 1655.18 L 2458.90 1656.85 L 2456.01 1658.52 L 2453.12 1660.19 L 2450.23 1661.86 L 2447.34 1663.53 L 2444.45 1665.20 L 2441.56 1666.87 L 2438.67 1668.54 L 2435.78 1670.21 L 2432.89 1671.88 L 2430.00 1673.55 L 2427.11 1675.22 L 2424.22 1676.89 L 2421.33 1678.56 L 2418.44 1680.23 L 2415.55 1681.90 L 2412.66 1683.57 L 2409.77 1685.23 L 2406.88 1686.90 L 2403.99 1688.57 L 2401.10 1690.24 L 2398.21 1691.91 L 2395.32 1693.58 L 2392.43 1695.25 L 2389.54 1696.92 L 2386.67 1698.63 L 2383.83 1700.38 L 2381.03 1702.19 L 2378.23 1704.02 L 2375.44 1705.84 L 2372.65 1707.67 L 2369.85 1709.50 L 2367.06 1711.32 L 2364.26 1713.15 L 2361.47 1714.98 L 2358.68 1716.80 L 2355.88 1718.63 L 2353.09 1720.46 L 2350.30 1722.28 L 2347.50 1724.11 L 2344.71 1725.94 L 2341.91 1727.76 L 2339.12 1729.59 L 2336.33 1731.42 L 2333.53 1733.24 L 2330.74 1735.07 L 2327.95 1736.90 L 2325.15 1738.72 L 2322.36 1740.55 L 2319.57 1742.38 L 2316.77 1744.20 L 2313.98 1746.03 L 2311.18 1747.86 L 2308.39 1749.68 L 2305.60 1751.51 L 2302.80 1753.34 L 2300.01 1755.16 L 2297.22 1756.99 L 2294.42 1758.82 L 2291.63 1760.64 L 2288.83 1762.47 L 2286.04 1764.30 L 2283.25 1766.12 L 2280.45 1767.95 L 2277.66 1769.78 L 2274.87 1771.60 L 2272.07 1773.43 L 2269.28 1775.26 L 2266.49 1777.08 L 2263.69 1778.91 L 2260.95 1780.80 L 2258.25 1782.77 L 2255.60 1784.80 L 2252.96 1786.83 L 2250.31 1788.87 L 2247.66 1790.90 L 2245.02 1792.94 L 2242.37 1794.97 L 2239.73 1797.01 L 2237.08 1799.05 L 2234.44 1801.08 L 2231.79 1803.12 L 2229.14 1805.15 L 2226.50 1807.19 L 2223.85 1809.22 L 2221.21 1811.26 L 2218.56 1813.29 L 2215.92 1815.33 L 2213.27 1817.36 L 2210.62 1819.40 L 2207.98 1821.43 L 2205.33 1823.47 L 2202.69 1825.50 L 2200.04 1827.54 L 2197.40 1829.57 L 2194.75 1831.61 L 2192.10 1833.64 L 2189.46 1835.68 L 2186.81 1837.71 L 2184.17 1839.75 L 2181.52 1841.78 L 2178.88 1843.82 L 2176.23 1845.85 L 2173.59 1847.89 L 2170.94 1849.92 L 2168.29 1851.96 L 2165.65 1853.99 L 2163.00 1856.03 L 2160.36 1858.06 L 2157.71 1860.10 L 2155.07 1862.13 L 2152.42 1864.17 L 2149.77 1866.20 L 2147.13 1868.24 L 2144.48 1870.27 L 2141.84 1872.31 L 2139.19 1874.35 L 2136.55 1876.38 L 2133.90 1878.42 L 2131.25 1880.45 L 2128.61 1882.49 L 2125.96 1884.52 L 2123.32 1886.56 L 2120.67 1888.59 L 2118.03 1890.63 L 2115.38 1892.66 L 2112.73 1894.70 L 2110.09 1896.73 L 2107.44 1898.77 L 2104.80 1900.80 L 2102.15 1902.84 L 2099.51 1904.87 L 2096.86 1906.91 L 2094.21 1908.94 L 2091.57 1910.98 L 2088.92 1913.01 L 2086.28 1915.05 L 2083.63 1917.08 L 2080.99 1919.12 L 2078.34 1921.15 L 2075.71 1923.21 L 2073.18 1925.38 L 2070.75 1927.65 L 2068.39 1930.01 L 2066.03 1932.37 L 2063.67 1934.73 L 2061.31 1937.09 L 2058.95 1939.45 L 2056.59 1941.81 L 2054.23 1944.17 L 2051.87 1946.53 L 2049.51 1948.89 L 2047.15 1951.25 L 2044.79 1953.61 L 2042.43 1955.97 L 2040.07 1958.33 L 2037.71 1960.69 L 2035.34 1963.06 L 2032.98 1965.42 L 2030.62 1967.78 L 2028.26 1970.14 L 2025.90 1972.50 L 2023.54 1974.86 L 2021.18 1977.22 L 2018.82 1979.58 L 2016.72 1982.11 L 2014.93 1984.87 L 2013.45 1987.86 L 2012.04 1990.88 L 2010.63 1993.91 L 2009.22 1996.93 L 2007.81 1999.95 L 2006.40 2002.98 L 2004.98 2006.00 L 2003.57 2009.03 L 2002.16 2012.05 L 2000.75 2015.08 L 1999.34 2018.10 L 1997.93 2021.13 L 1996.52 2024.15 L 1995.10 2027.18 L 1993.69 2030.20 L 1992.28 2033.23 L 1990.87 2036.25 L 1989.46 2039.28 L 1988.05 2042.30 L 1986.63 2045.33 L 1985.22 2048.35 L 1983.81 2051.38 L 1982.40 2054.40 L 1905.60 2083.20 M 1984.90 2056.62 L 1987.39 2058.84 L 1989.89 2061.06 L 1992.38 2063.27 L 1994.88 2065.49 L 1997.38 2067.71 L 1999.87 2069.93 L 2002.37 2072.15 L 2004.86 2074.37 L 2007.36 2076.59 L 2009.86 2078.80 L 2012.35 2081.02 L 2014.85 2083.24 L 2017.34 2085.46 L 2019.84 2087.68 L 2022.34 2089.90 L 2024.93 2091.97 L 2027.67 2093.84 L 2030.56 2095.51 L 2033.49 2097.10 L 2036.42 2098.70 L 2039.36 2100.30 L 2042.29 2101.90 L 2045.22 2103.50 L 2048.15 2105.10 L 2051.08 2106.70 L 2054.01 2108.30 L 2056.95 2109.90 L 2059.88 2111.50 L 2062.81 2113.10 L 2065.74 2114.70 L 2068.67 2116.29 L 2071.60 2117.89 L 2074.54 2119.49 L 2077.51 2120.99 L 2080.55 2122.35 L 2083.66 2123.57 L 2086.79 2124.75 L 2089.91 2125.92 L 2093.04 2127.09 L 2096.17 2128.26 L 2099.29 2129.44 L 2102.42 2130.61 L 2105.55 2131.78 L 2108.67 2132.95 L 2111.80 2134.13 L 2114.93 2135.30 L 2118.06 2136.47 L 2121.18 2137.64 L 2124.31 2138.82 L 2127.44 2139.99 L 2130.56 2141.16 L 2133.69 2142.33 L 2136.82 2143.51 L 2139.94 2144.68 L 2143.07 2145.85 L 2146.20 2147.02 L 2149.32 2148.20 L 2152.45 2149.37 L 2155.58 2150.54 L 2158.70 2151.71 L 2161.83 2152.89 L 2164.96 2154.06 L 2168.08 2155.23 L 2171.21 2156.40 L 2174.34 2157.58 L 2177.47 2158.75 L 2180.59 2159.92 L 2183.72 2161.09 L 2186.85 2162.27 L 2189.97 2163.44 L 2193.10 2164.61 L 2196.23 2165.79 L 2199.35 2166.96 L 2202.48 2168.13 L 2205.61 2169.30 L 2208.73 2170.48 L 2211.86 2171.65 L 2214.99 2172.82 L 2218.11 2173.99 L 2221.24 2175.17 L 2224.37 2176.34 L 2227.50 2177.51 L 2230.62 2178.68 L 2233.75 2179.86 L 2236.88 2181.03 L 2240.00 2182.20 L 2243.13 2183.37 L 2246.26 2184.55 L 2249.38 2185.72 L 2252.51 2186.89 L 2255.64 2188.06 L 2258.76 2189.24 L 2261.89 2190.41 L 2265.02 2191.58 L 2268.14 2192.75 L 2271.27 2193.93 L 2274.40 2195.10 L 2277.52 2196.27 L 2280.65 2197.44 L 2283.78 2198.62 L 2286.91 2199.79 L 2290.03 2200.96 L 2293.16 2202.13 L 2296.29 2203.31 L 2299.41 2204.48 L 2302.54 2205.65 L 2305.67 2206.83 L 2308.75 2208.09 L 2311.80 2209.44 L 2314.82 2210.89 L 2317.83 2212.33 L 2320.84 2213.78 L 2323.85 2215.22 L 2326.86 2216.67 L 2329.87 2218.11 L 2332.88 2219.56 L 2335.89 2221.00 L 2338.90 2222.45 L 2341.91 2223.89 L 2344.92 2225.34 L 2347.93 2226.78 L 2350.94 2228.23 L 2353.95 2229.67 L 2356.96 2231.12 L 2359.97 2232.56 L 2362.99 2234.01 L 2366.00 2235.45 L 2369.01 2236.90 L 2372.02 2238.34 L 2375.03 2239.79 L 2378.04 2241.23 L 2381.05 2242.68 L 2384.06 2244.12 L 2387.07 2245.57 L 2390.08 2247.01 L 2393.09 2248.46 L 2396.10 2249.90 L 2399.11 2251.35 L 2402.12 2252.80 L 2405.13 2254.24 L 2408.14 2255.69 L 2411.16 2257.13 L 2414.17 2258.58 L 2417.18 2260.02 L 2420.19 2261.47 L 2423.20 2262.91 L 2426.21 2264.36 L 2429.22 2265.80 L 2432.23 2267.25 L 2435.24 2268.69 L 2438.25 2270.14 L 2441.26 2271.58 L 2444.27 2273.03 L 2447.28 2274.47 L 2450.29 2275.92 L 2453.30 2277.36 L 2456.31 2278.81 L 2459.32 2280.25 L 2462.34 2281.70 L 2465.35 2283.14 L 2468.36 2284.59 L 2471.37 2286.03 L 2474.38 2287.48 L 2477.39 2288.92 L 2480.40 2290.37 L 2483.41 2291.81 L 2486.42 2293.26 L 2489.43 2294.70 L 2492.44 2296.15 L 2495.45 2297.59 L 2498.46 2299.04 L 2501.47 2300.48 L 2504.48 2301.93 L 2507.49 2303.37 L 2510.51 2304.82 L 2513.52 2306.26 L 2516.53 2307.71 L 2519.54 2309.15 L 2522.55 2310.60 L 2525.56 2312.04 L 2528.57 2313.49 L 2531.58 2314.93 L 2534.59 2316.38 L 2537.60 2317.82 L 2540.61 2319.27 L 2543.62 2320.71 L 2546.62 2322.19 L 2549.56 2323.76 L 2552.45 2325.42 L 2555.30 2327.16 L 2558.16 2328.90 L 2561.01 2330.63 L 2563.86 2332.37 L 2566.71 2334.10 L 2569.57 2335.84 L 2572.42 2337.58 L 2575.27 2339.31 L 2578.13 2341.05 L 2580.98 2342.79 L 2583.83 2344.52 L 2586.68 2346.26 L 2589.54 2348.00 L 2592.39 2349.73 L 2595.24 2351.47 L 2598.09 2353.20 L 2600.95 2354.94 L 2603.80 2356.68 L 2606.65 2358.41 L 2609.50 2360.15 L 2612.36 2361.89 L 2615.21 2363.62 L 2618.06 2365.36 L 2620.91 2367.10 L 2623.77 2368.83 L 2626.62 2370.57 L 2629.47 2372.30 L 2632.32 2374.04 L 2635.18 2375.78 L 2638.03 2377.51 L 2640.88 2379.25 L 2643.73 2380.99 L 2646.59 2382.72 L 2649.44 2384.46 L 2652.29 2386.20 L 2655.14 2387.93 L 2658.00 2389.67 L 2660.85 2391.40 L 2663.70 2393.14 L 2666.56 2394.88 L 2669.41 2396.61 L 2672.26 2398.35 L 2675.11 2400.09 L 2677.97 2401.82 L 2680.82 2403.56 L 2683.67 2405.30 L 2686.52 2407.03 L 2689.38 2408.77 L 2692.23 2410.50 L 2695.08 2412.24 L 2697.93 2413.98 L 2700.79 2415.71 L 2703.64 2417.45 L 2706.49 2419.19 L 2709.34 2420.92 L 2712.20 2422.66 L 2715.05 2424.40 L 2717.90 2426.13 L 2720.75 2427.87 L 2723.61 2429.60 L 2726.46 2431.34 L 2729.31 2433.08 L 2732.16 2434.81 L 2735.02 2436.55 L 2737.87 2438.29 L 2740.72 2440.02 L 2743.58 2441.76 L 2746.43 2443.50 L 2749.28 2445.23 L 2752.13 2446.97 L 2754.99 2448.70 L 2757.84 2450.44 L 2760.69 2452.18 L 2763.54 2453.91 L 2766.40 2455.65 L 2769.14 2457.53 L 2771.77 2459.56 L 2774.28 2461.76 L 2776.78 2463.98 L 2779.28 2466.20 L 2781.77 2468.42 L 2784.27 2470.64 L 2786.76 2472.86 L 2789.26 2475.08 L 2791.76 2477.29 L 2794.25 2479.51 L 2796.75 2481.73 L 2799.24 2483.95 L 2801.74 2486.17 L 2804.24 2488.39 L 2806.73 2490.61 L 2809.23 2492.82 L 2811.72 2495.04 L 2814.22 2497.26 L 2816.72 2499.48 L 2819.21 2501.70 L 2821.71 2503.92 L 2824.20 2506.14 L 2826.70 2508.36 L 2829.20 2510.57 L 2831.69 2512.79 L 2834.19 2515.01 L 2836.68 2517.23 L 2839.18 2519.45 L 2841.68 2521.67 L 2844.17 2523.89 L 2846.67 2526.10 L 2849.16 2528.32 L 2851.66 2530.54 L 2854.08 2532.82 L 2856.23 2535.32 L 2858.09 2538.06 L 2859.75 2540.96 L 2861.40 2543.85 L 2863.06 2546.75 L 2864.72 2549.65 L 2866.37 2552.55 L 2868.03 2555.45 L 2869.69 2558.35 L 2871.34 2561.25 L 2873.00 2564.15 L 2874.34 2567.15 L 2875.22 2570.29 L 2875.63 2573.57 L 2875.88 2576.90 L 2876.14 2580.23 L 2876.40 2583.56 L 2876.65 2586.89 L 2876.91 2590.22 L 2877.17 2593.55 L 2877.42 2596.88 L 2877.68 2600.21 L 2877.93 2603.54 L 2878.19 2606.87 L 2878.45 2610.20 L 2878.70 2613.52 L 2878.96 2616.85 L 2879.21 2620.18 L 2879.47 2623.51 L 2879.73 2626.84 L 2879.09 2629.79 L 2877.50 2632.32 L 2874.96 2634.43 L 2872.35 2636.52 L 2869.75 2638.60 L 2867.14 2640.69 L 2864.53 2642.77 L 2861.92 2644.86 L 2859.32 2646.95 L 2856.71 2649.03 L 2854.10 2651.12 L 2851.49 2653.21 L 2848.89 2655.29 L 2846.28 2657.38 L 2843.67 2659.46 L 2841.06 2661.55 L 2838.45 2663.64 L 2835.85 2665.72 L 2833.12 2667.57 L 2830.18 2668.95 L 2827.02 2669.87 L 2823.76 2670.57 L 2820.49 2671.27 L 2817.22 2671.97 L 2813.96 2672.67 L 2810.69 2673.37 L 2807.43 2674.07 L 2804.16 2674.76 L 2800.90 2675.46 L 2797.63 2676.16 L 2794.37 2676.86 L 2791.10 2677.56 L 2787.84 2678.26 L 2784.57 2678.96 L 2781.31 2679.66 L 2778.04 2680.36 L 2774.78 2681.06 L 2771.51 2681.76 L 2768.24 2682.46 L 2764.96 2682.94 L 2761.64 2683.19 L 2758.30 2683.20 L 2754.96 2683.20 L 2751.63 2683.20 L 2748.29 2683.20 L 2744.95 2683.20 L 2741.61 2683.20 L 2738.27 2683.20 L 2734.93 2683.20 L 2731.59 2683.20 L 2728.25 2683.20 L 2724.91 2683.20 L 2721.57 2683.20 L 2718.23 2683.20 L 2714.89 2683.20 L 2711.55 2683.20 L 2708.21 2683.20 L 2704.87 2683.20 L 2701.53 2683.20 L 2698.19 2683.20 L 2694.85 2683.20 L 2691.51 2683.20 L 2688.18 2683.08 L 2684.86 2682.84 L 2681.54 2682.48 L 2678.22 2682.11 L 2674.90 2681.74 L 2671.58 2681.38 L 2668.26 2681.01 L 2664.94 2680.64 L 2661.62 2680.27 L 2658.30 2679.90 L 2654.98 2679.53 L 2651.66 2679.16 L 2648.35 2678.79 L 2645.03 2678.43 L 2641.71 2678.06 L 2638.39 2677.69 L 2635.07 2677.32 L 2631.75 2676.95 L 2628.43 2676.58 L 2625.11 2676.21 L 2621.79 2675.84 L 2618.47 2675.47 L 2615.15 2675.11 L 2611.84 2674.74 L 2608.52 2674.37 L 2605.20 2674.00 L 2601.88 2673.63 L 2598.56 2673.26 L 2595.24 2672.89 L 2591.92 2672.52 L 2588.60 2672.16 L 2585.28 2671.79 L 2581.96 2671.42 L 2578.64 2671.05 L 2575.33 2670.68 L 2572.01 2670.31 L 2568.69 2669.94 L 2565.37 2669.57 L 2562.05 2669.21 L 2558.74 2668.77 L 2555.44 2668.26 L 2552.15 2667.68 L 2548.87 2667.09 L 2545.58 2666.50 L 2542.29 2665.91 L 2539.01 2665.32 L 2535.72 2664.73 L 2532.43 2664.14 L 2529.14 2663.55 L 2525.86 2662.96 L 2522.57 2662.37 L 2519.28 2661.78 L 2516.00 2661.19 L 2512.71 2660.60 L 2509.42 2660.01 L 2506.14 2659.42 L 2502.85 2658.83 L 2499.56 2658.24 L 2496.28 2657.65 L 2492.99 2657.06 L 2489.70 2656.47 L 2486.41 2655.88 L 2483.13 2655.29 L 2479.84 2654.70 L 2476.55 2654.11 L 2473.27 2653.52 L 2469.98 2652.93 L 2466.69 2652.34 L 2463.41 2651.75 L 2460.12 2651.16 L 2456.83 2650.57 L 2453.54 2649.98 L 2450.26 2649.39 L 2446.97 2648.80 L 2443.68 2648.21 L 2440.40 2647.62 L 2437.11 2647.03 L 2433.82 2646.44 L 2430.54 2645.85 L 2427.25 2645.26 L 2423.96 2644.67 L 2420.68 2644.08 L 2417.39 2643.49 L 2414.10 2642.90 L 2410.81 2642.31 L 2407.53 2641.72 L 2404.24 2641.13 L 2400.95 2640.54 L 2397.67 2639.95 L 2394.38 2639.36 L 2391.09 2638.77 L 2387.81 2638.18 L 2384.52 2637.59 L 2381.23 2637.00 L 2377.94 2636.41 L 2374.66 2635.82 L 2371.39 2635.13 L 2368.16 2634.32 L 2364.94 2633.41 L 2361.73 2632.50 L 2358.52 2631.58 L 2355.31 2630.66 L 2352.10 2629.74 L 2348.89 2628.83 L 2345.68 2627.91 L 2342.47 2626.99 L 2339.26 2626.07 L 2336.05 2625.16 L 2332.83 2624.24 L 2329.62 2623.32 L 2326.41 2622.40 L 2323.20 2621.49 L 2319.99 2620.57 L 2316.78 2619.65 L 2313.57 2618.73 L 2310.36 2617.82 L 2307.15 2616.90 L 2303.94 2615.98 L 2300.72 2615.06 L 2297.51 2614.15 L 2294.30 2613.23 L 2291.09 2612.31 L 2287.88 2611.39 L 2284.67 2610.48 L 2281.46 2609.56 L 2278.25 2608.64 L 2275.04 2607.72 L 2271.83 2606.81 L 2268.61 2605.89 L 2265.40 2604.97 L 2262.19 2604.06 L 2258.98 2603.14 L 2255.77 2602.22 L 2252.56 2601.30 L 2249.35 2600.39 L 2246.14 2599.47 L 2242.93 2598.55 L 2239.72 2597.63 L 2236.50 2596.72 L 2233.29 2595.80 L 2230.08 2594.88 L 2226.87 2593.96 L 2223.66 2593.05 L 2220.45 2592.13 L 2217.24 2591.21 L 2214.03 2590.29 L 2210.82 2589.38 L 2207.61 2588.46 L 2204.40 2587.54 L 2201.18 2586.62 L 2197.97 2585.71 L 2194.76 2584.79 L 2191.55 2583.87 L 2188.34 2582.95 L 2185.13 2582.04 L 2181.92 2581.12 L 2178.71 2580.20 L 2175.50 2579.28 L 2172.29 2578.37 L 2169.07 2577.45 L 2165.86 2576.53 L 2162.65 2575.61 L 2159.44 2574.70 L 2156.23 2573.78 L 2153.02 2572.86 L 2149.81 2571.95 L 2146.60 2571.03 L 2143.39 2570.11 L 2140.18 2569.19 L 2137.02 2568.14 L 2133.93 2566.90 L 2130.92 2565.46 L 2127.94 2563.97 L 2124.95 2562.47 L 2121.96 2560.98 L 2118.98 2559.49 L 2115.99 2557.99 L 2113.00 2556.50 L 2110.01 2555.01 L 2107.03 2553.51 L 2104.04 2552.02 L 2101.05 2550.53 L 2098.07 2549.03 L 2095.08 2547.54 L 2092.09 2546.05 L 2089.11 2544.55 L 2086.12 2543.06 L 2083.13 2541.57 L 2080.15 2540.07 L 2077.16 2538.58 L 2074.17 2537.09 L 2071.18 2535.59 L 2068.20 2534.10 L 2065.21 2532.61 L 2062.22 2531.11 L 2059.24 2529.62 L 2056.25 2528.12 L 2053.26 2526.63 L 2050.28 2525.14 L 2047.29 2523.64 L 2044.30 2522.15 L 2041.32 2520.66 L 2038.33 2519.16 L 2035.34 2517.67 L 2032.35 2516.18 L 2029.37 2514.68 L 2026.38 2513.19 L 2023.39 2511.70 L 2020.41 2510.20 L 2017.42 2508.71 L 2014.43 2507.22 L 2011.45 2505.72 L 2008.46 2504.23 L 2005.47 2502.74 L 2002.49 2501.24 L 1999.50 2499.75 L 1996.51 2498.26 L 1993.52 2496.76 L 1990.54 2495.27 L 1987.55 2493.78 L 1984.56 2492.28 L 1981.58 2490.79 L 1978.59 2489.29 L 1975.61 2487.79 L 1972.82 2486.01 L 1970.22 2483.97 L 1967.79 2481.68 L 1965.35 2479.39 L 1962.92 2477.10 L 1960.49 2474.82 L 1958.06 2472.53 L 1955.63 2470.24 L 1953.20 2467.95 L 1950.76 2465.66 L 1948.33 2463.37 L 1945.90 2461.08 L 1943.47 2458.79 L 1941.04 2456.50 L 1938.60 2454.22 L 1936.17 2451.93 L 1933.74 2449.64 L 1931.31 2447.35 L 1928.88 2445.06 L 1926.45 2442.77 L 1924.01 2440.48 L 1921.58 2438.19 L 1919.15 2435.91 L 1916.72 2433.62 L 1914.29 2431.33 L 1911.85 2429.04 L 1909.42 2426.75 L 1906.99 2424.46 L 1904.56 2422.17 L 1902.13 2419.88 L 1899.70 2417.60 L 1897.26 2415.31 L 1894.83 2413.02 L 1892.56 2410.61 L 1890.60 2407.97 L 1888.95 2405.10 L 1887.46 2402.11 L 1885.96 2399.13 L 1884.47 2396.14 L 1882.98 2393.15 L 1881.48 2390.17 L 1879.99 2387.18 L 1878.50 2384.19 L 1877.00 2381.20 L 1875.51 2378.22 L 1874.02 2375.23 L 1872.52 2372.24 L 1871.03 2369.26 L 1869.54 2366.27 L 1868.04 2363.28 L 1866.55 2360.30 L 1865.05 2357.31 L 1863.56 2354.32 L 1862.07 2351.34 L 1860.57 2348.35 L 1859.08 2345.36 L 1857.59 2342.37 L 1856.09 2339.39 L 1854.60 2336.40 L 1853.50 2333.32 L 1852.90 2330.12 L 1852.80 2326.81 L 1852.80 2323.47 L 1852.80 2320.13 L 1852.80 2316.79 L 1852.80 2313.45 L 1852.80 2310.11 L 1852.80 2306.77 L 1852.80 2303.43 L 1852.80 2300.09 L 1852.80 2296.75 L 1852.80 2293.41 L 1852.80 2290.07 L 1852.80 2286.73 L 1852.80 2283.39 L 1852.80 2280.05 L 1852.80 2276.72 L 1852.80 2273.38 L 1852.80 2270.04 L 1852.80 2266.70 L 1852.80 2263.36 L 1852.80 2260.02 L 1852.80 2256.68 L 1852.80 2253.34 L 1852.80 2250.00 L 1852.80 2246.66 L 1852.80 2243.32 L 1852.80 2239.98 L 1852.80 2236.64 L 1852.80 2233.30 L 1852.80 2229.96 L 1852.80 2226.62 L 1853.08 2223.33 L 1853.73 2220.10 L 1854.75 2216.94 L 1855.87 2213.80 L 1857.00 2210.65 L 1858.12 2207.51 L 1859.24 2204.36 L 1860.37 2201.22 L 1861.49 2198.07 L 1862.61 2194.93 L 1863.73 2191.78 L 1864.86 2188.64 L 1865.98 2185.49 L 1867.10 2182.35 L 1868.23 2179.20 L 1869.35 2176.06 L 1870.47 2172.91 L 1871.60 2169.77 L 1872.72 2166.62 L 1873.84 2163.48 L 1874.97 2160.33 L 1876.09 2157.19 L 1877.21 2154.04 L 1878.34 2150.90 L 1879.46 2147.75 L 1880.58 2144.61 L 1881.71 2141.46 L 1882.83 2138.32 L 1883.95 2135.17 L 1885.08 2132.03 L 1886.20 2128.88 L 1887.32 2125.74 L 1888.44 2122.59 L 1889.57 2119.45 L 1890.69 2116.30 L 1891.81 2113.16 L 1892.94 2110.01 L 1894.06 2106.87 L 1895.18 2103.72 L 1896.31 2100.58 L 1897.43 2097.43 L 1898.55 2094.29 L 1899.68 2091.14 L 1900.80 2088.00 L 1900.80 2083.20 M 286.54 1094.61 L 289.89 1094.82 L 293.23 1095.03 L 296.58 1095.24 L 299.92 1095.45 L 303.27 1095.65 L 306.61 1095.86 L 309.95 1096.07 L 313.30 1096.28 L 316.64 1096.49 L 319.99 1096.70 L 323.33 1096.91 L 326.67 1097.12 L 330.02 1097.33 L 333.36 1097.54 L 336.71 1097.74 L 340.05 1097.95 L 343.40 1098.16 L 346.74 1098.37 L 350.08 1098.58 L 353.43 1098.79 L 356.77 1099.00 L 360.12 1099.21 L 363.46 1099.42 L 366.81 1099.63 L 370.15 1099.83 L 373.49 1100.04 L 376.84 1100.25 L 380.18 1100.46 L 383.53 1100.67 L 386.87 1100.88 L 390.21 1101.09 L 393.56 1101.30 L 396.90 1101.51 L 400.25 1101.72 L 403.59 1101.92 L 406.94 1102.13 L 410.28 1102.34 L 413.62 1102.55 L 416.97 1102.76 L 420.31 1102.97 L 423.66 1103.18 L 427.00 1103.39 L 430.34 1103.60 L 433.69 1103.82 L 437.00 1104.24 L 440.28 1104.87 L 443.53 1105.68 L 446.78 1106.49 L 450.03 1107.31 L 453.28 1108.12 L 456.53 1108.93 L 459.78 1109.75 L 463.03 1110.56 L 466.28 1111.37 L 469.53 1112.18 L 472.78 1113.00 L 476.03 1113.81 L 479.29 1114.62 L 482.54 1115.43 L 485.79 1116.25 L 489.04 1117.06 L 492.29 1117.87 L 495.54 1118.68 L 498.79 1119.50 L 502.04 1120.31 L 505.29 1121.12 L 508.54 1121.94 L 511.79 1122.75 L 515.04 1123.56 L 518.29 1124.37 L 521.54 1125.19 L 524.80 1126.00 L 528.05 1126.81 L 531.30 1127.62 L 534.55 1128.44 L 537.80 1129.25 L 541.05 1130.06 L 544.30 1130.87 L 547.55 1131.69 L 550.75 1132.64 L 553.86 1133.83 L 556.89 1135.24 L 559.89 1136.74 L 562.88 1138.24 L 565.88 1139.74 L 568.88 1141.24 L 571.87 1142.74 L 574.87 1144.24 L 577.87 1145.73 L 580.86 1147.23 L 583.86 1148.73 L 586.86 1150.23 L 589.85 1151.73 L 592.85 1153.23 L 595.85 1154.72 L 598.85 1156.22 L 601.84 1157.72 L 604.84 1159.22 L 607.77 1160.82 L 610.53 1162.66 L 613.14 1164.74 L 615.64 1166.97 L 618.14 1169.19 L 620.65 1171.42 L 623.15 1173.65 L 625.66 1175.87 L 628.16 1178.10 L 630.67 1180.33 L 633.17 1182.55 L 635.67 1184.78 L 638.18 1187.00 L 640.68 1189.23 L 643.19 1191.46 L 645.69 1193.68 L 648.20 1195.91 L 650.67 1198.16 L 652.96 1200.58 L 655.06 1203.17 L 657.01 1205.89 L 658.96 1208.62 L 660.91 1211.35 L 662.85 1214.07 L 664.80 1216.80 L 666.75 1219.53 L 668.70 1222.25 L 670.64 1224.98 L 672.59 1227.71 L 674.54 1230.43 L 676.26 1233.28 L 677.72 1236.26 L 678.91 1239.39 L 680.05 1242.54 L 681.20 1245.69 L 682.34 1248.84 L 683.49 1251.99 L 684.63 1255.14 L 685.78 1258.28 L 686.92 1261.43 L 688.07 1264.58 L 689.21 1267.73 L 690.36 1270.88 L 691.50 1274.03 L 692.65 1277.18 L 693.79 1280.33 L 694.91 1283.48 L 695.72 1286.70 L 696.21 1289.98 L 696.41 1293.33 L 696.60 1296.67 L 696.80 1300.02 L 697.00 1303.36 L 697.19 1306.71 L 697.39 1310.05 L 697.59 1313.40 L 697.78 1316.74 L 697.98 1320.09 L 698.18 1323.43 L 698.38 1326.78 L 698.57 1330.12 L 698.77 1333.47 L 698.97 1336.81 L 699.16 1340.16 L 699.36 1343.50 L 699.56 1346.85 L 699.75 1350.19 L 699.95 1353.54 L 700.15 1356.88 L 700.34 1360.23 L 700.54 1363.57 L 700.53 1366.90 L 700.22 1370.21 L 699.61 1373.49 L 698.89 1376.76 L 698.18 1380.04 L 697.47 1383.31 L 696.76 1386.59 L 696.05 1389.86 L 695.34 1393.13 L 694.62 1396.41 L 693.91 1399.68 L 693.20 1402.96 L 692.49 1406.23 L 691.78 1409.51 L 691.07 1412.78 L 690.35 1416.05 L 689.64 1419.33 L 688.93 1422.60 L 688.22 1425.88 L 687.51 1429.15 L 686.79 1432.43 L 686.08 1435.70 L 685.37 1438.97 L 684.66 1442.25 L 683.95 1445.52 L 683.24 1448.80 L 682.52 1452.07 L 681.81 1455.35 L 681.10 1458.62 L 680.39 1461.89 L 679.68 1465.17 L 678.96 1468.44 L 678.25 1471.72 L 677.54 1474.99 L 676.63 1478.20 L 675.53 1481.35 L 674.21 1484.43 L 672.89 1487.51 L 671.57 1490.59 L 670.25 1493.67 L 668.93 1496.75 L 667.61 1499.83 L 666.30 1502.91 L 664.98 1505.99 L 663.66 1509.07 L 662.34 1512.15 L 661.02 1515.23 L 659.70 1518.31 L 658.38 1521.39 L 657.06 1524.47 L 655.74 1527.55 L 654.42 1530.63 L 653.10 1533.71 L 651.78 1536.79 L 650.46 1539.87 L 649.14 1542.95 L 647.82 1546.03 L 646.50 1549.11 L 645.18 1552.19 L 643.86 1555.27 L 642.54 1558.35 L 641.22 1561.43 L 639.90 1564.51 L 638.58 1567.59 L 637.26 1570.67 L 635.94 1573.75 L 634.62 1576.83 L 633.30 1579.91 L 631.98 1582.99 L 630.66 1586.07 L 629.34 1589.15 L 628.02 1592.23 L 626.70 1595.31 L 625.38 1598.39 L 624.06 1601.47 L 622.74 1604.55 L 621.42 1607.62 L 620.05 1610.68 L 618.54 1613.66 L 616.88 1616.56 L 615.12 1619.41 L 613.36 1622.27 L 611.60 1625.12 L 609.84 1627.97 L 608.08 1630.82 L 606.32 1633.67 L 604.56 1636.52 L 602.80 1639.38 L 601.04 1642.23 L 599.28 1645.08 L 597.52 1647.93 L 595.76 1650.78 L 594.00 1653.63 L 592.25 1656.49 L 590.49 1659.34 L 588.73 1662.19 L 586.97 1665.04 L 585.21 1667.89 L 583.45 1670.74 L 581.69 1673.59 L 579.93 1676.45 L 578.17 1679.30 L 576.41 1682.15 L 574.65 1685.00 L 572.89 1687.85 L 571.13 1690.70 L 569.37 1693.56 L 567.61 1696.41 L 565.85 1699.26 L 564.09 1702.11 L 562.33 1704.96 L 560.57 1707.81 L 558.81 1710.67 L 557.06 1713.52 L 555.30 1716.37 L 553.54 1719.22 L 551.78 1722.07 L 550.02 1724.92 L 548.26 1727.78 L 546.50 1730.63 L 544.74 1733.48 L 542.98 1736.33 L 541.22 1739.18 L 539.46 1742.03 L 537.70 1744.88 L 535.94 1747.74 L 534.18 1750.59 L 532.42 1753.44 L 530.66 1756.29 L 528.90 1759.14 L 527.14 1761.99 L 525.38 1764.85 L 523.63 1767.70 L 521.87 1770.55 L 520.11 1773.40 L 518.35 1776.25 L 516.59 1779.10 L 514.83 1781.96 L 513.07 1784.81 L 511.31 1787.66 L 509.55 1790.51 L 507.79 1793.36 L 506.03 1796.21 L 504.27 1799.06 L 502.51 1801.92 L 500.75 1804.77 L 498.99 1807.62 L 497.23 1810.47 L 495.47 1813.32 L 493.71 1816.17 L 491.95 1819.03 L 490.19 1821.88 L 488.44 1824.73 L 486.68 1827.58 L 484.92 1830.43 L 483.16 1833.28 L 481.45 1836.16 L 480.01 1839.16 L 478.84 1842.27 L 477.88 1845.48 L 476.91 1848.69 L 475.95 1851.90 L 474.99 1855.11 L 474.02 1858.32 L 473.06 1861.53 L 472.10 1864.74 L 471.14 1867.95 L 470.17 1871.15 L 469.21 1874.36 L 468.25 1877.57 L 467.29 1880.78 L 466.38 1884.00 L 465.70 1887.27 L 465.25 1890.57 L 464.97 1893.91 L 464.70 1897.25 L 464.42 1900.59 L 464.14 1903.93 L 463.86 1907.27 L 463.58 1910.61 L 463.30 1913.95 L 463.03 1917.29 L 462.75 1920.63 L 462.47 1923.97 L 462.19 1927.30 L 461.91 1930.64 L 461.63 1933.98 L 461.36 1937.32 L 461.08 1940.66 M 948.95 1905.60 L 952.31 1905.60 L 955.66 1905.60 L 959.01 1905.60 L 962.37 1905.60 L 965.72 1905.60 L 969.07 1905.60 L 972.43 1905.60 L 975.78 1905.60 L 979.13 1905.60 L 982.49 1905.60 L 985.84 1905.60 L 989.19 1905.60 L 992.55 1905.60 L 995.90 1905.60 L 999.25 1905.60 L 1002.61 1905.60 L 1005.96 1905.60 L 1009.31 1905.60 L 1012.67 1905.60 L 1016.02 1905.60 L 1019.37 1905.60 L 1022.73 1905.60 L 1026.08 1905.60 L 1029.43 1905.60 L 1032.79 1905.60 L 1036.14 1905.60 L 1039.49 1905.60 L 1042.85 1905.60 L 1046.20 1905.60 L 1049.55 1905.60 L 1052.91 1905.60 L 1056.26 1905.60 L 1059.61 1905.60 L 1062.97 1905.60 L 1066.32 1905.60 L 1069.67 1905.60 L 1073.03 1905.60 L 1076.38 1905.60 L 1079.71 1905.82 L 1083.01 1906.29 L 1086.29 1907.00 L 1089.56 1907.72 L 1092.84 1908.45 L 1096.11 1909.18 L 1099.38 1909.91 L 1102.66 1910.63 L 1105.93 1911.36 L 1109.20 1912.09 L 1112.48 1912.82 L 1115.75 1913.54 L 1119.02 1914.27 L 1122.31 1914.69 L 1125.60 1914.68 L 1128.90 1914.25 L 1132.21 1913.70 L 1135.52 1913.15 L 1138.83 1912.60 L 1142.13 1912.04 L 1145.44 1911.49 L 1148.75 1910.95 L 1152.07 1910.70 L 1155.39 1910.76 L 1158.73 1911.11 L 1162.06 1911.46 L 1165.40 1911.81 L 1168.73 1912.16 L 1172.07 1912.51 L 1175.40 1912.86 L 1178.74 1913.21 L 1182.07 1913.57 L 1185.41 1913.92 L 1188.74 1914.27 L 1192.08 1914.62 L 1195.41 1914.97 L 1198.75 1915.32 L 1202.08 1915.67 L 1205.42 1916.02 L 1208.75 1916.37 L 1212.09 1916.72 L 1215.42 1917.08 L 1218.76 1917.43 L 1222.09 1917.78 L 1225.43 1918.13 L 1228.76 1918.48 L 1232.10 1918.83 L 1235.43 1919.18 L 1238.77 1919.53 L 1242.10 1919.88 L 1245.44 1920.24 L 1248.77 1920.59 L 1252.11 1920.94 L 1255.44 1921.29 L 1258.78 1921.64 L 1262.11 1921.99 L 1265.45 1922.34 L 1268.78 1922.69 L 1272.12 1923.04 L 1275.45 1923.39 L 1278.79 1923.75 L 1282.12 1924.10 L 1285.46 1924.45 L 1288.79 1924.80 L 1292.13 1925.15 L 1295.46 1925.50 L 1298.80 1925.85 L 1302.13 1926.20 L 1305.47 1926.55 L 1308.80 1926.91 L 1312.13 1927.26 L 1315.47 1927.61 L 1318.80 1927.96 L 1322.14 1928.31 L 1325.47 1928.66 L 1328.81 1929.01 L 1332.14 1929.38 L 1335.46 1929.82 L 1338.78 1930.33 L 1342.09 1930.88 L 1345.39 1931.43 L 1348.70 1931.98 L 1352.01 1932.53 L 1355.32 1933.09 L 1358.62 1933.64 L 1361.93 1934.19 L 1365.24 1934.74 L 1368.55 1935.29 L 1371.86 1935.84 L 1375.16 1936.39 L 1378.47 1936.95 L 1381.78 1937.50 L 1385.09 1938.05 L 1388.39 1938.60 L 1391.70 1939.15 L 1395.01 1939.70 L 1398.32 1940.25 L 1401.63 1940.80 L 1404.93 1941.36 L 1408.24 1941.91 L 1411.55 1942.46 L 1414.86 1943.01 L 1418.16 1943.56 L 1421.47 1944.11 L 1424.78 1944.66 L 1428.09 1945.21 L 1431.40 1945.77 L 1434.70 1946.32 L 1438.01 1946.87 L 1441.32 1947.42 L 1444.63 1947.97 L 1447.93 1948.52 L 1451.24 1949.07 L 1454.55 1949.62 L 1457.86 1950.18 L 1461.16 1950.73 L 1464.47 1951.28 L 1467.78 1951.83 L 1471.09 1952.38 L 1474.40 1952.93 L 1477.70 1953.48 L 1481.01 1954.04 L 1484.32 1954.59 L 1487.63 1955.14 L 1490.93 1955.69 L 1494.24 1956.24 L 1497.55 1956.79 L 1500.86 1957.34 L 1504.16 1957.90 L 1507.46 1958.53 L 1510.73 1959.24 L 1514.00 1960.01 L 1517.26 1960.79 L 1520.52 1961.56 L 1523.78 1962.34 L 1527.05 1963.11 L 1530.31 1963.88 L 1533.57 1964.66 L 1536.83 1965.43 L 1540.10 1966.21 L 1543.36 1966.98 L 1546.62 1967.75 L 1549.89 1968.53 L 1553.15 1969.30 L 1556.41 1970.08 L 1559.67 1970.85 L 1562.94 1971.63 L 1566.20 1972.40 L 1569.46 1973.17 L 1572.73 1973.95 L 1575.99 1974.72 L 1579.25 1975.50 L 1582.51 1976.27 L 1585.78 1977.05 L 1589.04 1977.82 L 1592.30 1978.59 L 1595.56 1979.37 L 1598.83 1980.14 L 1602.09 1980.92 L 1605.35 1981.69 L 1608.62 1982.46 L 1611.88 1983.24 L 1615.14 1984.01 L 1618.40 1984.79 L 1621.67 1985.56 L 1624.93 1986.34 L 1628.19 1987.11 L 1631.46 1987.88 L 1634.72 1988.66 L 1637.98 1989.43 L 1641.24 1990.21 L 1644.51 1990.98 L 1647.77 1991.76 L 1651.03 1992.53 L 1654.29 1993.30 L 1657.56 1994.08 L 1660.82 1994.85 L 1664.08 1995.63 L 1667.35 1996.40 L 1670.61 1997.17 L 1673.87 1997.95 L 1677.13 1998.72 L 1680.40 1999.50 L 1683.66 2000.27 L 1686.92 2001.05 L 1690.18 2001.82 L 1693.45 2002.59 L 1696.71 2003.37 L 1699.97 2004.14 L 1703.24 2004.92 L 1706.50 2005.69 L 1709.76 2006.47 L 1713.02 2007.24 L 1716.29 2008.01 L 1719.55 2008.79 L 1722.81 2009.56 L 1726.08 2010.34 L 1729.34 2011.11 L 1732.60 2011.88 L 1735.86 2012.66 L 1739.13 2013.43 L 1742.39 2014.21 L 1745.65 2014.98 L 1748.91 2015.76 L 1752.18 2016.53 L 1755.44 2017.30 L 1758.70 2018.08 L 1761.97 2018.85 L 1765.23 2019.63 L 1768.49 2020.40 L 1771.75 2021.18 L 1775.02 2021.95 L 1778.28 2022.72 L 1781.54 2023.50 L 1784.81 2024.27 L 1788.05 2025.10 L 1791.24 2026.11 L 1794.36 2027.30 L 1797.44 2028.62 L 1800.53 2029.94 L 1803.61 2031.26 L 1806.69 2032.58 L 1809.77 2033.90 L 1812.85 2035.22 L 1815.94 2036.54 L 1819.02 2037.87 L 1822.10 2039.19 L 1825.18 2040.51 L 1828.27 2041.83 L 1831.35 2043.15 L 1834.43 2044.47 L 1837.51 2045.79 L 1840.60 2047.11 L 1843.68 2048.43 L 1846.76 2049.75 L 1849.84 2051.08 L 1852.92 2052.40 L 1855.96 2053.80 L 1858.90 2055.39 L 1861.74 2057.16 L 1864.53 2059.02 L 1867.32 2060.88 L 1870.11 2062.74 L 1872.90 2064.60 L 1875.69 2066.46 L 1878.48 2068.32 L 1881.27 2070.18 L 1884.06 2072.04 L 1886.85 2073.90 L 1889.64 2075.76 L 1892.43 2077.62 L 1895.22 2079.48 L 1898.01 2081.34 L 1900.80 2083.20 L 1900.80 2088.00 M 942.24 1905.92 L 938.88 1906.24 L 935.52 1906.56 L 932.16 1906.88 L 928.81 1907.20 L 925.45 1907.52 L 922.09 1907.84 L 918.73 1908.16 L 915.37 1908.48 L 912.01 1908.80 L 908.65 1909.12 L 905.29 1909.44 L 901.94 1909.76 L 898.58 1910.08 L 895.22 1910.40 L 891.86 1910.72 L 888.50 1911.04 L 885.14 1911.36 L 881.78 1911.68 L 878.42 1912.00 L 875.07 1912.32 L 871.71 1912.64 L 868.35 1912.96 L 864.99 1913.28 L 861.63 1913.60 L 858.27 1913.92 L 854.91 1914.24 L 851.55 1914.56 L 848.20 1914.88 L 844.84 1915.20 L 841.48 1915.52 L 838.12 1915.84 L 834.76 1916.16 L 831.40 1916.48 L 828.04 1916.80 L 824.68 1917.12 L 821.33 1917.44 L 817.97 1917.76 L 814.61 1918.08 L 811.25 1918.40 L 807.89 1918.72 L 804.53 1919.04 L 801.17 1919.35 L 797.81 1919.67 L 794.46 1919.99 L 791.10 1920.31 L 787.74 1920.63 L 784.38 1920.95 L 781.02 1921.27 L 777.66 1921.59 L 774.30 1921.91 L 770.94 1922.23 L 767.59 1922.55 L 764.23 1922.87 L 760.87 1923.19 L 757.51 1923.51 L 754.15 1923.83 L 750.79 1924.15 L 747.43 1924.47 L 744.09 1924.92 L 740.78 1925.50 L 737.48 1926.21 L 734.18 1926.92 L 730.88 1927.64 L 727.58 1928.35 L 724.29 1929.06 L 720.99 1929.78 L 717.69 1930.49 L 714.39 1931.20 L 711.10 1931.91 L 707.80 1932.63 L 704.50 1933.34 L 701.20 1934.05 L 697.90 1934.77 L 694.61 1935.48 L 691.31 1936.19 L 688.01 1936.91 L 684.71 1937.62 L 681.42 1938.33 L 678.12 1939.04 L 674.82 1939.76 L 671.52 1940.47 L 668.22 1941.18 L 664.93 1941.90 L 661.63 1942.61 L 658.33 1943.32 L 655.03 1944.04 L 651.74 1944.75 L 648.44 1945.46 L 645.14 1946.18 L 641.84 1946.89 L 638.54 1947.60 L 635.25 1948.31 L 631.95 1949.03 L 628.65 1949.74 L 625.35 1950.45 L 622.06 1951.17 L 618.76 1951.88 L 615.46 1952.59 L 612.16 1953.31 L 608.86 1954.02 L 605.57 1954.73 L 602.27 1955.44 L 598.97 1956.16 L 595.67 1956.87 L 592.38 1957.58 L 589.08 1958.30 L 585.78 1959.01 L 582.48 1959.72 L 579.18 1960.44 L 575.89 1961.15 L 572.59 1961.86 L 569.29 1962.54 L 565.97 1962.89 L 562.62 1962.93 L 559.25 1962.69 L 555.89 1962.45 L 552.52 1962.21 L 549.16 1961.97 L 545.79 1961.73 L 542.43 1961.49 L 539.06 1961.25 L 535.70 1961.01 L 532.33 1960.77 L 528.97 1960.53 L 525.60 1960.29 L 522.24 1960.05 L 518.87 1959.80 L 515.50 1959.56 L 512.14 1959.32 L 508.77 1959.08 L 505.41 1958.84 L 502.05 1958.55 L 498.77 1957.95 L 495.55 1957.03 L 492.39 1955.85 L 489.23 1954.66 L 486.07 1953.48 L 482.91 1952.29 L 479.75 1951.11 L 476.60 1949.92 L 473.44 1948.74 L 470.28 1947.55 L 467.12 1946.37 L 463.96 1945.18 M 458.21 1946.16 L 455.62 1948.31 L 453.04 1950.47 L 450.45 1952.63 L 447.86 1954.78 L 445.27 1956.94 L 442.68 1959.10 L 440.10 1961.25 L 437.51 1963.41 L 434.92 1965.57 L 432.33 1967.72 L 429.74 1969.88 L 427.16 1972.04 L 424.57 1974.19 L 421.98 1976.35 L 419.39 1978.51 L 416.80 1980.66 L 414.22 1982.82 L 411.63 1984.98 L 409.04 1987.13 L 406.45 1989.29 L 403.86 1991.45 L 401.27 1993.60 L 398.69 1995.76 L 396.10 1997.92 L 393.51 2000.07 L 390.92 2002.23 L 388.33 2004.39 L 385.75 2006.54 L 383.16 2008.70 L 380.57 2010.86 L 377.98 2013.01 L 375.39 2015.17 L 372.81 2017.33 L 370.22 2019.48 L 367.63 2021.64 L 365.04 2023.80 L 362.45 2025.95 L 359.87 2028.11 L 357.28 2030.27 L 354.69 2032.42 L 352.10 2034.58 L 349.51 2036.74 L 346.93 2038.89 L 344.34 2041.05 L 341.75 2043.21 L 339.16 2045.37 L 336.57 2047.52 L 333.99 2049.68 L 331.40 2051.84 L 328.81 2053.99 L 326.22 2056.15 L 323.63 2058.31 L 321.05 2060.46 L 318.48 2062.65 L 315.99 2064.90 L 313.56 2067.24 L 311.18 2069.62 L 308.80 2072.00 L 306.41 2074.39 L 304.03 2076.77 L 301.65 2079.15 L 299.27 2081.53 L 296.89 2083.91 L 294.50 2086.30 L 292.12 2088.68 L 289.74 2091.06 L 287.36 2093.44 L 284.98 2095.82 L 282.59 2098.21 L 280.21 2100.59 L 277.83 2102.97 L 275.45 2105.35 L 273.06 2107.74 L 270.68 2110.12 L 268.30 2112.50 L 265.92 2114.88 L 263.54 2117.26 L 261.15 2119.65 L 258.77 2122.03 L 256.39 2124.41 L 254.01 2126.79 L 251.63 2129.17 L 249.24 2131.56 L 246.86 2133.94 L 244.48 2136.32 L 242.10 2138.70 L 239.71 2141.09 L 237.33 2143.47 L 234.95 2145.85 L 232.57 2148.23 L 230.19 2150.61 L 227.80 2153.00 L 225.42 2155.38 L 223.04 2157.76 L 220.66 2160.14 L 218.28 2162.52 L 215.89 2164.91 L 213.51 2167.29 L 211.13 2169.67 L 208.75 2172.05 L 206.36 2174.44 L 203.98 2176.82 M 279.88 1095.14 L 276.55 1095.88 L 273.23 1096.62 L 269.91 1097.35 L 266.58 1098.09 L 263.26 1098.83 L 259.94 1099.57 L 256.61 1100.31 L 253.29 1101.05 L 249.97 1101.79 L 246.64 1102.52 L 243.32 1103.26 L 239.98 1103.61 L 236.62 1103.58 L 233.24 1103.15 L 229.86 1102.73 L 226.48 1102.31 L 223.10 1101.89 L 219.73 1101.47 L 216.35 1101.04 L 212.97 1100.62 L 209.59 1100.20 L 206.21 1099.78 L 202.84 1099.53 L 199.46 1099.56 L 196.08 1099.86 L 192.69 1100.26 L 189.31 1100.66 L 185.93 1101.07 L 182.55 1101.47 L 179.17 1101.87 L 175.79 1102.27 L 172.41 1102.67 L 169.03 1103.08 L 165.65 1103.48 L 162.27 1103.88 L 158.89 1104.28 L 155.51 1104.69 L 152.13 1105.09 L 148.75 1105.49 L 145.37 1105.89 L 141.99 1106.30 L 138.60 1106.70 L 135.22 1107.10 L 131.84 1107.50 L 128.46 1107.91 L 125.08 1108.31 L 121.70 1108.71 L 118.32 1109.11 L 114.94 1109.52 L 111.56 1109.92 L 108.18 1110.32 L 104.80 1110.72 L 101.42 1111.13 L 98.04 1111.53 L 94.66 1111.93 L 91.28 1112.33 L 87.90 1112.74 L 84.52 1113.14 L 81.13 1113.54 L 77.75 1113.94 L 74.37 1114.35 L 70.99 1114.75 L 67.61 1115.15 L 64.23 1115.55 L 60.85 1115.96 L 57.47 1116.36 L 54.09 1116.76 L 50.71 1117.16 L 47.33 1117.57 L 43.95 1117.97 L 40.57 1118.37 L 37.19 1118.77 L 33.81 1119.18 L 30.43 1119.58 L 27.04 1119.98 L 23.66 1120.38 L 20.28 1120.79 L 16.90 1121.19 L 13.52 1121.59 L 10.14 1121.99 L 6.76 1122.40 L 3.38 1122.80" fill='none' stroke='#000000' stroke-opacity='0.5' stroke-width='182.65' stroke-linecap='round' stroke-linejoin='round' stroke-miterlimit='1'/>
</svg>
