<svg xmlns='http://www.w3.org/2000/svg' width='7680' height='4320' viewBox='0 0 7680 4320'>
<path d="M 3964.17 3244.87 L 3968.35 3244.94 L 3972.52 3245.01 L 3976.69 3245.07 L 3980.87 3245.14 L 3985.04 3245.21 L 3989.22 3245.28 L 3993.39 3245.35 L 3997.56 3245.42 L 4001.74 3245.48 L 4005.91 3245.55 L 4010.08 3245.62 L 4014.26 3245.69 L 4018.43 3245.76 L 4022.61 3245.83 L 4026.78 3245.89 L 4030.95 3245.96 L 4035.13 3246.03 L 4039.30 3246.10 L 4043.47 3246.17 L 4047.65 3246.24 L 4051.82 3246.31 L 4056.00 3246.37 L 4060.17 3246.44 L 4064.34 3246.51 L 4068.52 3246.58 L 4072.69 3246.65 L 4076.86 3246.72 L 4081.04 3246.78 L 4085.21 3246.85 L 4089.39 3246.92 L 4093.56 3246.99 L 4097.73 3247.06 L 4101.91 3247.13 L 4106.08 3247.19 L 4110.25 3247.26 L 4114.43 3247.33 L 4118.60 3247.40 L 4122.78 3247.47 L 4126.95 3247.54 L 4131.12 3247.61 L 4135.30 3247.67 L 4139.47 3247.74 L 4143.64 3247.81 L 4147.82 3247.88 L 4151.99 3247.95 L 4156.17 3248.02 L 4160.34 3248.08 L 4164.51 3248.15 L 4168.69 3248.22 L 4172.86 3248.29 L 4177.03 3248.36 L 4181.21 3248.43 L 4185.38 3248.49 L 4189.56 3248.56 L 4193.73 3248.63 L 4197.90 3248.70 L 4202.08 3248.77 L 4206.25 3248.84 L 4210.42 3248.91 L 4214.60 3248.97 L 4218.77 3249.04 L 4222.95 3249.11 L 4227.12 3249.18 L 4231.29 3249.25 L 4235.47 3249.32 L 4239.64 3249.38 L 4243.81 3249.45 L 4247.99 3249.52 L 4252.15 3249.71 L 4256.31 3250.03 L 4260.46 3250.49 L 4264.61 3250.97 L 4268.75 3251.45 L 4272.90 3251.93 L 4277.05 3252.41 L 4281.19 3252.89 L 4285.34 3253.37 L 4289.49 3253.85 L 4293.63 3254.33 L 4297.78 3254.81 L 4301.93 3255.29 L 4306.07 3255.77 L 4310.22 3256.25 L 4314.37 3256.73 L 4318.51 3257.21 L 4322.66 3257.69 L 4326.81 3258.17 L 4330.95 3258.65 L 4335.10 3259.13 L 4339.24 3259.61 L 4343.39 3260.09 L 4347.54 3260.57 L 4351.68 3261.05 L 4355.83 3261.53 L 4359.98 3262.01 L 4364.12 3262.49 L 4368.27 3262.97 L 4372.42 3263.45 L 4376.56 3263.93 L 4380.71 3264.41 L 4384.86 3264.89 L 4389.00 3265.37 L 4393.15 3265.85 L 4397.30 3266.33 L 4401.44 3266.81 L 4405.59 3267.29 L 4409.74 3267.77 L 4413.88 3268.25 L 4418.03 3268.73 L 4422.18 3269.21 L 4426.32 3269.69 L 4430.47 3270.17 L 4434.62 3270.65 L 4438.76 3271.13 L 4442.91 3271.61 L 4447.06 3272.09 L 4451.20 3272.57 L 4455.35 3273.05 L 4459.50 3273.53 L 4463.64 3274.01 L 4467.79 3274.49 L 4471.94 3274.97 L 4476.08 3275.45 L 4480.23 3275.93 L 4484.38 3276.41 L 4488.52 3276.89 L 4492.67 3277.37 L 4496.82 3277.85 L 4500.96 3278.33 L 4505.11 3278.81 L 4509.26 3279.29 L 4513.40 3279.77 L 4517.55 3280.26 L 4521.70 3280.74 L 4525.84 3281.22 L 4529.99 3281.70 L 4534.14 3282.18 L 4538.28 3282.66 L 4542.43 3283.14 L 4546.58 3283.62 L 4550.72 3284.10 L 4554.87 3284.58 L 4559.01 3285.06 L 4563.16 3285.54 L 4567.31 3286.02 L 4571.45 3286.50 L 4575.60 3286.98 L 4579.75 3287.46 L 4583.89 3287.94 L 4588.04 3288.42 L 4592.19 3288.90 L 4596.33 3289.38 L 4600.48 3289.86 L 4604.63 3290.34 L 4608.77 3290.82 L 4612.92 3291.30 L 4617.07 3291.78 L 4621.21 3292.26 L 4625.36 3292.74 L 4629.51 3293.22 L 4633.65 3293.70 L 4637.80 3294.18 L 4641.95 3294.66 L 4646.09 3295.14 L 4650.24 3295.62 L 4654.39 3296.10 L 4658.53 3296.58 L 4662.68 3297.06 L 4666.83 3297.54 L 4670.97 3298.02 L 4675.12 3298.50 L 4679.27 3298.98 L 4683.41 3299.46 L 4687.56 3299.94 L 4691.71 3300.42 L 4695.85 3300.90 L 4700.00 3301.38 L 4704.15 3301.86 L 4708.28 3302.40 L 4712.41 3303.02 L 4716.53 3303.70 L 4720.64 3304.40 L 4724.76 3305.09 L 4728.88 3305.78 L 4732.99 3306.48 L 4737.11 3307.17 L 4741.23 3307.87 L 4745.34 3308.56 L 4749.46 3309.25 L 4753.58 3309.95 L 4757.69 3310.64 L 4761.81 3311.33 L 4765.92 3312.03 L 4770.04 3312.72 L 4774.16 3313.42 L 4778.27 3314.11 L 4782.39 3314.80 L 4786.51 3315.50 L 4790.62 3316.19 L 4794.74 3316.88 L 4798.85 3317.58 L 4802.97 3318.27 L 4807.09 3318.97 L 4811.20 3319.66 L 4815.32 3320.35 L 4819.44 3321.05 L 4823.55 3321.74 L 4827.67 3322.43 L 4831.78 3323.13 L 4835.90 3323.82 L 4840.02 3324.52 L 4844.13 3325.21 L 4848.25 3325.90 L 4852.37 3326.60 L 4856.48 3327.29 L 4860.60 3327.98 L 4864.71 3328.68 L 4868.83 3329.37 L 4872.95 3330.07 L 4877.06 3330.76 L 4881.18 3331.45 L 4885.30 3332.15 L 4889.41 3332.84 L 4893.53 3333.53 L 4897.64 3334.23 L 4901.76 3334.92 L 4905.88 3335.62 L 4909.99 3336.31 L 4914.11 3337.00 L 4918.23 3337.70 L 4922.34 3338.39 L 4926.46 3339.08 L 4930.57 3339.78 L 4934.69 3340.47 L 4938.81 3341.17 L 4942.92 3341.86 L 4947.04 3342.55 L 4951.16 3343.25 L 4955.27 3343.94 L 4959.39 3344.63 L 4963.50 3345.33 L 4967.62 3346.02 L 4971.74 3346.72 L 4975.85 3347.41 L 4979.97 3348.10 L 4984.09 3348.80 L 4988.20 3349.49 L 4992.32 3350.18 L 4996.43 3350.88 L 5000.55 3351.57 L 5004.67 3352.27 L 5008.78 3352.96 L 5012.90 3353.65 L 5017.02 3354.35 L 5021.13 3355.04 L 5025.25 3355.73 L 5029.36 3356.43 L 5033.48 3357.12 L 5037.60 3357.82 L 5041.71 3358.51 L 5045.83 3359.20 L 5049.95 3359.90 L 5054.06 3360.59 L 5058.18 3361.28 L 5062.29 3361.98 L 5066.41 3362.67 L 5070.53 3363.37 L 5074.64 3364.06 L 5078.76 3364.75 L 5082.88 3365.45 L 5086.99 3366.14 L 5091.11 3366.83 L 5095.22 3367.53 L 5099.34 3368.22 L 5103.46 3368.92 L 5107.57 3369.61 L 5111.69 3370.30 L 5115.81 3371.00 L 5119.92 3371.69 L 5124.04 3372.38 L 5128.15 3373.08 L 5132.27 3373.77 L 5136.38 3374.51 L 5140.48 3375.28 L 5144.58 3376.08 L 5148.67 3376.88 L 5152.77 3377.68 L 5156.87 3378.49 L 5160.96 3379.29 L 5165.06 3380.09 L 5169.16 3380.89 L 5173.25 3381.69 L 5177.35 3382.50 L 5181.45 3383.30 L 5185.54 3384.10 L 5189.64 3384.90 L 5193.74 3385.70 L 5197.83 3386.51 L 5201.93 3387.31 L 5206.03 3388.11 L 5210.12 3388.91 L 5214.22 3389.72 L 5218.32 3390.52 L 5222.41 3391.32 L 5226.51 3392.12 L 5230.60 3392.92 L 5234.70 3393.73 L 5238.80 3394.53 L 5242.89 3395.33 L 5246.99 3396.13 L 5251.09 3396.93 L 5255.18 3397.74 L 5259.28 3398.54 L 5263.38 3399.34 L 5267.47 3400.14 L 5271.57 3400.95 L 5275.67 3401.75 L 5279.76 3402.55 L 5283.86 3403.35 L 5287.96 3404.15 L 5292.05 3404.96 L 5296.15 3405.76 L 5300.25 3406.56 L 5304.34 3407.36 L 5308.44 3408.16 L 5312.53 3408.97 L 5316.63 3409.77 L 5320.73 3410.57 L 5324.82 3411.37 L 5328.92 3412.17 L 5333.02 3412.98 L 5337.11 3413.78 L 5341.21 3414.58 L 5345.31 3415.38 L 5349.40 3416.19 L 5353.50 3416.99 L 5357.60 3417.79 L 5361.69 3418.59 L 5365.79 3419.39 L 5369.89 3420.20 L 5373.98 3421.00 L 5378.08 3421.80 L 5382.18 3422.60 L 5386.27 3423.40 L 5390.37 3424.21 L 5394.47 3425.01 L 5398.56 3425.81 L 5402.66 3426.61 L 5406.75 3427.41 L 5410.85 3428.22 L 5414.95 3429.02 L 5419.04 3429.82 L 5423.14 3430.62 L 5427.24 3431.43 L 5431.33 3432.23 L 5435.43 3433.03 L 5439.53 3433.83 L 5443.62 3434.63 L 5447.72 3435.44 L 5451.82 3436.24 L 5455.91 3437.04 L 5460.01 3437.84 L 5464.11 3438.64 L 5468.20 3439.45 L 5472.30 3440.25 L 5476.40 3441.05 L 5480.49 3441.85 L 5484.59 3442.66 L 5488.69 3443.46 L 5492.78 3444.26 L 5496.88 3445.06 L 5500.97 3445.86 L 5505.07 3446.67 L 5509.17 3447.47 L 5513.26 3448.27 L 5517.36 3449.07 L 5521.46 3449.87 L 5525.55 3450.68 L 5529.65 3451.48 L 5533.75 3452.28 L 5537.84 3453.08 L 5541.94 3453.88 L 5546.04 3454.69 L 5550.13 3455.49 L 5554.23 3456.29 L 5558.33 3457.09 L 5562.42 3457.90 L 5566.52 3458.70 L 5570.62 3459.50 L 5574.71 3460.30 L 5578.81 3461.10 L 5582.90 3461.91 L 5587.00 3462.71 L 5591.10 3463.51 L 5595.19 3464.31 L 5599.29 3465.11 L 5603.39 3465.92 L 5607.48 3466.72 L 5611.58 3467.52 L 5615.68 3468.32 L 5619.77 3469.12 L 5623.87 3469.93 L 5627.97 3470.73 L 5632.06 3471.53 L 5636.16 3472.33 L 5640.26 3473.14 L 5644.35 3473.94 L 5648.45 3474.74 L 5652.55 3475.54 L 5656.64 3476.34 L 5660.74 3477.15 L 5664.84 3477.95 L 5668.93 3478.75 L 5673.03 3479.55 L 5677.12 3480.35 L 5681.22 3481.16 L 5685.32 3481.96 L 5689.41 3482.76 L 5693.51 3483.56 L 5697.61 3484.37 L 5701.70 3485.17 L 5705.80 3485.97 L 5709.90 3486.77 L 5713.99 3487.57 L 5718.09 3488.38 L 5722.19 3489.18 L 5726.28 3489.98 L 5730.38 3490.78 L 5734.48 3491.58 L 5738.57 3492.39 L 5742.67 3493.19 L 5746.77 3493.99 L 5750.86 3494.79 L 5754.96 3495.59 L 5759.06 3496.40 L 5763.15 3497.20 L 5767.25 3498.00 L 5771.34 3498.80 L 5775.44 3499.61 L 5779.54 3500.41 L 5783.63 3501.21 L 5787.73 3502.01 L 5791.83 3502.81 L 5795.92 3503.62 L 5800.02 3504.42 L 5804.12 3505.22 L 5808.21 3506.02 L 5812.31 3506.82 L 5816.41 3507.63 L 5820.51 3508.41 L 5824.62 3509.14 L 5828.73 3509.84 L 5832.85 3510.51 L 5836.97 3511.18 L 5841.09 3511.86 L 5845.21 3512.53 L 5849.33 3513.21 L 5853.45 3513.88 L 5857.57 3514.55 L 5861.69 3515.23 L 5865.81 3515.90 L 5869.93 3516.58 L 5874.05 3517.25 L 5878.17 3517.93 L 5882.29 3518.60 L 5886.40 3519.27 L 5890.52 3519.95 L 5894.64 3520.62 L 5898.76 3521.30 L 5902.88 3521.97 L 5907.00 3522.64 L 5911.12 3523.32 L 5915.24 3523.99 L 5919.36 3524.67 L 5923.48 3525.34 L 5927.60 3526.01 L 5931.72 3526.69 L 5935.84 3527.36 L 5939.96 3528.04 L 5944.08 3528.71 L 5948.20 3529.39 L 5952.32 3530.06 L 5956.44 3530.73 L 5960.56 3531.41 L 5964.68 3532.08 L 5968.79 3532.76 L 5972.91 3533.43 L 5977.03 3534.10 L 5981.15 3534.78 L 5985.27 3535.45 L 5989.39 3536.13 L 5993.51 3536.80 L 5997.63 3537.47 L 6001.75 3538.15 L 6005.87 3538.82 L 6009.99 3539.50 L 6014.11 3540.17 L 6018.23 3540.84 L 6022.35 3541.52 L 6026.47 3542.19 L 6030.59 3542.87 L 6034.71 3543.54 L 6038.83 3544.22 L 6042.95 3544.89 L 6047.07 3545.56 L 6051.19 3546.24 L 6055.30 3546.91 L 6059.42 3547.59 L 6063.54 3548.26 L 6067.66 3548.93 L 6071.78 3549.61 L 6075.90 3550.28 L 6080.02 3550.96 L 6084.10 3551.76 L 6088.11 3552.86 L 6092.03 3554.25 L 6095.90 3555.80 L 6099.78 3557.35 L 6103.65 3558.90 L 6107.55 3560.37 L 6111.53 3561.54 L 6115.60 3562.39 L 6119.72 3563.02 L 6123.85 3563.65 L 6127.98 3564.29 L 6132.10 3564.92 L 6136.23 3565.55 L 6140.36 3566.18 L 6144.48 3566.81 L 6148.61 3567.44 L 6152.73 3568.07 L 6156.86 3568.70 L 6160.99 3569.33 L 6165.11 3569.96 L 6169.24 3570.59 L 6173.37 3571.22 L 6177.49 3571.85 L 6181.62 3572.48 L 6185.75 3573.11 L 6189.87 3573.74 L 6194.00 3574.37 L 6198.13 3575.00 L 6202.25 3575.63 L 6206.38 3576.26 L 6210.50 3576.89 L 6214.63 3577.52 L 6218.76 3578.15 L 6222.88 3578.79 L 6227.01 3579.42 L 6231.14 3580.05 L 6235.26 3580.68 L 6239.39 3581.31 L 6243.52 3581.94 L 6247.64 3582.57 L 6251.77 3583.20 L 6255.90 3583.83 L 6260.02 3584.46 L 6264.15 3585.09 L 6268.27 3585.72 L 6272.40 3586.35 L 6276.53 3586.98 L 6280.65 3587.61 L 6284.78 3588.24 L 6288.91 3588.87 L 6293.03 3589.50 L 6297.16 3590.13 L 6301.29 3590.76 L 6305.41 3591.39 L 6309.54 3592.02 L 6313.67 3592.65 L 6317.79 3593.28 L 6321.92 3593.92 L 6326.04 3594.55 L 6330.17 3595.18 L 6334.30 3595.81 L 6338.42 3596.44 L 6342.55 3597.07 L 6346.68 3597.70 L 6350.80 3598.33 L 6354.93 3598.96 L 6359.06 3599.59 L 6363.18 3600.22 L 6367.31 3600.85 L 6371.44 3601.48 L 6375.56 3602.11 L 6379.69 3602.74 L 6383.81 3603.37 L 6387.94 3604.00 L 6392.07 3604.63 L 6396.19 3605.26 L 6400.32 3605.89 L 6404.45 3606.52 L 6408.57 3607.15 L 6412.70 3607.78 L 6416.83 3608.42 L 6420.95 3609.05 L 6425.08 3609.68 L 6429.21 3610.31 L 6433.33 3610.94 L 6437.46 3611.57 L 6441.58 3612.20 L 6445.71 3612.83 L 6449.84 3613.46 L 6453.96 3614.09 L 6458.09 3614.72 L 6462.22 3615.35 L 6466.34 3615.98 L 6470.47 3616.61 L 6474.60 3617.24 L 6478.72 3617.87 L 6482.85 3618.50 L 6486.98 3619.13 L 6491.10 3619.76 L 6495.23 3620.39 L 6499.35 3621.02 L 6503.48 3621.65 L 6507.61 3622.28 L 6511.73 3622.91 L 6515.86 3623.55 L 6519.99 3624.18 L 6524.11 3624.81 L 6528.24 3625.44 L 6532.37 3626.07 L 6536.49 3626.70 L 6540.62 3627.33 L 6544.75 3627.96 L 6548.87 3628.59 L 6553.00 3629.22 L 6557.12 3629.85 L 6561.25 3630.48 L 6565.38 3631.11 L 6569.50 3631.74 L 6573.63 3632.37 L 6577.76 3633.00 L 6581.88 3633.63 L 6586.01 3634.26 L 6590.14 3634.89 L 6594.26 3635.52 L 6598.39 3636.15 L 6602.51 3636.78 L 6606.64 3637.41 L 6610.77 3638.05 L 6614.89 3638.68 L 6619.02 3639.31 L 6623.15 3639.94 L 6627.27 3640.57 L 6631.40 3641.20 L 6635.53 3641.83 L 6639.65 3642.46 L 6643.78 3643.09 L 6647.91 3643.72 L 6652.03 3644.35 L 6656.16 3644.98 L 6660.28 3645.61 L 6664.41 3646.24 L 6668.54 3646.87 L 6672.66 3647.50 L 6676.79 3648.13 L 6680.92 3648.76 L 6685.04 3649.39 L 6689.17 3650.02 L 6693.30 3650.65 L 6697.42 3651.28 L 6701.55 3651.91 L 6705.68 3652.54 L 6709.80 3653.18 L 6713.93 3653.81 L 6718.05 3654.44 L 6722.18 3655.07 L 6726.31 3655.70 L 6730.43 3656.33 L 6734.56 3656.96 L 6738.69 3657.59 L 6742.81 3658.22 L 6746.94 3658.85 L 6751.07 3659.48 L 6755.19 3660.11 L 6759.32 3660.74 L 6763.45 3661.37 L 6767.57 3662.00 L 6771.70 3662.63 L 6775.82 3663.26 L 6779.95 3663.89 L 6784.08 3664.52 L 6788.20 3665.15 L 6792.33 3665.78 L 6796.46 3666.41 L 6800.59 3666.99 L 6804.73 3667.51 L 6808.88 3667.95 L 6813.03 3668.38 L 6817.19 3668.81 L 6821.34 3669.24 L 6825.49 3669.67 L 6829.64 3670.10 L 6833.79 3670.53 L 6837.95 3670.96 L 6842.10 3671.39 L 6846.25 3671.82 L 6850.40 3672.25 L 6854.56 3672.68 L 6858.71 3673.11 L 6862.86 3673.54 L 6867.01 3673.97 L 6871.16 3674.40 L 6875.32 3674.83 L 6879.47 3675.26 L 6883.62 3675.68 L 6887.77 3676.11 L 6891.92 3676.54 L 6896.08 3676.97 L 6900.23 3677.40 L 6904.38 3677.83 L 6908.53 3678.26 L 6912.69 3678.69 L 6916.84 3679.12 L 6920.99 3679.55 L 6925.14 3679.98 L 6929.29 3680.41 L 6933.45 3680.84 L 6937.60 3681.27 L 6941.75 3681.70 L 6945.90 3682.13 L 6950.05 3682.56 L 6954.21 3682.99 L 6958.36 3683.42 L 6962.51 3683.85 L 6966.66 3684.28 L 6970.82 3684.71 L 6974.97 3685.13 L 6979.12 3685.56 L 6983.27 3685.99 L 6987.42 3686.42 L 6991.58 3686.85 L 6995.73 3687.28 L 6999.88 3687.71 L 7004.03 3688.14 L 7008.18 3688.57 L 7012.34 3689.00 L 7016.49 3689.43 L 7020.64 3689.86 L 7024.79 3690.29 L 7028.95 3690.72 L 7033.10 3691.15 L 7037.25 3691.58 L 7041.40 3692.01 L 7045.55 3692.44 L 7049.71 3692.87 L 7053.86 3693.30 L 7058.01 3693.73 L 7062.16 3694.15 L 7066.31 3694.58 L 7070.47 3695.01 L 7074.62 3695.44 L 7078.77 3695.83 L 7082.93 3696.17 L 7087.10 3696.45 L 7091.26 3696.72 L 7095.43 3696.98 L 7099.60 3697.25 L 7103.76 3697.52 L 7107.93 3697.78 L 7112.09 3698.05 L 7116.26 3698.31 L 7120.43 3698.58 L 7124.59 3698.85 L 7128.76 3699.11 L 7132.92 3699.38 L 7137.09 3699.64 L 7141.25 3699.91 L 7145.42 3700.18 L 7149.59 3700.44 L 7153.75 3700.71 L 7157.92 3700.97 L 7162.08 3701.24 L 7166.25 3701.51 L 7170.42 3701.77 L 7174.58 3702.04 L 7178.75 3702.30 L 7182.91 3702.57 L 7187.08 3702.83 L 7191.24 3703.10 L 7195.41 3703.37 L 7199.58 3703.63 L 7203.74 3703.90 L 7207.91 3704.16 L 7212.07 3704.43 L 7216.24 3704.70 L 7220.41 3704.96 L 7224.57 3705.23 L 7228.74 3705.49 L 7232.90 3705.76 L 7237.07 3706.03 L 7241.23 3706.29 L 7245.40 3706.56 L 7249.57 3706.82 L 7253.73 3707.09 L 7257.90 3707.36 L 7262.06 3707.62 L 7266.23 3707.89 L 7270.40 3708.15 L 7274.56 3708.42 L 7278.73 3708.68 L 7282.89 3708.95 L 7287.06 3709.22 L 7291.22 3709.48 L 7295.39 3709.75 L 7299.56 3710.01 L 7303.72 3710.22 L 7307.89 3710.32 L 7312.07 3710.32 L 7316.24 3710.26 L 7320.41 3710.21 L 7324.59 3710.15 L 7328.76 3710.10 L 7332.94 3710.04 L 7337.11 3709.99 L 7341.28 3709.94 L 7345.46 3709.88 L 7349.63 3709.83 L 7353.81 3709.77 L 7357.98 3709.72 L 7362.15 3709.67 L 7366.33 3709.61 L 7370.50 3709.56 L 7374.68 3709.50 L 7378.85 3709.45 L 7383.02 3709.39 L 7387.20 3709.34 L 7391.37 3709.29 L 7395.55 3709.23 L 7399.72 3709.18 L 7403.89 3709.12 L 7408.07 3709.07 L 7412.24 3709.02 L 7416.41 3708.96 L 7420.59 3708.91 L 7424.76 3708.85 L 7428.94 3708.80 L 7433.11 3708.74 L 7437.28 3708.69 L 7441.46 3708.64 L 7445.63 3708.58 L 7449.81 3708.53 L 7453.98 3708.47 L 7458.15 3708.42 L 7462.33 3708.36 L 7466.50 3708.31 L 7470.68 3708.26 L 7474.85 3708.20 L 7479.02 3708.15 L 7483.20 3708.09 L 7487.37 3708.04 L 7491.55 3707.99 L 7495.72 3707.93 L 7499.89 3707.88 L 7504.07 3707.82 L 7508.24 3707.77 L 7512.42 3707.71 L 7516.59 3707.66 L 7520.76 3707.61 L 7524.94 3707.55 L 7529.11 3707.50 L 7533.29 3707.44 L 7537.46 3707.39 L 7541.63 3707.33 L 7545.81 3707.28 L 7549.98 3707.23 L 7554.16 3707.17 L 7558.33 3707.12 L 7562.50 3707.06 L 7566.68 3707.01 L 7570.85 3706.96 L 7575.03 3706.90 L 7579.20 3706.85 L 7583.37 3706.79 L 7587.55 3706.74 L 7591.72 3706.68 L 7595.89 3706.63 L 7600.07 3706.58 L 7604.24 3706.52 L 7608.42 3706.47 L 7612.59 3706.41 L 7616.76 3706.36 L 7620.94 3706.30 L 7625.11 3706.25 L 7629.29 3706.20 L 7633.46 3706.14 L 7637.63 3706.09 L 7641.81 3706.03 L 7645.98 3705.98 L 7650.16 3705.93 L 7654.33 3705.87 L 7658.50 3705.82 L 7662.68 3705.76 L 7666.85 3705.71 L 7671.03 3705.65 M 3.96 3015.39 L 7.91 3016.38 L 11.87 3017.37 L 15.83 3018.36 L 19.79 3019.35 L 23.74 3020.34 L 27.70 3021.32 L 31.66 3022.31 L 35.61 3023.30 L 39.57 3024.29 L 43.53 3025.28 L 47.48 3026.27 L 51.44 3027.26 L 55.40 3028.25 L 59.36 3029.24 L 63.31 3030.23 L 67.27 3031.22 L 71.23 3032.21 L 75.18 3033.20 L 79.14 3034.19 L 83.10 3035.17 L 87.05 3036.16 L 91.01 3037.15 L 94.97 3038.14 L 98.93 3039.13 L 102.88 3040.12 L 106.84 3041.11 L 110.80 3042.10 L 114.75 3043.09 L 118.71 3044.08 L 122.67 3045.07 L 126.62 3046.06 L 130.58 3047.05 L 134.54 3048.03 L 138.50 3049.02 L 142.45 3050.01 L 146.41 3051.00 L 150.36 3052.01 L 154.28 3053.13 L 158.16 3054.36 L 162.02 3055.69 L 165.88 3057.01 L 169.74 3058.33 L 173.60 3059.65 L 177.46 3060.97 L 181.32 3062.30 L 185.17 3063.62 L 189.03 3064.94 L 192.89 3066.26 L 196.75 3067.58 L 200.61 3068.91 L 204.47 3070.23 L 208.33 3071.55 L 212.19 3072.87 L 216.04 3074.19 L 219.90 3075.51 L 223.76 3076.84 L 227.62 3078.16 L 231.48 3079.48 L 235.34 3080.80 L 239.20 3082.12 L 243.05 3083.45 L 246.91 3084.77 L 250.77 3086.09 L 254.63 3087.41 L 258.49 3088.73 L 262.35 3090.06 L 266.21 3091.38 L 270.06 3092.70 L 273.92 3094.02 L 277.78 3095.34 L 281.64 3096.67 L 285.50 3097.99 L 289.36 3099.31 L 293.22 3100.63 L 297.08 3101.95 L 300.93 3103.28 L 304.79 3104.60 L 308.65 3105.92 L 312.51 3107.24 L 316.37 3108.56 L 320.23 3109.89 L 324.09 3111.21 L 327.94 3112.53 L 331.80 3113.85 L 335.66 3115.17 L 339.52 3116.49 L 343.38 3117.82 L 347.24 3119.14 L 351.10 3120.46 L 354.95 3121.78 L 358.81 3123.10 L 362.67 3124.43 L 366.53 3125.75 L 370.39 3127.07 L 374.25 3128.39 L 378.11 3129.71 L 381.97 3131.04 L 385.82 3132.36 L 389.68 3133.68 L 393.54 3135.00 L 397.40 3136.32 L 401.26 3137.65 L 405.12 3138.97 L 408.98 3140.29 L 412.83 3141.61 L 416.69 3142.93 L 420.55 3144.26 L 424.41 3145.58 L 428.27 3146.90 L 432.13 3148.22 L 435.99 3149.54 L 439.85 3150.87 L 443.70 3152.19 L 447.56 3153.51 L 451.42 3154.83 L 455.28 3156.15 L 459.14 3157.48 L 463.00 3158.80 L 466.86 3160.12 L 470.71 3161.44 L 474.57 3162.76 L 478.43 3164.08 L 482.29 3165.41 L 486.15 3166.73 L 490.01 3168.05 L 493.87 3169.37 L 497.72 3170.69 L 501.58 3172.02 L 505.44 3173.34 L 509.30 3174.66 L 513.16 3175.98 L 517.02 3177.30 L 520.88 3178.63 L 524.74 3179.95 L 528.59 3181.27 L 532.45 3182.59 L 536.31 3183.91 L 540.17 3185.24 L 544.03 3186.56 L 547.89 3187.88 L 551.75 3189.20 L 555.60 3190.52 L 559.46 3191.85 L 563.32 3193.17 L 567.18 3194.49 L 571.04 3195.81 L 574.90 3197.13 L 578.76 3198.46 L 582.61 3199.78 L 586.47 3201.10 L 590.33 3202.42 L 594.19 3203.74 L 598.05 3205.07 L 601.91 3206.39 L 605.77 3207.71 L 609.63 3209.03 L 613.48 3210.35 L 617.34 3211.67 L 621.20 3213.00 L 625.06 3214.32 L 628.92 3215.64 L 632.78 3216.96 L 636.64 3218.28 L 640.49 3219.61 L 644.35 3220.93 L 648.21 3222.25 L 652.07 3223.57 L 655.93 3224.89 L 659.79 3226.22 L 663.65 3227.54 L 667.50 3228.86 L 671.38 3230.13 L 675.27 3231.34 L 679.19 3232.48 L 683.11 3233.62 L 687.03 3234.75 L 690.94 3235.88 L 694.86 3237.02 L 698.78 3238.15 L 702.70 3239.29 L 706.62 3240.42 L 710.53 3241.55 L 714.45 3242.69 L 718.37 3243.82 L 722.29 3244.96 L 726.20 3246.09 L 730.12 3247.23 L 734.04 3248.36 L 737.96 3249.49 L 741.88 3250.63 L 745.79 3251.76 L 749.71 3252.90 L 753.63 3254.03 L 757.55 3255.16 L 761.47 3256.30 L 765.38 3257.43 L 769.30 3258.57 L 773.22 3259.70 L 777.14 3260.83 L 781.06 3261.97 L 784.97 3263.10 L 788.89 3264.24 L 792.81 3265.37 L 796.73 3266.51 L 800.65 3267.64 L 804.56 3268.77 L 808.48 3269.91 L 812.40 3271.04 L 816.32 3272.18 L 820.24 3273.31 L 824.15 3274.44 L 828.07 3275.58 L 831.99 3276.71 L 835.91 3277.85 L 839.83 3278.98 L 843.74 3280.12 L 847.66 3281.25 L 851.58 3282.36 L 855.53 3283.41 L 859.49 3284.38 L 863.46 3285.31 L 867.43 3286.23 L 871.40 3287.15 L 875.38 3288.08 L 879.35 3289.00 L 883.32 3289.93 L 887.29 3290.85 L 891.27 3291.77 L 895.24 3292.70 L 899.21 3293.62 L 903.19 3294.55 L 907.16 3295.47 L 911.13 3296.39 L 915.10 3297.32 L 919.08 3298.24 L 923.05 3299.17 L 927.02 3300.09 L 931.00 3301.01 L 934.97 3301.94 L 938.94 3302.86 L 942.91 3303.78 L 946.89 3304.71 L 950.86 3305.63 L 954.83 3306.56 L 958.81 3307.48 L 962.78 3308.40 L 966.75 3309.33 L 970.72 3310.25 L 974.70 3311.18 L 978.67 3312.10 L 982.64 3313.02 L 986.61 3313.95 L 990.59 3314.87 L 994.56 3315.80 L 998.53 3316.72 L 1002.51 3317.64 L 1006.48 3318.57 L 1010.45 3319.49 L 1014.42 3320.41 L 1018.40 3321.34 L 1022.37 3322.26 L 1026.34 3323.19 L 1030.32 3324.11 L 1034.29 3325.03 L 1038.26 3325.96 L 1042.23 3326.88 L 1046.21 3327.81 L 1050.18 3328.73 L 1054.15 3329.65 L 1058.13 3330.54 L 1062.13 3331.30 L 1066.16 3331.94 L 1070.20 3332.49 L 1074.24 3333.05 L 1078.28 3333.60 L 1082.32 3334.15 L 1086.37 3334.71 L 1090.41 3335.26 L 1094.45 3335.82 L 1098.49 3336.37 L 1102.53 3336.93 L 1106.57 3337.48 L 1110.61 3338.04 L 1114.65 3338.59 L 1118.69 3339.15 L 1122.73 3339.70 L 1126.77 3340.26 L 1130.82 3340.81 L 1134.86 3341.36 L 1138.90 3341.92 L 1142.94 3342.47 L 1146.98 3343.03 L 1151.02 3343.58 L 1155.06 3344.14 L 1159.10 3344.69 L 1163.14 3345.25 L 1167.18 3345.80 L 1171.22 3346.36 L 1175.27 3346.91 L 1179.31 3347.47 L 1183.35 3348.02 L 1187.39 3348.57 L 1191.43 3349.13 L 1195.47 3349.68 L 1199.51 3350.24 L 1203.55 3350.79 L 1207.59 3351.35 L 1211.63 3351.90 L 1215.67 3352.46 L 1219.72 3353.01 L 1223.76 3353.57 L 1227.80 3354.12 L 1231.84 3354.68 L 1235.88 3355.23 L 1239.92 3355.79 L 1243.96 3356.34 L 1248.00 3356.89 L 1252.04 3357.45 L 1256.08 3358.00 L 1260.12 3358.56 L 1264.17 3359.11 L 1268.21 3359.67 L 1272.25 3360.22 L 1276.29 3360.78 L 1280.33 3361.33 L 1284.37 3361.89 L 1288.41 3362.44 L 1292.45 3363.00 L 1296.49 3363.55 L 1300.53 3364.10 L 1304.58 3364.55 L 1308.65 3364.85 L 1312.72 3365.00 L 1316.80 3365.11 L 1320.87 3365.22 L 1324.95 3365.34 L 1329.03 3365.45 L 1333.11 3365.56 L 1337.18 3365.68 L 1341.26 3365.79 L 1345.34 3365.90 L 1349.41 3366.02 L 1353.49 3366.13 L 1357.57 3366.24 L 1361.65 3366.36 L 1365.72 3366.47 L 1369.80 3366.58 L 1373.88 3366.70 L 1377.96 3366.81 L 1382.03 3366.92 L 1386.11 3367.04 L 1390.19 3367.15 L 1394.26 3367.26 L 1398.34 3367.38 L 1402.42 3367.49 L 1406.50 3367.60 L 1410.57 3367.72 L 1414.65 3367.83 L 1418.73 3367.94 L 1422.81 3368.06 L 1426.88 3368.17 L 1430.96 3368.28 L 1435.04 3368.40 L 1439.11 3368.51 L 1443.19 3368.62 L 1447.27 3368.74 L 1451.35 3368.85 L 1455.42 3368.96 L 1459.50 3369.08 L 1463.58 3369.19 L 1467.65 3369.30 L 1471.73 3369.41 L 1475.81 3369.46 L 1479.87 3369.34 L 1483.94 3369.03 L 1487.99 3368.62 L 1492.05 3368.20 L 1496.11 3367.78 L 1500.17 3367.37 L 1504.22 3366.95 L 1508.28 3366.54 L 1512.34 3366.12 L 1516.40 3365.70 L 1520.45 3365.29 L 1524.51 3364.87 L 1528.57 3364.45 L 1532.63 3364.04 L 1536.68 3363.62 L 1540.74 3363.21 L 1544.80 3362.79 L 1548.86 3362.37 L 1552.91 3361.96 L 1556.97 3361.54 L 1561.03 3361.13 L 1565.09 3360.71 L 1569.14 3360.29 L 1573.20 3359.88 L 1577.26 3359.46 L 1581.32 3359.04 L 1585.37 3358.63 L 1589.43 3358.21 L 1593.49 3357.80 L 1597.55 3357.38 L 1601.60 3356.96 L 1605.66 3356.55 L 1609.72 3356.13 L 1613.78 3355.72 L 1617.83 3355.30 L 1621.89 3354.88 L 1625.95 3354.47 L 1630.01 3354.05 L 1634.06 3353.63 L 1638.12 3353.22 L 1642.18 3352.80 L 1646.24 3352.39 L 1650.29 3351.97 L 1654.35 3351.55 L 1658.41 3351.14 L 1662.46 3350.67 L 1666.47 3350.00 L 1670.44 3349.13 L 1674.39 3348.09 L 1678.33 3347.05 L 1682.28 3346.01 L 1686.22 3344.97 L 1690.17 3343.94 L 1694.11 3342.90 L 1698.06 3341.86 L 1702.00 3340.82 L 1705.94 3339.78 L 1709.89 3338.75 L 1713.83 3337.71 L 1717.78 3336.67 L 1721.72 3335.63 L 1725.67 3334.59 L 1729.61 3333.55 L 1733.56 3332.52 L 1737.50 3331.48 L 1741.44 3330.44 L 1745.39 3329.40 L 1749.33 3328.36 L 1753.28 3327.33 L 1757.22 3326.29 L 1761.17 3325.25 L 1765.11 3324.21 L 1769.06 3323.17 L 1773.00 3322.14 L 1776.95 3321.10 L 1780.89 3320.06 L 1784.83 3319.02 L 1788.78 3317.98 L 1792.72 3316.95 L 1796.67 3315.91 L 1800.61 3314.87 L 1804.56 3313.83 L 1808.50 3312.79 L 1812.45 3311.76 L 1816.39 3310.72 L 1820.33 3309.68 L 1824.28 3308.64 L 1828.22 3307.60 L 1832.17 3306.57 L 1836.11 3305.53 L 1840.06 3304.49 L 1844.00 3303.45 L 1847.88 3302.23 L 1851.70 3300.81 L 1855.45 3299.21 L 1859.20 3297.60 L 1862.94 3296.00 L 1866.69 3294.39 L 1870.44 3292.78 L 1874.19 3291.17 L 1877.94 3289.57 L 1881.69 3287.96 L 1885.44 3286.35 L 1889.19 3284.75 L 1892.94 3283.14 L 1896.69 3281.53 L 1900.44 3279.93 L 1904.18 3278.32 L 1907.93 3276.71 L 1911.68 3275.11 L 1915.43 3273.50 L 1919.18 3271.89 L 1922.93 3270.29 L 1926.68 3268.68 L 1930.43 3267.07 L 1934.18 3265.47 L 1937.93 3263.86 L 1941.67 3262.25 L 1945.42 3260.65 L 1949.17 3259.04 L 1952.92 3257.43 L 1956.67 3255.83 L 1960.42 3254.22 L 1964.17 3252.61 L 1967.92 3251.01 L 1971.67 3249.40 L 1975.42 3247.79 L 1979.17 3246.20 L 1982.97 3244.74 L 1986.82 3243.39 L 1990.71 3242.16 L 1994.59 3240.92 L 1998.48 3239.68 L 2002.37 3238.45 L 2006.25 3237.21 L 2010.14 3235.97 L 2014.03 3234.74 L 2017.91 3233.50 L 2021.80 3232.26 L 2025.69 3231.03 L 2029.57 3229.79 L 2033.46 3228.55 L 2037.35 3227.32 L 2041.23 3226.08 L 2045.12 3224.84 L 2049.01 3223.61 L 2052.89 3222.37 L 2056.78 3221.13 L 2060.67 3219.90 L 2064.55 3218.66 L 2068.44 3217.42 L 2072.33 3216.19 L 2076.22 3214.95 L 2080.10 3213.71 L 2083.99 3212.48 L 2087.91 3211.39 L 2091.88 3210.45 L 2095.88 3209.66 L 2099.88 3208.88 L 2103.89 3208.10 L 2107.89 3207.32 L 2111.89 3206.54 L 2115.90 3205.76 L 2119.90 3204.98 L 2123.90 3204.19 L 2127.90 3203.41 L 2131.91 3202.63 L 2135.91 3201.85 L 2139.91 3201.07 L 2143.92 3200.29 L 2147.92 3199.51 L 2151.92 3198.73 L 2155.93 3197.95 L 2159.93 3197.16 L 2163.93 3196.38 L 2167.94 3195.60 L 2171.94 3194.82 L 2175.94 3194.04 L 2179.95 3193.26 L 2183.95 3192.48 L 2187.95 3191.70 L 2191.96 3190.92 L 2195.96 3190.13 L 2199.96 3189.35 L 2203.97 3188.57 L 2207.97 3187.79 L 2211.97 3187.01 L 2215.98 3186.23 L 2219.98 3185.45 L 2223.98 3184.67 L 2227.99 3183.89 L 2231.99 3183.10 L 2235.99 3182.32 L 2240.00 3181.54 L 2244.00 3180.76 L 2248.00 3179.98 L 2252.01 3179.20 L 2256.01 3178.42 L 2260.01 3177.64 L 2264.02 3176.86 L 2268.02 3176.07 L 2272.02 3175.29 L 2276.03 3174.51 L 2280.03 3173.73 L 2284.05 3173.13 L 2288.10 3172.77 L 2292.18 3172.63 L 2296.25 3172.53 L 2300.33 3172.44 L 2304.41 3172.34 L 2308.49 3172.25 L 2312.56 3172.15 L 2316.64 3172.06 L 2320.72 3171.96 L 2324.80 3171.87 L 2328.87 3171.78 L 2332.95 3171.68 L 2337.03 3171.59 L 2341.11 3171.49 L 2345.19 3171.40 L 2349.26 3171.30 L 2353.34 3171.21 L 2357.42 3171.11 L 2361.50 3171.02 L 2365.57 3170.92 L 2369.65 3170.83 L 2373.73 3170.73 L 2377.81 3170.64 L 2381.88 3170.54 L 2385.96 3170.45 L 2390.04 3170.35 L 2394.12 3170.26 L 2398.20 3170.16 L 2402.27 3170.07 L 2406.35 3169.97 L 2410.43 3169.88 L 2414.51 3169.78 L 2418.58 3169.69 L 2422.66 3169.59 L 2426.74 3169.50 L 2430.82 3169.40 L 2434.89 3169.31 L 2438.97 3169.21 L 2443.05 3169.12 L 2447.13 3169.02 L 2451.21 3168.93 L 2455.28 3168.84 L 2459.36 3168.74 L 2463.44 3168.65 L 2467.52 3168.55 L 2471.59 3168.46 L 2475.67 3168.36 L 2479.75 3168.27 L 2483.83 3168.17 L 2487.90 3168.12 L 2491.97 3168.28 L 2496.02 3168.66 L 2500.06 3169.22 L 2504.10 3169.78 L 2508.14 3170.34 L 2512.18 3170.89 L 2516.22 3171.45 L 2520.26 3172.01 L 2524.30 3172.57 L 2528.34 3173.12 L 2532.38 3173.68 L 2536.42 3174.24 L 2540.46 3174.79 L 2544.50 3175.35 L 2548.54 3175.91 L 2552.58 3176.47 L 2556.62 3177.02 L 2560.66 3177.58 L 2564.70 3178.14 L 2568.75 3178.70 L 2572.79 3179.25 L 2576.83 3179.81 L 2580.87 3180.37 L 2584.91 3180.93 L 2588.95 3181.48 L 2592.99 3182.04 L 2597.03 3182.60 L 2601.07 3183.15 L 2605.11 3183.71 L 2609.15 3184.27 L 2613.19 3184.83 L 2617.23 3185.38 L 2621.27 3185.94 L 2625.31 3186.50 L 2629.33 3187.16 L 2633.33 3187.97 L 2637.29 3188.92 L 2641.25 3189.91 L 2645.20 3190.90 L 2649.16 3191.89 L 2653.12 3192.88 L 2657.07 3193.87 L 2661.03 3194.86 L 2664.99 3195.85 L 2668.95 3196.84 L 2672.90 3197.83 L 2676.86 3198.81 L 2680.82 3199.80 L 2684.77 3200.79 L 2688.73 3201.78 L 2692.69 3202.77 L 2696.64 3203.76 L 2700.60 3204.75 L 2704.56 3205.74 L 2708.52 3206.73 L 2712.47 3207.72 L 2716.43 3208.71 L 2720.39 3209.70 L 2724.32 3210.75 L 2728.22 3211.93 L 2732.08 3213.25 L 2735.92 3214.63 L 2739.76 3216.01 L 2743.59 3217.39 L 2747.43 3218.77 L 2751.27 3220.15 L 2755.11 3221.53 L 2758.95 3222.92 L 2762.78 3224.30 L 2766.62 3225.68 L 2770.46 3227.06 L 2774.30 3228.44 L 2778.13 3229.82 L 2781.97 3231.21 L 2785.81 3232.59 L 2789.65 3233.97 L 2793.48 3235.35 L 2797.32 3236.73 L 2801.16 3238.11 L 2805.00 3239.50 L 2808.84 3240.88 L 2812.67 3242.26 L 2816.51 3243.64 L 2820.35 3245.02 L 2824.19 3246.40 L 2828.02 3247.78 L 2831.86 3249.17 L 2835.70 3250.55 L 2839.54 3251.93 L 2843.36 3253.35 L 2847.10 3254.94 L 2850.77 3256.71 L 2854.38 3258.61 L 2857.98 3260.51 L 2861.59 3262.42 L 2865.20 3264.32 L 2868.81 3266.23 L 2872.41 3268.13 L 2876.02 3270.03 L 2879.63 3271.94 L 2883.24 3273.84 L 2886.84 3275.74 L 2890.45 3277.65 L 2894.06 3279.55 L 2897.66 3281.46 L 2901.27 3283.36 L 2904.88 3285.26 L 2908.49 3287.17 L 2912.09 3289.07 L 2915.70 3290.98 L 2919.31 3292.88 L 2922.92 3294.78 L 2926.52 3296.69 L 2930.13 3298.59 L 2933.74 3300.49 L 2937.34 3302.40 L 2940.95 3304.30 L 2944.56 3306.21 L 2948.17 3308.11 L 2951.77 3310.01 L 2955.38 3311.92 L 2958.99 3313.82 L 2962.59 3315.72 L 2966.20 3317.63 L 2969.81 3319.53 L 2973.42 3321.44 L 2977.02 3323.34 L 2980.63 3325.24 L 2984.24 3327.15 L 2987.85 3329.05 L 2991.45 3330.96 L 2995.06 3332.86 L 2998.67 3334.76 L 3002.27 3336.67 L 3005.88 3338.57 L 3009.49 3340.47 L 3013.10 3342.38 L 3016.67 3344.34 L 3020.13 3346.47 L 3023.48 3348.78 L 3026.76 3351.21 L 3030.03 3353.65 L 3033.30 3356.08 L 3036.58 3358.51 L 3039.85 3360.94 L 3043.13 3363.37 L 3046.40 3365.81 L 3049.68 3368.24 L 3052.95 3370.67 L 3056.22 3373.10 L 3059.50 3375.54 L 3062.77 3377.97 L 3066.05 3380.40 L 3069.32 3382.83 L 3072.60 3385.27 L 3075.87 3387.70 L 3079.14 3390.13 L 3082.42 3392.56 L 3085.69 3394.99 L 3088.97 3397.43 L 3092.24 3399.86 L 3095.52 3402.29 L 3098.79 3404.72 L 3102.06 3407.16 L 3105.34 3409.59 L 3108.61 3412.02 L 3111.89 3414.45 L 3115.16 3416.88 L 3118.43 3419.32 L 3121.71 3421.75 L 3124.98 3424.18 L 3128.26 3426.61 L 3131.53 3429.05 L 3134.81 3431.48 L 3138.08 3433.91 L 3141.35 3436.34 L 3144.63 3438.78 L 3147.90 3441.21 L 3151.18 3443.64 L 3154.45 3446.07 L 3157.73 3448.50 L 3161.00 3450.94 L 3164.27 3453.37 L 3167.55 3455.80 L 3170.82 3458.23 L 3174.10 3460.67 L 3177.37 3463.10 L 3180.65 3465.53 L 3183.92 3467.96 L 3187.06 3470.55 L 3190.08 3473.28 L 3192.96 3476.16 L 3195.85 3479.05 L 3198.73 3481.93 L 3201.62 3484.82 L 3204.50 3487.70 L 3207.38 3490.58 L 3210.27 3493.47 L 3213.15 3496.35 L 3216.04 3499.24 L 3218.92 3502.12 L 3221.80 3505.00 L 3224.69 3507.89 L 3227.57 3510.77 L 3230.46 3513.66 L 3233.34 3516.54 L 3236.22 3519.42 L 3239.11 3522.31 L 3241.99 3525.19 L 3244.88 3528.08 L 3247.76 3530.96 L 3250.65 3533.85 L 3253.53 3536.73 L 3256.41 3539.61 L 3259.30 3542.50 L 3262.18 3545.38 L 3265.07 3548.27 L 3267.95 3551.15 L 3270.83 3554.03 L 3273.72 3556.92 L 3276.60 3559.80 L 3279.49 3562.69 L 3282.37 3565.57 L 3285.26 3568.46 L 3288.14 3571.34 L 3291.02 3574.22 L 3293.91 3577.11 L 3296.79 3579.99 L 3299.68 3582.88 L 3302.56 3585.76 L 3305.44 3588.64 L 3308.33 3591.53 L 3311.21 3594.41 L 3314.10 3597.30 L 3316.98 3600.18 L 3319.87 3603.07 L 3322.75 3605.95 L 3325.63 3608.83 L 3328.52 3611.72 L 3331.40 3614.60 L 3334.29 3617.49 L 3337.17 3620.37 L 3340.05 3623.25 L 3342.94 3626.14 L 3345.82 3629.02 L 3348.71 3631.91 L 3351.59 3634.79 L 3354.48 3637.68 L 3357.36 3640.56 L 3360.24 3643.44 L 3363.23 3646.18 L 3366.48 3648.56 L 3369.98 3650.59 L 3373.63 3652.41 L 3377.28 3654.24 L 3380.93 3656.06 L 3384.57 3657.89 L 3388.22 3659.71 L 3391.87 3661.53 L 3395.52 3663.36 L 3399.17 3665.18 L 3402.81 3667.01 L 3406.46 3668.83 L 3410.11 3670.66 L 3413.76 3672.48 L 3417.41 3674.30 L 3421.06 3676.13 L 3424.70 3677.95 L 3428.35 3679.78 M 219.35 3561.60 L 222.70 3561.60 L 226.06 3561.60 L 229.41 3561.60 L 232.76 3561.60 L 236.11 3561.60 L 239.46 3561.60 L 242.81 3561.60 L 246.17 3561.60 L 249.52 3561.60 L 252.87 3561.60 L 256.22 3561.60 L 259.57 3561.60 L 262.93 3561.60 L 266.28 3561.60 L 269.63 3561.60 L 272.98 3561.60 L 276.33 3561.60 L 279.68 3561.60 L 283.04 3561.60 L 286.39 3561.60 L 289.74 3561.60 L 293.09 3561.60 L 296.44 3561.60 L 299.80 3561.60 L 303.15 3561.60 L 306.50 3561.60 L 309.85 3561.60 L 313.20 3561.60 L 316.55 3561.60 L 319.91 3561.60 L 323.26 3561.60 L 326.61 3561.60 L 329.96 3561.60 L 333.31 3561.60 L 336.67 3561.60 L 340.02 3561.60 L 343.37 3561.60 L 346.72 3561.60 L 350.07 3561.60 L 353.42 3561.60 L 356.78 3561.60 L 360.13 3561.60 L 363.48 3561.60 L 366.83 3561.60 L 370.18 3561.60 L 373.53 3561.60 L 376.89 3561.60 L 380.24 3561.60 L 383.59 3561.60 L 386.94 3561.60 L 390.29 3561.60 L 393.65 3561.60 L 397.00 3561.60 L 400.35 3561.60 L 403.70 3561.60 L 407.03 3561.79 L 410.33 3562.23 L 413.60 3562.93 L 416.86 3563.71 L 420.12 3564.49 L 423.38 3565.26 L 426.64 3566.04 L 429.90 3566.82 L 433.16 3567.59 L 436.42 3568.37 L 439.69 3569.14 L 442.95 3569.92 L 446.21 3570.70 L 449.47 3571.47 L 452.73 3572.25 L 455.99 3573.03 L 459.25 3573.80 L 462.51 3574.58 L 465.77 3575.35 L 469.03 3576.13 L 472.29 3576.91 L 475.55 3577.68 L 478.81 3578.46 L 482.07 3579.24 L 485.33 3580.01 L 488.60 3580.79 L 491.86 3581.57 L 495.12 3582.34 L 498.38 3583.12 L 501.64 3583.89 L 504.90 3584.67 L 508.06 3585.70 L 511.08 3587.05 L 513.98 3588.71 L 516.86 3590.43 L 519.73 3592.16 L 522.61 3593.88 L 525.48 3595.61 L 528.35 3597.33 L 531.09 3599.21 L 533.51 3601.42 L 535.63 3603.96 L 537.58 3606.69 L 539.53 3609.42 L 541.48 3612.15 L 543.42 3614.87 L 545.37 3617.60 L 547.32 3620.33 L 549.27 3623.06 L 551.22 3625.78 L 553.16 3628.51 L 555.03 3631.27 L 556.24 3634.23 L 556.80 3637.40 L 556.80 3640.75 L 556.80 3644.10 L 556.80 3647.46 L 556.80 3650.81 L 556.80 3654.16 L 556.80 3657.51 L 556.80 3660.86 L 556.80 3664.22 L 556.80 3667.57 L 556.80 3670.92 L 556.70 3674.25 L 556.18 3677.50 L 555.25 3680.68 L 554.00 3683.79 L 552.76 3686.90 L 551.52 3690.01 L 550.27 3693.12 L 549.03 3696.24 L 547.67 3699.29 L 546.11 3702.24 L 544.35 3705.08 L 542.49 3707.87 L 540.63 3710.65 L 538.77 3713.44 L 536.91 3716.23 L 535.05 3719.02 L 533.19 3721.81 L 531.33 3724.60 L 529.43 3727.35 L 527.34 3729.94 L 525.04 3732.36 L 522.59 3734.65 L 520.14 3736.93 L 517.69 3739.22 L 515.24 3741.51 L 512.79 3743.79 L 510.34 3746.08 L 507.89 3748.37 L 505.44 3750.66 L 502.99 3752.94 L 500.54 3755.23 L 498.09 3757.52 L 495.64 3759.80 L 493.19 3762.09 L 490.74 3764.38 L 488.29 3766.66 L 485.84 3768.95 L 483.39 3771.24 L 480.94 3773.53 L 478.49 3775.81 L 476.04 3778.10 L 473.59 3780.39 L 471.14 3782.67 L 468.68 3784.96 L 466.23 3787.25 L 463.78 3789.53 L 461.33 3791.82 L 458.88 3794.11 L 456.35 3796.29 L 453.71 3798.34 L 450.96 3800.26 L 448.20 3802.16 L 445.44 3804.06 L 442.68 3805.96 L 439.92 3807.86 L 437.15 3809.76 L 434.39 3811.66 L 431.63 3813.55 L 428.87 3815.45 L 426.11 3817.35 L 423.34 3819.25 L 420.58 3821.15 L 417.82 3823.05 L 415.06 3824.95 L 412.30 3826.85 L 409.53 3828.75 L 406.77 3830.64 L 404.01 3832.54 L 401.25 3834.44 L 398.49 3836.34 L 395.72 3838.24 L 392.96 3840.14 L 390.20 3842.04 L 387.44 3843.94 L 384.68 3845.84 L 381.91 3847.73 L 379.08 3849.52 L 376.19 3851.20 L 373.22 3852.76 L 370.26 3854.33 L 367.30 3855.90 L 364.34 3857.47 L 361.37 3859.04 L 358.41 3860.61 L 355.45 3862.17 L 352.49 3863.74 L 349.52 3865.31 L 346.56 3866.88 L 343.60 3868.45 L 340.64 3870.02 L 337.68 3871.58 L 334.71 3873.15 L 331.75 3874.72 L 328.79 3876.29 L 325.83 3877.86 L 322.86 3879.42 L 319.90 3880.99 L 316.94 3882.56 L 313.98 3884.13 L 311.02 3885.70 L 308.05 3887.27 L 305.09 3888.83 L 302.13 3890.40 L 299.14 3891.91 L 296.09 3893.29 L 292.98 3894.53 L 289.84 3895.71 L 286.71 3896.89 L 283.57 3898.06 L 280.43 3899.24 L 277.29 3900.42 L 274.15 3901.59 L 271.01 3902.77 L 267.88 3903.95 L 264.74 3905.12 L 261.60 3906.30 L 258.46 3907.48 L 255.32 3908.65 L 252.18 3909.83 L 249.04 3911.01 L 245.91 3912.19 L 242.77 3913.36 L 239.63 3914.54 L 236.49 3915.72 L 233.35 3916.89 L 230.21 3918.07 L 227.08 3919.25 L 223.94 3920.42 L 220.80 3921.60 L 217.66 3922.78 L 214.52 3923.95 L 211.38 3925.13 L 208.25 3926.31 L 205.11 3927.48 L 201.97 3928.66 L 198.83 3929.84 L 195.69 3931.02 L 192.55 3932.19 L 189.42 3933.37 L 186.28 3934.55 L 183.14 3935.72 L 180.00 3936.90 L 176.86 3938.08 L 173.72 3939.25 L 170.58 3940.43 L 167.45 3941.61 L 164.31 3942.78 L 161.17 3943.96 L 158.03 3945.14 L 154.89 3946.32 L 151.75 3947.49 L 148.62 3948.67 L 145.45 3949.75 L 142.24 3950.67 L 138.97 3951.41 L 135.69 3952.06 L 132.40 3952.72 L 129.11 3953.38 L 125.83 3954.03 L 122.54 3954.69 L 119.25 3955.35 L 115.97 3956.01 L 112.68 3956.66 L 109.39 3957.32 L 106.11 3957.98 L 102.82 3958.64 L 99.53 3959.29 L 96.25 3959.95 L 92.96 3960.61 L 89.67 3961.27 L 86.39 3961.92 L 83.10 3962.58 L 79.81 3963.24 L 76.53 3963.89 L 73.24 3964.55 L 69.95 3965.21 L 66.67 3965.87 L 63.38 3966.52 L 60.09 3967.18 L 56.81 3967.84 L 53.52 3968.50 L 50.23 3969.08 L 46.91 3969.45 L 43.57 3969.60 L 40.22 3969.60 L 36.87 3969.60 L 33.52 3969.60 L 30.17 3969.60 L 26.81 3969.60 L 23.46 3969.60 L 20.11 3969.60 L 16.76 3969.60 L 13.41 3969.60 L 10.06 3969.60 L 6.70 3969.60 L 3.35 3969.60 M 3956.66 3245.12 L 3953.31 3245.44 L 3949.97 3245.76 L 3946.62 3246.07 L 3943.28 3246.39 L 3939.94 3246.71 L 3936.59 3247.03 L 3933.25 3247.35 L 3929.90 3247.67 L 3926.56 3247.98 L 3923.21 3248.30 L 3919.87 3248.62 L 3916.53 3248.94 L 3913.18 3249.26 L 3909.84 3249.58 L 3906.49 3249.90 L 3903.15 3250.21 L 3899.81 3250.53 L 3896.46 3250.85 L 3893.12 3251.17 L 3889.77 3251.49 L 3886.43 3251.81 L 3883.09 3252.13 L 3879.74 3252.44 L 3876.40 3252.76 L 3873.05 3253.08 L 3869.71 3253.40 L 3866.36 3253.72 L 3863.02 3254.04 L 3859.69 3254.45 L 3856.38 3254.98 L 3853.08 3255.62 L 3849.79 3256.28 L 3846.49 3256.94 L 3843.20 3257.60 L 3839.91 3258.26 L 3836.61 3258.92 L 3833.32 3259.58 L 3830.02 3260.24 L 3826.73 3260.89 L 3823.43 3261.55 L 3820.14 3262.21 L 3816.85 3262.87 L 3813.55 3263.53 L 3810.26 3264.19 L 3806.96 3264.85 L 3803.67 3265.51 L 3800.38 3266.16 L 3797.08 3266.82 L 3793.79 3267.48 L 3790.49 3268.14 L 3787.20 3268.80 L 3783.91 3269.46 L 3780.61 3270.12 L 3777.32 3270.78 L 3774.02 3271.44 L 3770.73 3272.09 L 3767.44 3272.75 L 3764.14 3273.41 L 3760.85 3274.07 L 3757.55 3274.73 L 3754.26 3275.39 L 3750.97 3276.05 L 3747.67 3276.71 L 3744.38 3277.36 L 3741.10 3278.09 L 3737.87 3278.97 L 3734.68 3280.00 L 3731.51 3281.11 L 3728.34 3282.23 L 3725.17 3283.35 L 3722.01 3284.47 L 3718.84 3285.59 L 3715.67 3286.70 L 3712.50 3287.82 L 3709.33 3288.94 L 3706.17 3290.06 L 3703.00 3291.18 L 3699.83 3292.29 L 3696.66 3293.41 L 3693.50 3294.53 L 3690.33 3295.65 L 3687.16 3296.77 L 3683.99 3297.88 L 3680.82 3299.00 L 3677.66 3300.12 L 3674.49 3301.24 L 3671.32 3302.36 L 3668.15 3303.48 L 3664.99 3304.59 L 3661.82 3305.71 L 3658.71 3306.96 L 3655.70 3308.40 L 3652.77 3310.04 L 3649.87 3311.74 L 3646.98 3313.45 L 3644.08 3315.15 L 3641.19 3316.85 L 3638.29 3318.56 L 3635.40 3320.26 L 3632.50 3321.96 L 3629.61 3323.67 L 3626.71 3325.37 L 3623.81 3327.07 L 3620.92 3328.78 L 3618.02 3330.48 L 3615.13 3332.18 L 3612.23 3333.89 L 3609.34 3335.59 L 3606.44 3337.29 L 3603.55 3339.00 L 3600.65 3340.70 L 3597.76 3342.40 L 3594.86 3344.11 L 3591.96 3345.81 L 3589.07 3347.51 L 3586.17 3349.22 L 3583.28 3350.92 L 3580.38 3352.62 L 3577.57 3354.43 L 3574.93 3356.47 L 3572.47 3358.73 L 3570.09 3361.11 L 3567.72 3363.48 L 3565.34 3365.86 L 3562.97 3368.23 L 3560.59 3370.61 L 3558.22 3372.98 L 3555.84 3375.36 L 3553.47 3377.73 L 3551.09 3380.11 L 3548.72 3382.48 L 3546.34 3384.86 L 3543.97 3387.23 L 3541.59 3389.61 L 3539.21 3391.99 L 3536.84 3394.36 L 3534.46 3396.74 L 3532.09 3399.11 L 3529.77 3401.53 L 3527.63 3404.10 L 3525.69 3406.82 L 3523.89 3409.66 L 3522.09 3412.49 L 3520.28 3415.33 L 3518.48 3418.16 L 3516.68 3420.99 L 3514.87 3423.83 L 3513.07 3426.66 L 3511.27 3429.50 L 3509.46 3432.33 L 3507.66 3435.16 L 3505.86 3438.00 L 3504.05 3440.83 L 3502.25 3443.67 L 3500.44 3446.50 L 3498.64 3449.34 L 3496.84 3452.17 L 3495.21 3455.08 L 3493.84 3458.12 L 3492.75 3461.28 L 3491.75 3464.49 L 3490.74 3467.70 L 3489.74 3470.90 L 3488.74 3474.11 L 3487.74 3477.32 L 3486.74 3480.52 L 3485.73 3483.73 L 3484.73 3486.94 L 3483.73 3490.14 L 3482.73 3493.35 L 3481.73 3496.55 L 3480.72 3499.76 L 3479.72 3502.97 L 3478.72 3506.17 L 3477.72 3509.38 L 3476.72 3512.59 L 3475.71 3515.79 L 3474.71 3519.00 L 3473.71 3522.21 L 3472.71 3525.41 L 3471.71 3528.62 L 3470.86 3531.86 L 3470.24 3535.14 L 3469.83 3538.47 L 3469.50 3541.81 L 3469.16 3545.15 L 3468.83 3548.50 L 3468.50 3551.84 L 3468.16 3555.18 L 3467.83 3558.52 L 3467.49 3561.87 L 3467.16 3565.21 L 3466.82 3568.55 L 3466.49 3571.89 L 3466.16 3575.24 L 3465.82 3578.58 L 3465.49 3581.92 L 3465.15 3585.26 L 3464.82 3588.61 L 3464.49 3591.95 L 3464.15 3595.29 L 3463.82 3598.63 L 3463.48 3601.98 L 3463.15 3605.32 L 3462.81 3608.66 L 3462.48 3612.01 L 3462.15 3615.35 L 3461.81 3618.69 L 3461.48 3622.03 L 3461.14 3625.38 L 3460.43 3628.61 L 3459.33 3631.73 L 3457.83 3634.74 L 3456.33 3637.74 L 3454.83 3640.74 L 3453.33 3643.75 L 3451.82 3646.75 L 3450.32 3649.76 L 3448.82 3652.76 L 3447.32 3655.77 L 3445.81 3658.77 L 3444.31 3661.78 L 3442.81 3664.78 L 3441.31 3667.79 L 3439.80 3670.79 L 3438.30 3673.80 L 3436.80 3676.80 L 3436.80 3681.60 M 3438.08 3679.91 L 3439.36 3683.03 L 3440.65 3686.14 L 3441.93 3689.25 L 3443.21 3692.37 L 3444.49 3695.48 L 3445.77 3698.59 L 3447.06 3701.71 L 3448.34 3704.82 L 3449.62 3707.93 L 3450.90 3711.05 L 3452.18 3714.16 L 3453.47 3717.27 L 3454.75 3720.39 L 3456.03 3723.50 L 3457.31 3726.61 L 3458.59 3729.73 L 3459.88 3732.84 L 3461.16 3735.96 L 3462.44 3739.07 L 3463.72 3742.18 L 3465.00 3745.30 L 3466.29 3748.41 L 3467.57 3751.52 L 3468.85 3754.64 L 3470.20 3757.72 L 3471.64 3760.76 L 3473.16 3763.76 L 3474.70 3766.76 L 3476.23 3769.75 L 3477.77 3772.75 L 3479.31 3775.74 L 3480.85 3778.74 L 3482.39 3781.73 L 3483.93 3784.73 L 3485.47 3787.72 L 3487.01 3790.72 L 3488.55 3793.71 L 3490.08 3796.71 L 3491.62 3799.70 L 3493.16 3802.70 L 3494.70 3805.69 L 3496.24 3808.68 L 3497.78 3811.68 L 3499.32 3814.67 L 3500.86 3817.67 L 3502.40 3820.66 L 3503.94 3823.66 L 3505.47 3826.65 L 3507.01 3829.65 L 3508.55 3832.64 L 3510.09 3835.64 L 3511.63 3838.63 L 3513.17 3841.63 L 3514.71 3844.62 L 3516.25 3847.62 L 3517.79 3850.61 L 3519.33 3853.61 L 3520.86 3856.60 L 3522.40 3859.60 L 3523.94 3862.59 L 3525.48 3865.59 L 3527.02 3868.58 L 3528.56 3871.57 L 3530.10 3874.57 L 3531.64 3877.56 L 3533.18 3880.56 L 3534.72 3883.55 L 3536.25 3886.55 L 3537.79 3889.54 L 3539.33 3892.54 L 3540.87 3895.53 L 3542.41 3898.53 L 3543.95 3901.52 L 3545.49 3904.52 L 3547.03 3907.51 L 3548.57 3910.51 L 3550.10 3913.50 L 3551.64 3916.50 L 3553.18 3919.49 L 3554.72 3922.49 L 3556.26 3925.48 L 3557.80 3928.47 L 3559.34 3931.47 L 3560.88 3934.46 L 3562.42 3937.46 L 3563.96 3940.45 L 3565.49 3943.45 L 3567.03 3946.44 L 3568.57 3949.44 L 3570.11 3952.43 L 3571.65 3955.43 L 3573.19 3958.42 L 3574.73 3961.42 L 3576.27 3964.41 L 3577.81 3967.41 L 3579.35 3970.40 L 3580.88 3973.40 L 3582.42 3976.39 L 3583.96 3979.39 L 3585.50 3982.38 L 3587.04 3985.38 L 3588.58 3988.37 L 3590.12 3991.36 L 3591.66 3994.36 L 3593.20 3997.35 L 3594.73 4000.35 L 3596.27 4003.34 L 3597.81 4006.34 L 3599.35 4009.33 L 3600.89 4012.33 L 3602.43 4015.32 L 3603.97 4018.32 L 3605.51 4021.31 L 3607.05 4024.31 L 3608.59 4027.30 L 3610.12 4030.30 L 3611.66 4033.29 L 3613.20 4036.29 L 3614.74 4039.28 L 3616.28 4042.28 L 3617.82 4045.27 L 3619.36 4048.27 L 3620.90 4051.26 L 3622.44 4054.25 L 3623.98 4057.25 L 3625.51 4060.24 L 3627.05 4063.24 L 3628.59 4066.23 L 3630.13 4069.23 L 3631.67 4072.22 L 3633.21 4075.22 L 3634.75 4078.21 L 3636.29 4081.21 L 3637.83 4084.20 L 3639.37 4087.20 L 3640.90 4090.19 L 3642.44 4093.19 L 3643.98 4096.18 L 3645.52 4099.18 L 3647.03 4102.18 L 3648.46 4105.23 L 3649.82 4108.31 L 3651.12 4111.41 L 3652.43 4114.52 L 3653.73 4117.62 L 3655.04 4120.72 L 3656.35 4123.83 L 3657.65 4126.93 L 3658.96 4130.03 L 3660.27 4133.14 L 3661.57 4136.24 L 3662.88 4139.34 L 3664.19 4142.45 L 3665.49 4145.55 L 3666.80 4148.65 L 3668.11 4151.76 L 3669.41 4154.86 L 3670.72 4157.96 L 3672.03 4161.06 L 3673.33 4164.17 L 3674.64 4167.27 L 3675.95 4170.37 L 3677.25 4173.48 L 3678.56 4176.58 L 3679.87 4179.68 L 3681.17 4182.79 L 3682.48 4185.89 L 3683.79 4188.99 L 3685.09 4192.10" fill='none' stroke='#000000' stroke-opacity='0.5' stroke-width='118.75' stroke-linecap='round' stroke-linejoin='round' stroke-miterlimit='1'/>
</svg>
