<svg xmlns='http://www.w3.org/2000/svg' width='7680' height='4320' viewBox='0 0 7680 4320'>
<path d="M 3807.06 3001.29 L 3802.93 3002.57 L 3798.79 3003.86 L 3794.65 3005.15 L 3790.51 3006.44 L 3786.38 3007.72 L 3782.24 3009.01 L 3778.10 3010.30 L 3773.97 3011.58 L 3769.83 3012.87 L 3765.69 3014.16 L 3761.55 3015.45 L 3757.42 3016.73 L 3753.28 3018.02 L 3749.14 3019.31 L 3745.01 3020.59 L 3740.87 3021.88 L 3736.73 3023.17 L 3732.59 3024.46 L 3728.46 3025.74 L 3724.32 3027.03 L 3720.18 3028.32 L 3716.05 3029.60 L 3711.91 3030.89 L 3707.77 3032.18 L 3703.63 3033.46 L 3699.50 3034.75 L 3695.36 3036.04 L 3691.22 3037.33 L 3687.09 3038.61 L 3682.95 3039.90 L 3678.81 3041.19 L 3674.67 3042.47 L 3670.54 3043.76 L 3666.40 3045.05 L 3662.26 3046.34 L 3658.13 3047.62 L 3653.99 3048.91 L 3649.85 3050.20 L 3645.71 3051.48 L 3641.58 3052.77 L 3637.44 3054.06 L 3633.30 3055.35 L 3629.17 3056.63 L 3625.03 3057.92 L 3620.89 3059.21 L 3616.75 3060.49 L 3612.62 3061.78 L 3608.48 3063.07 L 3604.34 3064.36 L 3600.21 3065.64 L 3596.05 3066.88 L 3591.88 3068.06 L 3587.70 3069.17 L 3583.51 3070.27 L 3579.32 3071.37 L 3575.13 3072.47 L 3570.93 3073.57 L 3566.74 3074.67 L 3562.55 3075.77 L 3558.36 3076.87 L 3554.17 3077.97 L 3549.98 3079.07 L 3545.79 3080.17 L 3541.60 3081.27 L 3537.41 3082.37 L 3533.22 3083.47 L 3529.03 3084.57 L 3524.84 3085.67 L 3520.65 3086.77 L 3516.45 3087.87 L 3512.26 3088.97 L 3508.07 3090.07 L 3503.88 3091.17 L 3499.69 3092.27 L 3495.50 3093.37 L 3491.31 3094.47 L 3487.12 3095.57 L 3482.93 3096.67 L 3478.74 3097.77 L 3474.55 3098.87 L 3470.36 3099.97 L 3466.17 3101.07 L 3461.97 3102.17 L 3457.78 3103.27 L 3453.59 3104.37 L 3449.40 3105.47 L 3445.21 3106.57 L 3441.02 3107.67 L 3436.83 3108.77 L 3432.64 3109.87 L 3428.45 3110.97 L 3424.26 3112.07 L 3420.07 3113.17 L 3415.88 3114.27 L 3411.69 3115.37 L 3407.49 3116.47 L 3403.30 3117.57 L 3399.11 3118.67 L 3394.92 3119.77 L 3390.73 3120.87 L 3386.54 3121.97 L 3382.35 3123.07 L 3378.16 3124.17 L 3373.97 3125.27 L 3369.78 3126.37 L 3365.59 3127.47 L 3361.40 3128.57 L 3357.21 3129.67 L 3353.01 3130.77 L 3348.82 3131.87 L 3344.63 3132.97 L 3340.44 3134.07 L 3336.25 3135.17 L 3332.06 3136.27 L 3327.87 3137.37 L 3323.68 3138.47 L 3319.49 3139.57 L 3315.30 3140.67 L 3311.11 3141.77 L 3306.92 3142.87 L 3302.73 3143.97 L 3298.53 3145.07 L 3294.34 3146.17 L 3290.15 3147.27 L 3285.96 3148.37 L 3281.77 3149.47 L 3277.58 3150.58 L 3273.39 3151.68 L 3269.20 3152.78 L 3265.01 3153.88 L 3260.82 3154.98 L 3256.63 3156.08 L 3252.44 3157.18 L 3248.25 3158.28 L 3244.05 3159.38 L 3239.86 3160.48 L 3235.67 3161.58 L 3231.48 3162.68 L 3227.29 3163.78 L 3223.10 3164.88 L 3218.91 3165.98 L 3214.72 3167.06 L 3210.51 3168.08 L 3206.28 3169.03 L 3202.04 3169.92 L 3197.80 3170.81 L 3193.56 3171.70 L 3189.32 3172.59 L 3185.08 3173.49 L 3180.84 3174.38 L 3176.60 3175.27 L 3172.36 3176.16 L 3168.12 3177.05 L 3163.88 3177.94 L 3159.64 3178.83 L 3155.40 3179.72 L 3151.16 3180.61 L 3146.92 3181.50 L 3142.68 3182.39 L 3138.44 3183.28 L 3134.20 3184.17 L 3129.96 3185.06 L 3125.72 3185.95 L 3121.48 3186.84 L 3117.23 3187.73 L 3112.99 3188.62 L 3108.75 3189.51 L 3104.51 3190.40 L 3100.27 3191.29 L 3096.03 3192.18 L 3091.79 3193.08 L 3087.55 3193.97 L 3083.31 3194.86 L 3079.07 3195.75 L 3074.83 3196.64 L 3070.59 3197.53 L 3066.35 3198.42 L 3062.11 3199.31 L 3057.87 3200.20 L 3053.63 3201.09 L 3049.39 3201.98 L 3045.15 3202.87 L 3040.91 3203.76 L 3036.67 3204.65 L 3032.43 3205.54 L 3028.19 3206.43 L 3023.95 3207.32 L 3019.71 3208.21 L 3015.47 3209.10 L 3011.23 3209.99 L 3006.99 3210.88 L 3002.75 3211.77 L 2998.51 3212.67 L 2994.27 3213.56 L 2990.03 3214.45 L 2985.79 3215.34 L 2981.55 3216.23 L 2977.31 3217.12 L 2973.07 3218.01 L 2968.83 3218.90 L 2964.59 3219.79 L 2960.35 3220.68 L 2956.11 3221.57 L 2951.86 3222.46 L 2947.62 3223.35 L 2943.38 3224.24 L 2939.14 3225.13 L 2934.90 3226.02 L 2930.66 3226.91 L 2926.42 3227.80 L 2922.18 3228.69 L 2917.94 3229.58 L 2913.70 3230.47 L 2909.46 3231.36 L 2905.22 3232.26 L 2900.98 3233.15 L 2896.74 3234.04 L 2892.50 3234.93 L 2888.26 3235.82 L 2884.02 3236.71 L 2879.78 3237.60 L 2875.54 3238.49 L 2871.30 3239.38 L 2867.06 3240.27 L 2862.82 3241.16 L 2858.58 3242.05 L 2854.34 3242.94 L 2850.10 3243.83 L 2845.86 3244.72 L 2841.62 3245.61 L 2837.38 3246.50 L 2833.14 3247.39 L 2828.90 3248.28 L 2824.66 3249.17 L 2820.42 3250.06 L 2816.18 3250.95 L 2811.94 3251.85 L 2807.70 3252.74 L 2803.46 3253.63 L 2799.22 3254.52 L 2794.98 3255.41 L 2790.74 3256.30 L 2786.49 3257.19 L 2782.25 3258.08 L 2778.01 3258.97 L 2773.77 3259.86 L 2769.53 3260.75 L 2765.29 3261.64 L 2761.05 3262.53 L 2756.81 3263.42 L 2752.57 3264.31 L 2748.33 3265.20 L 2744.09 3266.09 L 2739.85 3266.98 L 2735.61 3267.87 L 2731.36 3268.68 L 2727.09 3269.40 L 2722.80 3270.04 L 2718.51 3270.67 L 2714.23 3271.31 L 2709.94 3271.94 L 2705.66 3272.57 L 2701.37 3273.21 L 2697.08 3273.84 L 2692.80 3274.47 L 2688.51 3275.11 L 2684.22 3275.74 L 2679.94 3276.37 L 2675.65 3277.01 L 2671.37 3277.64 L 2667.08 3278.27 L 2662.79 3278.91 L 2658.51 3279.54 L 2654.22 3280.17 L 2649.93 3280.81 L 2645.65 3281.44 L 2641.36 3282.07 L 2637.08 3282.70 L 2632.79 3283.34 L 2628.50 3283.97 L 2624.22 3284.60 L 2619.93 3285.24 L 2615.65 3285.87 L 2611.36 3286.50 L 2607.07 3287.14 L 2602.79 3287.77 L 2598.50 3288.40 L 2594.21 3289.04 L 2589.93 3289.67 L 2585.64 3290.30 L 2581.36 3290.94 L 2577.07 3291.57 L 2572.78 3292.20 L 2568.50 3292.84 L 2564.21 3293.47 L 2559.92 3294.10 L 2555.64 3294.74 L 2551.35 3295.37 L 2547.07 3296.00 L 2542.78 3296.63 L 2538.49 3297.27 L 2534.21 3297.90 L 2529.92 3298.53 L 2525.63 3299.17 L 2521.35 3299.80 L 2517.06 3300.43 L 2512.78 3301.07 L 2508.49 3301.70 L 2504.20 3302.33 L 2499.92 3302.97 L 2495.63 3303.60 L 2491.34 3304.23 L 2487.06 3304.87 L 2482.77 3305.50 L 2478.49 3306.13 L 2474.20 3306.77 L 2469.91 3307.40 L 2465.63 3308.03 L 2461.34 3308.67 L 2457.05 3309.30 L 2452.77 3309.93 L 2448.48 3310.57 L 2444.20 3311.20 L 2439.91 3311.83 L 2435.62 3312.46 L 2431.34 3313.10 L 2427.05 3313.73 L 2422.76 3314.36 L 2418.48 3315.00 L 2414.19 3315.63 L 2409.91 3316.26 L 2405.62 3316.90 L 2401.33 3317.53 L 2397.05 3318.16 L 2392.76 3318.80 L 2388.47 3319.43 L 2384.19 3320.06 L 2379.90 3320.70 L 2375.62 3321.33 L 2371.33 3321.96 L 2367.04 3322.60 L 2362.76 3323.23 L 2358.47 3323.86 L 2354.18 3324.50 L 2349.90 3325.13 L 2345.61 3325.76 L 2341.33 3326.39 L 2337.04 3327.03 L 2332.75 3327.66 L 2328.47 3328.29 L 2324.18 3328.93 L 2319.90 3329.56 L 2315.61 3330.19 L 2311.32 3330.79 L 2307.02 3331.29 L 2302.70 3331.69 L 2298.39 3332.03 L 2294.07 3332.38 L 2289.75 3332.72 L 2285.43 3333.07 L 2281.11 3333.42 L 2276.79 3333.76 L 2272.47 3334.11 L 2268.15 3334.45 L 2263.83 3334.80 L 2259.51 3335.14 L 2255.20 3335.49 L 2250.88 3335.83 L 2246.56 3336.18 L 2242.24 3336.52 L 2237.92 3336.87 L 2233.60 3337.22 L 2229.28 3337.56 L 2224.96 3337.91 L 2220.64 3338.25 L 2216.33 3338.60 L 2212.01 3338.94 L 2207.69 3339.29 L 2203.37 3339.63 L 2199.05 3339.98 L 2194.73 3340.33 L 2190.41 3340.67 L 2186.09 3341.02 L 2181.77 3341.36 L 2177.45 3341.71 L 2173.14 3342.05 L 2168.82 3342.40 L 2164.50 3342.74 L 2160.18 3343.09 L 2155.86 3343.44 L 2151.54 3343.78 L 2147.22 3344.13 L 2142.90 3344.47 L 2138.58 3344.82 L 2134.27 3345.16 L 2129.95 3345.51 L 2125.63 3345.85 L 2121.31 3346.20 L 2116.99 3346.54 L 2112.67 3346.89 L 2108.35 3347.24 L 2104.03 3347.58 L 2099.71 3347.93 L 2095.39 3348.27 L 2091.08 3348.62 L 2086.76 3348.96 L 2082.44 3349.31 L 2078.12 3349.65 L 2073.80 3350.00 L 2069.48 3350.35 L 2065.16 3350.69 L 2060.84 3351.04 L 2056.52 3351.38 L 2052.20 3351.73 L 2047.89 3352.07 L 2043.57 3352.42 L 2039.25 3352.76 L 2034.93 3353.11 L 2030.61 3353.46 L 2026.29 3353.80 L 2021.97 3354.15 L 2017.65 3354.49 L 2013.33 3354.84 L 2009.02 3355.18 L 2004.70 3355.53 L 2000.38 3355.87 L 1996.06 3356.22 L 1991.74 3356.56 L 1987.42 3356.91 L 1983.10 3357.26 L 1978.78 3357.60 L 1974.46 3357.95 L 1970.14 3358.29 L 1965.83 3358.64 L 1961.51 3358.98 L 1957.19 3359.33 L 1952.87 3359.67 L 1948.55 3360.02 L 1944.23 3360.37 L 1939.91 3360.71 L 1935.59 3361.06 L 1931.27 3361.40 L 1926.96 3361.75 L 1922.64 3362.09 L 1918.32 3362.44 L 1914.00 3362.78 L 1909.68 3363.13 L 1905.36 3363.48 L 1901.04 3363.82 L 1896.72 3364.17 L 1892.40 3364.51 L 1888.08 3364.86 L 1883.77 3365.20 L 1879.45 3365.55 L 1875.13 3365.89 L 1870.81 3366.24 L 1866.49 3366.58 L 1862.17 3366.93 L 1857.85 3367.28 L 1853.53 3367.62 L 1849.21 3367.97 L 1844.90 3368.31 L 1840.58 3368.66 L 1836.26 3369.00 L 1831.94 3369.31 L 1827.61 3369.50 L 1823.28 3369.55 L 1818.95 3369.51 L 1814.62 3369.47 L 1810.29 3369.43 L 1805.95 3369.39 L 1801.62 3369.35 L 1797.29 3369.31 L 1792.96 3369.27 L 1788.62 3369.23 L 1784.29 3369.19 L 1779.96 3369.15 L 1775.63 3369.11 L 1771.29 3369.07 L 1766.96 3369.03 L 1762.63 3368.99 L 1758.29 3368.95 L 1753.96 3368.91 L 1749.63 3368.87 L 1745.30 3368.83 L 1740.96 3368.79 L 1736.63 3368.75 L 1732.30 3368.71 L 1727.97 3368.67 L 1723.63 3368.63 L 1719.30 3368.59 L 1714.97 3368.55 L 1710.64 3368.51 L 1706.30 3368.47 L 1701.97 3368.43 L 1697.64 3368.39 L 1693.31 3368.35 L 1688.97 3368.31 L 1684.64 3368.27 L 1680.31 3368.23 L 1675.98 3368.18 L 1671.64 3368.14 L 1667.31 3368.10 L 1662.98 3368.06 L 1658.65 3368.02 L 1654.31 3367.98 L 1649.98 3367.94 L 1645.65 3367.90 L 1641.32 3367.86 L 1636.98 3367.82 L 1632.65 3367.78 L 1628.32 3367.74 L 1623.99 3367.70 L 1619.65 3367.66 L 1615.32 3367.62 L 1610.99 3367.58 L 1606.66 3367.54 L 1602.32 3367.50 L 1597.99 3367.46 L 1593.66 3367.42 L 1589.32 3367.38 L 1584.99 3367.34 L 1580.66 3367.30 L 1576.33 3367.26 L 1571.99 3367.22 L 1567.66 3367.18 L 1563.33 3367.14 L 1559.00 3367.10 L 1554.66 3367.06 L 1550.33 3367.02 L 1546.00 3366.98 L 1541.67 3366.94 L 1537.33 3366.90 L 1533.00 3366.86 L 1528.67 3366.82 L 1524.34 3366.78 L 1520.00 3366.74 L 1515.67 3366.70 L 1511.34 3366.66 L 1507.01 3366.62 L 1502.67 3366.58 L 1498.34 3366.54 L 1494.01 3366.50 L 1489.68 3366.46 L 1485.34 3366.42 L 1481.01 3366.38 L 1476.68 3366.34 L 1472.35 3366.30 L 1468.01 3366.26 L 1463.68 3366.22 L 1459.35 3366.18 L 1455.02 3366.14 L 1450.68 3366.10 L 1446.35 3366.06 L 1442.02 3366.02 L 1437.69 3365.98 L 1433.35 3365.94 L 1429.02 3365.90 L 1424.69 3365.86 L 1420.36 3365.82 L 1416.02 3365.78 L 1411.69 3365.74 L 1407.36 3365.70 L 1403.02 3365.66 L 1398.69 3365.62 L 1394.36 3365.58 L 1390.03 3365.54 L 1385.69 3365.50 L 1381.36 3365.46 L 1377.03 3365.42 L 1372.70 3365.38 L 1368.36 3365.34 L 1364.03 3365.30 L 1359.70 3365.26 L 1355.37 3365.22 L 1351.03 3365.18 L 1346.70 3365.14 L 1342.37 3365.10 L 1338.04 3365.06 L 1333.70 3365.02 L 1329.37 3364.98 L 1325.04 3364.94 L 1320.71 3364.90 L 1316.37 3364.86 L 1312.04 3364.75 L 1307.72 3364.52 L 1303.40 3364.19 L 1299.09 3363.82 L 1294.77 3363.44 L 1290.45 3363.07 L 1286.14 3362.69 L 1281.82 3362.31 L 1277.50 3361.94 L 1273.19 3361.56 L 1268.87 3361.19 L 1264.55 3360.81 L 1260.24 3360.44 L 1255.92 3360.06 L 1251.60 3359.69 L 1247.29 3359.31 L 1242.97 3358.94 L 1238.66 3358.56 L 1234.34 3358.19 L 1230.02 3357.81 L 1225.71 3357.44 L 1221.39 3357.06 L 1217.07 3356.68 L 1212.76 3356.31 L 1208.44 3355.93 L 1204.12 3355.56 L 1199.81 3355.18 L 1195.49 3354.81 L 1191.17 3354.43 L 1186.86 3354.06 L 1182.54 3353.68 L 1178.22 3353.31 L 1173.91 3352.93 L 1169.59 3352.56 L 1165.28 3352.18 L 1160.96 3351.81 L 1156.64 3351.43 L 1152.33 3351.05 L 1148.01 3350.68 L 1143.69 3350.30 L 1139.38 3349.93 L 1135.06 3349.55 L 1130.74 3349.18 L 1126.43 3348.80 L 1122.11 3348.43 L 1117.79 3348.05 L 1113.48 3347.68 L 1109.16 3347.30 L 1104.84 3346.93 L 1100.53 3346.55 L 1096.21 3346.17 L 1091.90 3345.76 L 1087.60 3345.28 L 1083.30 3344.72 L 1079.01 3344.12 L 1074.72 3343.52 L 1070.43 3342.92 L 1066.14 3342.32 L 1061.85 3341.71 L 1057.55 3341.11 L 1053.26 3340.51 L 1048.97 3339.91 L 1044.68 3339.31 L 1040.39 3338.71 L 1036.10 3338.11 L 1031.81 3337.51 L 1027.52 3336.91 L 1023.23 3336.31 L 1018.94 3335.71 L 1014.65 3335.11 L 1010.35 3334.51 L 1006.06 3333.90 L 1001.77 3333.30 L 997.48 3332.70 L 993.19 3332.10 L 988.90 3331.50 L 984.61 3330.90 L 980.32 3330.30 L 976.03 3329.70 L 971.74 3329.10 L 967.45 3328.50 L 963.15 3327.90 L 958.86 3327.30 L 954.57 3326.70 L 950.28 3326.10 L 945.99 3325.49 L 941.70 3324.89 L 937.41 3324.29 L 933.12 3323.69 L 928.83 3323.09 L 924.54 3322.49 L 920.25 3321.89 L 915.95 3321.29 L 911.66 3320.69 L 907.37 3320.09 L 903.08 3319.49 L 898.79 3318.89 L 894.50 3318.29 L 890.21 3317.69 L 885.92 3317.08 L 881.63 3316.48 L 877.34 3315.88 L 873.05 3315.28 L 868.75 3314.68 L 864.46 3314.08 L 860.17 3313.48 L 855.88 3312.88 L 851.60 3312.23 L 847.33 3311.49 L 843.08 3310.67 L 838.84 3309.80 L 834.59 3308.93 L 830.35 3308.06 L 826.10 3307.19 L 821.86 3306.33 L 817.61 3305.46 L 813.37 3304.59 L 809.12 3303.72 L 804.88 3302.85 L 800.63 3301.98 L 796.39 3301.12 L 792.14 3300.25 L 787.90 3299.38 L 783.65 3298.51 L 779.41 3297.64 L 775.16 3296.77 L 770.92 3295.91 L 766.67 3295.04 L 762.43 3294.17 L 758.18 3293.30 L 753.94 3292.43 L 749.69 3291.56 L 745.45 3290.70 L 741.20 3289.83 L 736.96 3288.96 L 732.71 3288.09 L 728.47 3287.22 L 724.22 3286.35 L 719.98 3285.49 L 715.73 3284.62 L 711.49 3283.75 L 707.24 3282.88 L 703.00 3282.01 L 698.76 3281.15 L 694.51 3280.28 L 690.27 3279.41 L 686.02 3278.54 L 681.78 3277.67 L 677.53 3276.80 L 673.29 3275.94 L 669.04 3275.07 L 664.80 3274.20 L 660.55 3273.33 L 656.31 3272.46 L 652.06 3271.59 L 647.82 3270.73 L 643.57 3269.86 L 639.34 3268.93 L 635.13 3267.93 L 630.93 3266.84 L 626.74 3265.75 L 622.55 3264.65 L 618.36 3263.55 L 614.17 3262.45 L 609.98 3261.36 L 605.78 3260.26 L 601.59 3259.16 L 597.40 3258.06 L 593.21 3256.96 L 589.02 3255.87 L 584.83 3254.77 L 580.64 3253.67 L 576.44 3252.57 L 572.25 3251.48 L 568.06 3250.38 L 563.87 3249.28 L 559.68 3248.18 L 555.49 3247.08 L 551.30 3245.99 L 547.11 3244.89 L 542.91 3243.79 L 538.72 3242.69 L 534.53 3241.60 L 530.34 3240.50 L 526.15 3239.40 L 521.96 3238.30 L 517.77 3237.21 L 513.57 3236.11 L 509.38 3235.01 L 505.19 3233.91 L 501.00 3232.81 L 496.81 3231.72 L 492.62 3230.62 L 488.43 3229.52 L 484.23 3228.42 L 480.04 3227.33 L 475.85 3226.23 L 471.66 3225.13 L 467.47 3224.03 L 463.28 3222.93 L 459.09 3221.84 L 454.89 3220.74 L 450.70 3219.64 L 446.51 3218.54 L 442.32 3217.45 L 438.14 3216.29 L 433.99 3215.06 L 429.86 3213.76 L 425.74 3212.42 L 421.62 3211.09 L 417.50 3209.75 L 413.37 3208.42 L 409.25 3207.09 L 405.13 3205.75 L 401.01 3204.42 L 396.88 3203.09 L 392.76 3201.75 L 388.64 3200.42 L 384.52 3199.08 L 380.39 3197.75 L 376.27 3196.42 L 372.15 3195.08 L 368.03 3193.75 L 363.90 3192.42 L 359.78 3191.08 L 355.66 3189.75 L 351.54 3188.42 L 347.42 3187.08 L 343.29 3185.75 L 339.17 3184.41 L 335.05 3183.08 L 330.93 3181.75 L 326.80 3180.41 L 322.68 3179.08 L 318.56 3177.75 L 314.44 3176.41 L 310.31 3175.08 L 306.19 3173.74 L 302.07 3172.41 L 297.95 3171.08 L 293.82 3169.74 L 289.70 3168.41 L 285.58 3167.08 L 281.46 3165.74 L 277.34 3164.40 L 273.25 3162.96 L 269.20 3161.43 L 265.19 3159.81 L 261.17 3158.18 L 257.15 3156.56 L 253.13 3154.94 L 249.11 3153.32 L 245.10 3151.70 L 241.08 3150.08 L 237.06 3148.46 L 233.04 3146.83 L 229.02 3145.21 L 225.01 3143.59 L 220.99 3141.97 L 216.97 3140.35 L 212.95 3138.73 L 208.93 3137.11 L 204.92 3135.49 L 200.90 3133.86 L 196.88 3132.24 L 192.86 3130.62 L 188.84 3129.00 L 184.83 3127.38 L 180.81 3125.76 L 176.79 3124.14 L 172.77 3122.52 L 168.75 3120.89 L 164.74 3119.27 L 160.72 3117.65 L 156.70 3116.03 L 152.68 3114.41 L 148.67 3112.79 L 144.65 3111.17 L 140.63 3109.55 L 136.61 3107.92 L 132.59 3106.30 L 128.58 3104.68 L 124.56 3103.06 L 120.54 3101.44 L 116.52 3099.82 L 112.50 3098.20 L 108.49 3096.57 L 104.47 3094.95 L 100.45 3093.33 L 96.43 3091.71 L 92.41 3090.09 L 88.40 3088.47 L 84.38 3086.85 L 80.36 3085.23 L 76.34 3083.60 L 72.32 3081.98 L 68.31 3080.36 L 64.29 3078.74 L 60.27 3077.12 L 56.25 3075.50 L 52.23 3073.88 L 48.22 3072.26 L 44.20 3070.63 L 40.18 3069.01 L 36.16 3067.39 L 32.14 3065.77 L 28.13 3064.15 L 24.11 3062.53 L 20.09 3060.91 L 16.07 3059.29 L 12.05 3057.66 L 8.04 3056.04 L 4.02 3054.42 M 4813.75 3152.07 L 4813.09 3155.35 L 4812.44 3158.62 L 4811.78 3161.89 L 4811.13 3165.16 L 4810.47 3168.44 L 4809.82 3171.71 L 4809.16 3174.98 L 4808.51 3178.25 L 4807.85 3181.53 L 4807.20 3184.80 L 4806.55 3188.07 L 4805.89 3191.34 L 4805.24 3194.62 L 4804.58 3197.89 L 4803.93 3201.16 L 4803.27 3204.43 L 4802.62 3207.71 L 4801.96 3210.98 L 4801.31 3214.25 L 4800.66 3217.52 L 4801.05 3220.45 L 4802.49 3223.01 L 4804.99 3225.23 L 4807.48 3227.45 L 4809.98 3229.67 L 4812.47 3231.88 L 4814.96 3234.10 L 4817.46 3236.32 L 4819.95 3238.54 L 4822.45 3240.75 L 4824.94 3242.97 L 4827.44 3245.19 L 4829.93 3247.40 L 4832.42 3249.62 L 4834.92 3251.84 L 4837.41 3254.06 L 4839.91 3256.27 L 4842.54 3258.27 L 4845.37 3259.94 L 4848.41 3261.28 L 4851.51 3262.52 L 4854.60 3263.76 L 4857.70 3265.00 L 4860.80 3266.24 L 4863.90 3267.48 L 4867.00 3268.72 L 4870.10 3269.96 L 4873.20 3271.20 L 4876.29 3272.44 L 4879.39 3273.68 L 4882.49 3274.92 L 4885.59 3276.16 L 4888.70 3277.32 L 4891.90 3278.07 L 4895.17 3278.40 L 4898.51 3278.40 L 4901.85 3278.40 L 4905.18 3278.40 L 4908.52 3278.40 L 4911.86 3278.40 L 4915.20 3278.40 L 4918.53 3278.40 L 4921.87 3278.40 L 4925.21 3278.40 L 4928.55 3278.40 L 4931.88 3278.40 L 4935.22 3278.40 L 4938.56 3278.40 L 4941.89 3278.40 L 4945.23 3278.40 L 4948.57 3278.40 L 4951.91 3278.40 L 4955.24 3278.40 L 4958.58 3278.40 L 4961.92 3278.40 L 4965.26 3278.40 L 4968.59 3278.40 L 4971.93 3278.40 L 4975.27 3278.40 L 4978.61 3278.40 L 4981.94 3278.40 L 4985.28 3278.40 L 4988.62 3278.40 L 4991.96 3278.40 L 4995.29 3278.40 L 4998.63 3278.39 L 5001.96 3278.31 L 5005.30 3278.16 L 5008.63 3277.94 L 5011.96 3277.72 L 5015.29 3277.50 L 5018.62 3277.28 L 5021.95 3277.06 L 5025.28 3276.85 L 5028.61 3276.63 L 5031.94 3276.41 L 5035.27 3276.19 L 5038.60 3275.97 L 5041.93 3275.75 L 5045.26 3275.53 L 5048.59 3275.31 L 5051.92 3275.10 L 5055.25 3274.88 L 5058.58 3274.66 L 5061.91 3274.44 L 5065.24 3274.22 L 5068.57 3274.00 L 5071.90 3273.78 L 5075.23 3273.57 L 5078.56 3273.35 L 5081.89 3273.13 L 5085.22 3272.91 L 5088.55 3272.69 L 5091.88 3272.47 L 5095.21 3272.25 L 5098.54 3272.04 L 5101.87 3271.82 L 5105.20 3271.60 L 5108.53 3271.38 L 5111.86 3271.16 L 5115.19 3270.94 L 5118.52 3270.72 L 5121.86 3270.50 L 5125.19 3270.29 L 5128.52 3270.07 L 5131.85 3269.85 L 5135.18 3269.63 L 5138.51 3269.41 L 5141.84 3269.19 L 5145.17 3268.97 L 5148.50 3268.76 L 5151.83 3268.54 L 5155.16 3268.32 L 5158.49 3268.10 L 5161.82 3267.88 L 5165.15 3267.66 L 5168.48 3267.44 L 5171.81 3267.22 L 5175.14 3267.01 L 5178.47 3266.79 L 5181.80 3266.57 L 5185.13 3266.35 L 5188.46 3266.13 L 5191.79 3265.91 L 5195.12 3265.69 L 5198.45 3265.48 L 5201.78 3265.26 L 5205.11 3265.04 L 5208.44 3264.82 L 5211.77 3264.60 L 5215.10 3264.38 L 5218.43 3264.16 L 5221.76 3263.94 L 5225.09 3263.73 L 5228.42 3263.51 L 5231.75 3263.29 L 5235.08 3263.07 L 5238.41 3262.85 L 5241.74 3262.63 L 5245.07 3262.41 L 5248.40 3262.20 L 5251.73 3261.98 L 5255.06 3261.76 L 5258.39 3261.54 L 5261.72 3261.32 L 5265.05 3261.10 L 5268.39 3260.88 L 5271.72 3260.67 L 5275.05 3260.45 L 5278.38 3260.23 L 5281.71 3260.01 L 5285.04 3259.79 L 5288.37 3259.57 L 5291.70 3259.35 L 5295.03 3259.13 L 5298.36 3258.92 L 5301.69 3258.70 L 5305.02 3258.48 L 5308.35 3258.26 L 5311.68 3258.04 L 5315.01 3257.82 L 5318.34 3257.60 L 5321.67 3257.39 L 5325.00 3257.17 L 5328.33 3256.95 L 5331.66 3256.73 L 5334.99 3256.51 L 5338.32 3256.29 L 5341.65 3256.07 L 5344.98 3255.85 L 5348.31 3255.64 L 5351.64 3255.42 L 5354.97 3255.20 L 5358.30 3254.98 L 5361.63 3254.76 L 5364.96 3254.54 L 5368.29 3254.32 L 5371.62 3254.11 L 5374.95 3253.89 L 5378.28 3253.67 L 5381.61 3253.45 L 5384.94 3253.23 L 5388.27 3253.01 L 5391.60 3252.79 L 5394.93 3252.58 L 5398.26 3252.36 L 5401.59 3252.14 L 5404.92 3251.92 L 5408.25 3251.70 L 5411.58 3251.48 L 5414.92 3251.26 L 5418.25 3251.04 L 5421.58 3250.83 L 5424.91 3250.61 L 5428.24 3250.39 L 5431.57 3250.17 L 5434.90 3249.95 L 5438.23 3249.73 L 5441.56 3249.51 L 5444.89 3249.30 L 5448.22 3249.08 L 5451.55 3248.86 L 5454.88 3248.64 L 5458.21 3248.42 L 5461.54 3248.20 L 5464.87 3247.98 L 5468.20 3247.76 L 5471.53 3247.55 L 5474.86 3247.33 L 5478.19 3247.11 L 5481.52 3246.89 L 5484.85 3246.67 L 5488.18 3246.45 L 5491.51 3246.23 L 5494.84 3246.02 L 5498.17 3245.80 L 5501.50 3245.58 L 5504.83 3245.36 L 5508.16 3245.14 L 5511.49 3244.92 L 5514.82 3244.70 L 5518.15 3244.48 L 5521.48 3244.27 L 5524.81 3244.05 L 5528.14 3243.83 L 5531.47 3243.61 L 5534.80 3243.39 L 5538.13 3243.17 L 5541.46 3242.95 L 5544.79 3242.74 L 5548.12 3242.52 L 5551.45 3242.30 L 5554.78 3242.08 L 5558.11 3241.86 L 5561.44 3241.64 L 5564.78 3241.42 L 5568.11 3241.21 L 5571.44 3240.99 L 5574.77 3240.77 L 5578.10 3240.55 L 5581.43 3240.33 L 5584.76 3240.11 L 5588.09 3239.89 L 5591.42 3239.67 L 5594.75 3239.46 L 5598.08 3239.24 L 5601.41 3239.02 L 5604.74 3238.80 L 5608.07 3238.58 L 5611.40 3238.36 L 5614.73 3238.14 L 5618.06 3237.93 L 5621.39 3237.71 L 5624.72 3237.49 L 5628.05 3237.27 L 5631.38 3237.05 L 5634.71 3236.83 L 5638.04 3236.61 L 5641.37 3236.39 L 5644.70 3236.18 L 5648.03 3235.96 L 5651.36 3235.74 L 5654.69 3235.52 L 5658.02 3235.30 L 5661.35 3235.08 L 5664.68 3234.86 L 5668.01 3234.65 L 5671.34 3234.43 L 5674.67 3234.21 L 5678.00 3233.99 L 5681.33 3233.77 L 5684.66 3233.55 L 5687.99 3233.33 L 5691.32 3233.12 L 5694.65 3232.90 L 5697.98 3232.68 L 5701.31 3232.46 L 5704.64 3232.24 L 5707.97 3232.02 L 5711.31 3231.80 L 5714.64 3231.58 L 5717.97 3231.37 L 5721.30 3231.15 L 5724.63 3230.93 L 5727.96 3230.71 L 5731.29 3230.49 L 5734.62 3230.27 L 5737.95 3230.05 L 5741.28 3229.84 L 5744.61 3229.62 L 5747.94 3229.40 L 5751.27 3229.18 L 5754.60 3228.96 L 5757.93 3228.74 L 5761.26 3228.52 L 5764.59 3228.30 L 5767.92 3228.09 L 5771.25 3227.87 L 5774.58 3227.65 L 5777.91 3227.43 L 5781.24 3227.21 L 5784.57 3226.99 L 5787.90 3226.77 L 5791.23 3226.56 L 5794.56 3226.34 L 5797.89 3226.12 L 5801.22 3225.90 L 5804.55 3225.68 L 5807.88 3225.46 L 5811.21 3225.24 L 5814.54 3225.03 L 5817.87 3224.81 L 5821.20 3224.59 L 5824.53 3224.37 L 5827.86 3224.15 L 5831.19 3223.93 L 5834.52 3223.71 L 5837.85 3223.49 L 5841.18 3223.28 L 5844.51 3223.06 L 5847.84 3222.84 L 5851.17 3222.62 L 5854.50 3222.40 L 5857.84 3222.18 L 5861.17 3221.96 L 5864.50 3221.75 L 5867.83 3221.53 L 5871.16 3221.31 L 5874.49 3221.09 L 5877.82 3220.87 L 5881.15 3220.65 L 5884.48 3220.43 L 5887.81 3220.21 L 5891.14 3220.00 L 5894.47 3219.78 L 5897.80 3219.56 L 5901.13 3219.34 L 5904.46 3219.12 L 5907.79 3218.90 L 5911.12 3218.68 L 5914.45 3218.47 L 5917.78 3218.25 L 5921.11 3218.03 L 5924.44 3217.81 L 5927.77 3217.59 L 5931.10 3217.37 L 5934.43 3217.15 L 5937.76 3216.93 L 5941.09 3216.72 L 5944.42 3216.50 L 5947.75 3216.28 L 5951.04 3216.37 L 5954.28 3216.88 L 5957.46 3217.82 L 5960.63 3218.88 L 5963.80 3219.86 L 5967.03 3220.43 L 5970.32 3220.59 L 5973.65 3220.42 L 5976.99 3220.24 L 5980.32 3220.07 L 5983.65 3219.89 L 5986.98 3219.72 L 5990.32 3219.54 L 5993.65 3219.37 L 5996.98 3219.19 L 6000.31 3219.02 L 6003.65 3218.84 L 6006.98 3218.66 L 6010.31 3218.49 L 6013.65 3218.31 L 6016.98 3218.14 L 6020.31 3217.96 L 6023.64 3217.79 L 6026.98 3217.61 L 6030.31 3217.44 L 6033.64 3217.26 L 6036.98 3217.09 L 6040.31 3216.91 L 6043.64 3216.73 L 6046.97 3216.56 L 6050.31 3216.38 L 6053.64 3216.21 L 6056.97 3216.03 L 6060.30 3215.86 L 6063.64 3215.68 L 6066.97 3215.51 L 6070.30 3215.33 L 6073.64 3215.16 L 6076.97 3214.98 L 6080.30 3214.81 L 6083.63 3214.63 L 6086.97 3214.45 L 6090.30 3214.28 L 6093.63 3214.10 L 6096.97 3213.93 L 6100.30 3213.75 L 6103.63 3213.58 L 6106.96 3213.40 L 6110.30 3213.23 L 6113.63 3213.05 L 6116.96 3212.88 L 6120.29 3212.70 L 6123.63 3212.52 L 6126.96 3212.35 L 6130.29 3212.17 L 6133.63 3212.00 L 6136.96 3211.82 L 6140.29 3211.65 L 6143.62 3211.47 L 6146.96 3211.30 L 6150.29 3211.12 L 6153.62 3210.95 L 6156.96 3210.77 L 6160.29 3210.60 L 6163.62 3210.42 L 6166.95 3210.24 L 6170.29 3210.07 L 6173.62 3209.89 L 6176.95 3209.72 L 6180.28 3209.54 L 6183.62 3209.37 L 6186.95 3209.19 L 6190.28 3209.02 L 6193.62 3208.84 L 6196.95 3208.67 L 6200.28 3208.49 L 6203.61 3208.32 L 6206.95 3208.14 L 6210.28 3207.96 L 6213.61 3207.79 L 6216.95 3207.61 L 6220.28 3207.44 L 6223.61 3207.26 L 6226.94 3207.09 L 6230.28 3206.91 L 6233.61 3206.74 L 6236.94 3206.57 L 6240.28 3206.45 L 6243.61 3206.40 L 6246.95 3206.40 L 6250.29 3206.40 L 6253.62 3206.40 L 6256.96 3206.40 L 6260.30 3206.40 L 6263.64 3206.40 L 6266.97 3206.40 L 6270.31 3206.40 L 6273.65 3206.40 L 6276.99 3206.40 L 6280.32 3206.40 L 6283.66 3206.40 L 6287.00 3206.40 L 6290.34 3206.40 L 6293.67 3206.40 L 6297.01 3206.40 L 6300.35 3206.40 L 6303.69 3206.40 L 6307.02 3206.40 L 6310.36 3206.40 L 6313.70 3206.40 L 6317.04 3206.40 L 6320.37 3206.40 L 6323.71 3206.40 L 6327.05 3206.40 L 6330.39 3206.40 L 6333.72 3206.40 L 6337.06 3206.40 L 6340.40 3206.40 L 6343.73 3206.40 L 6347.07 3206.40 L 6350.41 3206.40 L 6353.75 3206.40 L 6357.08 3206.40 L 6360.42 3206.40 L 6363.76 3206.40 L 6367.10 3206.40 L 6370.43 3206.40 L 6373.77 3206.40 L 6377.11 3206.40 L 6380.45 3206.40 L 6383.78 3206.40 L 6387.12 3206.40 L 6390.46 3206.40 L 6393.80 3206.40 L 6397.13 3206.40 L 6400.47 3206.40 L 6403.81 3206.40 L 6407.15 3206.40 L 6410.48 3206.40 L 6413.82 3206.40 L 6417.16 3206.40 L 6420.49 3206.40 L 6423.83 3206.40 L 6427.17 3206.40 L 6430.51 3206.40 L 6433.84 3206.40 L 6437.18 3206.40 L 6440.52 3206.40 L 6443.86 3206.40 L 6447.19 3206.40 L 6450.53 3206.40 L 6453.87 3206.40 L 6457.21 3206.40 L 6460.54 3206.40 L 6463.88 3206.40 L 6467.22 3206.40 L 6470.56 3206.40 L 6473.89 3206.40 L 6477.23 3206.40 L 6480.57 3206.40 L 6483.91 3206.40 L 6487.24 3206.40 L 6490.58 3206.40 L 6493.92 3206.40 L 6497.25 3206.40 L 6500.59 3206.40 L 6503.93 3206.40 L 6507.27 3206.40 L 6510.60 3206.40 L 6513.94 3206.40 L 6517.28 3206.40 L 6520.62 3206.40 L 6523.95 3206.40 L 6527.29 3206.40 L 6530.63 3206.40 L 6533.97 3206.40 L 6537.30 3206.40 L 6540.64 3206.40 L 6543.98 3206.40 L 6547.32 3206.40 L 6550.65 3206.40 L 6553.99 3206.40 L 6557.33 3206.40 L 6560.67 3206.40 L 6564.00 3206.40 L 6567.34 3206.40 L 6570.68 3206.40 L 6574.01 3206.40 L 6577.35 3206.40 L 6580.69 3206.40 L 6584.03 3206.40 L 6587.36 3206.40 L 6590.70 3206.40 L 6594.04 3206.40 L 6597.38 3206.40 L 6600.71 3206.40 L 6604.05 3206.40 L 6607.39 3206.40 L 6610.73 3206.40 L 6614.06 3206.40 L 6617.40 3206.40 L 6620.74 3206.40 L 6624.08 3206.40 L 6627.41 3206.40 L 6630.75 3206.40 L 6634.09 3206.40 L 6637.42 3206.45 L 6640.76 3206.58 L 6644.09 3206.77 L 6647.42 3206.99 L 6650.75 3207.21 L 6654.08 3207.43 L 6657.41 3207.65 L 6660.74 3207.86 L 6664.07 3208.08 L 6667.40 3208.30 L 6670.73 3208.52 L 6674.06 3208.74 L 6677.39 3208.96 L 6680.72 3209.18 L 6684.05 3209.39 L 6687.38 3209.61 L 6690.71 3209.83 L 6694.04 3210.05 L 6697.37 3210.27 L 6700.70 3210.49 L 6704.03 3210.70 L 6707.36 3210.92 L 6710.69 3211.14 L 6714.02 3211.36 L 6717.35 3211.58 L 6720.68 3211.80 L 6724.01 3212.01 L 6727.34 3212.23 L 6730.67 3212.45 L 6734.00 3212.67 L 6737.33 3212.89 L 6740.67 3213.11 L 6744.00 3213.32 L 6747.33 3213.54 L 6750.66 3213.76 L 6753.99 3213.98 L 6757.32 3214.20 L 6760.65 3214.42 L 6763.98 3214.63 L 6767.31 3214.85 L 6770.64 3215.07 L 6773.97 3215.29 L 6777.30 3215.51 L 6780.63 3215.73 L 6783.96 3215.94 L 6787.29 3216.16 L 6790.62 3216.38 L 6793.95 3216.60 L 6797.28 3216.82 L 6800.61 3217.04 L 6803.94 3217.26 L 6807.27 3217.47 L 6810.60 3217.69 L 6813.93 3217.91 L 6817.26 3218.13 L 6820.59 3218.35 L 6823.92 3218.57 L 6827.25 3218.78 L 6830.58 3219.00 L 6833.91 3219.22 L 6837.24 3219.44 L 6840.57 3219.66 L 6843.90 3219.88 L 6847.23 3220.09 L 6850.56 3220.31 L 6853.89 3220.53 L 6857.22 3220.75 L 6860.55 3220.97 L 6863.88 3221.19 L 6867.21 3221.40 L 6870.54 3221.62 L 6873.87 3221.84 L 6877.21 3222.06 L 6880.54 3222.28 L 6883.87 3222.50 L 6887.20 3222.71 L 6890.53 3222.93 L 6893.86 3223.15 L 6897.19 3223.37 L 6900.52 3223.59 L 6903.85 3223.81 L 6907.18 3224.02 L 6910.51 3224.24 L 6913.84 3224.46 L 6917.17 3224.68 L 6920.50 3224.90 L 6923.83 3225.12 L 6927.16 3225.34 L 6930.23 3224.88 L 6932.99 3223.56 L 6935.66 3222.07 L 6938.58 3221.30 L 6941.81 3221.45 L 6945.13 3221.81 L 6948.45 3222.18 L 6951.76 3222.55 L 6955.08 3222.92 L 6958.40 3223.29 L 6961.72 3223.66 L 6965.03 3224.03 L 6968.35 3224.39 L 6971.67 3224.76 L 6974.98 3225.13 L 6978.30 3225.50 L 6981.62 3225.87 L 6984.93 3226.24 L 6988.25 3226.61 L 6991.57 3226.97 L 6994.88 3227.34 L 6998.20 3227.71 L 7001.52 3228.08 L 7004.84 3228.45 L 7008.15 3228.82 L 7011.47 3229.19 L 7014.79 3229.55 L 7018.10 3229.92 L 7021.42 3230.29 L 7024.74 3230.66 L 7028.05 3231.03 L 7031.37 3231.40 L 7034.69 3231.77 L 7038.01 3232.13 L 7041.32 3232.50 L 7044.64 3232.87 L 7047.96 3233.24 L 7051.27 3233.61 L 7054.59 3233.98 L 7057.91 3234.35 L 7061.22 3234.71 L 7064.54 3235.08 L 7067.86 3235.45 L 7071.18 3235.82 L 7074.49 3236.19 L 7077.81 3236.56 L 7081.13 3236.93 L 7084.44 3237.29 L 7087.76 3237.66 L 7091.08 3238.03 L 7094.39 3238.40 L 7097.71 3238.77 L 7101.03 3239.14 L 7104.35 3239.51 L 7107.66 3239.87 L 7110.98 3240.24 L 7114.30 3240.61 L 7117.61 3240.98 L 7120.93 3241.35 L 7124.25 3241.72 L 7127.56 3242.08 L 7130.88 3242.45 L 7134.20 3242.82 L 7137.52 3243.19 L 7140.83 3243.56 L 7144.15 3243.93 L 7147.47 3244.30 L 7150.78 3244.66 L 7154.10 3245.03 L 7157.42 3245.40 L 7160.73 3245.77 L 7164.05 3246.14 L 7167.37 3246.51 L 7170.69 3246.88 L 7174.00 3247.24 L 7177.32 3247.61 L 7180.64 3247.98 L 7183.95 3248.35 L 7187.27 3248.72 L 7190.59 3249.09 L 7193.90 3249.46 L 7197.22 3249.82 L 7200.54 3250.19 L 7203.85 3250.56 L 7207.17 3250.93 L 7210.49 3251.30 L 7213.81 3251.67 L 7217.12 3252.04 L 7220.44 3252.40 L 7223.76 3252.77 L 7227.07 3253.14 L 7230.39 3253.51 L 7233.71 3253.88 L 7237.01 3254.31 L 7240.30 3254.86 L 7243.57 3255.51 L 7246.84 3256.21 L 7250.10 3256.91 L 7253.36 3257.61 L 7256.63 3258.31 L 7259.89 3259.01 L 7263.15 3259.70 L 7266.42 3260.40 L 7269.68 3261.10 L 7272.94 3261.80 L 7276.21 3262.50 L 7279.47 3263.20 L 7282.73 3263.90 L 7286.00 3264.60 L 7289.26 3265.30 L 7292.52 3266.00 L 7295.79 3266.70 L 7299.05 3267.40 L 7302.31 3268.10 L 7305.58 3268.79 L 7308.84 3269.49 L 7312.10 3270.19 L 7315.37 3270.89 L 7318.63 3271.59 L 7321.89 3272.29 L 7325.16 3272.99 L 7328.42 3273.69 L 7331.68 3274.39 L 7334.95 3275.09 L 7338.21 3275.79 L 7341.47 3276.49 L 7344.74 3277.19 L 7348.00 3277.89 L 7351.26 3278.58 L 7354.53 3279.28 L 7357.79 3279.98 L 7361.05 3280.68 L 7364.32 3281.38 L 7367.58 3282.08 L 7370.84 3282.78 L 7374.11 3283.48 L 7377.37 3284.18 L 7380.63 3284.88 L 7383.90 3285.58 L 7387.16 3286.28 L 7390.42 3286.98 L 7393.69 3287.68 L 7396.95 3288.37 L 7400.21 3289.07 L 7403.48 3289.77 L 7406.74 3290.47 L 7410.00 3291.17 L 7413.27 3291.87 L 7416.53 3292.57 L 7419.79 3293.27 L 7423.06 3293.97 L 7426.32 3294.67 L 7429.58 3295.37 L 7432.85 3296.07 L 7436.11 3296.77 L 7439.37 3297.47 L 7442.64 3298.16 L 7445.90 3298.86 L 7449.16 3299.56 L 7452.43 3300.26 L 7455.69 3300.96 L 7458.95 3301.66 L 7462.22 3302.36 L 7465.48 3303.06 L 7468.74 3303.76 L 7472.01 3304.46 L 7475.27 3305.16 L 7478.53 3305.86 L 7481.80 3306.56 L 7485.06 3307.26 L 7488.32 3307.95 L 7491.59 3308.65 L 7494.85 3309.35 L 7498.11 3310.05 L 7501.38 3310.75 L 7504.63 3311.48 L 7507.85 3312.33 L 7511.04 3313.32 L 7514.19 3314.40 L 7517.35 3315.48 L 7520.51 3316.56 L 7523.66 3317.64 L 7526.82 3318.73 L 7529.98 3319.81 L 7533.14 3320.89 L 7536.29 3321.97 L 7539.45 3323.06 L 7542.61 3324.14 L 7545.76 3325.22 L 7548.92 3326.30 L 7552.08 3327.39 L 7555.23 3328.47 L 7558.39 3329.55 L 7561.55 3330.63 L 7564.71 3331.72 L 7567.86 3332.80 L 7571.02 3333.88 L 7574.18 3334.96 L 7577.33 3336.05 L 7580.49 3337.13 L 7583.65 3338.21 L 7586.80 3339.29 L 7589.96 3340.38 L 7593.12 3341.46 L 7596.28 3342.54 L 7599.43 3343.62 L 7602.59 3344.70 L 7605.75 3345.79 L 7608.90 3346.87 L 7612.06 3347.95 L 7615.22 3349.03 L 7618.37 3350.12 L 7621.53 3351.20 L 7624.69 3352.28 L 7627.85 3353.36 L 7631.00 3354.45 L 7634.16 3355.53 L 7637.32 3356.61 L 7640.47 3357.69 L 7643.63 3358.78 L 7646.79 3359.86 L 7649.94 3360.94 L 7653.10 3362.02 L 7656.26 3363.11 L 7659.42 3364.19 L 7662.57 3365.27 L 7665.73 3366.35 L 7668.89 3367.44 L 7672.04 3368.52 M 4676.68 3101.21 L 4673.35 3101.63 L 4670.03 3102.04 L 4666.70 3102.45 L 4663.38 3102.86 L 4660.05 3103.28 L 4656.73 3103.69 L 4653.40 3104.10 L 4650.08 3104.51 L 4646.75 3104.93 L 4643.43 3105.34 L 4640.10 3105.75 L 4636.78 3106.16 L 4633.45 3106.58 L 4630.13 3106.99 L 4626.80 3107.40 L 4623.48 3107.81 L 4620.15 3108.23 L 4616.83 3108.64 L 4613.50 3109.05 L 4610.18 3109.46 L 4606.85 3109.88 L 4603.53 3110.29 L 4600.20 3110.70 L 4596.88 3111.11 L 4593.55 3111.53 L 4590.23 3111.94 L 4586.90 3112.35 L 4583.58 3112.76 L 4580.25 3113.18 L 4576.93 3113.59 L 4573.60 3114.00 L 4570.28 3114.41 L 4566.95 3114.83 L 4563.63 3115.24 L 4560.30 3115.65 L 4556.98 3116.07 L 4553.66 3116.48 L 4550.33 3116.89 L 4547.01 3117.30 L 4543.68 3117.72 L 4540.36 3118.13 L 4537.03 3118.54 L 4533.71 3118.95 L 4530.38 3119.37 L 4527.06 3119.78 L 4523.73 3120.19 L 4520.41 3120.60 L 4517.08 3121.02 L 4513.76 3121.43 L 4510.43 3121.84 L 4507.11 3122.25 L 4503.78 3122.67 L 4500.46 3123.08 L 4497.13 3123.49 L 4493.81 3123.90 L 4490.48 3124.32 L 4487.16 3124.73 L 4483.83 3125.14 L 4480.51 3125.55 L 4477.18 3125.97 L 4473.86 3126.38 L 4470.53 3126.79 L 4467.21 3127.20 L 4463.88 3127.62 L 4460.56 3128.03 L 4457.23 3128.44 L 4453.91 3128.86 L 4450.58 3129.27 L 4447.26 3129.68 L 4443.93 3130.09 L 4440.61 3130.51 L 4437.28 3130.92 L 4433.96 3131.33 L 4430.63 3131.74 L 4427.31 3132.16 L 4423.99 3132.57 L 4420.66 3132.98 L 4417.34 3133.39 L 4414.01 3133.81 L 4410.69 3134.22 L 4407.36 3134.63 L 4404.04 3135.04 L 4400.71 3135.46 L 4397.39 3135.87 L 4394.06 3136.28 L 4390.74 3136.69 L 4387.41 3137.11 L 4384.09 3137.52 L 4380.76 3137.93 L 4377.44 3138.34 L 4374.11 3138.76 L 4370.79 3139.17 L 4367.46 3139.58 L 4364.14 3139.99 L 4360.81 3140.41 L 4357.49 3140.82 L 4354.16 3141.23 L 4350.84 3141.64 L 4347.51 3142.06 L 4344.19 3142.47 L 4340.86 3142.88 L 4337.54 3143.30 L 4334.21 3143.71 L 4330.89 3144.12 L 4327.56 3144.53 L 4324.24 3144.95 L 4320.91 3145.36 L 4317.59 3145.77 L 4314.26 3146.18 L 4310.94 3146.60 L 4307.61 3147.01 L 4304.29 3147.42 L 4300.97 3147.83 L 4297.64 3148.25 L 4294.32 3148.66 L 4290.99 3149.07 L 4287.67 3149.48 L 4284.34 3149.90 L 4281.02 3150.31 L 4277.69 3150.72 L 4274.37 3151.13 L 4271.04 3151.55 L 4267.72 3151.96 L 4264.39 3152.37 L 4261.07 3152.78 L 4257.74 3153.20 L 4254.42 3153.61 L 4251.09 3154.02 L 4247.77 3154.43 L 4244.44 3154.85 L 4241.12 3155.26 L 4237.79 3155.67 L 4234.47 3156.09 L 4231.14 3156.50 L 4227.82 3156.91 L 4224.49 3157.32 L 4221.17 3157.74 L 4217.84 3158.15 L 4214.52 3158.56 L 4211.19 3158.97 L 4207.87 3159.39 L 4204.54 3159.80 L 4201.22 3160.21 L 4197.89 3160.62 L 4194.57 3161.04 L 4191.24 3161.45 L 4187.92 3161.86 L 4184.59 3162.27 L 4181.27 3162.69 L 4177.94 3163.10 L 4174.62 3163.51 L 4171.30 3163.92 L 4167.97 3164.34 L 4164.65 3164.75 L 4161.32 3165.16 L 4158.00 3165.57 L 4154.67 3165.99 L 4151.35 3166.40 L 4148.02 3166.81 L 4144.70 3167.22 L 4141.37 3167.64 L 4138.05 3168.05 L 4134.72 3168.46 L 4131.40 3168.87 L 4128.07 3169.29 L 4124.75 3169.70 L 4121.42 3170.11 L 4118.10 3170.53 L 4114.77 3170.94 L 4111.45 3171.35 L 4108.12 3171.76 L 4104.80 3172.18 L 4101.47 3172.59 L 4098.15 3173.00 L 4094.82 3173.41 L 4091.50 3173.83 L 4088.17 3174.24 L 4084.85 3174.65 L 4081.52 3175.06 L 4078.20 3175.48 L 4074.87 3175.89 L 4071.55 3176.30 L 4068.22 3176.71 L 4064.90 3177.13 L 4061.57 3177.54 L 4058.25 3177.95 L 4054.92 3178.36 L 4051.60 3178.78 L 4048.28 3179.19 L 4044.95 3179.60 L 4041.63 3180.01 L 4038.30 3180.43 L 4034.98 3180.84 L 4031.65 3181.25 L 4028.33 3181.66 L 4025.00 3182.03 L 4021.67 3182.19 L 4018.33 3182.13 L 4014.99 3181.91 L 4011.64 3181.68 L 4008.30 3181.46 L 4004.96 3181.24 L 4001.61 3181.01 L 3998.27 3180.79 L 3994.93 3180.57 L 3991.59 3180.35 L 3988.24 3180.12 L 3984.90 3179.90 L 3981.56 3179.68 L 3978.21 3179.45 L 3974.87 3179.23 L 3971.53 3179.01 L 3968.19 3178.79 L 3964.84 3178.56 L 3961.50 3178.34 L 3958.16 3178.12 L 3954.81 3177.89 L 3951.59 3177.31 L 3948.53 3176.21 L 3945.65 3174.58 L 3942.83 3172.78 L 3940.00 3170.98 L 3937.17 3169.18 L 3934.35 3167.38 L 3931.52 3165.58 L 3928.69 3163.79 L 3925.87 3161.99 L 3923.04 3160.19 L 3920.21 3158.39 L 3917.39 3156.59 L 3914.56 3154.79 L 3911.73 3152.99 L 3908.91 3151.19 L 3906.08 3149.40 L 3903.25 3147.60 L 3900.43 3145.80 L 3897.60 3144.00 L 3931.20 3024.00 M 4264.12 2866.99 L 4261.04 2868.38 L 4257.96 2869.77 L 4254.88 2871.17 L 4251.80 2872.56 L 4248.72 2873.95 L 4245.64 2875.34 L 4242.55 2876.73 L 4239.47 2878.12 L 4236.39 2879.51 L 4233.31 2880.90 L 4230.23 2882.30 L 4227.15 2883.69 L 4224.07 2885.08 L 4220.99 2886.47 L 4217.91 2887.86 L 4214.83 2889.25 L 4211.75 2890.64 L 4208.67 2892.03 L 4205.59 2893.43 L 4202.51 2894.82 L 4199.43 2896.21 L 4196.35 2897.60 L 4193.26 2898.99 L 4190.18 2900.38 L 4187.10 2901.77 L 4184.02 2903.16 L 4180.94 2904.56 L 4177.86 2905.95 L 4174.78 2907.34 L 4171.70 2908.73 L 4168.62 2910.12 L 4165.54 2911.51 L 4162.46 2912.90 L 4159.38 2914.29 L 4156.30 2915.69 L 4153.22 2917.08 L 4150.14 2918.47 L 4147.06 2919.86 L 4143.97 2921.25 L 4140.89 2922.64 L 4137.81 2924.03 L 4134.73 2925.42 L 4131.65 2926.82 L 4128.57 2928.21 L 4125.49 2929.60 L 4122.41 2930.99 L 4119.33 2932.38 L 4116.25 2933.77 L 4113.17 2935.16 L 4110.09 2936.55 L 4107.01 2937.95 L 4103.93 2939.34 L 4100.85 2940.73 L 4097.77 2942.12 L 4094.68 2943.51 L 4091.60 2944.90 L 4088.52 2946.29 L 4085.44 2947.68 L 4082.36 2949.08 L 4079.28 2950.47 L 4076.20 2951.86 L 4073.12 2953.25 L 4070.04 2954.64 L 4066.96 2956.03 L 4063.88 2957.42 L 4060.80 2958.81 L 4057.72 2960.21 L 4054.64 2961.60 L 4051.56 2962.99 L 4048.48 2964.38 L 4045.39 2965.77 L 4042.31 2967.16 L 4039.23 2968.55 L 4036.15 2969.94 L 4033.07 2971.34 L 4029.99 2972.73 L 4026.91 2974.12 L 4023.83 2975.51 L 4020.75 2976.90 L 4017.67 2978.29 L 4014.59 2979.68 L 4011.51 2981.07 L 4008.43 2982.47 L 4005.35 2983.86 L 4002.27 2985.25 L 3999.18 2986.64 L 3996.10 2988.03 L 3993.02 2989.42 L 3989.94 2990.81 L 3986.86 2992.20 L 3983.78 2993.60 L 3980.70 2994.99 L 3977.62 2996.38 L 3974.54 2997.77 L 3971.49 2999.21 L 3968.51 3000.79 L 3965.60 3002.50 L 3962.73 3004.29 L 3959.86 3006.08 L 3957.00 3007.88 L 3954.13 3009.67 L 3951.26 3011.46 L 3948.40 3013.25 L 3945.53 3015.04 L 3942.67 3016.83 L 3939.80 3018.63 L 3936.93 3020.42 L 3934.07 3022.21 M 4950.64 3101.50 L 4947.69 3102.21 L 4944.73 3102.91 L 4941.78 3103.62 L 4938.82 3104.32 L 4935.86 3105.02 L 4932.91 3105.73 L 4929.95 3106.43 L 4926.99 3107.13 L 4924.04 3107.84 L 4921.08 3108.54 L 4918.13 3109.25 L 4915.17 3109.95 L 4912.21 3110.65 L 4909.26 3111.36 L 4906.30 3112.06 L 4903.35 3112.77 L 4900.39 3113.47 L 4897.43 3114.17 L 4894.48 3114.88 L 4891.52 3115.58 L 4888.56 3116.28 L 4885.61 3116.99 L 4882.65 3117.69 L 4879.70 3118.40 L 4876.74 3119.10 L 4873.78 3119.80 L 4870.83 3120.51 L 4867.87 3121.21 L 4864.92 3121.92 L 4861.96 3122.62 L 4859.00 3123.32 L 4856.05 3124.03 L 4853.20 3125.00 L 4850.49 3126.28 L 4847.90 3127.86 L 4845.32 3129.47 L 4842.75 3131.08 L 4840.17 3132.69 L 4837.59 3134.30 L 4835.02 3135.92 L 4832.44 3137.53 L 4829.86 3139.14 L 4827.28 3140.75 L 4824.71 3142.36 L 4822.13 3143.97 L 4819.55 3145.58 L 4816.98 3147.19 M 4683.00 3101.01 L 4686.00 3101.23 L 4688.99 3101.44 L 4691.99 3101.66 L 4694.99 3101.87 L 4697.99 3102.08 L 4700.98 3102.30 L 4703.98 3102.51 L 4706.98 3102.73 L 4709.98 3102.94 L 4712.97 3103.16 L 4715.97 3103.37 L 4718.97 3103.58 L 4721.97 3103.80 L 4724.96 3104.01 L 4727.96 3104.23 L 4730.96 3104.44 L 4733.96 3104.65 L 4736.96 3104.87 L 4739.95 3105.08 L 4742.95 3105.30 L 4745.86 3105.78 L 4748.61 3106.74 L 4751.20 3108.17 L 4753.73 3109.80 L 4756.26 3111.42 L 4758.78 3113.05 L 4761.31 3114.67 L 4763.84 3116.30 L 4766.37 3117.92 L 4768.90 3119.55 L 4771.42 3121.17 L 4773.95 3122.80 L 4776.48 3124.42 L 4779.01 3126.05 L 4781.54 3127.67 L 4784.06 3129.30 L 4786.59 3130.92 L 4789.12 3132.55 L 4791.65 3134.17 L 4794.18 3135.80 L 4796.70 3137.42 L 4799.23 3139.05 L 4801.76 3140.67 L 4804.29 3142.30 L 4806.82 3143.92 L 4809.34 3145.55 L 4811.87 3147.17 M 3813.77 3000.00 L 3816.35 3000.00 L 3818.92 3000.00 L 3821.50 3000.00 L 3824.07 3000.00 L 3826.65 3000.00 L 3829.22 3000.00 L 3831.80 3000.00 L 3834.37 3000.00 L 3836.94 3000.00 L 3839.52 3000.00 L 3842.09 3000.00 L 3844.67 3000.00 L 3847.24 3000.00 L 3849.82 3000.00 L 3852.39 3000.00 L 3854.96 3000.00 L 3857.54 3000.00 L 3860.11 3000.00 L 3862.69 3000.00 L 3865.26 3000.00 L 3867.84 3000.00 L 3870.41 3000.00 L 3872.99 3000.00 L 3875.56 3000.00 L 3878.10 3000.21 L 3880.62 3000.66 L 3883.09 3001.34 L 3885.57 3002.05 L 3888.05 3002.76 L 3890.52 3003.46 L 3893.00 3004.17 L 3895.47 3004.88 L 3897.95 3005.58 L 3900.42 3006.29 L 3902.90 3007.00 L 3905.37 3007.71 L 3907.85 3008.41 L 3910.28 3009.21 L 3912.57 3010.29 L 3914.72 3011.64 L 3916.78 3013.19 L 3918.84 3014.73 L 3920.90 3016.28 L 3922.96 3017.82 L 3925.02 3019.37 L 3927.08 3020.91 L 3929.14 3022.46 M 3895.63 3144.88 L 3893.66 3145.75 L 3891.69 3146.63 L 3889.72 3147.50 L 3887.75 3148.38 L 3885.78 3149.26 L 3883.81 3150.13 L 3881.83 3151.01 L 3879.86 3151.88 L 3877.89 3152.76 L 3875.92 3153.63 L 3873.95 3154.51 L 3871.98 3155.39 L 3870.01 3156.26 L 3868.04 3157.14 L 3866.07 3158.01 L 3864.10 3158.89 L 3862.13 3159.77 L 3860.16 3160.64 L 3858.19 3161.52 L 3856.21 3162.38 L 3854.19 3163.07 L 3852.11 3163.58 L 3849.98 3163.94 L 3847.85 3164.29 L 3845.72 3164.65 L 3843.60 3165.00 L 3841.47 3165.35 L 3839.34 3165.71 L 3837.22 3166.06 L 3835.09 3166.42 L 3832.96 3166.77 L 3830.83 3167.13 L 3828.71 3167.48 L 3826.58 3167.84 L 3824.45 3168.19 L 3822.33 3168.55 L 3820.20 3168.90 L 3818.07 3169.25 L 3815.94 3169.61 L 3813.82 3169.96 L 3811.69 3170.32 L 3809.56 3170.67 L 3807.44 3171.03 L 3805.31 3171.38 L 3803.18 3171.74 L 3801.05 3172.09 L 3798.93 3172.45 M 4953.60 3100.80 L 4972.80 3100.80" fill='none' stroke='#000000' stroke-opacity='0.5' stroke-width='118.75' stroke-linecap='round' stroke-linejoin='round' stroke-miterlimit='1'/>
</svg>
